M48
; DRILL file {KiCad 9.0.5} date 2025-11-21T14:26:21-0600
; FORMAT={-:-/ absolute / metric / decimal}
; #@! TF.CreationDate,2025-11-21T14:26:21-06:00
; #@! TF.GenerationSoftware,Kicad,Pcbnew,9.0.5
; #@! TF.FileFunction,MixedPlating,1,4
FMAT,2
METRIC
; #@! TA.AperFunction,Plated,PTH,ViaDrill
T1C0.250
; #@! TA.AperFunction,Plated,PTH,ComponentDrill
T2C0.250
; #@! TA.AperFunction,Plated,PTH,ViaDrill
T3C0.350
; #@! TA.AperFunction,Plated,PTH,ViaDrill
T4C0.400
; #@! TA.AperFunction,Plated,PTH,ComponentDrill
T5C0.650
; #@! TA.AperFunction,Plated,PTH,ComponentDrill
T6C0.700
; #@! TA.AperFunction,Plated,PTH,ComponentDrill
T7C0.800
; #@! TA.AperFunction,Plated,PTH,ComponentDrill
T8C1.000
; #@! TA.AperFunction,Plated,PTH,ComponentDrill
T9C1.100
; #@! TA.AperFunction,NonPlated,NPTH,ComponentDrill
T10C0.991
; #@! TA.AperFunction,NonPlated,NPTH,ComponentDrill
T11C1.100
; #@! TA.AperFunction,NonPlated,NPTH,ComponentDrill
T12C3.500
%
G90
G05
T1
X86.14Y-79.25
X89.4Y-90.0
X90.0Y-82.1
X90.7Y-86.9
X90.7Y-88.2
X90.78Y-99.8
X90.8Y-102.2
X90.9Y-81.0
X91.5Y-96.025
X92.275Y-75.075
X93.0Y-91.9
X93.2Y-99.8
X94.1Y-107.275
X94.9Y-82.8
X95.3Y-86.2
X95.3Y-87.5
X95.3Y-88.8
X95.4Y-73.3
X97.3Y-113.2
X97.4Y-110.42
X97.8Y-99.8
X97.9Y-108.8
X98.7Y-76.0
X99.0Y-90.0
X100.8Y-102.3
X100.8Y-107.22
X101.7Y-92.8
X101.7Y-93.4
X101.7Y-97.8
X102.2Y-108.82
X102.3Y-99.8
X102.7Y-114.8
X102.8Y-110.42
X104.1Y-93.05
X104.1Y-93.65
X104.6Y-73.3
X104.8Y-94.7
X105.975Y-100.825
X106.0Y-99.0
X106.8Y-99.8
X108.1Y-115.0
X108.715Y-104.5
X108.8Y-95.2
X109.22Y-99.5
X109.22Y-100.5
X109.95Y-77.45
X111.1Y-89.0
T2
X98.867Y-98.867
X98.867Y-100.0
X98.867Y-101.133
X100.0Y-98.867
X100.0Y-100.0
X100.0Y-101.133
X101.133Y-98.867
X101.133Y-100.0
X101.133Y-101.133
T3
X77.953Y-102.346
X78.0Y-99.5
X80.5Y-90.0
X80.828Y-82.302
X81.0Y-102.0
X83.796Y-102.537
X84.412Y-102.967
X85.0Y-83.1
X85.0Y-90.0
X85.099Y-102.537
X85.426Y-100.918
X85.5Y-91.0
X85.704Y-103.0
X86.5Y-90.0
X90.817Y-95.286
X90.849Y-94.213
X91.656Y-103.407
X92.25Y-100.975
X92.592Y-96.078
X93.2Y-103.054
X93.403Y-101.6
X93.847Y-102.215
X96.136Y-102.867
X102.0Y-77.0
X102.725Y-77.0
X103.0Y-76.275
X104.0Y-78.0
X104.005Y-79.171
X104.016Y-80.433
X104.5Y-109.5
X105.258Y-108.742
X105.501Y-76.167
X108.0Y-77.75
X113.5Y-93.0
X114.0Y-84.5
X116.5Y-88.5
X121.5Y-91.0
X123.0Y-89.5
X124.0Y-91.0
X124.0Y-94.0
X124.0Y-96.5
X124.0Y-99.0
T4
X78.5Y-110.5
X80.5Y-96.0
X80.5Y-97.5
X80.75Y-94.75
X82.284Y-93.257
X88.5Y-101.0
X97.25Y-96.75
X98.25Y-103.75
X103.25Y-96.5
X103.25Y-103.5
X105.996Y-88.5
X106.0Y-87.5
X106.0Y-89.5
X109.286Y-87.463
X116.5Y-84.0
X117.5Y-85.0
X118.5Y-94.5
X118.5Y-96.0
X118.5Y-99.0
X119.5Y-93.0
X120.5Y-92.5
X120.5Y-96.0
X120.5Y-99.0
X121.5Y-82.5
X122.689Y-82.5
X124.0Y-82.5
T7
X115.453Y-73.177
X117.953Y-73.177
T8
X75.385Y-99.15
X75.385Y-101.69
X75.385Y-104.23
X75.385Y-106.77
X75.385Y-109.31
X75.385Y-111.85
X75.46Y-77.22
X75.46Y-79.76
X75.46Y-82.3
X75.46Y-84.84
X75.46Y-87.38
X75.46Y-89.92
X75.46Y-92.46
X75.46Y-95.0
X78.0Y-77.22
X78.0Y-79.76
X78.0Y-82.3
X78.0Y-84.84
X78.0Y-87.38
X78.0Y-89.92
X78.0Y-92.46
X78.0Y-95.0
X82.5Y-106.46
X82.5Y-109.0
X87.0Y-106.46
X87.0Y-109.0
X108.96Y-72.0
X111.5Y-72.0
T9
X116.92Y-97.5
X119.46Y-97.5
X122.0Y-97.5
X123.0Y-84.5
X123.0Y-87.04
X123.5Y-77.5
X123.5Y-80.04
T10
X78.484Y-103.54
X79.5Y-98.46
X80.516Y-103.54
T11
X120.46Y-84.5
X120.46Y-87.04
X120.96Y-77.5
X120.96Y-80.04
T12
X119.46Y-114.16
T5
G00X97.58Y-74.52
M15
G01X97.58Y-74.92
M16
G05
G00X102.42Y-74.52
M15
G01X102.42Y-74.92
M16
G05
T6
G00X97.27Y-71.47
M15
G01X97.27Y-71.97
M16
G05
G00X102.73Y-71.47
M15
G01X102.73Y-71.97
M16
G05
M30
