G04 #@! TF.GenerationSoftware,KiCad,Pcbnew,9.0.5*
G04 #@! TF.CreationDate,2025-11-21T14:26:13-06:00*
G04 #@! TF.ProjectId,ece362snakegamepcb,65636533-3632-4736-9e61-6b6567616d65,REV3*
G04 #@! TF.SameCoordinates,Original*
G04 #@! TF.FileFunction,Soldermask,Top*
G04 #@! TF.FilePolarity,Negative*
%FSLAX46Y46*%
G04 Gerber Fmt 4.6, Leading zero omitted, Abs format (unit mm)*
G04 Created by KiCad (PCBNEW 9.0.5) date 2025-11-21 14:26:13*
%MOMM*%
%LPD*%
G01*
G04 APERTURE LIST*
G04 Aperture macros list*
%AMRoundRect*
0 Rectangle with rounded corners*
0 $1 Rounding radius*
0 $2 $3 $4 $5 $6 $7 $8 $9 X,Y pos of 4 corners*
0 Add a 4 corners polygon primitive as box body*
4,1,4,$2,$3,$4,$5,$6,$7,$8,$9,$2,$3,0*
0 Add four circle primitives for the rounded corners*
1,1,$1+$1,$2,$3*
1,1,$1+$1,$4,$5*
1,1,$1+$1,$6,$7*
1,1,$1+$1,$8,$9*
0 Add four rect primitives between the rounded corners*
20,1,$1+$1,$2,$3,$4,$5,0*
20,1,$1+$1,$4,$5,$6,$7,0*
20,1,$1+$1,$6,$7,$8,$9,0*
20,1,$1+$1,$8,$9,$2,$3,0*%
G04 Aperture macros list end*
%ADD10RoundRect,0.055000X0.335000X-0.055000X0.335000X0.055000X-0.335000X0.055000X-0.335000X-0.055000X0*%
%ADD11RoundRect,0.055000X-0.055000X-0.335000X0.055000X-0.335000X0.055000X0.335000X-0.055000X0.335000X0*%
%ADD12C,0.600000*%
%ADD13R,1.133333X1.133333*%
%ADD14RoundRect,0.375000X-0.375000X0.625000X-0.375000X-0.625000X0.375000X-0.625000X0.375000X0.625000X0*%
%ADD15RoundRect,0.500000X-1.400000X0.500000X-1.400000X-0.500000X1.400000X-0.500000X1.400000X0.500000X0*%
%ADD16R,0.400000X1.650000*%
%ADD17R,1.825000X0.700000*%
%ADD18R,2.000000X1.500000*%
%ADD19R,1.350000X2.000000*%
%ADD20O,1.350000X1.700000*%
%ADD21O,1.100000X1.500000*%
%ADD22R,1.430000X2.500000*%
%ADD23RoundRect,0.250000X-0.250000X-0.475000X0.250000X-0.475000X0.250000X0.475000X-0.250000X0.475000X0*%
%ADD24RoundRect,0.140000X0.140000X0.170000X-0.140000X0.170000X-0.140000X-0.170000X0.140000X-0.170000X0*%
%ADD25RoundRect,0.135000X-0.185000X0.135000X-0.185000X-0.135000X0.185000X-0.135000X0.185000X0.135000X0*%
%ADD26RoundRect,0.150000X-0.650000X-0.150000X0.650000X-0.150000X0.650000X0.150000X-0.650000X0.150000X0*%
%ADD27RoundRect,0.140000X-0.140000X-0.170000X0.140000X-0.170000X0.140000X0.170000X-0.140000X0.170000X0*%
%ADD28RoundRect,0.140000X0.170000X-0.140000X0.170000X0.140000X-0.170000X0.140000X-0.170000X-0.140000X0*%
%ADD29R,1.400000X1.200000*%
%ADD30C,3.500000*%
%ADD31R,1.905000X2.000000*%
%ADD32O,1.905000X2.000000*%
%ADD33R,1.700000X1.700000*%
%ADD34C,1.700000*%
%ADD35C,1.600000*%
%ADD36RoundRect,0.140000X-0.170000X0.140000X-0.170000X-0.140000X0.170000X-0.140000X0.170000X0.140000X0*%
%ADD37R,0.470000X0.530000*%
%ADD38RoundRect,0.250000X0.250000X0.475000X-0.250000X0.475000X-0.250000X-0.475000X0.250000X-0.475000X0*%
%ADD39R,0.650000X1.050000*%
%ADD40C,1.100000*%
%ADD41RoundRect,0.249999X-0.850001X0.850001X-0.850001X-0.850001X0.850001X-0.850001X0.850001X0.850001X0*%
%ADD42C,2.200000*%
%ADD43RoundRect,0.135000X-0.135000X-0.185000X0.135000X-0.185000X0.135000X0.185000X-0.135000X0.185000X0*%
%ADD44RoundRect,0.150000X-0.825000X-0.150000X0.825000X-0.150000X0.825000X0.150000X-0.825000X0.150000X0*%
%ADD45C,0.990600*%
%ADD46C,0.787400*%
%ADD47R,0.700000X1.700000*%
G04 APERTURE END LIST*
D10*
X95103500Y-96200000D03*
X95103500Y-96600000D03*
X95103500Y-97000000D03*
X95103500Y-97400000D03*
X95103500Y-97800000D03*
X95103500Y-98200000D03*
X95103500Y-98600000D03*
X95103500Y-99000000D03*
X95103500Y-99400000D03*
X95103500Y-99800000D03*
X95103500Y-100200000D03*
X95103500Y-100600000D03*
X95103500Y-101000000D03*
X95103500Y-101400000D03*
X95103500Y-101800000D03*
X95103500Y-102200000D03*
X95103500Y-102600000D03*
X95103500Y-103000000D03*
X95103500Y-103400000D03*
X95103500Y-103800000D03*
D11*
X96200000Y-104896500D03*
X96600000Y-104896500D03*
X97000000Y-104896500D03*
X97400000Y-104896500D03*
X97800000Y-104896500D03*
X98200000Y-104896500D03*
X98600000Y-104896500D03*
X99000000Y-104896500D03*
X99400000Y-104896500D03*
X99800000Y-104896500D03*
X100200000Y-104896500D03*
X100600000Y-104896500D03*
X101000000Y-104896500D03*
X101400000Y-104896500D03*
X101800000Y-104896500D03*
X102200000Y-104896500D03*
X102600000Y-104896500D03*
X103000000Y-104896500D03*
X103400000Y-104896500D03*
X103800000Y-104896500D03*
D10*
X104896500Y-103800000D03*
X104896500Y-103400000D03*
X104896500Y-103000000D03*
X104896500Y-102600000D03*
X104896500Y-102200000D03*
X104896500Y-101800000D03*
X104896500Y-101400000D03*
X104896500Y-101000000D03*
X104896500Y-100600000D03*
X104896500Y-100200000D03*
X104896500Y-99800000D03*
X104896500Y-99400000D03*
X104896500Y-99000000D03*
X104896500Y-98600000D03*
X104896500Y-98200000D03*
X104896500Y-97800000D03*
X104896500Y-97400000D03*
X104896500Y-97000000D03*
X104896500Y-96600000D03*
X104896500Y-96200000D03*
D11*
X103800000Y-95103500D03*
X103400000Y-95103500D03*
X103000000Y-95103500D03*
X102600000Y-95103500D03*
X102200000Y-95103500D03*
X101800000Y-95103500D03*
X101400000Y-95103500D03*
X101000000Y-95103500D03*
X100600000Y-95103500D03*
X100200000Y-95103500D03*
X99800000Y-95103500D03*
X99400000Y-95103500D03*
X99000000Y-95103500D03*
X98600000Y-95103500D03*
X98200000Y-95103500D03*
X97800000Y-95103500D03*
X97400000Y-95103500D03*
X97000000Y-95103500D03*
X96600000Y-95103500D03*
X96200000Y-95103500D03*
D12*
X98866667Y-98866667D03*
D13*
X98866667Y-98866667D03*
D12*
X98866667Y-100000000D03*
D13*
X98866667Y-100000000D03*
D12*
X98866667Y-101133333D03*
D13*
X98866667Y-101133333D03*
D12*
X100000000Y-98866667D03*
D13*
X100000000Y-98866667D03*
D12*
X100000000Y-100000000D03*
D13*
X100000000Y-100000000D03*
D12*
X100000000Y-101133333D03*
D13*
X100000000Y-101133333D03*
D12*
X101133333Y-98866667D03*
D13*
X101133333Y-98866667D03*
D12*
X101133333Y-100000000D03*
D13*
X101133333Y-100000000D03*
D12*
X101133333Y-101133333D03*
D13*
X101133333Y-101133333D03*
D14*
X110300000Y-79200000D03*
X108000000Y-79200000D03*
D15*
X108000000Y-85500000D03*
D14*
X105700000Y-79200000D03*
D16*
X101300000Y-74600000D03*
X100650000Y-74600000D03*
X100000000Y-74600000D03*
X99350000Y-74600000D03*
X98700000Y-74600000D03*
D17*
X102950000Y-73400000D03*
D18*
X102850000Y-74700000D03*
D19*
X102730000Y-72650000D03*
D20*
X102730000Y-71720000D03*
D21*
X102420000Y-74720000D03*
D22*
X100960000Y-71450000D03*
X99040000Y-71450000D03*
D21*
X97580000Y-74720000D03*
D20*
X97270000Y-71720000D03*
D19*
X97250000Y-72650000D03*
D18*
X97100000Y-74720000D03*
D17*
X97000000Y-73400000D03*
D23*
X108075000Y-89000000D03*
X109975000Y-89000000D03*
D24*
X92480000Y-102200000D03*
X91520000Y-102200000D03*
X96665000Y-82830000D03*
X95705000Y-82830000D03*
D25*
X92400000Y-81790000D03*
X92400000Y-82810000D03*
D26*
X89400000Y-85295000D03*
X89400000Y-86565000D03*
X89400000Y-87835000D03*
X89400000Y-89105000D03*
X96600000Y-89105000D03*
X96600000Y-87835000D03*
X96600000Y-86565000D03*
X96600000Y-85295000D03*
D27*
X101115000Y-110420000D03*
X102075000Y-110420000D03*
D28*
X99000000Y-91680000D03*
X99000000Y-90720000D03*
D27*
X107525000Y-100500000D03*
X108485000Y-100500000D03*
X107020000Y-104500000D03*
X107980000Y-104500000D03*
D25*
X100000000Y-90690000D03*
X100000000Y-91710000D03*
D23*
X106987500Y-76200000D03*
X108887500Y-76200000D03*
D24*
X92480000Y-97100000D03*
X91520000Y-97100000D03*
X99105000Y-110420000D03*
X98145000Y-110420000D03*
D25*
X101000000Y-90690000D03*
X101000000Y-91710000D03*
D27*
X107020000Y-95700000D03*
X107980000Y-95700000D03*
D25*
X100200000Y-107795000D03*
X100200000Y-108815000D03*
D29*
X98900000Y-114850000D03*
X101100000Y-114850000D03*
X101100000Y-113150000D03*
X98900000Y-113150000D03*
D23*
X84165000Y-78000000D03*
X86065000Y-78000000D03*
D30*
X119460000Y-114160000D03*
D31*
X122000000Y-97500000D03*
D32*
X119460000Y-97500000D03*
X116920000Y-97500000D03*
D33*
X75385000Y-111850000D03*
D34*
X75385000Y-109310000D03*
X75385000Y-106770000D03*
X75385000Y-104230000D03*
X75385000Y-101690000D03*
X75385000Y-99150000D03*
D25*
X105200000Y-91140000D03*
X105200000Y-92160000D03*
X108100000Y-113190000D03*
X108100000Y-114210000D03*
D33*
X111500000Y-72000000D03*
D34*
X108960000Y-72000000D03*
D35*
X115452500Y-73176951D03*
X117952500Y-73176951D03*
D36*
X105200000Y-93020000D03*
X105200000Y-93980000D03*
D37*
X102485000Y-93000000D03*
X103515000Y-93000000D03*
D38*
X116950000Y-93000000D03*
X115050000Y-93000000D03*
D24*
X94680000Y-91900000D03*
X93720000Y-91900000D03*
D23*
X119550000Y-94500000D03*
X121450000Y-94500000D03*
D39*
X92275000Y-73125000D03*
X92275000Y-77275000D03*
X90125000Y-73125000D03*
X90125000Y-77250000D03*
D40*
X120960000Y-77500000D03*
X120960000Y-80040000D03*
D41*
X123500000Y-77500000D03*
D42*
X123500000Y-80040000D03*
D43*
X89490000Y-108000000D03*
X90510000Y-108000000D03*
D25*
X90900000Y-81790000D03*
X90900000Y-82810000D03*
D37*
X102485000Y-93950000D03*
X103515000Y-93950000D03*
D43*
X88090000Y-82800000D03*
X89110000Y-82800000D03*
D24*
X113980000Y-85500000D03*
X113020000Y-85500000D03*
D43*
X88090000Y-81400000D03*
X89110000Y-81400000D03*
D36*
X101400000Y-107820000D03*
X101400000Y-108780000D03*
D24*
X111980000Y-75500000D03*
X111020000Y-75500000D03*
D25*
X114000000Y-88490000D03*
X114000000Y-89510000D03*
D44*
X113275000Y-77819451D03*
X113275000Y-79089451D03*
X113275000Y-80359451D03*
X113275000Y-81629451D03*
X118225000Y-81629451D03*
X118225000Y-80359451D03*
X118225000Y-79089451D03*
X118225000Y-77819451D03*
D45*
X79500000Y-98460000D03*
X80516000Y-103540000D03*
X78484000Y-103540000D03*
D46*
X78865000Y-99730000D03*
X80135000Y-99730000D03*
X78865000Y-101000000D03*
X80135000Y-101000000D03*
X78865000Y-102270000D03*
X80135000Y-102270000D03*
D33*
X87000000Y-109000000D03*
D34*
X87000000Y-106460000D03*
D33*
X82500000Y-109000000D03*
D34*
X82500000Y-106460000D03*
D40*
X120460000Y-84500000D03*
X120460000Y-87040000D03*
D41*
X123000000Y-84500000D03*
D42*
X123000000Y-87040000D03*
D47*
X102300000Y-91350000D03*
X103700000Y-91350000D03*
D24*
X92480000Y-99800000D03*
X91520000Y-99800000D03*
X95780000Y-106700000D03*
X94820000Y-106700000D03*
D39*
X109650000Y-115675000D03*
X109650000Y-111525000D03*
X111800000Y-115675000D03*
X111800000Y-111550000D03*
D33*
X78000000Y-95000000D03*
D34*
X75460000Y-95000000D03*
X78000000Y-92460000D03*
X75460000Y-92460000D03*
X78000000Y-89920000D03*
X75460000Y-89920000D03*
X78000000Y-87380000D03*
X75460000Y-87380000D03*
X78000000Y-84840000D03*
X75460000Y-84840000D03*
X78000000Y-82300000D03*
X75460000Y-82300000D03*
X78000000Y-79760000D03*
X75460000Y-79760000D03*
X78000000Y-77220000D03*
X75460000Y-77220000D03*
D27*
X107520000Y-99500000D03*
X108480000Y-99500000D03*
D43*
X89490000Y-110500000D03*
X90510000Y-110500000D03*
X81990000Y-103000000D03*
X83010000Y-103000000D03*
D36*
X98700000Y-107820000D03*
X98700000Y-108780000D03*
M02*
