G04 #@! TF.GenerationSoftware,KiCad,Pcbnew,9.0.5*
G04 #@! TF.CreationDate,2025-11-21T14:26:13-06:00*
G04 #@! TF.ProjectId,ece362snakegamepcb,65636533-3632-4736-9e61-6b6567616d65,REV3*
G04 #@! TF.SameCoordinates,Original*
G04 #@! TF.FileFunction,Copper,L4,Bot*
G04 #@! TF.FilePolarity,Positive*
%FSLAX46Y46*%
G04 Gerber Fmt 4.6, Leading zero omitted, Abs format (unit mm)*
G04 Created by KiCad (PCBNEW 9.0.5) date 2025-11-21 14:26:13*
%MOMM*%
%LPD*%
G01*
G04 APERTURE LIST*
G04 Aperture macros list*
%AMRoundRect*
0 Rectangle with rounded corners*
0 $1 Rounding radius*
0 $2 $3 $4 $5 $6 $7 $8 $9 X,Y pos of 4 corners*
0 Add a 4 corners polygon primitive as box body*
4,1,4,$2,$3,$4,$5,$6,$7,$8,$9,$2,$3,0*
0 Add four circle primitives for the rounded corners*
1,1,$1+$1,$2,$3*
1,1,$1+$1,$4,$5*
1,1,$1+$1,$6,$7*
1,1,$1+$1,$8,$9*
0 Add four rect primitives between the rounded corners*
20,1,$1+$1,$2,$3,$4,$5,0*
20,1,$1+$1,$4,$5,$6,$7,0*
20,1,$1+$1,$6,$7,$8,$9,0*
20,1,$1+$1,$8,$9,$2,$3,0*%
G04 Aperture macros list end*
G04 #@! TA.AperFunction,ComponentPad*
%ADD10C,0.600000*%
G04 #@! TD*
G04 #@! TA.AperFunction,HeatsinkPad*
%ADD11O,1.350000X1.700000*%
G04 #@! TD*
G04 #@! TA.AperFunction,HeatsinkPad*
%ADD12O,1.100000X1.500000*%
G04 #@! TD*
G04 #@! TA.AperFunction,ComponentPad*
%ADD13R,1.905000X2.000000*%
G04 #@! TD*
G04 #@! TA.AperFunction,ComponentPad*
%ADD14O,1.905000X2.000000*%
G04 #@! TD*
G04 #@! TA.AperFunction,ComponentPad*
%ADD15R,1.700000X1.700000*%
G04 #@! TD*
G04 #@! TA.AperFunction,ComponentPad*
%ADD16C,1.700000*%
G04 #@! TD*
G04 #@! TA.AperFunction,ComponentPad*
%ADD17C,1.600000*%
G04 #@! TD*
G04 #@! TA.AperFunction,ComponentPad*
%ADD18RoundRect,0.249999X-0.850001X0.850001X-0.850001X-0.850001X0.850001X-0.850001X0.850001X0.850001X0*%
G04 #@! TD*
G04 #@! TA.AperFunction,ComponentPad*
%ADD19C,2.200000*%
G04 #@! TD*
G04 #@! TA.AperFunction,SMDPad,CuDef*
%ADD20RoundRect,0.150000X-0.825000X-0.150000X0.825000X-0.150000X0.825000X0.150000X-0.825000X0.150000X0*%
G04 #@! TD*
G04 #@! TA.AperFunction,SMDPad,CuDef*
%ADD21RoundRect,0.135000X-0.135000X-0.185000X0.135000X-0.185000X0.135000X0.185000X-0.135000X0.185000X0*%
G04 #@! TD*
G04 #@! TA.AperFunction,SMDPad,CuDef*
%ADD22RoundRect,0.150000X0.650000X0.150000X-0.650000X0.150000X-0.650000X-0.150000X0.650000X-0.150000X0*%
G04 #@! TD*
G04 #@! TA.AperFunction,SMDPad,CuDef*
%ADD23RoundRect,0.140000X0.140000X0.170000X-0.140000X0.170000X-0.140000X-0.170000X0.140000X-0.170000X0*%
G04 #@! TD*
G04 #@! TA.AperFunction,SMDPad,CuDef*
%ADD24RoundRect,0.135000X-0.185000X0.135000X-0.185000X-0.135000X0.185000X-0.135000X0.185000X0.135000X0*%
G04 #@! TD*
G04 #@! TA.AperFunction,SMDPad,CuDef*
%ADD25RoundRect,0.100000X0.850000X0.100000X-0.850000X0.100000X-0.850000X-0.100000X0.850000X-0.100000X0*%
G04 #@! TD*
G04 #@! TA.AperFunction,SMDPad,CuDef*
%ADD26RoundRect,0.250000X0.250000X0.475000X-0.250000X0.475000X-0.250000X-0.475000X0.250000X-0.475000X0*%
G04 #@! TD*
G04 #@! TA.AperFunction,ViaPad*
%ADD27C,0.600000*%
G04 #@! TD*
G04 #@! TA.AperFunction,ViaPad*
%ADD28C,0.800000*%
G04 #@! TD*
G04 #@! TA.AperFunction,ViaPad*
%ADD29C,1.000000*%
G04 #@! TD*
G04 #@! TA.AperFunction,Conductor*
%ADD30C,0.150000*%
G04 #@! TD*
G04 #@! TA.AperFunction,Conductor*
%ADD31C,0.200000*%
G04 #@! TD*
G04 #@! TA.AperFunction,Conductor*
%ADD32C,0.600000*%
G04 #@! TD*
G04 #@! TA.AperFunction,Conductor*
%ADD33C,0.250000*%
G04 #@! TD*
G04 APERTURE END LIST*
D10*
X98866667Y-98866667D03*
X98866667Y-100000000D03*
X98866667Y-101133333D03*
X100000000Y-98866667D03*
X100000000Y-100000000D03*
X100000000Y-101133333D03*
X101133333Y-98866667D03*
X101133333Y-100000000D03*
X101133333Y-101133333D03*
D11*
X102730000Y-71720000D03*
D12*
X102420000Y-74720000D03*
X97580000Y-74720000D03*
D11*
X97270000Y-71720000D03*
D13*
X122000000Y-97500000D03*
D14*
X119460000Y-97500000D03*
X116920000Y-97500000D03*
D15*
X75385000Y-111850000D03*
D16*
X75385000Y-109310000D03*
X75385000Y-106770000D03*
X75385000Y-104230000D03*
X75385000Y-101690000D03*
X75385000Y-99150000D03*
D15*
X111500000Y-72000000D03*
D16*
X108960000Y-72000000D03*
D17*
X115452500Y-73176951D03*
X117952500Y-73176951D03*
D18*
X123500000Y-77500000D03*
D19*
X123500000Y-80040000D03*
D15*
X87000000Y-109000000D03*
D16*
X87000000Y-106460000D03*
D15*
X82500000Y-109000000D03*
D16*
X82500000Y-106460000D03*
D18*
X123000000Y-84500000D03*
D19*
X123000000Y-87040000D03*
D15*
X78000000Y-95000000D03*
D16*
X75460000Y-95000000D03*
X78000000Y-92460000D03*
X75460000Y-92460000D03*
X78000000Y-89920000D03*
X75460000Y-89920000D03*
X78000000Y-87380000D03*
X75460000Y-87380000D03*
X78000000Y-84840000D03*
X75460000Y-84840000D03*
X78000000Y-82300000D03*
X75460000Y-82300000D03*
X78000000Y-79760000D03*
X75460000Y-79760000D03*
X78000000Y-77220000D03*
X75460000Y-77220000D03*
D20*
X83025000Y-99405000D03*
X83025000Y-98135000D03*
X83025000Y-96865000D03*
X83025000Y-95595000D03*
X87975000Y-95595000D03*
X87975000Y-96865000D03*
X87975000Y-98135000D03*
X87975000Y-99405000D03*
D21*
X83990000Y-94000000D03*
X85010000Y-94000000D03*
D22*
X96600000Y-85295000D03*
X96600000Y-86565000D03*
X96600000Y-87835000D03*
X96600000Y-89105000D03*
X89400000Y-89105000D03*
X89400000Y-87835000D03*
X89400000Y-86565000D03*
X89400000Y-85295000D03*
D21*
X83990000Y-92500000D03*
X85010000Y-92500000D03*
D23*
X115980000Y-85000000D03*
X115020000Y-85000000D03*
D24*
X93100000Y-81080000D03*
X93100000Y-82100000D03*
D21*
X90790000Y-82100000D03*
X91810000Y-82100000D03*
D23*
X89080000Y-82100000D03*
X88120000Y-82100000D03*
D25*
X118500000Y-78050000D03*
X118500000Y-78700000D03*
X118500000Y-79350000D03*
X118500000Y-80000000D03*
X118500000Y-80650000D03*
X118500000Y-81300000D03*
X118500000Y-81950000D03*
X111500000Y-81950000D03*
X111500000Y-81300000D03*
X111500000Y-80650000D03*
X111500000Y-80000000D03*
X111500000Y-79350000D03*
X111500000Y-78700000D03*
X111500000Y-78050000D03*
D26*
X117450000Y-87000000D03*
X115550000Y-87000000D03*
D23*
X86980000Y-102000000D03*
X86020000Y-102000000D03*
D27*
X108000000Y-77750000D03*
X92592130Y-96077754D03*
D28*
X97250000Y-96750000D03*
X103250000Y-96500000D03*
X103250000Y-103500000D03*
X98250000Y-103750000D03*
D27*
X96136125Y-102866714D03*
X91656239Y-103407208D03*
X93199731Y-103054214D03*
X78000000Y-99500000D03*
X81000000Y-102000000D03*
X85426495Y-100917714D03*
X92250000Y-100974691D03*
X85000000Y-90000000D03*
X86500000Y-90000000D03*
X85500000Y-91000000D03*
X83795744Y-102536975D03*
X84412441Y-102967499D03*
X85098953Y-102536975D03*
X93846662Y-102214804D03*
X93402908Y-101600498D03*
X85704015Y-103000000D03*
X80500000Y-90000000D03*
X80828208Y-82301548D03*
X102700000Y-114800000D03*
X97300000Y-113200000D03*
X97900000Y-108800000D03*
X124000000Y-99000000D03*
X124000000Y-91000000D03*
D28*
X124000000Y-82500000D03*
X121500000Y-82500000D03*
X122688628Y-82500000D03*
D27*
X77953156Y-102346151D03*
X123000000Y-89500000D03*
D29*
X113500000Y-93000000D03*
D27*
X108100000Y-115000000D03*
D28*
X80500000Y-97500000D03*
D27*
X94900000Y-82800000D03*
X94100000Y-107275500D03*
X109950000Y-77450000D03*
X99000000Y-90000000D03*
X121500000Y-91000000D03*
X102200000Y-108820000D03*
X104100000Y-93650000D03*
X86140000Y-79250000D03*
X124000000Y-96500000D03*
X89400000Y-90000000D03*
X124000000Y-94000000D03*
X90780000Y-99800000D03*
X111100000Y-89000000D03*
X102800000Y-110420000D03*
X108715000Y-104500000D03*
X109220000Y-100500000D03*
X104100000Y-93050000D03*
X98700000Y-76000000D03*
X108800000Y-95200000D03*
X109220000Y-99500000D03*
X91500000Y-96025000D03*
X97400000Y-110420000D03*
X116500000Y-88500000D03*
X90800000Y-102200000D03*
X93000000Y-91900000D03*
X104800000Y-94700000D03*
X92275000Y-75075000D03*
D28*
X119500000Y-93000000D03*
X118500000Y-99000000D03*
X120500000Y-99000000D03*
X120500000Y-92500000D03*
X104000000Y-78000000D03*
X104016196Y-80432998D03*
X118500000Y-94500000D03*
D27*
X103000000Y-76274997D03*
X102000000Y-77000000D03*
D28*
X104005029Y-79171127D03*
X118500000Y-96000000D03*
X120500000Y-96000000D03*
D27*
X102725003Y-77000000D03*
D28*
X116500000Y-84000000D03*
D27*
X105501407Y-76167205D03*
X95400000Y-73300000D03*
X90000000Y-82100000D03*
D28*
X88500000Y-101000000D03*
X109285963Y-87463160D03*
X78500000Y-110500000D03*
X106000000Y-87500000D03*
X106000000Y-89500000D03*
D27*
X104600000Y-73300000D03*
D28*
X82284057Y-93256598D03*
X105996398Y-88500411D03*
D27*
X101700000Y-97800000D03*
X106800000Y-99800000D03*
X101700000Y-93400000D03*
X100800000Y-102300000D03*
X97800000Y-99800000D03*
X100800000Y-107220000D03*
X93200000Y-99800000D03*
X102300000Y-99800000D03*
X101700000Y-92800000D03*
X90816879Y-95286468D03*
X90848641Y-94212929D03*
X85000000Y-83100000D03*
X90900000Y-81000000D03*
X105258265Y-108741734D03*
D28*
X80500000Y-96000000D03*
X80750000Y-94750000D03*
D27*
X104500000Y-109500000D03*
X95300000Y-86200000D03*
X95300000Y-87500000D03*
X95300000Y-88800000D03*
X90700000Y-88200000D03*
X90700000Y-86900000D03*
X106000000Y-99000000D03*
X105975000Y-100825000D03*
X114000000Y-84500000D03*
D28*
X117500000Y-85000000D03*
D30*
X98105000Y-89105000D02*
X99000000Y-90000000D01*
X96600000Y-89105000D02*
X98105000Y-89105000D01*
X83648000Y-91352000D02*
X82145128Y-91352000D01*
X78497128Y-95000000D02*
X78000000Y-95000000D01*
X85000000Y-90000000D02*
X83648000Y-91352000D01*
X82145128Y-91352000D02*
X78497128Y-95000000D01*
X84201065Y-103500000D02*
X83795744Y-103094679D01*
X84500000Y-103500000D02*
X84201065Y-103500000D01*
X85128000Y-104128000D02*
X84500000Y-103500000D01*
X86775000Y-104128000D02*
X85128000Y-104128000D01*
X83795744Y-103094679D02*
X83795744Y-102536975D01*
X87000000Y-103903000D02*
X86775000Y-104128000D01*
X90375322Y-103903000D02*
X87000000Y-103903000D01*
X91125322Y-104653000D02*
X90375322Y-103903000D01*
X92165140Y-104653000D02*
X91125322Y-104653000D01*
X92801000Y-104017140D02*
X92165140Y-104653000D01*
X93000000Y-103983070D02*
X92965930Y-104017140D01*
X93000000Y-103577241D02*
X93000000Y-103983070D01*
X93199731Y-103377510D02*
X93000000Y-103577241D01*
X92965930Y-104017140D02*
X92801000Y-104017140D01*
X93199731Y-103054214D02*
X93199731Y-103377510D01*
X85271942Y-103827000D02*
X84412441Y-102967499D01*
X86399678Y-103827000D02*
X85271942Y-103827000D01*
X86624678Y-103602000D02*
X86399678Y-103827000D01*
X90500000Y-103602000D02*
X86624678Y-103602000D01*
X91250000Y-104352000D02*
X90500000Y-103602000D01*
X92040462Y-104352000D02*
X91250000Y-104352000D01*
X92528079Y-103864383D02*
X92040462Y-104352000D01*
X92528079Y-102897600D02*
X92528079Y-103864383D01*
X93103084Y-102326000D02*
X93099679Y-102326000D01*
X93179084Y-102250000D02*
X93103084Y-102326000D01*
X93282123Y-102250000D02*
X93179084Y-102250000D01*
X93099679Y-102326000D02*
X92528079Y-102897600D01*
X93846662Y-102214804D02*
X93317319Y-102214804D01*
X93317319Y-102214804D02*
X93282123Y-102250000D01*
X91359820Y-103000000D02*
X85704015Y-103000000D01*
X91656239Y-103296419D02*
X91359820Y-103000000D01*
X91656239Y-103407208D02*
X91656239Y-103296419D01*
X85098953Y-103138815D02*
X85098953Y-102536975D01*
X85486138Y-103526000D02*
X85098953Y-103138815D01*
X86275000Y-103526000D02*
X85486138Y-103526000D01*
X86500000Y-103301000D02*
X86275000Y-103526000D01*
X91000000Y-103301000D02*
X86500000Y-103301000D01*
X91000000Y-103570970D02*
X91000000Y-103301000D01*
X91915784Y-104051000D02*
X91480030Y-104051000D01*
X92223907Y-103742877D02*
X91915784Y-104051000D01*
X92223907Y-103223907D02*
X92223907Y-103742877D01*
X92975000Y-102025000D02*
X92000000Y-103000000D01*
X93402908Y-101600498D02*
X92978406Y-102025000D01*
X92978406Y-102025000D02*
X92975000Y-102025000D01*
X92000000Y-103000000D02*
X92223907Y-103223907D01*
X91480030Y-104051000D02*
X91000000Y-103570970D01*
X86000000Y-100344209D02*
X85426495Y-100917714D01*
X88959902Y-98879000D02*
X86990098Y-98879000D01*
X86000000Y-99869098D02*
X86000000Y-100344209D01*
X92250000Y-100974691D02*
X91055593Y-100974691D01*
X86990098Y-98879000D02*
X86000000Y-99869098D01*
X91055593Y-100974691D02*
X88959902Y-98879000D01*
X79874000Y-95374000D02*
X80500000Y-96000000D01*
X79874000Y-94467176D02*
X79874000Y-95374000D01*
X81357057Y-92984119D02*
X79874000Y-94467176D01*
X81357057Y-92872622D02*
X81357057Y-92984119D01*
X81900081Y-92329598D02*
X81357057Y-92872622D01*
X82011578Y-92329598D02*
X81900081Y-92329598D01*
X82688176Y-91653000D02*
X82011578Y-92329598D01*
X107627000Y-95127000D02*
X104774000Y-92274000D01*
X95518089Y-92274000D02*
X92798678Y-94993411D01*
X92798678Y-94993411D02*
X89458267Y-91653000D01*
X89458267Y-91653000D02*
X82688176Y-91653000D01*
X104774000Y-92274000D02*
X95518089Y-92274000D01*
X107627000Y-106373000D02*
X107627000Y-95127000D01*
X105258265Y-108741734D02*
X107627000Y-106373000D01*
X104474000Y-108526000D02*
X104474000Y-109474000D01*
X107326000Y-99440702D02*
X107326000Y-105674000D01*
X106259298Y-98374000D02*
X107326000Y-99440702D01*
X101384333Y-98374000D02*
X106259298Y-98374000D01*
X107326000Y-105674000D02*
X104474000Y-108526000D01*
X98304744Y-95294411D02*
X101384333Y-98374000D01*
X92674000Y-95294411D02*
X98304744Y-95294411D01*
X82369402Y-92630598D02*
X83046000Y-91954000D01*
X83046000Y-91954000D02*
X89333589Y-91954000D01*
X81658057Y-92997300D02*
X82024759Y-92630598D01*
X80500000Y-94500000D02*
X81658057Y-93341943D01*
X104474000Y-109474000D02*
X104500000Y-109500000D01*
X89333589Y-91954000D02*
X92674000Y-95294411D01*
X80750000Y-94750000D02*
X80500000Y-94500000D01*
X81658057Y-93341943D02*
X81658057Y-92997300D01*
X82024759Y-92630598D02*
X82369402Y-92630598D01*
X76155000Y-105000000D02*
X75655000Y-104500000D01*
X93055433Y-105000000D02*
X76155000Y-105000000D01*
X97555433Y-100500000D02*
X93055433Y-105000000D01*
X98027717Y-100500000D02*
X97555433Y-100500000D01*
X98340667Y-100187050D02*
X98027717Y-100500000D01*
X99107333Y-99392667D02*
X99026000Y-99474000D01*
X98648790Y-99474000D02*
X98340667Y-99782123D01*
X101351210Y-99392667D02*
X99107333Y-99392667D01*
X98340667Y-99782123D02*
X98340667Y-100187050D01*
X101743877Y-99000000D02*
X101351210Y-99392667D01*
X99026000Y-99474000D02*
X98648790Y-99474000D01*
X106000000Y-99000000D02*
X101743877Y-99000000D01*
X84474000Y-80916000D02*
X86140000Y-79250000D01*
X84474000Y-83317877D02*
X84474000Y-80916000D01*
X86594000Y-83626000D02*
X84782123Y-83626000D01*
X88120000Y-82100000D02*
X86594000Y-83626000D01*
X84782123Y-83626000D02*
X84474000Y-83317877D01*
X78500000Y-99500000D02*
X78000000Y-99500000D01*
X81000000Y-102000000D02*
X78500000Y-99500000D01*
X79975275Y-92460000D02*
X78000000Y-92460000D01*
X80000000Y-92484725D02*
X79975275Y-92460000D01*
X80161047Y-92484725D02*
X80000000Y-92484725D01*
X81946772Y-90699000D02*
X80161047Y-92484725D01*
X83375322Y-90699000D02*
X81946772Y-90699000D01*
X84000000Y-90074322D02*
X83375322Y-90699000D01*
X84000000Y-89830445D02*
X84000000Y-90074322D01*
X84657445Y-89173000D02*
X84000000Y-89830445D01*
X85673000Y-89173000D02*
X84657445Y-89173000D01*
X86500000Y-90000000D02*
X85673000Y-89173000D01*
X76740672Y-93719328D02*
X75460000Y-95000000D01*
X79352122Y-93719328D02*
X76740672Y-93719328D01*
X79636179Y-93435271D02*
X79352122Y-93719328D01*
X79967526Y-92785725D02*
X79636179Y-93117072D01*
X80285725Y-92785725D02*
X79967526Y-92785725D01*
X82071450Y-91000000D02*
X80285725Y-92785725D01*
X84474000Y-89782123D02*
X84474000Y-90026000D01*
X84474000Y-90026000D02*
X83500000Y-91000000D01*
X79636179Y-93117072D02*
X79636179Y-93435271D01*
X84782123Y-89474000D02*
X84474000Y-89782123D01*
X83500000Y-91000000D02*
X82071450Y-91000000D01*
X85526000Y-89782123D02*
X85217877Y-89474000D01*
X85217877Y-89474000D02*
X84782123Y-89474000D01*
X85500000Y-91000000D02*
X85526000Y-90974000D01*
X85526000Y-90974000D02*
X85526000Y-89782123D01*
X89750000Y-98135000D02*
X87975000Y-98135000D01*
X91500000Y-96025000D02*
X91500000Y-96385000D01*
X91500000Y-96385000D02*
X89750000Y-98135000D01*
X80828208Y-89671792D02*
X80500000Y-90000000D01*
X80828208Y-82301548D02*
X80828208Y-89671792D01*
D31*
X110550001Y-80000000D02*
X111500000Y-80000000D01*
D30*
X116500000Y-86480000D02*
X116500000Y-88500000D01*
X81905000Y-95595000D02*
X80500000Y-97000000D01*
X75385000Y-101690000D02*
X75385000Y-101152500D01*
X79037500Y-97500000D02*
X80500000Y-97500000D01*
X81905000Y-99405000D02*
X80500000Y-98000000D01*
X75385000Y-99150000D02*
X77035000Y-97500000D01*
X83025000Y-99405000D02*
X81905000Y-99405000D01*
D31*
X109950000Y-79399999D02*
X110550001Y-80000000D01*
D30*
X81135000Y-96865000D02*
X80500000Y-97500000D01*
X77035000Y-97500000D02*
X80500000Y-97500000D01*
X115020000Y-85000000D02*
X116500000Y-86480000D01*
D31*
X109950000Y-77450000D02*
X109950000Y-79399999D01*
D30*
X80500000Y-98000000D02*
X80500000Y-97500000D01*
X83025000Y-98135000D02*
X81135000Y-98135000D01*
X80500000Y-97000000D02*
X80500000Y-97500000D01*
X83025000Y-95595000D02*
X81905000Y-95595000D01*
X83025000Y-96865000D02*
X81135000Y-96865000D01*
X86020000Y-102000000D02*
X82000000Y-102000000D01*
X81135000Y-98135000D02*
X80500000Y-97500000D01*
X75385000Y-101152500D02*
X79037500Y-97500000D01*
X80500000Y-100500000D02*
X80500000Y-97500000D01*
X82000000Y-102000000D02*
X80500000Y-100500000D01*
X117550001Y-80000000D02*
X118500000Y-80000000D01*
X116500000Y-81050001D02*
X117550001Y-80000000D01*
X115980000Y-83520000D02*
X115980000Y-85000000D01*
X116500000Y-84000000D02*
X116500000Y-83000000D01*
X116500000Y-83000000D02*
X115980000Y-83520000D01*
X116500000Y-83000000D02*
X116500000Y-81050001D01*
X86980000Y-102000000D02*
X86980000Y-101450000D01*
X76575000Y-110500000D02*
X78500000Y-110500000D01*
X87975000Y-99405000D02*
X88500000Y-99930000D01*
X89080000Y-82780000D02*
X89400000Y-83100000D01*
X89080000Y-82100000D02*
X90000000Y-82100000D01*
X83027459Y-94000000D02*
X82284057Y-93256598D01*
X89080000Y-82100000D02*
X89080000Y-82780000D01*
X77150000Y-111850000D02*
X78500000Y-110500000D01*
X83040655Y-92500000D02*
X82284057Y-93256598D01*
D32*
X104600000Y-73300000D02*
X95400000Y-73300000D01*
D30*
X83990000Y-92500000D02*
X83040655Y-92500000D01*
X83990000Y-94000000D02*
X83027459Y-94000000D01*
X86980000Y-101450000D02*
X88500000Y-99930000D01*
X75385000Y-109310000D02*
X76575000Y-110500000D01*
X75385000Y-111850000D02*
X77150000Y-111850000D01*
X89400000Y-83100000D02*
X89400000Y-85295000D01*
X88500000Y-99930000D02*
X88500000Y-101000000D01*
X90790000Y-82100000D02*
X90000000Y-82100000D01*
D32*
X97800000Y-99800000D02*
X93200000Y-99800000D01*
X100800000Y-102300000D02*
X100800000Y-107220000D01*
X102396640Y-99896640D02*
X106703360Y-99896640D01*
X101700000Y-92800000D02*
X101700000Y-97800000D01*
X102300000Y-99800000D02*
X102396640Y-99896640D01*
X106703360Y-99896640D02*
X106800000Y-99800000D01*
D30*
X89238347Y-96865000D02*
X87975000Y-96865000D01*
X90816879Y-95286468D02*
X89238347Y-96865000D01*
X87040726Y-96865000D02*
X84514000Y-94338274D01*
X84514000Y-92996000D02*
X85010000Y-92500000D01*
X87975000Y-96865000D02*
X87040726Y-96865000D01*
X84514000Y-94338274D02*
X84514000Y-92996000D01*
X87975000Y-95595000D02*
X86605000Y-95595000D01*
X86605000Y-95595000D02*
X85010000Y-94000000D01*
X89787071Y-94212929D02*
X88405000Y-95595000D01*
X88405000Y-95595000D02*
X87975000Y-95595000D01*
X90848641Y-94212929D02*
X89787071Y-94212929D01*
X90900000Y-81000000D02*
X87100000Y-81000000D01*
X90900000Y-81000000D02*
X93020000Y-81000000D01*
X93020000Y-81000000D02*
X93100000Y-81080000D01*
X87100000Y-81000000D02*
X85000000Y-83100000D01*
X90300000Y-86200000D02*
X89935000Y-86565000D01*
X89935000Y-86565000D02*
X89400000Y-86565000D01*
X95300000Y-86200000D02*
X90300000Y-86200000D01*
X90300000Y-87500000D02*
X89965000Y-87835000D01*
X95300000Y-87500000D02*
X90300000Y-87500000D01*
X89965000Y-87835000D02*
X89400000Y-87835000D01*
X94995000Y-89105000D02*
X89400000Y-89105000D01*
X95300000Y-88800000D02*
X94995000Y-89105000D01*
X90725000Y-88225000D02*
X95692500Y-88225000D01*
X95692500Y-88225000D02*
X96082500Y-87835000D01*
X90700000Y-88200000D02*
X90725000Y-88225000D01*
X96082500Y-87835000D02*
X96600000Y-87835000D01*
X90700000Y-86900000D02*
X95700000Y-86900000D01*
X96565000Y-86600000D02*
X96600000Y-86565000D01*
X95700000Y-86900000D02*
X96000000Y-86600000D01*
X96000000Y-86600000D02*
X96565000Y-86600000D01*
D33*
X75655000Y-104500000D02*
X75385000Y-104230000D01*
X76270000Y-106770000D02*
X75385000Y-106770000D01*
X94631623Y-106000000D02*
X93000000Y-106000000D01*
X98908909Y-101722714D02*
X94631623Y-106000000D01*
X93000000Y-106000000D02*
X88157583Y-110842417D01*
X105077286Y-101722714D02*
X98908909Y-101722714D01*
X105975000Y-100825000D02*
X105077286Y-101722714D01*
X80342417Y-110842417D02*
X76270000Y-106770000D01*
X88157583Y-110842417D02*
X80342417Y-110842417D01*
D30*
X93100000Y-82100000D02*
X93100000Y-84500000D01*
X93100000Y-82100000D02*
X91810000Y-82100000D01*
X93100000Y-84500000D02*
X93895000Y-85295000D01*
X93895000Y-85295000D02*
X96600000Y-85295000D01*
X114000000Y-84500000D02*
X114000000Y-83086196D01*
X117736196Y-79350000D02*
X118500000Y-79350000D01*
X114000000Y-83086196D02*
X117736196Y-79350000D01*
X118500000Y-78050000D02*
X118386196Y-78050000D01*
X118386196Y-78050000D02*
X113474000Y-82962196D01*
X113474000Y-84924000D02*
X115550000Y-87000000D01*
X113474000Y-82962196D02*
X113474000Y-84924000D01*
X118500000Y-78700000D02*
X118500000Y-78050000D01*
X117450000Y-87000000D02*
X117450000Y-85050000D01*
X117450000Y-85050000D02*
X117500000Y-85000000D01*
M02*
