G04 #@! TF.GenerationSoftware,KiCad,Pcbnew,9.0.5*
G04 #@! TF.CreationDate,2025-11-21T14:26:13-06:00*
G04 #@! TF.ProjectId,ece362snakegamepcb,65636533-3632-4736-9e61-6b6567616d65,REV3*
G04 #@! TF.SameCoordinates,Original*
G04 #@! TF.FileFunction,Copper,L2,Inr*
G04 #@! TF.FilePolarity,Positive*
%FSLAX46Y46*%
G04 Gerber Fmt 4.6, Leading zero omitted, Abs format (unit mm)*
G04 Created by KiCad (PCBNEW 9.0.5) date 2025-11-21 14:26:13*
%MOMM*%
%LPD*%
G01*
G04 APERTURE LIST*
G04 Aperture macros list*
%AMRoundRect*
0 Rectangle with rounded corners*
0 $1 Rounding radius*
0 $2 $3 $4 $5 $6 $7 $8 $9 X,Y pos of 4 corners*
0 Add a 4 corners polygon primitive as box body*
4,1,4,$2,$3,$4,$5,$6,$7,$8,$9,$2,$3,0*
0 Add four circle primitives for the rounded corners*
1,1,$1+$1,$2,$3*
1,1,$1+$1,$4,$5*
1,1,$1+$1,$6,$7*
1,1,$1+$1,$8,$9*
0 Add four rect primitives between the rounded corners*
20,1,$1+$1,$2,$3,$4,$5,0*
20,1,$1+$1,$4,$5,$6,$7,0*
20,1,$1+$1,$6,$7,$8,$9,0*
20,1,$1+$1,$8,$9,$2,$3,0*%
G04 Aperture macros list end*
G04 #@! TA.AperFunction,ComponentPad*
%ADD10C,0.600000*%
G04 #@! TD*
G04 #@! TA.AperFunction,HeatsinkPad*
%ADD11O,1.350000X1.700000*%
G04 #@! TD*
G04 #@! TA.AperFunction,HeatsinkPad*
%ADD12O,1.100000X1.500000*%
G04 #@! TD*
G04 #@! TA.AperFunction,ComponentPad*
%ADD13R,1.905000X2.000000*%
G04 #@! TD*
G04 #@! TA.AperFunction,ComponentPad*
%ADD14O,1.905000X2.000000*%
G04 #@! TD*
G04 #@! TA.AperFunction,ComponentPad*
%ADD15R,1.700000X1.700000*%
G04 #@! TD*
G04 #@! TA.AperFunction,ComponentPad*
%ADD16C,1.700000*%
G04 #@! TD*
G04 #@! TA.AperFunction,ComponentPad*
%ADD17C,1.600000*%
G04 #@! TD*
G04 #@! TA.AperFunction,ComponentPad*
%ADD18RoundRect,0.249999X-0.850001X0.850001X-0.850001X-0.850001X0.850001X-0.850001X0.850001X0.850001X0*%
G04 #@! TD*
G04 #@! TA.AperFunction,ComponentPad*
%ADD19C,2.200000*%
G04 #@! TD*
G04 #@! TA.AperFunction,ViaPad*
%ADD20C,0.600000*%
G04 #@! TD*
G04 #@! TA.AperFunction,ViaPad*
%ADD21C,0.800000*%
G04 #@! TD*
G04 #@! TA.AperFunction,ViaPad*
%ADD22C,1.000000*%
G04 #@! TD*
G04 APERTURE END LIST*
D10*
X98866667Y-98866667D03*
X98866667Y-100000000D03*
X98866667Y-101133333D03*
X100000000Y-98866667D03*
X100000000Y-100000000D03*
X100000000Y-101133333D03*
X101133333Y-98866667D03*
X101133333Y-100000000D03*
X101133333Y-101133333D03*
D11*
X102730000Y-71720000D03*
D12*
X102420000Y-74720000D03*
X97580000Y-74720000D03*
D11*
X97270000Y-71720000D03*
D13*
X122000000Y-97500000D03*
D14*
X119460000Y-97500000D03*
X116920000Y-97500000D03*
D15*
X75385000Y-111850000D03*
D16*
X75385000Y-109310000D03*
X75385000Y-106770000D03*
X75385000Y-104230000D03*
X75385000Y-101690000D03*
X75385000Y-99150000D03*
D15*
X111500000Y-72000000D03*
D16*
X108960000Y-72000000D03*
D17*
X115452500Y-73176951D03*
X117952500Y-73176951D03*
D18*
X123500000Y-77500000D03*
D19*
X123500000Y-80040000D03*
D15*
X87000000Y-109000000D03*
D16*
X87000000Y-106460000D03*
D15*
X82500000Y-109000000D03*
D16*
X82500000Y-106460000D03*
D18*
X123000000Y-84500000D03*
D19*
X123000000Y-87040000D03*
D15*
X78000000Y-95000000D03*
D16*
X75460000Y-95000000D03*
X78000000Y-92460000D03*
X75460000Y-92460000D03*
X78000000Y-89920000D03*
X75460000Y-89920000D03*
X78000000Y-87380000D03*
X75460000Y-87380000D03*
X78000000Y-84840000D03*
X75460000Y-84840000D03*
X78000000Y-82300000D03*
X75460000Y-82300000D03*
X78000000Y-79760000D03*
X75460000Y-79760000D03*
X78000000Y-77220000D03*
X75460000Y-77220000D03*
D20*
X108000000Y-77750000D03*
X92592130Y-96077754D03*
D21*
X97250000Y-96750000D03*
X103250000Y-96500000D03*
X103250000Y-103500000D03*
X98250000Y-103750000D03*
D20*
X96136125Y-102866714D03*
X91656239Y-103407208D03*
X93199731Y-103054214D03*
X78000000Y-99500000D03*
X81000000Y-102000000D03*
X85426495Y-100917714D03*
X92250000Y-100974691D03*
X85000000Y-90000000D03*
X86500000Y-90000000D03*
X85500000Y-91000000D03*
X83795744Y-102536975D03*
X84412441Y-102967499D03*
X85098953Y-102536975D03*
X93846662Y-102214804D03*
X93402908Y-101600498D03*
X85704015Y-103000000D03*
X80500000Y-90000000D03*
X80828208Y-82301548D03*
X102700000Y-114800000D03*
X97300000Y-113200000D03*
X97900000Y-108800000D03*
X124000000Y-99000000D03*
X124000000Y-91000000D03*
D21*
X124000000Y-82500000D03*
X121500000Y-82500000D03*
X122688628Y-82500000D03*
D20*
X77953156Y-102346151D03*
X123000000Y-89500000D03*
D22*
X113500000Y-93000000D03*
D20*
X108100000Y-115000000D03*
D21*
X80500000Y-97500000D03*
D20*
X94900000Y-82800000D03*
X94100000Y-107275500D03*
X109950000Y-77450000D03*
X99000000Y-90000000D03*
X121500000Y-91000000D03*
X102200000Y-108820000D03*
X104100000Y-93650000D03*
X86140000Y-79250000D03*
X124000000Y-96500000D03*
X89400000Y-90000000D03*
X124000000Y-94000000D03*
X90780000Y-99800000D03*
X111100000Y-89000000D03*
X102800000Y-110420000D03*
X108715000Y-104500000D03*
X109220000Y-100500000D03*
X104100000Y-93050000D03*
X98700000Y-76000000D03*
X108800000Y-95200000D03*
X109220000Y-99500000D03*
X91500000Y-96025000D03*
X97400000Y-110420000D03*
X116500000Y-88500000D03*
X90800000Y-102200000D03*
X93000000Y-91900000D03*
X104800000Y-94700000D03*
X92275000Y-75075000D03*
D21*
X119500000Y-93000000D03*
X118500000Y-99000000D03*
X120500000Y-99000000D03*
X120500000Y-92500000D03*
X104000000Y-78000000D03*
X104016196Y-80432998D03*
X118500000Y-94500000D03*
D20*
X103000000Y-76274997D03*
X102000000Y-77000000D03*
D21*
X104005029Y-79171127D03*
X118500000Y-96000000D03*
X120500000Y-96000000D03*
D20*
X102725003Y-77000000D03*
D21*
X116500000Y-84000000D03*
D20*
X105501407Y-76167205D03*
X95400000Y-73300000D03*
X90000000Y-82100000D03*
D21*
X88500000Y-101000000D03*
X109285963Y-87463160D03*
X78500000Y-110500000D03*
X106000000Y-87500000D03*
X106000000Y-89500000D03*
D20*
X104600000Y-73300000D03*
D21*
X82284057Y-93256598D03*
X105996398Y-88500411D03*
D20*
X101700000Y-97800000D03*
X106800000Y-99800000D03*
X101700000Y-93400000D03*
X100800000Y-102300000D03*
X97800000Y-99800000D03*
X100800000Y-107220000D03*
X93200000Y-99800000D03*
X102300000Y-99800000D03*
X101700000Y-92800000D03*
X90816879Y-95286468D03*
X90848641Y-94212929D03*
X85000000Y-83100000D03*
X90900000Y-81000000D03*
X105258265Y-108741734D03*
D21*
X80500000Y-96000000D03*
X80750000Y-94750000D03*
D20*
X104500000Y-109500000D03*
X95300000Y-86200000D03*
X95300000Y-87500000D03*
X95300000Y-88800000D03*
X90700000Y-88200000D03*
X90700000Y-86900000D03*
X106000000Y-99000000D03*
X105975000Y-100825000D03*
X114000000Y-84500000D03*
D21*
X117500000Y-85000000D03*
G04 #@! TA.AperFunction,Conductor*
G36*
X76953143Y-69299539D02*
G01*
X76960435Y-69300499D01*
X76960438Y-69300500D01*
X124452405Y-69300500D01*
X124496519Y-69300500D01*
X124503472Y-69300695D01*
X124795306Y-69317084D01*
X124809103Y-69318638D01*
X125093827Y-69367015D01*
X125107384Y-69370109D01*
X125384899Y-69450060D01*
X125398025Y-69454653D01*
X125664841Y-69565172D01*
X125677355Y-69571198D01*
X125843444Y-69662992D01*
X125930125Y-69710899D01*
X125941899Y-69718297D01*
X126177430Y-69885415D01*
X126188302Y-69894085D01*
X126398805Y-70082202D01*
X126403642Y-70086524D01*
X126413475Y-70096357D01*
X126605914Y-70311697D01*
X126614584Y-70322569D01*
X126781702Y-70558100D01*
X126789100Y-70569874D01*
X126928797Y-70822637D01*
X126934830Y-70835165D01*
X127045346Y-71101975D01*
X127049939Y-71115100D01*
X127129890Y-71392615D01*
X127132984Y-71406172D01*
X127181359Y-71690885D01*
X127182916Y-71704703D01*
X127189768Y-71826707D01*
X127198796Y-71987473D01*
X127199305Y-71996527D01*
X127199500Y-72003480D01*
X127199500Y-119996519D01*
X127199305Y-120003472D01*
X127182916Y-120295296D01*
X127181359Y-120309114D01*
X127132984Y-120593827D01*
X127129890Y-120607384D01*
X127049939Y-120884899D01*
X127045346Y-120898024D01*
X126934830Y-121164834D01*
X126928797Y-121177362D01*
X126789100Y-121430125D01*
X126781702Y-121441899D01*
X126614584Y-121677430D01*
X126605914Y-121688302D01*
X126413475Y-121903642D01*
X126403642Y-121913475D01*
X126188302Y-122105914D01*
X126177430Y-122114584D01*
X125941899Y-122281702D01*
X125930125Y-122289100D01*
X125677362Y-122428797D01*
X125664834Y-122434830D01*
X125398024Y-122545346D01*
X125384899Y-122549939D01*
X125107384Y-122629890D01*
X125093827Y-122632984D01*
X124809114Y-122681359D01*
X124795296Y-122682916D01*
X124503472Y-122699305D01*
X124496519Y-122699500D01*
X77003481Y-122699500D01*
X76996528Y-122699305D01*
X76704703Y-122682916D01*
X76690885Y-122681359D01*
X76406172Y-122632984D01*
X76392615Y-122629890D01*
X76115100Y-122549939D01*
X76101975Y-122545346D01*
X75835165Y-122434830D01*
X75822637Y-122428797D01*
X75569874Y-122289100D01*
X75558100Y-122281702D01*
X75322569Y-122114584D01*
X75311697Y-122105914D01*
X75096357Y-121913475D01*
X75086524Y-121903642D01*
X74894085Y-121688302D01*
X74885415Y-121677430D01*
X74718297Y-121441899D01*
X74710899Y-121430125D01*
X74571202Y-121177362D01*
X74565172Y-121164841D01*
X74454653Y-120898024D01*
X74450060Y-120884899D01*
X74370109Y-120607384D01*
X74367015Y-120593827D01*
X74353965Y-120517020D01*
X74318638Y-120309103D01*
X74317084Y-120295306D01*
X74300695Y-120003472D01*
X74300500Y-119996519D01*
X74300500Y-114028872D01*
X117459500Y-114028872D01*
X117459500Y-114291127D01*
X117486123Y-114493339D01*
X117493730Y-114551116D01*
X117561602Y-114804418D01*
X117561605Y-114804428D01*
X117661953Y-115046690D01*
X117661958Y-115046700D01*
X117793075Y-115273803D01*
X117952718Y-115481851D01*
X117952726Y-115481860D01*
X118138140Y-115667274D01*
X118138148Y-115667281D01*
X118346196Y-115826924D01*
X118573299Y-115958041D01*
X118573309Y-115958046D01*
X118815571Y-116058394D01*
X118815581Y-116058398D01*
X119068884Y-116126270D01*
X119328880Y-116160500D01*
X119328887Y-116160500D01*
X119591113Y-116160500D01*
X119591120Y-116160500D01*
X119851116Y-116126270D01*
X120104419Y-116058398D01*
X120346697Y-115958043D01*
X120573803Y-115826924D01*
X120781851Y-115667282D01*
X120781855Y-115667277D01*
X120781860Y-115667274D01*
X120967274Y-115481860D01*
X120967277Y-115481855D01*
X120967282Y-115481851D01*
X121126924Y-115273803D01*
X121258043Y-115046697D01*
X121358398Y-114804419D01*
X121426270Y-114551116D01*
X121460500Y-114291120D01*
X121460500Y-114028880D01*
X121426270Y-113768884D01*
X121358398Y-113515581D01*
X121358394Y-113515571D01*
X121258046Y-113273309D01*
X121258041Y-113273299D01*
X121126924Y-113046196D01*
X120970058Y-112841767D01*
X120967282Y-112838149D01*
X120967281Y-112838148D01*
X120967274Y-112838140D01*
X120781860Y-112652726D01*
X120781851Y-112652718D01*
X120573803Y-112493075D01*
X120346700Y-112361958D01*
X120346690Y-112361953D01*
X120104428Y-112261605D01*
X120104421Y-112261603D01*
X120104419Y-112261602D01*
X119851116Y-112193730D01*
X119793339Y-112186123D01*
X119591127Y-112159500D01*
X119591120Y-112159500D01*
X119328880Y-112159500D01*
X119328872Y-112159500D01*
X119097772Y-112189926D01*
X119068884Y-112193730D01*
X118815581Y-112261602D01*
X118815571Y-112261605D01*
X118573309Y-112361953D01*
X118573299Y-112361958D01*
X118346196Y-112493075D01*
X118138148Y-112652718D01*
X117952718Y-112838148D01*
X117793075Y-113046196D01*
X117661958Y-113273299D01*
X117661953Y-113273309D01*
X117561605Y-113515571D01*
X117561602Y-113515581D01*
X117493730Y-113768885D01*
X117459500Y-114028872D01*
X74300500Y-114028872D01*
X74300500Y-112954536D01*
X74320185Y-112887497D01*
X74372989Y-112841742D01*
X74442147Y-112831798D01*
X74471959Y-112839977D01*
X74476272Y-112841763D01*
X74476278Y-112841767D01*
X74487032Y-112843906D01*
X74520177Y-112850500D01*
X74520180Y-112850500D01*
X76249822Y-112850500D01*
X76293717Y-112841768D01*
X76293717Y-112841767D01*
X76293722Y-112841767D01*
X76343504Y-112808504D01*
X76376767Y-112758722D01*
X76385500Y-112714820D01*
X76385500Y-110985180D01*
X76385500Y-110985177D01*
X76376768Y-110941282D01*
X76376767Y-110941281D01*
X76376767Y-110941278D01*
X76343504Y-110891496D01*
X76307581Y-110867493D01*
X76293724Y-110858234D01*
X76293717Y-110858231D01*
X76249822Y-110849500D01*
X76249820Y-110849500D01*
X74520180Y-110849500D01*
X74520178Y-110849500D01*
X74476276Y-110858232D01*
X74471952Y-110860024D01*
X74402483Y-110867493D01*
X74340004Y-110836218D01*
X74304352Y-110776129D01*
X74300500Y-110745463D01*
X74300500Y-110427525D01*
X77949500Y-110427525D01*
X77949500Y-110572475D01*
X77987016Y-110712485D01*
X77987017Y-110712488D01*
X78059488Y-110838011D01*
X78059490Y-110838013D01*
X78059491Y-110838015D01*
X78161985Y-110940509D01*
X78161986Y-110940510D01*
X78161988Y-110940511D01*
X78287511Y-111012982D01*
X78287512Y-111012982D01*
X78287515Y-111012984D01*
X78427525Y-111050500D01*
X78427528Y-111050500D01*
X78572472Y-111050500D01*
X78572475Y-111050500D01*
X78712485Y-111012984D01*
X78838015Y-110940509D01*
X78940509Y-110838015D01*
X79012984Y-110712485D01*
X79050500Y-110572475D01*
X79050500Y-110427525D01*
X79012984Y-110287515D01*
X79004056Y-110272052D01*
X78940511Y-110161988D01*
X78940506Y-110161982D01*
X78838017Y-110059493D01*
X78838011Y-110059488D01*
X78712488Y-109987017D01*
X78712489Y-109987017D01*
X78701006Y-109983940D01*
X78572475Y-109949500D01*
X78427525Y-109949500D01*
X78298993Y-109983940D01*
X78287511Y-109987017D01*
X78161988Y-110059488D01*
X78161982Y-110059493D01*
X78059493Y-110161982D01*
X78059488Y-110161988D01*
X77987017Y-110287511D01*
X77987016Y-110287515D01*
X77949500Y-110427525D01*
X74300500Y-110427525D01*
X74300500Y-109896557D01*
X74320185Y-109829518D01*
X74372989Y-109783763D01*
X74442147Y-109773819D01*
X74505703Y-109802844D01*
X74527602Y-109827666D01*
X74607860Y-109947782D01*
X74747214Y-110087136D01*
X74747218Y-110087139D01*
X74911079Y-110196628D01*
X74911092Y-110196635D01*
X75093160Y-110272049D01*
X75093165Y-110272051D01*
X75093169Y-110272051D01*
X75093170Y-110272052D01*
X75286456Y-110310500D01*
X75286459Y-110310500D01*
X75483543Y-110310500D01*
X75547485Y-110297781D01*
X75634346Y-110280502D01*
X75676835Y-110272051D01*
X75858914Y-110196632D01*
X76022782Y-110087139D01*
X76162139Y-109947782D01*
X76217571Y-109864822D01*
X81499499Y-109864822D01*
X81508231Y-109908717D01*
X81508234Y-109908724D01*
X81536148Y-109950500D01*
X81541496Y-109958504D01*
X81591278Y-109991767D01*
X81591281Y-109991767D01*
X81591282Y-109991768D01*
X81635177Y-110000500D01*
X81635180Y-110000500D01*
X83364822Y-110000500D01*
X83408717Y-109991768D01*
X83408717Y-109991767D01*
X83408722Y-109991767D01*
X83458504Y-109958504D01*
X83491767Y-109908722D01*
X83500500Y-109864822D01*
X85999499Y-109864822D01*
X86008231Y-109908717D01*
X86008234Y-109908724D01*
X86036148Y-109950500D01*
X86041496Y-109958504D01*
X86091278Y-109991767D01*
X86091281Y-109991767D01*
X86091282Y-109991768D01*
X86135177Y-110000500D01*
X86135180Y-110000500D01*
X87864822Y-110000500D01*
X87908717Y-109991768D01*
X87908717Y-109991767D01*
X87908722Y-109991767D01*
X87958504Y-109958504D01*
X87991767Y-109908722D01*
X88000500Y-109864820D01*
X88000500Y-109440691D01*
X104049500Y-109440691D01*
X104049500Y-109559309D01*
X104080201Y-109673886D01*
X104139511Y-109776613D01*
X104223387Y-109860489D01*
X104326114Y-109919799D01*
X104440691Y-109950500D01*
X104440694Y-109950500D01*
X104559306Y-109950500D01*
X104559309Y-109950500D01*
X104673886Y-109919799D01*
X104776613Y-109860489D01*
X104860489Y-109776613D01*
X104919799Y-109673886D01*
X104950500Y-109559309D01*
X104950500Y-109440691D01*
X104919799Y-109326114D01*
X104919797Y-109326112D01*
X104919796Y-109326105D01*
X104917983Y-109321728D01*
X104910516Y-109252259D01*
X104941793Y-109189780D01*
X105001883Y-109154130D01*
X105071708Y-109156626D01*
X105079998Y-109159718D01*
X105084371Y-109161528D01*
X105084379Y-109161533D01*
X105198956Y-109192234D01*
X105198959Y-109192234D01*
X105317571Y-109192234D01*
X105317574Y-109192234D01*
X105432151Y-109161533D01*
X105534878Y-109102223D01*
X105618754Y-109018347D01*
X105678064Y-108915620D01*
X105708765Y-108801043D01*
X105708765Y-108682425D01*
X105678064Y-108567848D01*
X105618754Y-108465121D01*
X105534878Y-108381245D01*
X105432151Y-108321935D01*
X105317574Y-108291234D01*
X105198956Y-108291234D01*
X105084379Y-108321935D01*
X105084377Y-108321935D01*
X105084377Y-108321936D01*
X104981652Y-108381245D01*
X104981649Y-108381247D01*
X104897778Y-108465118D01*
X104897776Y-108465121D01*
X104858667Y-108532860D01*
X104838466Y-108567848D01*
X104807765Y-108682425D01*
X104807765Y-108801043D01*
X104817437Y-108837138D01*
X104838468Y-108915628D01*
X104840283Y-108920009D01*
X104847747Y-108989479D01*
X104816468Y-109051956D01*
X104756376Y-109087604D01*
X104686551Y-109085106D01*
X104678271Y-109082017D01*
X104673890Y-109080202D01*
X104664494Y-109077684D01*
X104559309Y-109049500D01*
X104440691Y-109049500D01*
X104326114Y-109080201D01*
X104326112Y-109080201D01*
X104326112Y-109080202D01*
X104223387Y-109139511D01*
X104223384Y-109139513D01*
X104139513Y-109223384D01*
X104139511Y-109223387D01*
X104080201Y-109326114D01*
X104049500Y-109440691D01*
X88000500Y-109440691D01*
X88000500Y-108135180D01*
X88000500Y-108135177D01*
X87991768Y-108091282D01*
X87991767Y-108091281D01*
X87991767Y-108091278D01*
X87958504Y-108041496D01*
X87958503Y-108041495D01*
X87908724Y-108008234D01*
X87908717Y-108008231D01*
X87864822Y-107999500D01*
X87864820Y-107999500D01*
X86135180Y-107999500D01*
X86135178Y-107999500D01*
X86091282Y-108008231D01*
X86091275Y-108008234D01*
X86041496Y-108041495D01*
X86041495Y-108041496D01*
X86008234Y-108091275D01*
X86008231Y-108091282D01*
X85999500Y-108135177D01*
X85999500Y-108135180D01*
X85999500Y-109864820D01*
X85999500Y-109864822D01*
X85999499Y-109864822D01*
X83500500Y-109864822D01*
X83500500Y-109864820D01*
X83500500Y-108135180D01*
X83500500Y-108135177D01*
X83491768Y-108091282D01*
X83491767Y-108091281D01*
X83491767Y-108091278D01*
X83458504Y-108041496D01*
X83458503Y-108041495D01*
X83408724Y-108008234D01*
X83408717Y-108008231D01*
X83364822Y-107999500D01*
X83364820Y-107999500D01*
X81635180Y-107999500D01*
X81635178Y-107999500D01*
X81591282Y-108008231D01*
X81591275Y-108008234D01*
X81541496Y-108041495D01*
X81541495Y-108041496D01*
X81508234Y-108091275D01*
X81508231Y-108091282D01*
X81499500Y-108135177D01*
X81499500Y-108135180D01*
X81499500Y-109864820D01*
X81499500Y-109864822D01*
X81499499Y-109864822D01*
X76217571Y-109864822D01*
X76271632Y-109783914D01*
X76275814Y-109773819D01*
X76347049Y-109601839D01*
X76347051Y-109601835D01*
X76359632Y-109538582D01*
X76385500Y-109408543D01*
X76385500Y-109211456D01*
X76347052Y-109018170D01*
X76347051Y-109018169D01*
X76347051Y-109018165D01*
X76304579Y-108915628D01*
X76271635Y-108836092D01*
X76271628Y-108836079D01*
X76162139Y-108672218D01*
X76162136Y-108672214D01*
X76022785Y-108532863D01*
X76022781Y-108532860D01*
X75858920Y-108423371D01*
X75858907Y-108423364D01*
X75676839Y-108347950D01*
X75676829Y-108347947D01*
X75483543Y-108309500D01*
X75483541Y-108309500D01*
X75286459Y-108309500D01*
X75286457Y-108309500D01*
X75093170Y-108347947D01*
X75093160Y-108347950D01*
X74911092Y-108423364D01*
X74911079Y-108423371D01*
X74747218Y-108532860D01*
X74747214Y-108532863D01*
X74607863Y-108672214D01*
X74607860Y-108672218D01*
X74527602Y-108792333D01*
X74473990Y-108837138D01*
X74404665Y-108845845D01*
X74341637Y-108815690D01*
X74304918Y-108756247D01*
X74300500Y-108723442D01*
X74300500Y-107356557D01*
X74320185Y-107289518D01*
X74372989Y-107243763D01*
X74442147Y-107233819D01*
X74505703Y-107262844D01*
X74527602Y-107287666D01*
X74607860Y-107407782D01*
X74747214Y-107547136D01*
X74747218Y-107547139D01*
X74911079Y-107656628D01*
X74911092Y-107656635D01*
X75093160Y-107732049D01*
X75093165Y-107732051D01*
X75093169Y-107732051D01*
X75093170Y-107732052D01*
X75286456Y-107770500D01*
X75286459Y-107770500D01*
X75483543Y-107770500D01*
X75613582Y-107744632D01*
X75676835Y-107732051D01*
X75858914Y-107656632D01*
X76022782Y-107547139D01*
X76162139Y-107407782D01*
X76271632Y-107243914D01*
X76275814Y-107233819D01*
X76332162Y-107097781D01*
X76347051Y-107061835D01*
X76372495Y-106933920D01*
X76385500Y-106868543D01*
X76385500Y-106671456D01*
X76363040Y-106558543D01*
X81499499Y-106558543D01*
X81537947Y-106751829D01*
X81537950Y-106751839D01*
X81613364Y-106933907D01*
X81613371Y-106933920D01*
X81722860Y-107097781D01*
X81722863Y-107097785D01*
X81862214Y-107237136D01*
X81862218Y-107237139D01*
X82026079Y-107346628D01*
X82026092Y-107346635D01*
X82208160Y-107422049D01*
X82208165Y-107422051D01*
X82208169Y-107422051D01*
X82208170Y-107422052D01*
X82401456Y-107460500D01*
X82401459Y-107460500D01*
X82598543Y-107460500D01*
X82728582Y-107434632D01*
X82791835Y-107422051D01*
X82973914Y-107346632D01*
X83137782Y-107237139D01*
X83277139Y-107097782D01*
X83386632Y-106933914D01*
X83462051Y-106751835D01*
X83500500Y-106558543D01*
X85999499Y-106558543D01*
X86037947Y-106751829D01*
X86037950Y-106751839D01*
X86113364Y-106933907D01*
X86113371Y-106933920D01*
X86222860Y-107097781D01*
X86222863Y-107097785D01*
X86362214Y-107237136D01*
X86362218Y-107237139D01*
X86526079Y-107346628D01*
X86526092Y-107346635D01*
X86708160Y-107422049D01*
X86708165Y-107422051D01*
X86708169Y-107422051D01*
X86708170Y-107422052D01*
X86901456Y-107460500D01*
X86901459Y-107460500D01*
X87098543Y-107460500D01*
X87228582Y-107434632D01*
X87291835Y-107422051D01*
X87473914Y-107346632D01*
X87637782Y-107237139D01*
X87714230Y-107160691D01*
X100349500Y-107160691D01*
X100349500Y-107279309D01*
X100380201Y-107393886D01*
X100439511Y-107496613D01*
X100523387Y-107580489D01*
X100626114Y-107639799D01*
X100740691Y-107670500D01*
X100740694Y-107670500D01*
X100859306Y-107670500D01*
X100859309Y-107670500D01*
X100973886Y-107639799D01*
X101076613Y-107580489D01*
X101160489Y-107496613D01*
X101219799Y-107393886D01*
X101250500Y-107279309D01*
X101250500Y-107160691D01*
X101219799Y-107046114D01*
X101160489Y-106943387D01*
X101076613Y-106859511D01*
X100973886Y-106800201D01*
X100859309Y-106769500D01*
X100740691Y-106769500D01*
X100626114Y-106800201D01*
X100626112Y-106800201D01*
X100626112Y-106800202D01*
X100523387Y-106859511D01*
X100523384Y-106859513D01*
X100439513Y-106943384D01*
X100439511Y-106943387D01*
X100380201Y-107046114D01*
X100349500Y-107160691D01*
X87714230Y-107160691D01*
X87777139Y-107097782D01*
X87777183Y-107097715D01*
X87786568Y-107083672D01*
X87886628Y-106933920D01*
X87886628Y-106933919D01*
X87886632Y-106933914D01*
X87962051Y-106751835D01*
X88000500Y-106558541D01*
X88000500Y-106361459D01*
X88000500Y-106361456D01*
X87962052Y-106168170D01*
X87962051Y-106168169D01*
X87962051Y-106168165D01*
X87962049Y-106168160D01*
X87886635Y-105986092D01*
X87886628Y-105986079D01*
X87777139Y-105822218D01*
X87777136Y-105822214D01*
X87637785Y-105682863D01*
X87637781Y-105682860D01*
X87473920Y-105573371D01*
X87473907Y-105573364D01*
X87291839Y-105497950D01*
X87291829Y-105497947D01*
X87098543Y-105459500D01*
X87098541Y-105459500D01*
X86901459Y-105459500D01*
X86901457Y-105459500D01*
X86708170Y-105497947D01*
X86708160Y-105497950D01*
X86526092Y-105573364D01*
X86526079Y-105573371D01*
X86362218Y-105682860D01*
X86362214Y-105682863D01*
X86222863Y-105822214D01*
X86222860Y-105822218D01*
X86113371Y-105986079D01*
X86113364Y-105986092D01*
X86037950Y-106168160D01*
X86037947Y-106168170D01*
X85999500Y-106361456D01*
X85999500Y-106361459D01*
X85999500Y-106558541D01*
X85999500Y-106558543D01*
X85999499Y-106558543D01*
X83500500Y-106558543D01*
X83500500Y-106558541D01*
X83500500Y-106361459D01*
X83500500Y-106361456D01*
X83462052Y-106168170D01*
X83462051Y-106168169D01*
X83462051Y-106168165D01*
X83462049Y-106168160D01*
X83386635Y-105986092D01*
X83386628Y-105986079D01*
X83277139Y-105822218D01*
X83277136Y-105822214D01*
X83137785Y-105682863D01*
X83137781Y-105682860D01*
X82973920Y-105573371D01*
X82973907Y-105573364D01*
X82791839Y-105497950D01*
X82791829Y-105497947D01*
X82598543Y-105459500D01*
X82598541Y-105459500D01*
X82401459Y-105459500D01*
X82401457Y-105459500D01*
X82208170Y-105497947D01*
X82208160Y-105497950D01*
X82026092Y-105573364D01*
X82026079Y-105573371D01*
X81862218Y-105682860D01*
X81862214Y-105682863D01*
X81722863Y-105822214D01*
X81722860Y-105822218D01*
X81613371Y-105986079D01*
X81613364Y-105986092D01*
X81537950Y-106168160D01*
X81537947Y-106168170D01*
X81499500Y-106361456D01*
X81499500Y-106361459D01*
X81499500Y-106558541D01*
X81499500Y-106558543D01*
X81499499Y-106558543D01*
X76363040Y-106558543D01*
X76347052Y-106478170D01*
X76347051Y-106478169D01*
X76347051Y-106478165D01*
X76294161Y-106350478D01*
X76271635Y-106296092D01*
X76271628Y-106296079D01*
X76162139Y-106132218D01*
X76162136Y-106132214D01*
X76022785Y-105992863D01*
X76022781Y-105992860D01*
X75858920Y-105883371D01*
X75858907Y-105883364D01*
X75676839Y-105807950D01*
X75676829Y-105807947D01*
X75483543Y-105769500D01*
X75483541Y-105769500D01*
X75286459Y-105769500D01*
X75286457Y-105769500D01*
X75093170Y-105807947D01*
X75093160Y-105807950D01*
X74911092Y-105883364D01*
X74911079Y-105883371D01*
X74747218Y-105992860D01*
X74747214Y-105992863D01*
X74607863Y-106132214D01*
X74607860Y-106132218D01*
X74527602Y-106252333D01*
X74473990Y-106297138D01*
X74404665Y-106305845D01*
X74341637Y-106275690D01*
X74304918Y-106216247D01*
X74300500Y-106183442D01*
X74300500Y-104816557D01*
X74320185Y-104749518D01*
X74372989Y-104703763D01*
X74442147Y-104693819D01*
X74505703Y-104722844D01*
X74527602Y-104747666D01*
X74607860Y-104867782D01*
X74747214Y-105007136D01*
X74747218Y-105007139D01*
X74911079Y-105116628D01*
X74911092Y-105116635D01*
X75093160Y-105192049D01*
X75093165Y-105192051D01*
X75093169Y-105192051D01*
X75093170Y-105192052D01*
X75286456Y-105230500D01*
X75286459Y-105230500D01*
X75483543Y-105230500D01*
X75613582Y-105204632D01*
X75676835Y-105192051D01*
X75858914Y-105116632D01*
X76022782Y-105007139D01*
X76162139Y-104867782D01*
X76271632Y-104703914D01*
X76275814Y-104693819D01*
X76347049Y-104521839D01*
X76347051Y-104521835D01*
X76385500Y-104328541D01*
X76385500Y-104131459D01*
X76385500Y-104131456D01*
X76347052Y-103938170D01*
X76347051Y-103938169D01*
X76347051Y-103938165D01*
X76328455Y-103893269D01*
X76271635Y-103756092D01*
X76271628Y-103756079D01*
X76162139Y-103592218D01*
X76162136Y-103592214D01*
X76036462Y-103466540D01*
X77738200Y-103466540D01*
X77738200Y-103613459D01*
X77766858Y-103757534D01*
X77766861Y-103757544D01*
X77823078Y-103893266D01*
X77823083Y-103893275D01*
X77904698Y-104015419D01*
X77904701Y-104015423D01*
X78008576Y-104119298D01*
X78008580Y-104119301D01*
X78130724Y-104200916D01*
X78130730Y-104200919D01*
X78130731Y-104200920D01*
X78266458Y-104257140D01*
X78410540Y-104285799D01*
X78410544Y-104285800D01*
X78410545Y-104285800D01*
X78557456Y-104285800D01*
X78557457Y-104285799D01*
X78701542Y-104257140D01*
X78837269Y-104200920D01*
X78959420Y-104119301D01*
X79063301Y-104015420D01*
X79144920Y-103893269D01*
X79201140Y-103757542D01*
X79229800Y-103613455D01*
X79229800Y-103466545D01*
X79229799Y-103466540D01*
X79770200Y-103466540D01*
X79770200Y-103613459D01*
X79798858Y-103757534D01*
X79798861Y-103757544D01*
X79855078Y-103893266D01*
X79855083Y-103893275D01*
X79936698Y-104015419D01*
X79936701Y-104015423D01*
X80040576Y-104119298D01*
X80040580Y-104119301D01*
X80162724Y-104200916D01*
X80162730Y-104200919D01*
X80162731Y-104200920D01*
X80298458Y-104257140D01*
X80442540Y-104285799D01*
X80442544Y-104285800D01*
X80442545Y-104285800D01*
X80589456Y-104285800D01*
X80589457Y-104285799D01*
X80733542Y-104257140D01*
X80869269Y-104200920D01*
X80991420Y-104119301D01*
X81095301Y-104015420D01*
X81176920Y-103893269D01*
X81233140Y-103757542D01*
X81261800Y-103613455D01*
X81261800Y-103466545D01*
X81233140Y-103322458D01*
X81176920Y-103186731D01*
X81176919Y-103186730D01*
X81176916Y-103186724D01*
X81095301Y-103064580D01*
X81095298Y-103064576D01*
X80991423Y-102960701D01*
X80991419Y-102960698D01*
X80869275Y-102879083D01*
X80869266Y-102879078D01*
X80733544Y-102822861D01*
X80733545Y-102822861D01*
X80733542Y-102822860D01*
X80733538Y-102822859D01*
X80733534Y-102822858D01*
X80589459Y-102794200D01*
X80589455Y-102794200D01*
X80442545Y-102794200D01*
X80442540Y-102794200D01*
X80298465Y-102822858D01*
X80298455Y-102822861D01*
X80162733Y-102879078D01*
X80162724Y-102879083D01*
X80040580Y-102960698D01*
X80040576Y-102960701D01*
X79936701Y-103064576D01*
X79936698Y-103064580D01*
X79855083Y-103186724D01*
X79855078Y-103186733D01*
X79798861Y-103322455D01*
X79798858Y-103322465D01*
X79770200Y-103466540D01*
X79229799Y-103466540D01*
X79201140Y-103322458D01*
X79144920Y-103186731D01*
X79144919Y-103186730D01*
X79144916Y-103186724D01*
X79063301Y-103064580D01*
X79063298Y-103064576D01*
X78959423Y-102960701D01*
X78959419Y-102960698D01*
X78837275Y-102879083D01*
X78837266Y-102879078D01*
X78701544Y-102822861D01*
X78701545Y-102822861D01*
X78701542Y-102822860D01*
X78701538Y-102822859D01*
X78701534Y-102822858D01*
X78557459Y-102794200D01*
X78557455Y-102794200D01*
X78410545Y-102794200D01*
X78410540Y-102794200D01*
X78266465Y-102822858D01*
X78266455Y-102822861D01*
X78130733Y-102879078D01*
X78130724Y-102879083D01*
X78008580Y-102960698D01*
X78008576Y-102960701D01*
X77904701Y-103064576D01*
X77904698Y-103064580D01*
X77823083Y-103186724D01*
X77823078Y-103186733D01*
X77766861Y-103322455D01*
X77766858Y-103322465D01*
X77738200Y-103466540D01*
X76036462Y-103466540D01*
X76022785Y-103452863D01*
X76022781Y-103452860D01*
X75858920Y-103343371D01*
X75858907Y-103343364D01*
X75676839Y-103267950D01*
X75676830Y-103267947D01*
X75637616Y-103260147D01*
X75575705Y-103227761D01*
X75541132Y-103167045D01*
X75544873Y-103097275D01*
X75585740Y-103040604D01*
X75642412Y-103016056D01*
X75701134Y-103006755D01*
X75903217Y-102941095D01*
X76092554Y-102844622D01*
X76146716Y-102805270D01*
X76146717Y-102805270D01*
X75819112Y-102477666D01*
X83345244Y-102477666D01*
X83345244Y-102596284D01*
X83375945Y-102710861D01*
X83435255Y-102813588D01*
X83519131Y-102897464D01*
X83621858Y-102956774D01*
X83736435Y-102987475D01*
X83736438Y-102987475D01*
X83856254Y-102987475D01*
X83923293Y-103007160D01*
X83969048Y-103059964D01*
X83976026Y-103079373D01*
X83988286Y-103125130D01*
X83992642Y-103141386D01*
X84018819Y-103186724D01*
X84051952Y-103244112D01*
X84135828Y-103327988D01*
X84238555Y-103387298D01*
X84353132Y-103417999D01*
X84353135Y-103417999D01*
X84471747Y-103417999D01*
X84471750Y-103417999D01*
X84586327Y-103387298D01*
X84689054Y-103327988D01*
X84772930Y-103244112D01*
X84832240Y-103141385D01*
X84852518Y-103065705D01*
X84888882Y-103006047D01*
X84951729Y-102975518D01*
X84982422Y-102974215D01*
X84993566Y-102975128D01*
X85039644Y-102987475D01*
X85144198Y-102987475D01*
X85149249Y-102987889D01*
X85177315Y-102998690D01*
X85206158Y-103007160D01*
X85209578Y-103011107D01*
X85214456Y-103012985D01*
X85232226Y-103037244D01*
X85251913Y-103059964D01*
X85254847Y-103068126D01*
X85255744Y-103069350D01*
X85255837Y-103070879D01*
X85258891Y-103079373D01*
X85284216Y-103173886D01*
X85343526Y-103276613D01*
X85427402Y-103360489D01*
X85530129Y-103419799D01*
X85644706Y-103450500D01*
X85644709Y-103450500D01*
X85763321Y-103450500D01*
X85763324Y-103450500D01*
X85877901Y-103419799D01*
X85980628Y-103360489D01*
X85993218Y-103347899D01*
X91205739Y-103347899D01*
X91205739Y-103466517D01*
X91236440Y-103581094D01*
X91295750Y-103683821D01*
X91379626Y-103767697D01*
X91482353Y-103827007D01*
X91596930Y-103857708D01*
X91596933Y-103857708D01*
X91715545Y-103857708D01*
X91715548Y-103857708D01*
X91830125Y-103827007D01*
X91932852Y-103767697D01*
X92016728Y-103683821D01*
X92020363Y-103677525D01*
X97699500Y-103677525D01*
X97699500Y-103822475D01*
X97731128Y-103940511D01*
X97737017Y-103962488D01*
X97809488Y-104088011D01*
X97809490Y-104088013D01*
X97809491Y-104088015D01*
X97911985Y-104190509D01*
X97911986Y-104190510D01*
X97911988Y-104190511D01*
X98037511Y-104262982D01*
X98037512Y-104262982D01*
X98037515Y-104262984D01*
X98177525Y-104300500D01*
X98177528Y-104300500D01*
X98322472Y-104300500D01*
X98322475Y-104300500D01*
X98462485Y-104262984D01*
X98588015Y-104190509D01*
X98690509Y-104088015D01*
X98762984Y-103962485D01*
X98800500Y-103822475D01*
X98800500Y-103677525D01*
X98762984Y-103537515D01*
X98699481Y-103427525D01*
X102699500Y-103427525D01*
X102699500Y-103572475D01*
X102729336Y-103683823D01*
X102737017Y-103712488D01*
X102809488Y-103838011D01*
X102809490Y-103838013D01*
X102809491Y-103838015D01*
X102911985Y-103940509D01*
X102911986Y-103940510D01*
X102911988Y-103940511D01*
X103037511Y-104012982D01*
X103037512Y-104012982D01*
X103037515Y-104012984D01*
X103177525Y-104050500D01*
X103177528Y-104050500D01*
X103322472Y-104050500D01*
X103322475Y-104050500D01*
X103462485Y-104012984D01*
X103588015Y-103940509D01*
X103690509Y-103838015D01*
X103762984Y-103712485D01*
X103800500Y-103572475D01*
X103800500Y-103427525D01*
X103762984Y-103287515D01*
X103762405Y-103286513D01*
X103690511Y-103161988D01*
X103690506Y-103161982D01*
X103588017Y-103059493D01*
X103588011Y-103059488D01*
X103462488Y-102987017D01*
X103462489Y-102987017D01*
X103419574Y-102975518D01*
X103322475Y-102949500D01*
X103177525Y-102949500D01*
X103080426Y-102975518D01*
X103037511Y-102987017D01*
X102911988Y-103059488D01*
X102911982Y-103059493D01*
X102809493Y-103161982D01*
X102809488Y-103161988D01*
X102737017Y-103287511D01*
X102737016Y-103287515D01*
X102699500Y-103427525D01*
X98699481Y-103427525D01*
X98690511Y-103411988D01*
X98690506Y-103411982D01*
X98588017Y-103309493D01*
X98588011Y-103309488D01*
X98462488Y-103237017D01*
X98462489Y-103237017D01*
X98427945Y-103227761D01*
X98322475Y-103199500D01*
X98177525Y-103199500D01*
X98072055Y-103227761D01*
X98037511Y-103237017D01*
X97911988Y-103309488D01*
X97911982Y-103309493D01*
X97809493Y-103411982D01*
X97809488Y-103411988D01*
X97737017Y-103537511D01*
X97737016Y-103537515D01*
X97699500Y-103677525D01*
X92020363Y-103677525D01*
X92040041Y-103643442D01*
X92060853Y-103607397D01*
X92076036Y-103581097D01*
X92076037Y-103581095D01*
X92076038Y-103581094D01*
X92106739Y-103466517D01*
X92106739Y-103347899D01*
X92076038Y-103233322D01*
X92016728Y-103130595D01*
X91932852Y-103046719D01*
X91843108Y-102994905D01*
X92749231Y-102994905D01*
X92749231Y-103113523D01*
X92779932Y-103228100D01*
X92839242Y-103330827D01*
X92923118Y-103414703D01*
X93025845Y-103474013D01*
X93140422Y-103504714D01*
X93140425Y-103504714D01*
X93259037Y-103504714D01*
X93259040Y-103504714D01*
X93373617Y-103474013D01*
X93476344Y-103414703D01*
X93560220Y-103330827D01*
X93619530Y-103228100D01*
X93650231Y-103113523D01*
X93650231Y-102994905D01*
X93619530Y-102880328D01*
X93619528Y-102880324D01*
X93608532Y-102861278D01*
X93608532Y-102861277D01*
X93591634Y-102832010D01*
X93585664Y-102807405D01*
X95685625Y-102807405D01*
X95685625Y-102926023D01*
X95716326Y-103040600D01*
X95775636Y-103143327D01*
X95859512Y-103227203D01*
X95962239Y-103286513D01*
X96076816Y-103317214D01*
X96076819Y-103317214D01*
X96195431Y-103317214D01*
X96195434Y-103317214D01*
X96310011Y-103286513D01*
X96412738Y-103227203D01*
X96496614Y-103143327D01*
X96555924Y-103040600D01*
X96586625Y-102926023D01*
X96586625Y-102807405D01*
X96555924Y-102692828D01*
X96496614Y-102590101D01*
X96412738Y-102506225D01*
X96310011Y-102446915D01*
X96195434Y-102416214D01*
X96076816Y-102416214D01*
X95962239Y-102446915D01*
X95962237Y-102446915D01*
X95962237Y-102446916D01*
X95859512Y-102506225D01*
X95859509Y-102506227D01*
X95775638Y-102590098D01*
X95775636Y-102590101D01*
X95738229Y-102654892D01*
X95716326Y-102692828D01*
X95685625Y-102807405D01*
X93585664Y-102807405D01*
X93575160Y-102764111D01*
X93598012Y-102698083D01*
X93652932Y-102654892D01*
X93722485Y-102648250D01*
X93731095Y-102650229D01*
X93787353Y-102665304D01*
X93787356Y-102665304D01*
X93905968Y-102665304D01*
X93905971Y-102665304D01*
X94020548Y-102634603D01*
X94123275Y-102575293D01*
X94207151Y-102491417D01*
X94266461Y-102388690D01*
X94297162Y-102274113D01*
X94297162Y-102240691D01*
X100349500Y-102240691D01*
X100349500Y-102359309D01*
X100380201Y-102473886D01*
X100439511Y-102576613D01*
X100523387Y-102660489D01*
X100626114Y-102719799D01*
X100740691Y-102750500D01*
X100740694Y-102750500D01*
X100859306Y-102750500D01*
X100859309Y-102750500D01*
X100973886Y-102719799D01*
X101076613Y-102660489D01*
X101160489Y-102576613D01*
X101219799Y-102473886D01*
X101250500Y-102359309D01*
X101250500Y-102240691D01*
X101219799Y-102126114D01*
X101160489Y-102023387D01*
X101076613Y-101939511D01*
X100973886Y-101880201D01*
X100859309Y-101849500D01*
X100740691Y-101849500D01*
X100626114Y-101880201D01*
X100626112Y-101880201D01*
X100626112Y-101880202D01*
X100523387Y-101939511D01*
X100523384Y-101939513D01*
X100439513Y-102023384D01*
X100439511Y-102023387D01*
X100380201Y-102126114D01*
X100349500Y-102240691D01*
X94297162Y-102240691D01*
X94297162Y-102155495D01*
X94266461Y-102040918D01*
X94207151Y-101938191D01*
X94123275Y-101854315D01*
X94042259Y-101807540D01*
X94020550Y-101795006D01*
X94020549Y-101795005D01*
X94020548Y-101795005D01*
X93945312Y-101774845D01*
X93885653Y-101738480D01*
X93855125Y-101675633D01*
X93853408Y-101655071D01*
X93853408Y-101541191D01*
X93853408Y-101541189D01*
X93822707Y-101426612D01*
X93763397Y-101323885D01*
X93679521Y-101240009D01*
X93576794Y-101180699D01*
X93462217Y-101149998D01*
X93343599Y-101149998D01*
X93229022Y-101180699D01*
X93229020Y-101180699D01*
X93229020Y-101180700D01*
X93126295Y-101240009D01*
X93126292Y-101240011D01*
X93042421Y-101323882D01*
X93042419Y-101323885D01*
X93035900Y-101335177D01*
X92983109Y-101426612D01*
X92952408Y-101541189D01*
X92952408Y-101659807D01*
X92983109Y-101774384D01*
X93042419Y-101877111D01*
X93126295Y-101960987D01*
X93229022Y-102020297D01*
X93304257Y-102040456D01*
X93363916Y-102076820D01*
X93394445Y-102139667D01*
X93396162Y-102160230D01*
X93396162Y-102274113D01*
X93426863Y-102388690D01*
X93426864Y-102388693D01*
X93454759Y-102437008D01*
X93471232Y-102504908D01*
X93448380Y-102570935D01*
X93393458Y-102614125D01*
X93323905Y-102620767D01*
X93315279Y-102618783D01*
X93286261Y-102611007D01*
X93259040Y-102603714D01*
X93140422Y-102603714D01*
X93025845Y-102634415D01*
X93025843Y-102634415D01*
X93025843Y-102634416D01*
X92923118Y-102693725D01*
X92923115Y-102693727D01*
X92839244Y-102777598D01*
X92839242Y-102777601D01*
X92780653Y-102879080D01*
X92779932Y-102880328D01*
X92749231Y-102994905D01*
X91843108Y-102994905D01*
X91830125Y-102987409D01*
X91715548Y-102956708D01*
X91596930Y-102956708D01*
X91482353Y-102987409D01*
X91482351Y-102987409D01*
X91482351Y-102987410D01*
X91379626Y-103046719D01*
X91379623Y-103046721D01*
X91295752Y-103130592D01*
X91295750Y-103130595D01*
X91239975Y-103227200D01*
X91236440Y-103233322D01*
X91205739Y-103347899D01*
X85993218Y-103347899D01*
X86064504Y-103276613D01*
X86123814Y-103173886D01*
X86154515Y-103059309D01*
X86154515Y-102940691D01*
X86123814Y-102826114D01*
X86064504Y-102723387D01*
X85980628Y-102639511D01*
X85877901Y-102580201D01*
X85763324Y-102549500D01*
X85663849Y-102549500D01*
X85596810Y-102529815D01*
X85551055Y-102477011D01*
X85544076Y-102457601D01*
X85518752Y-102363089D01*
X85459442Y-102260362D01*
X85375566Y-102176486D01*
X85272839Y-102117176D01*
X85158262Y-102086475D01*
X85039644Y-102086475D01*
X84925067Y-102117176D01*
X84925065Y-102117176D01*
X84925065Y-102117177D01*
X84822340Y-102176486D01*
X84822337Y-102176488D01*
X84738466Y-102260359D01*
X84738464Y-102260362D01*
X84679153Y-102363089D01*
X84679153Y-102363090D01*
X84658875Y-102438767D01*
X84622510Y-102498427D01*
X84559663Y-102528955D01*
X84530067Y-102530342D01*
X84518352Y-102529486D01*
X84471750Y-102516999D01*
X84353132Y-102516999D01*
X84351907Y-102517327D01*
X84342897Y-102516669D01*
X84314247Y-102505933D01*
X84284892Y-102497314D01*
X84281838Y-102493789D01*
X84277470Y-102492153D01*
X84259166Y-102467625D01*
X84239137Y-102444510D01*
X84236552Y-102437321D01*
X84235683Y-102436156D01*
X84235574Y-102434599D01*
X84232158Y-102425100D01*
X84215543Y-102363089D01*
X84215001Y-102362151D01*
X84207595Y-102349323D01*
X84156233Y-102260362D01*
X84072357Y-102176486D01*
X83969630Y-102117176D01*
X83855053Y-102086475D01*
X83736435Y-102086475D01*
X83621858Y-102117176D01*
X83621856Y-102117176D01*
X83621856Y-102117177D01*
X83519131Y-102176486D01*
X83519128Y-102176488D01*
X83435257Y-102260359D01*
X83435255Y-102260362D01*
X83376487Y-102362151D01*
X83375945Y-102363089D01*
X83345244Y-102477666D01*
X75819112Y-102477666D01*
X75514408Y-102172962D01*
X75577993Y-102155925D01*
X75692007Y-102090099D01*
X75785099Y-101997007D01*
X75850925Y-101882993D01*
X75867962Y-101819408D01*
X76500270Y-102451717D01*
X76500270Y-102451716D01*
X76539622Y-102397554D01*
X76636095Y-102208217D01*
X76701757Y-102006130D01*
X76701757Y-102006127D01*
X76712122Y-101940691D01*
X80549500Y-101940691D01*
X80549500Y-102059309D01*
X80580201Y-102173886D01*
X80639511Y-102276613D01*
X80723387Y-102360489D01*
X80826114Y-102419799D01*
X80940691Y-102450500D01*
X80940694Y-102450500D01*
X81059306Y-102450500D01*
X81059309Y-102450500D01*
X81173886Y-102419799D01*
X81276613Y-102360489D01*
X81360489Y-102276613D01*
X81419799Y-102173886D01*
X81450500Y-102059309D01*
X81450500Y-101940691D01*
X81419799Y-101826114D01*
X81360489Y-101723387D01*
X81276613Y-101639511D01*
X81173886Y-101580201D01*
X81059309Y-101549500D01*
X80940691Y-101549500D01*
X80826114Y-101580201D01*
X80826112Y-101580201D01*
X80826112Y-101580202D01*
X80723387Y-101639511D01*
X80723384Y-101639513D01*
X80639513Y-101723384D01*
X80639511Y-101723387D01*
X80580201Y-101826114D01*
X80549500Y-101940691D01*
X76712122Y-101940691D01*
X76716482Y-101913166D01*
X76735000Y-101796246D01*
X76735000Y-101583753D01*
X76701757Y-101373872D01*
X76701757Y-101373869D01*
X76636095Y-101171782D01*
X76539624Y-100982449D01*
X76500270Y-100928282D01*
X76500269Y-100928282D01*
X75867962Y-101560590D01*
X75850925Y-101497007D01*
X75785099Y-101382993D01*
X75692007Y-101289901D01*
X75577993Y-101224075D01*
X75514409Y-101207037D01*
X75863040Y-100858405D01*
X84975995Y-100858405D01*
X84975995Y-100977023D01*
X85006696Y-101091600D01*
X85066006Y-101194327D01*
X85149882Y-101278203D01*
X85252609Y-101337513D01*
X85367186Y-101368214D01*
X85367189Y-101368214D01*
X85485801Y-101368214D01*
X85485804Y-101368214D01*
X85600381Y-101337513D01*
X85703108Y-101278203D01*
X85786984Y-101194327D01*
X85846294Y-101091600D01*
X85876995Y-100977023D01*
X85876995Y-100927525D01*
X87949500Y-100927525D01*
X87949500Y-101072475D01*
X87982151Y-101194327D01*
X87987017Y-101212488D01*
X88059488Y-101338011D01*
X88059490Y-101338013D01*
X88059491Y-101338015D01*
X88161985Y-101440509D01*
X88161986Y-101440510D01*
X88161988Y-101440511D01*
X88287511Y-101512982D01*
X88287512Y-101512982D01*
X88287515Y-101512984D01*
X88427525Y-101550500D01*
X88427528Y-101550500D01*
X88572472Y-101550500D01*
X88572475Y-101550500D01*
X88712485Y-101512984D01*
X88838015Y-101440509D01*
X88940509Y-101338015D01*
X89012984Y-101212485D01*
X89050500Y-101072475D01*
X89050500Y-100927525D01*
X89047246Y-100915382D01*
X91799500Y-100915382D01*
X91799500Y-101034000D01*
X91830201Y-101148577D01*
X91889511Y-101251304D01*
X91973387Y-101335180D01*
X92076114Y-101394490D01*
X92190691Y-101425191D01*
X92190694Y-101425191D01*
X92309306Y-101425191D01*
X92309309Y-101425191D01*
X92423886Y-101394490D01*
X92526613Y-101335180D01*
X92610489Y-101251304D01*
X92669799Y-101148577D01*
X92700500Y-101034000D01*
X92700500Y-100915382D01*
X92669799Y-100800805D01*
X92649526Y-100765691D01*
X105524500Y-100765691D01*
X105524500Y-100884309D01*
X105555201Y-100998886D01*
X105614511Y-101101613D01*
X105698387Y-101185489D01*
X105801114Y-101244799D01*
X105915691Y-101275500D01*
X105915694Y-101275500D01*
X106034306Y-101275500D01*
X106034309Y-101275500D01*
X106148886Y-101244799D01*
X106251613Y-101185489D01*
X106335489Y-101101613D01*
X106394799Y-100998886D01*
X106425500Y-100884309D01*
X106425500Y-100765691D01*
X106394799Y-100651114D01*
X106335489Y-100548387D01*
X106251613Y-100464511D01*
X106148886Y-100405201D01*
X106034309Y-100374500D01*
X105915691Y-100374500D01*
X105801114Y-100405201D01*
X105801112Y-100405201D01*
X105801112Y-100405202D01*
X105698387Y-100464511D01*
X105698384Y-100464513D01*
X105614513Y-100548384D01*
X105614511Y-100548387D01*
X105555201Y-100651114D01*
X105524500Y-100765691D01*
X92649526Y-100765691D01*
X92610489Y-100698078D01*
X92526613Y-100614202D01*
X92423886Y-100554892D01*
X92309309Y-100524191D01*
X92190691Y-100524191D01*
X92076114Y-100554892D01*
X92076112Y-100554892D01*
X92076112Y-100554893D01*
X91973387Y-100614202D01*
X91973384Y-100614204D01*
X91889513Y-100698075D01*
X91889511Y-100698078D01*
X91830201Y-100800805D01*
X91799500Y-100915382D01*
X89047246Y-100915382D01*
X89012984Y-100787515D01*
X88987761Y-100743828D01*
X88940511Y-100661988D01*
X88940506Y-100661982D01*
X88838017Y-100559493D01*
X88838011Y-100559488D01*
X88712488Y-100487017D01*
X88712489Y-100487017D01*
X88695676Y-100482512D01*
X88572475Y-100449500D01*
X88427525Y-100449500D01*
X88304324Y-100482512D01*
X88287511Y-100487017D01*
X88161988Y-100559488D01*
X88161982Y-100559493D01*
X88059493Y-100661982D01*
X88059488Y-100661988D01*
X87987017Y-100787511D01*
X87987016Y-100787515D01*
X87949500Y-100927525D01*
X85876995Y-100927525D01*
X85876995Y-100858405D01*
X85846294Y-100743828D01*
X85786984Y-100641101D01*
X85703108Y-100557225D01*
X85600381Y-100497915D01*
X85485804Y-100467214D01*
X85367186Y-100467214D01*
X85252609Y-100497915D01*
X85252607Y-100497915D01*
X85252607Y-100497916D01*
X85149882Y-100557225D01*
X85149879Y-100557227D01*
X85066008Y-100641098D01*
X85066006Y-100641101D01*
X85053949Y-100661985D01*
X85006696Y-100743828D01*
X84975995Y-100858405D01*
X75863040Y-100858405D01*
X76146716Y-100574728D01*
X76092550Y-100535375D01*
X76082954Y-100530486D01*
X76032157Y-100482512D01*
X76015361Y-100414692D01*
X76037897Y-100348556D01*
X76082954Y-100309514D01*
X76092554Y-100304622D01*
X76146716Y-100265270D01*
X76146717Y-100265270D01*
X75514408Y-99632962D01*
X75577993Y-99615925D01*
X75692007Y-99550099D01*
X75785099Y-99457007D01*
X75850925Y-99342993D01*
X75867962Y-99279408D01*
X76500270Y-99911717D01*
X76500270Y-99911716D01*
X76539622Y-99857554D01*
X76636095Y-99668217D01*
X76701757Y-99466130D01*
X76701758Y-99466125D01*
X76705786Y-99440691D01*
X77549500Y-99440691D01*
X77549500Y-99559309D01*
X77580201Y-99673886D01*
X77639511Y-99776613D01*
X77723387Y-99860489D01*
X77826114Y-99919799D01*
X77940691Y-99950500D01*
X77940694Y-99950500D01*
X78059306Y-99950500D01*
X78059309Y-99950500D01*
X78173886Y-99919799D01*
X78276613Y-99860489D01*
X78360489Y-99776613D01*
X78381228Y-99740691D01*
X92749500Y-99740691D01*
X92749500Y-99859309D01*
X92780201Y-99973886D01*
X92839511Y-100076613D01*
X92923387Y-100160489D01*
X93026114Y-100219799D01*
X93140691Y-100250500D01*
X93140694Y-100250500D01*
X93259306Y-100250500D01*
X93259309Y-100250500D01*
X93373886Y-100219799D01*
X93476613Y-100160489D01*
X93560489Y-100076613D01*
X93619799Y-99973886D01*
X93650500Y-99859309D01*
X93650500Y-99740691D01*
X97349500Y-99740691D01*
X97349500Y-99859309D01*
X97380201Y-99973886D01*
X97439511Y-100076613D01*
X97523387Y-100160489D01*
X97626114Y-100219799D01*
X97740691Y-100250500D01*
X97740694Y-100250500D01*
X97859306Y-100250500D01*
X97859309Y-100250500D01*
X97973886Y-100219799D01*
X98076613Y-100160489D01*
X98160489Y-100076613D01*
X98219799Y-99973886D01*
X98250500Y-99859309D01*
X98250500Y-99740691D01*
X101849500Y-99740691D01*
X101849500Y-99859309D01*
X101880201Y-99973886D01*
X101939511Y-100076613D01*
X102023387Y-100160489D01*
X102126114Y-100219799D01*
X102240691Y-100250500D01*
X102240694Y-100250500D01*
X102359306Y-100250500D01*
X102359309Y-100250500D01*
X102473886Y-100219799D01*
X102576613Y-100160489D01*
X102660489Y-100076613D01*
X102719799Y-99973886D01*
X102750500Y-99859309D01*
X102750500Y-99740691D01*
X106349500Y-99740691D01*
X106349500Y-99859309D01*
X106380201Y-99973886D01*
X106439511Y-100076613D01*
X106523387Y-100160489D01*
X106626114Y-100219799D01*
X106740691Y-100250500D01*
X106740694Y-100250500D01*
X106859306Y-100250500D01*
X106859309Y-100250500D01*
X106973886Y-100219799D01*
X107076613Y-100160489D01*
X107160489Y-100076613D01*
X107219799Y-99973886D01*
X107250500Y-99859309D01*
X107250500Y-99740691D01*
X107219799Y-99626114D01*
X107160489Y-99523387D01*
X107076613Y-99439511D01*
X106973886Y-99380201D01*
X106859309Y-99349500D01*
X106740691Y-99349500D01*
X106636138Y-99377515D01*
X106626110Y-99380202D01*
X106552877Y-99422483D01*
X106552872Y-99422487D01*
X106523387Y-99439511D01*
X106439511Y-99523387D01*
X106422487Y-99552872D01*
X106422483Y-99552877D01*
X106380202Y-99626110D01*
X106380201Y-99626114D01*
X106349500Y-99740691D01*
X102750500Y-99740691D01*
X102719799Y-99626114D01*
X102660489Y-99523387D01*
X102576613Y-99439511D01*
X102473886Y-99380201D01*
X102359309Y-99349500D01*
X102240691Y-99349500D01*
X102126114Y-99380201D01*
X102126112Y-99380201D01*
X102126112Y-99380202D01*
X102023387Y-99439511D01*
X102023384Y-99439513D01*
X101939513Y-99523384D01*
X101939511Y-99523387D01*
X101880201Y-99626114D01*
X101849500Y-99740691D01*
X98250500Y-99740691D01*
X98219799Y-99626114D01*
X98160489Y-99523387D01*
X98076613Y-99439511D01*
X97973886Y-99380201D01*
X97859309Y-99349500D01*
X97740691Y-99349500D01*
X97626114Y-99380201D01*
X97626112Y-99380201D01*
X97626112Y-99380202D01*
X97523387Y-99439511D01*
X97523384Y-99439513D01*
X97439513Y-99523384D01*
X97439511Y-99523387D01*
X97380201Y-99626114D01*
X97349500Y-99740691D01*
X93650500Y-99740691D01*
X93619799Y-99626114D01*
X93560489Y-99523387D01*
X93476613Y-99439511D01*
X93373886Y-99380201D01*
X93259309Y-99349500D01*
X93140691Y-99349500D01*
X93026114Y-99380201D01*
X93026112Y-99380201D01*
X93026112Y-99380202D01*
X92923387Y-99439511D01*
X92923384Y-99439513D01*
X92839513Y-99523384D01*
X92839511Y-99523387D01*
X92780201Y-99626114D01*
X92749500Y-99740691D01*
X78381228Y-99740691D01*
X78397691Y-99712177D01*
X78419795Y-99673894D01*
X78419797Y-99673890D01*
X78419798Y-99673887D01*
X78419799Y-99673886D01*
X78450500Y-99559309D01*
X78450500Y-99440691D01*
X78419799Y-99326114D01*
X78360489Y-99223387D01*
X78276613Y-99139511D01*
X78173886Y-99080201D01*
X78059309Y-99049500D01*
X77940691Y-99049500D01*
X77826114Y-99080201D01*
X77826112Y-99080201D01*
X77826112Y-99080202D01*
X77723387Y-99139511D01*
X77723384Y-99139513D01*
X77639513Y-99223384D01*
X77639511Y-99223387D01*
X77608780Y-99276615D01*
X77580201Y-99326114D01*
X77549500Y-99440691D01*
X76705786Y-99440691D01*
X76710146Y-99413167D01*
X76710146Y-99413166D01*
X76735000Y-99256246D01*
X76735000Y-99043753D01*
X76701757Y-98833872D01*
X76701757Y-98833869D01*
X76636095Y-98631782D01*
X76539624Y-98442449D01*
X76500270Y-98388282D01*
X76500269Y-98388282D01*
X75867962Y-99020590D01*
X75850925Y-98957007D01*
X75785099Y-98842993D01*
X75692007Y-98749901D01*
X75577993Y-98684075D01*
X75514409Y-98667037D01*
X75794905Y-98386540D01*
X78754200Y-98386540D01*
X78754200Y-98533459D01*
X78782858Y-98677534D01*
X78782861Y-98677544D01*
X78839078Y-98813266D01*
X78839083Y-98813275D01*
X78920698Y-98935419D01*
X78920701Y-98935423D01*
X79024576Y-99039298D01*
X79024580Y-99039301D01*
X79146724Y-99120916D01*
X79146730Y-99120919D01*
X79146731Y-99120920D01*
X79282458Y-99177140D01*
X79426540Y-99205799D01*
X79426544Y-99205800D01*
X79426545Y-99205800D01*
X79573456Y-99205800D01*
X79573457Y-99205799D01*
X79717542Y-99177140D01*
X79853269Y-99120920D01*
X79975420Y-99039301D01*
X80074030Y-98940691D01*
X105549500Y-98940691D01*
X105549500Y-99059309D01*
X105580201Y-99173886D01*
X105639511Y-99276613D01*
X105723387Y-99360489D01*
X105826114Y-99419799D01*
X105940691Y-99450500D01*
X105940694Y-99450500D01*
X106059306Y-99450500D01*
X106059309Y-99450500D01*
X106173886Y-99419799D01*
X106276613Y-99360489D01*
X106360489Y-99276613D01*
X106419799Y-99173886D01*
X106450500Y-99059309D01*
X106450500Y-98940691D01*
X106419799Y-98826114D01*
X106360489Y-98723387D01*
X106276613Y-98639511D01*
X106173886Y-98580201D01*
X106059309Y-98549500D01*
X105940691Y-98549500D01*
X105826114Y-98580201D01*
X105826112Y-98580201D01*
X105826112Y-98580202D01*
X105723387Y-98639511D01*
X105723384Y-98639513D01*
X105639513Y-98723384D01*
X105639511Y-98723387D01*
X105580201Y-98826114D01*
X105549500Y-98940691D01*
X80074030Y-98940691D01*
X80079301Y-98935420D01*
X80127242Y-98863672D01*
X80127245Y-98863669D01*
X80160913Y-98813280D01*
X80160916Y-98813275D01*
X80160920Y-98813269D01*
X80217140Y-98677542D01*
X80245800Y-98533455D01*
X80245800Y-98386545D01*
X80217140Y-98242458D01*
X80160920Y-98106731D01*
X80160919Y-98106730D01*
X80160916Y-98106724D01*
X80079301Y-97984580D01*
X80079298Y-97984576D01*
X79975423Y-97880701D01*
X79975419Y-97880698D01*
X79908024Y-97835666D01*
X79853274Y-97799083D01*
X79853266Y-97799078D01*
X79717544Y-97742861D01*
X79717545Y-97742861D01*
X79717542Y-97742860D01*
X79717538Y-97742859D01*
X79717534Y-97742858D01*
X79706640Y-97740691D01*
X101249500Y-97740691D01*
X101249500Y-97859309D01*
X101280201Y-97973886D01*
X101339511Y-98076613D01*
X101423387Y-98160489D01*
X101526114Y-98219799D01*
X101640691Y-98250500D01*
X101640694Y-98250500D01*
X101759306Y-98250500D01*
X101759309Y-98250500D01*
X101873886Y-98219799D01*
X101976613Y-98160489D01*
X102060489Y-98076613D01*
X102119799Y-97973886D01*
X102150500Y-97859309D01*
X102150500Y-97740691D01*
X102119799Y-97626114D01*
X102060489Y-97523387D01*
X101976613Y-97439511D01*
X101873886Y-97380201D01*
X101819716Y-97365686D01*
X115817000Y-97365686D01*
X115817000Y-97634313D01*
X115835323Y-97750000D01*
X115844159Y-97805787D01*
X115874415Y-97898904D01*
X115897811Y-97970909D01*
X115930329Y-98034727D01*
X115967013Y-98106724D01*
X115976632Y-98125601D01*
X116078672Y-98266050D01*
X116201449Y-98388827D01*
X116293044Y-98455373D01*
X116341902Y-98490870D01*
X116425480Y-98533455D01*
X116496590Y-98569688D01*
X116496592Y-98569688D01*
X116496595Y-98569690D01*
X116661713Y-98623341D01*
X116747452Y-98636920D01*
X116833187Y-98650500D01*
X116833192Y-98650500D01*
X117006813Y-98650500D01*
X117084753Y-98638155D01*
X117178287Y-98623341D01*
X117343405Y-98569690D01*
X117498098Y-98490870D01*
X117576957Y-98433575D01*
X117638550Y-98388827D01*
X117638552Y-98388824D01*
X117638556Y-98388822D01*
X117761322Y-98266056D01*
X117761324Y-98266052D01*
X117761327Y-98266050D01*
X117838021Y-98160488D01*
X117863370Y-98125598D01*
X117942190Y-97970905D01*
X117995841Y-97805787D01*
X118010655Y-97712253D01*
X118023000Y-97634313D01*
X118023000Y-97365686D01*
X118006733Y-97262982D01*
X117995841Y-97194213D01*
X117942190Y-97029095D01*
X117942188Y-97029092D01*
X117942188Y-97029090D01*
X117908252Y-96962488D01*
X117863370Y-96874402D01*
X117836935Y-96838017D01*
X117761327Y-96733949D01*
X117638550Y-96611172D01*
X117498101Y-96509132D01*
X117498100Y-96509131D01*
X117498098Y-96509130D01*
X117443669Y-96481397D01*
X117343409Y-96430311D01*
X117303794Y-96417439D01*
X117178287Y-96376659D01*
X117178281Y-96376658D01*
X117006813Y-96349500D01*
X117006808Y-96349500D01*
X116833192Y-96349500D01*
X116833187Y-96349500D01*
X116661718Y-96376658D01*
X116661716Y-96376658D01*
X116661713Y-96376659D01*
X116579154Y-96403484D01*
X116496590Y-96430311D01*
X116341898Y-96509132D01*
X116201449Y-96611172D01*
X116078672Y-96733949D01*
X115976632Y-96874398D01*
X115897811Y-97029090D01*
X115890855Y-97050500D01*
X115844159Y-97194213D01*
X115844158Y-97194216D01*
X115844158Y-97194218D01*
X115817000Y-97365686D01*
X101819716Y-97365686D01*
X101759309Y-97349500D01*
X101640691Y-97349500D01*
X101526114Y-97380201D01*
X101526112Y-97380201D01*
X101526112Y-97380202D01*
X101423387Y-97439511D01*
X101423384Y-97439513D01*
X101339513Y-97523384D01*
X101339511Y-97523387D01*
X101280201Y-97626114D01*
X101249500Y-97740691D01*
X79706640Y-97740691D01*
X79573459Y-97714200D01*
X79573455Y-97714200D01*
X79426545Y-97714200D01*
X79426540Y-97714200D01*
X79282465Y-97742858D01*
X79282455Y-97742861D01*
X79146733Y-97799078D01*
X79146724Y-97799083D01*
X79024580Y-97880698D01*
X79024576Y-97880701D01*
X78920701Y-97984576D01*
X78920698Y-97984580D01*
X78839083Y-98106724D01*
X78839078Y-98106733D01*
X78782861Y-98242455D01*
X78782858Y-98242465D01*
X78754200Y-98386540D01*
X75794905Y-98386540D01*
X76146716Y-98034728D01*
X76092550Y-97995375D01*
X75903217Y-97898904D01*
X75701129Y-97833242D01*
X75491246Y-97800000D01*
X75278754Y-97800000D01*
X75068872Y-97833242D01*
X75068869Y-97833242D01*
X74866782Y-97898904D01*
X74677439Y-97995380D01*
X74623282Y-98034727D01*
X74623282Y-98034728D01*
X75255591Y-98667037D01*
X75192007Y-98684075D01*
X75077993Y-98749901D01*
X74984901Y-98842993D01*
X74919075Y-98957007D01*
X74902037Y-99020591D01*
X74336819Y-98455373D01*
X74303334Y-98394050D01*
X74300500Y-98367692D01*
X74300500Y-96677525D01*
X96699500Y-96677525D01*
X96699500Y-96822475D01*
X96731128Y-96940511D01*
X96737017Y-96962488D01*
X96809488Y-97088011D01*
X96809490Y-97088013D01*
X96809491Y-97088015D01*
X96911985Y-97190509D01*
X96911986Y-97190510D01*
X96911988Y-97190511D01*
X97037511Y-97262982D01*
X97037512Y-97262982D01*
X97037515Y-97262984D01*
X97177525Y-97300500D01*
X97177528Y-97300500D01*
X97322472Y-97300500D01*
X97322475Y-97300500D01*
X97462485Y-97262984D01*
X97588015Y-97190509D01*
X97690509Y-97088015D01*
X97762984Y-96962485D01*
X97800500Y-96822475D01*
X97800500Y-96677525D01*
X97762984Y-96537515D01*
X97699482Y-96427525D01*
X102699500Y-96427525D01*
X102699500Y-96572475D01*
X102737016Y-96712485D01*
X102737017Y-96712488D01*
X102809488Y-96838011D01*
X102809490Y-96838013D01*
X102809491Y-96838015D01*
X102911985Y-96940509D01*
X102911986Y-96940510D01*
X102911988Y-96940511D01*
X103037511Y-97012982D01*
X103037512Y-97012982D01*
X103037515Y-97012984D01*
X103177525Y-97050500D01*
X103177528Y-97050500D01*
X103322472Y-97050500D01*
X103322475Y-97050500D01*
X103462485Y-97012984D01*
X103588015Y-96940509D01*
X103690509Y-96838015D01*
X103762984Y-96712485D01*
X103800500Y-96572475D01*
X103800500Y-96427525D01*
X103762984Y-96287515D01*
X103745893Y-96257913D01*
X103690511Y-96161988D01*
X103690506Y-96161982D01*
X103588017Y-96059493D01*
X103588015Y-96059491D01*
X103462485Y-95987016D01*
X103322475Y-95949500D01*
X103177525Y-95949500D01*
X103062523Y-95980315D01*
X103037511Y-95987017D01*
X102911988Y-96059488D01*
X102911982Y-96059493D01*
X102809493Y-96161982D01*
X102809488Y-96161988D01*
X102737017Y-96287511D01*
X102737016Y-96287515D01*
X102699500Y-96427525D01*
X97699482Y-96427525D01*
X97696421Y-96422224D01*
X97690511Y-96411988D01*
X97690506Y-96411982D01*
X97588017Y-96309493D01*
X97588011Y-96309488D01*
X97462488Y-96237017D01*
X97462489Y-96237017D01*
X97451006Y-96233940D01*
X97322475Y-96199500D01*
X97177525Y-96199500D01*
X97048993Y-96233940D01*
X97037511Y-96237017D01*
X96911988Y-96309488D01*
X96911982Y-96309493D01*
X96809493Y-96411982D01*
X96809488Y-96411988D01*
X96737017Y-96537511D01*
X96737016Y-96537515D01*
X96699500Y-96677525D01*
X74300500Y-96677525D01*
X74300500Y-95438541D01*
X74320185Y-95371502D01*
X74372989Y-95325747D01*
X74442147Y-95315803D01*
X74505703Y-95344828D01*
X74539061Y-95391089D01*
X74573364Y-95473908D01*
X74573371Y-95473920D01*
X74682860Y-95637781D01*
X74682863Y-95637785D01*
X74822214Y-95777136D01*
X74822218Y-95777139D01*
X74986079Y-95886628D01*
X74986092Y-95886635D01*
X75168160Y-95962049D01*
X75168165Y-95962051D01*
X75168169Y-95962051D01*
X75168170Y-95962052D01*
X75361456Y-96000500D01*
X75361459Y-96000500D01*
X75558543Y-96000500D01*
X75688582Y-95974632D01*
X75751835Y-95962051D01*
X75933914Y-95886632D01*
X75966555Y-95864822D01*
X76999499Y-95864822D01*
X77008231Y-95908717D01*
X77008234Y-95908724D01*
X77041495Y-95958503D01*
X77041496Y-95958504D01*
X77091278Y-95991767D01*
X77091281Y-95991767D01*
X77091282Y-95991768D01*
X77135177Y-96000500D01*
X77135180Y-96000500D01*
X78864822Y-96000500D01*
X78908717Y-95991768D01*
X78908717Y-95991767D01*
X78908722Y-95991767D01*
X78958504Y-95958504D01*
X78979203Y-95927525D01*
X79949500Y-95927525D01*
X79949500Y-96072475D01*
X79983537Y-96199500D01*
X79987017Y-96212488D01*
X80059488Y-96338011D01*
X80059490Y-96338013D01*
X80059491Y-96338015D01*
X80161985Y-96440509D01*
X80161986Y-96440510D01*
X80161988Y-96440511D01*
X80287511Y-96512982D01*
X80287512Y-96512982D01*
X80287515Y-96512984D01*
X80427525Y-96550500D01*
X80427528Y-96550500D01*
X80572473Y-96550500D01*
X80572475Y-96550500D01*
X80712485Y-96512984D01*
X80838015Y-96440509D01*
X80940509Y-96338015D01*
X81012984Y-96212485D01*
X81050500Y-96072475D01*
X81050500Y-96018445D01*
X92141630Y-96018445D01*
X92141630Y-96137063D01*
X92172331Y-96251640D01*
X92231641Y-96354367D01*
X92315517Y-96438243D01*
X92418244Y-96497553D01*
X92532821Y-96528254D01*
X92532824Y-96528254D01*
X92651436Y-96528254D01*
X92651439Y-96528254D01*
X92766016Y-96497553D01*
X92868743Y-96438243D01*
X92952619Y-96354367D01*
X93011929Y-96251640D01*
X93042630Y-96137063D01*
X93042630Y-96018445D01*
X93018268Y-95927525D01*
X117949500Y-95927525D01*
X117949500Y-96072475D01*
X117983537Y-96199500D01*
X117987017Y-96212488D01*
X118059488Y-96338011D01*
X118059490Y-96338013D01*
X118059491Y-96338015D01*
X118161985Y-96440509D01*
X118161986Y-96440510D01*
X118161988Y-96440511D01*
X118287511Y-96512982D01*
X118287512Y-96512982D01*
X118287515Y-96512984D01*
X118427525Y-96550500D01*
X118427528Y-96550500D01*
X118508594Y-96550500D01*
X118575633Y-96570185D01*
X118621388Y-96622989D01*
X118631332Y-96692147D01*
X118608912Y-96747385D01*
X118516632Y-96874398D01*
X118437811Y-97029090D01*
X118430855Y-97050500D01*
X118384159Y-97194213D01*
X118384158Y-97194216D01*
X118384158Y-97194218D01*
X118357000Y-97365686D01*
X118357000Y-97634313D01*
X118375323Y-97750000D01*
X118384159Y-97805787D01*
X118414415Y-97898904D01*
X118437811Y-97970909D01*
X118470329Y-98034727D01*
X118507013Y-98106724D01*
X118516632Y-98125601D01*
X118608912Y-98252615D01*
X118632392Y-98318421D01*
X118616566Y-98386475D01*
X118566460Y-98435170D01*
X118508594Y-98449500D01*
X118427525Y-98449500D01*
X118298993Y-98483940D01*
X118287511Y-98487017D01*
X118161988Y-98559488D01*
X118161982Y-98559493D01*
X118059493Y-98661982D01*
X118059488Y-98661988D01*
X117987017Y-98787511D01*
X117987016Y-98787515D01*
X117949500Y-98927525D01*
X117949500Y-99072475D01*
X117985225Y-99205800D01*
X117987017Y-99212488D01*
X118059488Y-99338011D01*
X118059490Y-99338013D01*
X118059491Y-99338015D01*
X118161985Y-99440509D01*
X118161986Y-99440510D01*
X118161988Y-99440511D01*
X118287511Y-99512982D01*
X118287512Y-99512982D01*
X118287515Y-99512984D01*
X118427525Y-99550500D01*
X118427528Y-99550500D01*
X118572472Y-99550500D01*
X118572475Y-99550500D01*
X118712485Y-99512984D01*
X118838015Y-99440509D01*
X118940509Y-99338015D01*
X119012984Y-99212485D01*
X119050500Y-99072475D01*
X119050500Y-98927525D01*
X119012984Y-98787515D01*
X119012982Y-98787512D01*
X119012982Y-98787510D01*
X119009872Y-98780001D01*
X119011709Y-98779240D01*
X118997774Y-98721807D01*
X119020624Y-98655779D01*
X119075543Y-98612586D01*
X119145096Y-98605942D01*
X119159932Y-98609765D01*
X119201713Y-98623341D01*
X119222409Y-98626618D01*
X119373187Y-98650500D01*
X119373192Y-98650500D01*
X119546813Y-98650500D01*
X119624753Y-98638155D01*
X119718287Y-98623341D01*
X119858522Y-98577774D01*
X119928360Y-98575780D01*
X119988193Y-98611860D01*
X120019022Y-98674560D01*
X120011058Y-98743975D01*
X120004226Y-98757705D01*
X119987017Y-98787512D01*
X119987016Y-98787514D01*
X119987016Y-98787515D01*
X119949500Y-98927525D01*
X119949500Y-99072475D01*
X119985225Y-99205800D01*
X119987017Y-99212488D01*
X120059488Y-99338011D01*
X120059490Y-99338013D01*
X120059491Y-99338015D01*
X120161985Y-99440509D01*
X120161986Y-99440510D01*
X120161988Y-99440511D01*
X120287511Y-99512982D01*
X120287512Y-99512982D01*
X120287515Y-99512984D01*
X120427525Y-99550500D01*
X120427528Y-99550500D01*
X120572472Y-99550500D01*
X120572475Y-99550500D01*
X120712485Y-99512984D01*
X120838015Y-99440509D01*
X120940509Y-99338015D01*
X121012984Y-99212485D01*
X121045293Y-99091904D01*
X121081658Y-99032246D01*
X121144506Y-99001717D01*
X121165068Y-99000000D01*
X121750000Y-99000000D01*
X121750000Y-97990747D01*
X121787708Y-98012518D01*
X121927591Y-98050000D01*
X122072409Y-98050000D01*
X122212292Y-98012518D01*
X122250000Y-97990747D01*
X122250000Y-99000000D01*
X123000328Y-99000000D01*
X123000344Y-98999999D01*
X123059872Y-98993598D01*
X123059879Y-98993596D01*
X123194586Y-98943354D01*
X123194593Y-98943350D01*
X123309687Y-98857190D01*
X123309690Y-98857187D01*
X123395850Y-98742093D01*
X123395854Y-98742086D01*
X123446096Y-98607379D01*
X123446098Y-98607372D01*
X123452499Y-98547844D01*
X123452500Y-98547827D01*
X123452500Y-97750000D01*
X122490748Y-97750000D01*
X122512518Y-97712292D01*
X122550000Y-97572409D01*
X122550000Y-97427591D01*
X122512518Y-97287708D01*
X122490748Y-97250000D01*
X123452500Y-97250000D01*
X123452500Y-96452172D01*
X123452499Y-96452155D01*
X123446098Y-96392627D01*
X123446096Y-96392620D01*
X123395854Y-96257913D01*
X123395850Y-96257906D01*
X123309690Y-96142812D01*
X123309687Y-96142809D01*
X123194593Y-96056649D01*
X123194586Y-96056645D01*
X123059879Y-96006403D01*
X123059872Y-96006401D01*
X123000344Y-96000000D01*
X122250000Y-96000000D01*
X122250000Y-97009252D01*
X122212292Y-96987482D01*
X122072409Y-96950000D01*
X121927591Y-96950000D01*
X121787708Y-96987482D01*
X121750000Y-97009252D01*
X121750000Y-96000000D01*
X121165068Y-96000000D01*
X121098029Y-95980315D01*
X121052274Y-95927511D01*
X121045293Y-95908094D01*
X121044161Y-95903868D01*
X121012984Y-95787515D01*
X121006993Y-95777139D01*
X120940511Y-95661988D01*
X120940506Y-95661982D01*
X120838017Y-95559493D01*
X120838011Y-95559488D01*
X120712488Y-95487017D01*
X120712489Y-95487017D01*
X120682065Y-95478865D01*
X120572475Y-95449500D01*
X120427525Y-95449500D01*
X120317935Y-95478865D01*
X120287511Y-95487017D01*
X120161988Y-95559488D01*
X120161982Y-95559493D01*
X120059493Y-95661982D01*
X120059488Y-95661988D01*
X119987017Y-95787511D01*
X119987016Y-95787515D01*
X119949500Y-95927525D01*
X119949500Y-96072475D01*
X119983537Y-96199500D01*
X119987017Y-96212488D01*
X120004225Y-96242293D01*
X120020698Y-96310193D01*
X119997845Y-96376220D01*
X119942924Y-96419411D01*
X119873371Y-96426052D01*
X119858520Y-96422224D01*
X119796699Y-96402137D01*
X119718287Y-96376659D01*
X119718285Y-96376658D01*
X119718283Y-96376658D01*
X119546813Y-96349500D01*
X119546808Y-96349500D01*
X119373192Y-96349500D01*
X119373187Y-96349500D01*
X119201716Y-96376658D01*
X119201711Y-96376659D01*
X119159951Y-96390228D01*
X119090110Y-96392223D01*
X119030278Y-96356142D01*
X118999450Y-96293441D01*
X119007415Y-96224027D01*
X119012115Y-96214581D01*
X119012982Y-96212489D01*
X119012982Y-96212487D01*
X119012984Y-96212485D01*
X119050500Y-96072475D01*
X119050500Y-95927525D01*
X119012984Y-95787515D01*
X119006993Y-95777139D01*
X118940511Y-95661988D01*
X118940506Y-95661982D01*
X118838017Y-95559493D01*
X118838011Y-95559488D01*
X118712488Y-95487017D01*
X118712489Y-95487017D01*
X118682065Y-95478865D01*
X118572475Y-95449500D01*
X118427525Y-95449500D01*
X118317935Y-95478865D01*
X118287511Y-95487017D01*
X118161988Y-95559488D01*
X118161982Y-95559493D01*
X118059493Y-95661982D01*
X118059488Y-95661988D01*
X117987017Y-95787511D01*
X117987016Y-95787515D01*
X117949500Y-95927525D01*
X93018268Y-95927525D01*
X93011929Y-95903868D01*
X92952619Y-95801141D01*
X92868743Y-95717265D01*
X92766016Y-95657955D01*
X92651439Y-95627254D01*
X92532821Y-95627254D01*
X92418244Y-95657955D01*
X92418242Y-95657955D01*
X92418242Y-95657956D01*
X92315517Y-95717265D01*
X92315514Y-95717267D01*
X92231643Y-95801138D01*
X92231641Y-95801141D01*
X92182281Y-95886635D01*
X92172331Y-95903868D01*
X92141630Y-96018445D01*
X81050500Y-96018445D01*
X81050500Y-95927525D01*
X81012984Y-95787515D01*
X81006993Y-95777139D01*
X80940511Y-95661988D01*
X80940506Y-95661982D01*
X80838017Y-95559493D01*
X80838015Y-95559491D01*
X80785952Y-95529432D01*
X80737738Y-95478865D01*
X80724516Y-95410258D01*
X80750484Y-95345394D01*
X80807398Y-95304866D01*
X80815861Y-95302271D01*
X80822470Y-95300500D01*
X80822475Y-95300500D01*
X80962485Y-95262984D01*
X81024536Y-95227159D01*
X90366379Y-95227159D01*
X90366379Y-95345777D01*
X90397080Y-95460354D01*
X90456390Y-95563081D01*
X90540266Y-95646957D01*
X90642993Y-95706267D01*
X90757570Y-95736968D01*
X90757573Y-95736968D01*
X90876185Y-95736968D01*
X90876188Y-95736968D01*
X90990765Y-95706267D01*
X91093492Y-95646957D01*
X91177368Y-95563081D01*
X91236678Y-95460354D01*
X91267379Y-95345777D01*
X91267379Y-95227159D01*
X91236678Y-95112582D01*
X91177368Y-95009855D01*
X91093492Y-94925979D01*
X90990765Y-94866669D01*
X90990764Y-94866668D01*
X90983726Y-94862605D01*
X90985445Y-94859626D01*
X90943400Y-94825760D01*
X90921319Y-94759471D01*
X90938582Y-94691768D01*
X90989708Y-94644145D01*
X91013143Y-94635242D01*
X91022527Y-94632728D01*
X91125254Y-94573418D01*
X91209130Y-94489542D01*
X91244936Y-94427525D01*
X117949500Y-94427525D01*
X117949500Y-94572475D01*
X117985860Y-94708170D01*
X117987017Y-94712488D01*
X118059488Y-94838011D01*
X118059490Y-94838013D01*
X118059491Y-94838015D01*
X118161985Y-94940509D01*
X118161986Y-94940510D01*
X118161988Y-94940511D01*
X118287511Y-95012982D01*
X118287512Y-95012982D01*
X118287515Y-95012984D01*
X118427525Y-95050500D01*
X118427528Y-95050500D01*
X118572472Y-95050500D01*
X118572475Y-95050500D01*
X118712485Y-95012984D01*
X118838015Y-94940509D01*
X118940509Y-94838015D01*
X119012984Y-94712485D01*
X119050500Y-94572475D01*
X119050500Y-94427525D01*
X119012984Y-94287515D01*
X118983828Y-94237016D01*
X118940511Y-94161988D01*
X118940506Y-94161982D01*
X118838017Y-94059493D01*
X118838011Y-94059488D01*
X118712488Y-93987017D01*
X118712489Y-93987017D01*
X118701006Y-93983940D01*
X118572475Y-93949500D01*
X118427525Y-93949500D01*
X118298993Y-93983940D01*
X118287511Y-93987017D01*
X118161988Y-94059488D01*
X118161982Y-94059493D01*
X118059493Y-94161982D01*
X118059488Y-94161988D01*
X117987017Y-94287511D01*
X117987016Y-94287515D01*
X117949500Y-94427525D01*
X91244936Y-94427525D01*
X91268440Y-94386815D01*
X91299141Y-94272238D01*
X91299141Y-94153620D01*
X91268440Y-94039043D01*
X91209130Y-93936316D01*
X91125254Y-93852440D01*
X91022527Y-93793130D01*
X90907950Y-93762429D01*
X90789332Y-93762429D01*
X90674755Y-93793130D01*
X90674753Y-93793130D01*
X90674753Y-93793131D01*
X90572028Y-93852440D01*
X90572025Y-93852442D01*
X90488154Y-93936313D01*
X90488152Y-93936316D01*
X90429474Y-94037949D01*
X90428842Y-94039043D01*
X90398141Y-94153620D01*
X90398141Y-94272238D01*
X90428842Y-94386815D01*
X90488152Y-94489542D01*
X90572028Y-94573418D01*
X90674753Y-94632727D01*
X90681794Y-94636792D01*
X90680064Y-94639787D01*
X90722047Y-94673531D01*
X90744195Y-94739797D01*
X90727002Y-94807518D01*
X90675925Y-94855194D01*
X90652380Y-94864153D01*
X90642994Y-94866668D01*
X90642993Y-94866668D01*
X90540266Y-94925979D01*
X90540263Y-94925981D01*
X90456392Y-95009852D01*
X90456390Y-95009855D01*
X90397080Y-95112582D01*
X90366379Y-95227159D01*
X81024536Y-95227159D01*
X81088015Y-95190509D01*
X81190509Y-95088015D01*
X81262984Y-94962485D01*
X81300500Y-94822475D01*
X81300500Y-94677525D01*
X81262984Y-94537515D01*
X81256385Y-94526086D01*
X81190511Y-94411988D01*
X81190506Y-94411982D01*
X81088017Y-94309493D01*
X81088011Y-94309488D01*
X80962488Y-94237017D01*
X80962489Y-94237017D01*
X80951006Y-94233940D01*
X80822475Y-94199500D01*
X80677525Y-94199500D01*
X80548993Y-94233940D01*
X80537511Y-94237017D01*
X80411988Y-94309488D01*
X80411982Y-94309493D01*
X80309493Y-94411982D01*
X80309488Y-94411988D01*
X80237017Y-94537511D01*
X80237016Y-94537515D01*
X80199500Y-94677525D01*
X80199500Y-94822475D01*
X80231128Y-94940511D01*
X80237017Y-94962488D01*
X80309488Y-95088011D01*
X80309490Y-95088013D01*
X80309491Y-95088015D01*
X80411985Y-95190509D01*
X80460502Y-95218520D01*
X80464045Y-95220566D01*
X80512261Y-95271133D01*
X80525483Y-95339740D01*
X80499515Y-95404605D01*
X80442601Y-95445133D01*
X80434139Y-95447728D01*
X80427526Y-95449500D01*
X80427525Y-95449500D01*
X80336438Y-95473907D01*
X80287511Y-95487017D01*
X80161988Y-95559488D01*
X80161982Y-95559493D01*
X80059493Y-95661982D01*
X80059488Y-95661988D01*
X79987017Y-95787511D01*
X79987016Y-95787515D01*
X79949500Y-95927525D01*
X78979203Y-95927525D01*
X78991767Y-95908722D01*
X78992733Y-95903866D01*
X78994456Y-95895207D01*
X78994456Y-95895206D01*
X79000500Y-95864822D01*
X79000500Y-94135177D01*
X78991768Y-94091282D01*
X78991767Y-94091281D01*
X78991767Y-94091278D01*
X78958504Y-94041496D01*
X78953197Y-94037950D01*
X78908724Y-94008234D01*
X78908717Y-94008231D01*
X78864822Y-93999500D01*
X78864820Y-93999500D01*
X77135180Y-93999500D01*
X77135178Y-93999500D01*
X77091282Y-94008231D01*
X77091275Y-94008234D01*
X77041496Y-94041495D01*
X77041495Y-94041496D01*
X77008234Y-94091275D01*
X77008231Y-94091282D01*
X76999500Y-94135177D01*
X76999500Y-94135180D01*
X76999500Y-95864820D01*
X76999500Y-95864822D01*
X76999499Y-95864822D01*
X75966555Y-95864822D01*
X76097782Y-95777139D01*
X76237139Y-95637782D01*
X76346632Y-95473914D01*
X76422051Y-95291835D01*
X76457707Y-95112582D01*
X76460500Y-95098543D01*
X76460500Y-94901456D01*
X76422052Y-94708170D01*
X76422051Y-94708169D01*
X76422051Y-94708165D01*
X76412613Y-94685379D01*
X76346635Y-94526092D01*
X76346628Y-94526079D01*
X76237139Y-94362218D01*
X76237136Y-94362214D01*
X76097785Y-94222863D01*
X76097782Y-94222861D01*
X75933920Y-94113371D01*
X75933907Y-94113364D01*
X75751839Y-94037950D01*
X75751829Y-94037947D01*
X75558543Y-93999500D01*
X75558541Y-93999500D01*
X75361459Y-93999500D01*
X75361457Y-93999500D01*
X75168170Y-94037947D01*
X75168160Y-94037950D01*
X74986092Y-94113364D01*
X74986079Y-94113371D01*
X74822218Y-94222860D01*
X74822214Y-94222863D01*
X74682863Y-94362214D01*
X74682860Y-94362218D01*
X74573371Y-94526079D01*
X74573364Y-94526092D01*
X74539061Y-94608910D01*
X74495220Y-94663314D01*
X74428926Y-94685379D01*
X74361227Y-94668100D01*
X74313616Y-94616963D01*
X74300500Y-94561458D01*
X74300500Y-92898541D01*
X74320185Y-92831502D01*
X74372989Y-92785747D01*
X74442147Y-92775803D01*
X74505703Y-92804828D01*
X74539061Y-92851089D01*
X74573364Y-92933908D01*
X74573371Y-92933920D01*
X74682860Y-93097781D01*
X74682863Y-93097785D01*
X74822214Y-93237136D01*
X74822218Y-93237139D01*
X74986079Y-93346628D01*
X74986092Y-93346635D01*
X75168160Y-93422049D01*
X75168165Y-93422051D01*
X75168169Y-93422051D01*
X75168170Y-93422052D01*
X75361456Y-93460500D01*
X75361459Y-93460500D01*
X75558543Y-93460500D01*
X75688582Y-93434632D01*
X75751835Y-93422051D01*
X75933914Y-93346632D01*
X76097782Y-93237139D01*
X76237139Y-93097782D01*
X76346632Y-92933914D01*
X76422051Y-92751835D01*
X76439923Y-92661988D01*
X76460500Y-92558543D01*
X76999499Y-92558543D01*
X77037947Y-92751829D01*
X77037950Y-92751839D01*
X77113364Y-92933907D01*
X77113371Y-92933920D01*
X77222860Y-93097781D01*
X77222863Y-93097785D01*
X77362214Y-93237136D01*
X77362218Y-93237139D01*
X77526079Y-93346628D01*
X77526092Y-93346635D01*
X77708160Y-93422049D01*
X77708165Y-93422051D01*
X77708169Y-93422051D01*
X77708170Y-93422052D01*
X77901456Y-93460500D01*
X77901459Y-93460500D01*
X78098543Y-93460500D01*
X78228582Y-93434632D01*
X78291835Y-93422051D01*
X78473914Y-93346632D01*
X78637782Y-93237139D01*
X78690798Y-93184123D01*
X81733557Y-93184123D01*
X81733557Y-93329073D01*
X81758471Y-93422051D01*
X81771074Y-93469086D01*
X81843545Y-93594609D01*
X81843547Y-93594611D01*
X81843548Y-93594613D01*
X81946042Y-93697107D01*
X81946043Y-93697108D01*
X81946045Y-93697109D01*
X82071568Y-93769580D01*
X82071569Y-93769580D01*
X82071572Y-93769582D01*
X82211582Y-93807098D01*
X82211585Y-93807098D01*
X82356529Y-93807098D01*
X82356532Y-93807098D01*
X82496542Y-93769582D01*
X82622072Y-93697107D01*
X82724566Y-93594613D01*
X82797041Y-93469083D01*
X82834557Y-93329073D01*
X82834557Y-93184123D01*
X82797041Y-93044113D01*
X82779067Y-93012982D01*
X82724568Y-92918586D01*
X82724563Y-92918580D01*
X82622074Y-92816091D01*
X82622068Y-92816086D01*
X82496545Y-92743615D01*
X82496546Y-92743615D01*
X82485634Y-92740691D01*
X101249500Y-92740691D01*
X101249500Y-92859309D01*
X101279374Y-92970800D01*
X101280202Y-92973889D01*
X101317217Y-93038000D01*
X101333690Y-93105900D01*
X101317217Y-93162000D01*
X101280202Y-93226110D01*
X101280201Y-93226114D01*
X101249500Y-93340691D01*
X101249500Y-93459309D01*
X101280201Y-93573886D01*
X101339511Y-93676613D01*
X101423387Y-93760489D01*
X101526114Y-93819799D01*
X101640691Y-93850500D01*
X101640694Y-93850500D01*
X101759306Y-93850500D01*
X101759309Y-93850500D01*
X101873886Y-93819799D01*
X101976613Y-93760489D01*
X102060489Y-93676613D01*
X102119799Y-93573886D01*
X102150500Y-93459309D01*
X102150500Y-93340691D01*
X102119799Y-93226114D01*
X102082782Y-93162000D01*
X102082040Y-93158941D01*
X102079872Y-93156661D01*
X102073860Y-93125226D01*
X102066309Y-93094102D01*
X102067161Y-93090196D01*
X102066748Y-93088035D01*
X102069525Y-93079369D01*
X102075118Y-93053748D01*
X102078391Y-93045605D01*
X102119799Y-92973886D01*
X102132221Y-92927525D01*
X118949500Y-92927525D01*
X118949500Y-93072475D01*
X118979417Y-93184125D01*
X118987017Y-93212488D01*
X119059488Y-93338011D01*
X119059490Y-93338013D01*
X119059491Y-93338015D01*
X119161985Y-93440509D01*
X119161986Y-93440510D01*
X119161988Y-93440511D01*
X119287511Y-93512982D01*
X119287512Y-93512982D01*
X119287515Y-93512984D01*
X119427525Y-93550500D01*
X119427528Y-93550500D01*
X119572472Y-93550500D01*
X119572475Y-93550500D01*
X119712485Y-93512984D01*
X119838015Y-93440509D01*
X119940509Y-93338015D01*
X120012984Y-93212485D01*
X120050500Y-93072475D01*
X120050500Y-93072472D01*
X120052603Y-93064624D01*
X120054253Y-93065066D01*
X120078556Y-93010116D01*
X120136877Y-92971639D01*
X120206741Y-92970800D01*
X120235238Y-92982802D01*
X120287509Y-93012981D01*
X120287510Y-93012982D01*
X120287512Y-93012982D01*
X120287515Y-93012984D01*
X120427525Y-93050500D01*
X120427528Y-93050500D01*
X120572472Y-93050500D01*
X120572475Y-93050500D01*
X120712485Y-93012984D01*
X120838015Y-92940509D01*
X120940509Y-92838015D01*
X121012984Y-92712485D01*
X121050500Y-92572475D01*
X121050500Y-92427525D01*
X121012984Y-92287515D01*
X120940509Y-92161985D01*
X120838015Y-92059491D01*
X120838013Y-92059490D01*
X120838011Y-92059488D01*
X120712488Y-91987017D01*
X120712489Y-91987017D01*
X120701006Y-91983940D01*
X120572475Y-91949500D01*
X120427525Y-91949500D01*
X120298993Y-91983940D01*
X120287511Y-91987017D01*
X120161988Y-92059488D01*
X120161982Y-92059493D01*
X120059493Y-92161982D01*
X120059488Y-92161988D01*
X119987017Y-92287511D01*
X119987016Y-92287515D01*
X119949500Y-92427525D01*
X119949500Y-92427527D01*
X119947397Y-92435376D01*
X119945748Y-92434934D01*
X119921429Y-92489899D01*
X119863102Y-92528366D01*
X119793238Y-92529193D01*
X119764763Y-92517198D01*
X119712485Y-92487016D01*
X119572475Y-92449500D01*
X119427525Y-92449500D01*
X119298993Y-92483940D01*
X119287511Y-92487017D01*
X119161988Y-92559488D01*
X119161982Y-92559493D01*
X119059493Y-92661982D01*
X119059488Y-92661988D01*
X118987017Y-92787511D01*
X118987016Y-92787515D01*
X118949500Y-92927525D01*
X102132221Y-92927525D01*
X102150500Y-92859309D01*
X102150500Y-92740691D01*
X102119799Y-92626114D01*
X102060489Y-92523387D01*
X101976613Y-92439511D01*
X101873886Y-92380201D01*
X101759309Y-92349500D01*
X101640691Y-92349500D01*
X101526114Y-92380201D01*
X101526112Y-92380201D01*
X101526112Y-92380202D01*
X101423387Y-92439511D01*
X101423384Y-92439513D01*
X101339513Y-92523384D01*
X101339511Y-92523387D01*
X101311172Y-92572472D01*
X101280201Y-92626114D01*
X101249500Y-92740691D01*
X82485634Y-92740691D01*
X82485063Y-92740538D01*
X82356532Y-92706098D01*
X82211582Y-92706098D01*
X82083050Y-92740538D01*
X82071568Y-92743615D01*
X81946045Y-92816086D01*
X81946039Y-92816091D01*
X81843550Y-92918580D01*
X81843545Y-92918586D01*
X81771074Y-93044109D01*
X81771073Y-93044113D01*
X81733557Y-93184123D01*
X78690798Y-93184123D01*
X78777139Y-93097782D01*
X78833799Y-93012984D01*
X78886628Y-92933920D01*
X78886628Y-92933919D01*
X78886632Y-92933914D01*
X78962051Y-92751835D01*
X78979923Y-92661988D01*
X79000500Y-92558543D01*
X79000500Y-92361456D01*
X78962052Y-92168170D01*
X78962051Y-92168169D01*
X78962051Y-92168165D01*
X78962049Y-92168160D01*
X78886635Y-91986092D01*
X78886628Y-91986079D01*
X78777139Y-91822218D01*
X78777136Y-91822214D01*
X78637785Y-91682863D01*
X78637781Y-91682860D01*
X78473920Y-91573371D01*
X78473907Y-91573364D01*
X78291839Y-91497950D01*
X78291829Y-91497947D01*
X78098543Y-91459500D01*
X78098541Y-91459500D01*
X77901459Y-91459500D01*
X77901457Y-91459500D01*
X77708170Y-91497947D01*
X77708160Y-91497950D01*
X77526092Y-91573364D01*
X77526079Y-91573371D01*
X77362218Y-91682860D01*
X77362214Y-91682863D01*
X77222863Y-91822214D01*
X77222860Y-91822218D01*
X77113371Y-91986079D01*
X77113364Y-91986092D01*
X77037950Y-92168160D01*
X77037947Y-92168170D01*
X76999500Y-92361456D01*
X76999500Y-92361459D01*
X76999500Y-92558541D01*
X76999500Y-92558543D01*
X76999499Y-92558543D01*
X76460500Y-92558543D01*
X76460500Y-92361456D01*
X76422052Y-92168170D01*
X76422051Y-92168169D01*
X76422051Y-92168165D01*
X76422049Y-92168160D01*
X76346635Y-91986092D01*
X76346628Y-91986079D01*
X76237139Y-91822218D01*
X76237136Y-91822214D01*
X76097785Y-91682863D01*
X76097781Y-91682860D01*
X75933920Y-91573371D01*
X75933907Y-91573364D01*
X75751839Y-91497950D01*
X75751829Y-91497947D01*
X75558543Y-91459500D01*
X75558541Y-91459500D01*
X75361459Y-91459500D01*
X75361457Y-91459500D01*
X75168170Y-91497947D01*
X75168160Y-91497950D01*
X74986092Y-91573364D01*
X74986079Y-91573371D01*
X74822218Y-91682860D01*
X74822214Y-91682863D01*
X74682863Y-91822214D01*
X74682860Y-91822218D01*
X74573371Y-91986079D01*
X74573364Y-91986092D01*
X74539061Y-92068910D01*
X74495220Y-92123314D01*
X74428926Y-92145379D01*
X74361227Y-92128100D01*
X74313616Y-92076963D01*
X74300500Y-92021458D01*
X74300500Y-90358541D01*
X74320185Y-90291502D01*
X74372989Y-90245747D01*
X74442147Y-90235803D01*
X74505703Y-90264828D01*
X74539061Y-90311089D01*
X74573364Y-90393908D01*
X74573371Y-90393920D01*
X74682860Y-90557781D01*
X74682863Y-90557785D01*
X74822214Y-90697136D01*
X74822218Y-90697139D01*
X74986079Y-90806628D01*
X74986092Y-90806635D01*
X75168160Y-90882049D01*
X75168165Y-90882051D01*
X75168169Y-90882051D01*
X75168170Y-90882052D01*
X75361456Y-90920500D01*
X75361459Y-90920500D01*
X75558543Y-90920500D01*
X75688582Y-90894632D01*
X75751835Y-90882051D01*
X75933914Y-90806632D01*
X76097782Y-90697139D01*
X76237139Y-90557782D01*
X76346632Y-90393914D01*
X76422051Y-90211835D01*
X76452391Y-90059309D01*
X76460500Y-90018543D01*
X76999499Y-90018543D01*
X77037947Y-90211829D01*
X77037950Y-90211839D01*
X77113364Y-90393907D01*
X77113371Y-90393920D01*
X77222860Y-90557781D01*
X77222863Y-90557785D01*
X77362214Y-90697136D01*
X77362218Y-90697139D01*
X77526079Y-90806628D01*
X77526092Y-90806635D01*
X77708160Y-90882049D01*
X77708165Y-90882051D01*
X77708169Y-90882051D01*
X77708170Y-90882052D01*
X77901456Y-90920500D01*
X77901459Y-90920500D01*
X78098543Y-90920500D01*
X78228582Y-90894632D01*
X78291835Y-90882051D01*
X78473914Y-90806632D01*
X78637782Y-90697139D01*
X78777139Y-90557782D01*
X78886632Y-90393914D01*
X78962051Y-90211835D01*
X78992391Y-90059309D01*
X79000500Y-90018543D01*
X79000500Y-89940691D01*
X80049500Y-89940691D01*
X80049500Y-90059309D01*
X80080201Y-90173886D01*
X80139511Y-90276613D01*
X80223387Y-90360489D01*
X80326114Y-90419799D01*
X80440691Y-90450500D01*
X80440694Y-90450500D01*
X80559306Y-90450500D01*
X80559309Y-90450500D01*
X80673886Y-90419799D01*
X80776613Y-90360489D01*
X80860489Y-90276613D01*
X80919799Y-90173886D01*
X80950500Y-90059309D01*
X80950500Y-89940691D01*
X84549500Y-89940691D01*
X84549500Y-90059309D01*
X84580201Y-90173886D01*
X84639511Y-90276613D01*
X84723387Y-90360489D01*
X84826114Y-90419799D01*
X84940691Y-90450500D01*
X84940694Y-90450500D01*
X85059307Y-90450500D01*
X85059309Y-90450500D01*
X85094632Y-90441035D01*
X85164481Y-90442696D01*
X85222344Y-90481858D01*
X85249849Y-90546086D01*
X85238263Y-90614989D01*
X85214408Y-90648490D01*
X85139511Y-90723387D01*
X85080201Y-90826114D01*
X85049500Y-90940691D01*
X85049500Y-91059309D01*
X85080201Y-91173886D01*
X85139511Y-91276613D01*
X85223387Y-91360489D01*
X85326114Y-91419799D01*
X85440691Y-91450500D01*
X85440694Y-91450500D01*
X85559306Y-91450500D01*
X85559309Y-91450500D01*
X85673886Y-91419799D01*
X85776613Y-91360489D01*
X85860489Y-91276613D01*
X85919799Y-91173886D01*
X85950500Y-91059309D01*
X85950500Y-90940691D01*
X85919799Y-90826114D01*
X85860489Y-90723387D01*
X85776613Y-90639511D01*
X85673886Y-90580201D01*
X85559309Y-90549500D01*
X85440691Y-90549500D01*
X85440689Y-90549500D01*
X85405365Y-90558965D01*
X85335515Y-90557301D01*
X85277653Y-90518138D01*
X85250150Y-90453909D01*
X85261737Y-90385007D01*
X85285587Y-90351514D01*
X85360489Y-90276613D01*
X85419799Y-90173886D01*
X85450500Y-90059309D01*
X85450500Y-89940691D01*
X86049500Y-89940691D01*
X86049500Y-90059309D01*
X86080201Y-90173886D01*
X86139511Y-90276613D01*
X86223387Y-90360489D01*
X86326114Y-90419799D01*
X86440691Y-90450500D01*
X86440694Y-90450500D01*
X86559306Y-90450500D01*
X86559309Y-90450500D01*
X86673886Y-90419799D01*
X86776613Y-90360489D01*
X86860489Y-90276613D01*
X86919799Y-90173886D01*
X86950500Y-90059309D01*
X86950500Y-89940691D01*
X86919799Y-89826114D01*
X86860489Y-89723387D01*
X86776613Y-89639511D01*
X86673886Y-89580201D01*
X86559309Y-89549500D01*
X86440691Y-89549500D01*
X86326114Y-89580201D01*
X86326112Y-89580201D01*
X86326112Y-89580202D01*
X86223387Y-89639511D01*
X86223384Y-89639513D01*
X86139513Y-89723384D01*
X86139511Y-89723387D01*
X86082889Y-89821459D01*
X86080201Y-89826114D01*
X86049500Y-89940691D01*
X85450500Y-89940691D01*
X85419799Y-89826114D01*
X85360489Y-89723387D01*
X85276613Y-89639511D01*
X85173886Y-89580201D01*
X85059309Y-89549500D01*
X84940691Y-89549500D01*
X84826114Y-89580201D01*
X84826112Y-89580201D01*
X84826112Y-89580202D01*
X84723387Y-89639511D01*
X84723384Y-89639513D01*
X84639513Y-89723384D01*
X84639511Y-89723387D01*
X84582889Y-89821459D01*
X84580201Y-89826114D01*
X84549500Y-89940691D01*
X80950500Y-89940691D01*
X80919799Y-89826114D01*
X80860489Y-89723387D01*
X80776613Y-89639511D01*
X80673886Y-89580201D01*
X80559309Y-89549500D01*
X80440691Y-89549500D01*
X80326114Y-89580201D01*
X80326112Y-89580201D01*
X80326112Y-89580202D01*
X80223387Y-89639511D01*
X80223384Y-89639513D01*
X80139513Y-89723384D01*
X80139511Y-89723387D01*
X80082889Y-89821459D01*
X80080201Y-89826114D01*
X80049500Y-89940691D01*
X79000500Y-89940691D01*
X79000500Y-89821456D01*
X78962052Y-89628170D01*
X78962051Y-89628169D01*
X78962051Y-89628165D01*
X78938984Y-89572475D01*
X78886635Y-89446092D01*
X78886628Y-89446079D01*
X78777139Y-89282218D01*
X78777136Y-89282214D01*
X78637785Y-89142863D01*
X78637781Y-89142860D01*
X78473920Y-89033371D01*
X78473907Y-89033364D01*
X78291839Y-88957950D01*
X78291829Y-88957947D01*
X78098543Y-88919500D01*
X78098541Y-88919500D01*
X77901459Y-88919500D01*
X77901457Y-88919500D01*
X77708170Y-88957947D01*
X77708160Y-88957950D01*
X77526092Y-89033364D01*
X77526079Y-89033371D01*
X77362218Y-89142860D01*
X77362214Y-89142863D01*
X77222863Y-89282214D01*
X77222860Y-89282218D01*
X77113371Y-89446079D01*
X77113364Y-89446092D01*
X77037950Y-89628160D01*
X77037947Y-89628170D01*
X76999500Y-89821456D01*
X76999500Y-89821459D01*
X76999500Y-90018541D01*
X76999500Y-90018543D01*
X76999499Y-90018543D01*
X76460500Y-90018543D01*
X76460500Y-89821456D01*
X76422052Y-89628170D01*
X76422051Y-89628169D01*
X76422051Y-89628165D01*
X76398984Y-89572475D01*
X76346635Y-89446092D01*
X76346628Y-89446079D01*
X76237139Y-89282218D01*
X76237136Y-89282214D01*
X76097785Y-89142863D01*
X76097781Y-89142860D01*
X75933920Y-89033371D01*
X75933907Y-89033364D01*
X75751839Y-88957950D01*
X75751829Y-88957947D01*
X75558543Y-88919500D01*
X75558541Y-88919500D01*
X75361459Y-88919500D01*
X75361457Y-88919500D01*
X75168170Y-88957947D01*
X75168160Y-88957950D01*
X74986092Y-89033364D01*
X74986079Y-89033371D01*
X74822218Y-89142860D01*
X74822214Y-89142863D01*
X74682863Y-89282214D01*
X74682860Y-89282218D01*
X74573371Y-89446079D01*
X74573364Y-89446092D01*
X74539061Y-89528910D01*
X74495220Y-89583314D01*
X74428926Y-89605379D01*
X74361227Y-89588100D01*
X74313616Y-89536963D01*
X74300500Y-89481458D01*
X74300500Y-88740691D01*
X94849500Y-88740691D01*
X94849500Y-88859309D01*
X94880201Y-88973886D01*
X94939511Y-89076613D01*
X95023387Y-89160489D01*
X95126114Y-89219799D01*
X95240691Y-89250500D01*
X95240694Y-89250500D01*
X95359306Y-89250500D01*
X95359309Y-89250500D01*
X95473886Y-89219799D01*
X95576613Y-89160489D01*
X95660489Y-89076613D01*
X95719799Y-88973886D01*
X95750500Y-88859309D01*
X95750500Y-88740691D01*
X95719799Y-88626114D01*
X95660489Y-88523387D01*
X95576613Y-88439511D01*
X95556565Y-88427936D01*
X105445898Y-88427936D01*
X105445898Y-88572886D01*
X105460161Y-88626114D01*
X105483415Y-88712899D01*
X105555886Y-88838422D01*
X105555891Y-88838428D01*
X105631788Y-88914325D01*
X105665273Y-88975648D01*
X105660289Y-89045340D01*
X105631789Y-89089687D01*
X105559488Y-89161988D01*
X105487017Y-89287511D01*
X105487016Y-89287515D01*
X105449500Y-89427525D01*
X105449500Y-89572475D01*
X105467463Y-89639513D01*
X105487017Y-89712488D01*
X105559488Y-89838011D01*
X105559490Y-89838013D01*
X105559491Y-89838015D01*
X105661985Y-89940509D01*
X105661986Y-89940510D01*
X105661988Y-89940511D01*
X105787511Y-90012982D01*
X105787512Y-90012982D01*
X105787515Y-90012984D01*
X105927525Y-90050500D01*
X105927528Y-90050500D01*
X106072472Y-90050500D01*
X106072475Y-90050500D01*
X106212485Y-90012984D01*
X106338015Y-89940509D01*
X106440509Y-89838015D01*
X106512984Y-89712485D01*
X106550500Y-89572475D01*
X106550500Y-89427525D01*
X106512984Y-89287515D01*
X106509923Y-89282214D01*
X106440511Y-89161988D01*
X106440506Y-89161982D01*
X106364609Y-89086085D01*
X106331124Y-89024762D01*
X106336108Y-88955070D01*
X106364605Y-88910727D01*
X106436907Y-88838426D01*
X106509382Y-88712896D01*
X106546898Y-88572886D01*
X106546898Y-88427936D01*
X106509382Y-88287926D01*
X106457973Y-88198884D01*
X106436909Y-88162399D01*
X106436904Y-88162393D01*
X106364198Y-88089687D01*
X106330713Y-88028364D01*
X106335697Y-87958672D01*
X106364194Y-87914329D01*
X106440509Y-87838015D01*
X106512984Y-87712485D01*
X106550500Y-87572475D01*
X106550500Y-87427525D01*
X106540629Y-87390685D01*
X108735463Y-87390685D01*
X108735463Y-87535635D01*
X108771958Y-87671835D01*
X108772980Y-87675648D01*
X108845451Y-87801171D01*
X108845453Y-87801173D01*
X108845454Y-87801175D01*
X108947948Y-87903669D01*
X108947949Y-87903670D01*
X108947951Y-87903671D01*
X109073474Y-87976142D01*
X109073475Y-87976142D01*
X109073478Y-87976144D01*
X109213488Y-88013660D01*
X109213491Y-88013660D01*
X109358435Y-88013660D01*
X109358438Y-88013660D01*
X109498448Y-87976144D01*
X109623978Y-87903669D01*
X109726472Y-87801175D01*
X109798947Y-87675645D01*
X109836463Y-87535635D01*
X109836463Y-87390685D01*
X109798947Y-87250675D01*
X109783192Y-87223387D01*
X109726474Y-87125148D01*
X109726469Y-87125142D01*
X109623980Y-87022653D01*
X109623974Y-87022648D01*
X109517462Y-86961153D01*
X119659500Y-86961153D01*
X119659500Y-87118846D01*
X119690261Y-87273489D01*
X119690264Y-87273501D01*
X119750602Y-87419172D01*
X119750609Y-87419185D01*
X119838210Y-87550288D01*
X119838213Y-87550292D01*
X119949707Y-87661786D01*
X119949711Y-87661789D01*
X120080814Y-87749390D01*
X120080827Y-87749397D01*
X120205832Y-87801175D01*
X120226503Y-87809737D01*
X120368645Y-87838011D01*
X120381153Y-87840499D01*
X120381156Y-87840500D01*
X120381158Y-87840500D01*
X120538844Y-87840500D01*
X120538845Y-87840499D01*
X120693497Y-87809737D01*
X120839179Y-87749394D01*
X120970289Y-87661789D01*
X121081789Y-87550289D01*
X121169394Y-87419179D01*
X121229737Y-87273497D01*
X121260500Y-87118842D01*
X121260500Y-86961158D01*
X121260500Y-86961155D01*
X121260499Y-86961153D01*
X121258316Y-86950177D01*
X121229737Y-86806503D01*
X121229735Y-86806498D01*
X121169397Y-86660827D01*
X121169390Y-86660814D01*
X121081789Y-86529711D01*
X121081786Y-86529707D01*
X120970292Y-86418213D01*
X120970288Y-86418210D01*
X120839185Y-86330609D01*
X120839172Y-86330602D01*
X120693501Y-86270264D01*
X120693489Y-86270261D01*
X120538845Y-86239500D01*
X120538842Y-86239500D01*
X120381158Y-86239500D01*
X120381155Y-86239500D01*
X120226510Y-86270261D01*
X120226498Y-86270264D01*
X120080827Y-86330602D01*
X120080814Y-86330609D01*
X119949711Y-86418210D01*
X119949707Y-86418213D01*
X119838213Y-86529707D01*
X119838210Y-86529711D01*
X119750609Y-86660814D01*
X119750602Y-86660827D01*
X119690264Y-86806498D01*
X119690261Y-86806510D01*
X119659500Y-86961153D01*
X109517462Y-86961153D01*
X109498451Y-86950177D01*
X109498452Y-86950177D01*
X109486969Y-86947100D01*
X109358438Y-86912660D01*
X109213488Y-86912660D01*
X109084956Y-86947100D01*
X109073474Y-86950177D01*
X108947951Y-87022648D01*
X108947945Y-87022653D01*
X108845456Y-87125142D01*
X108845451Y-87125148D01*
X108772980Y-87250671D01*
X108772979Y-87250675D01*
X108735463Y-87390685D01*
X106540629Y-87390685D01*
X106512984Y-87287515D01*
X106497380Y-87260489D01*
X106440511Y-87161988D01*
X106440506Y-87161982D01*
X106338017Y-87059493D01*
X106338011Y-87059488D01*
X106212488Y-86987017D01*
X106212489Y-86987017D01*
X106201006Y-86983940D01*
X106072475Y-86949500D01*
X105927525Y-86949500D01*
X105798993Y-86983940D01*
X105787511Y-86987017D01*
X105661988Y-87059488D01*
X105661982Y-87059493D01*
X105559493Y-87161982D01*
X105559488Y-87161988D01*
X105487017Y-87287511D01*
X105487016Y-87287515D01*
X105449500Y-87427525D01*
X105449500Y-87572475D01*
X105482546Y-87695803D01*
X105487017Y-87712488D01*
X105559488Y-87838011D01*
X105559493Y-87838017D01*
X105632199Y-87910723D01*
X105665684Y-87972046D01*
X105660700Y-88041738D01*
X105632200Y-88086085D01*
X105555886Y-88162399D01*
X105483415Y-88287922D01*
X105483414Y-88287926D01*
X105445898Y-88427936D01*
X95556565Y-88427936D01*
X95473886Y-88380201D01*
X95359309Y-88349500D01*
X95240691Y-88349500D01*
X95126114Y-88380201D01*
X95126112Y-88380201D01*
X95126112Y-88380202D01*
X95023387Y-88439511D01*
X95023384Y-88439513D01*
X94939513Y-88523384D01*
X94939511Y-88523387D01*
X94918091Y-88560488D01*
X94880201Y-88626114D01*
X94849500Y-88740691D01*
X74300500Y-88740691D01*
X74300500Y-87818541D01*
X74320185Y-87751502D01*
X74372989Y-87705747D01*
X74442147Y-87695803D01*
X74505703Y-87724828D01*
X74539061Y-87771089D01*
X74573364Y-87853908D01*
X74573371Y-87853920D01*
X74682860Y-88017781D01*
X74682863Y-88017785D01*
X74822214Y-88157136D01*
X74822218Y-88157139D01*
X74986079Y-88266628D01*
X74986092Y-88266635D01*
X75168160Y-88342049D01*
X75168165Y-88342051D01*
X75168169Y-88342051D01*
X75168170Y-88342052D01*
X75361456Y-88380500D01*
X75361459Y-88380500D01*
X75558543Y-88380500D01*
X75688582Y-88354632D01*
X75751835Y-88342051D01*
X75933914Y-88266632D01*
X76097782Y-88157139D01*
X76237139Y-88017782D01*
X76346632Y-87853914D01*
X76422051Y-87671835D01*
X76446228Y-87550289D01*
X76460500Y-87478543D01*
X76460500Y-87281456D01*
X76422052Y-87088170D01*
X76422051Y-87088169D01*
X76422051Y-87088165D01*
X76416137Y-87073887D01*
X76346635Y-86906092D01*
X76346628Y-86906079D01*
X76237139Y-86742218D01*
X76237136Y-86742214D01*
X76097785Y-86602863D01*
X76097781Y-86602860D01*
X75933920Y-86493371D01*
X75933907Y-86493364D01*
X75751839Y-86417950D01*
X75751829Y-86417947D01*
X75558543Y-86379500D01*
X75558541Y-86379500D01*
X75361459Y-86379500D01*
X75361457Y-86379500D01*
X75168170Y-86417947D01*
X75168160Y-86417950D01*
X74986092Y-86493364D01*
X74986079Y-86493371D01*
X74822218Y-86602860D01*
X74822214Y-86602863D01*
X74682863Y-86742214D01*
X74682860Y-86742218D01*
X74573371Y-86906079D01*
X74573364Y-86906092D01*
X74539061Y-86988910D01*
X74495220Y-87043314D01*
X74428926Y-87065379D01*
X74361227Y-87048100D01*
X74313616Y-86996963D01*
X74300500Y-86941458D01*
X74300500Y-85278541D01*
X74320185Y-85211502D01*
X74372989Y-85165747D01*
X74442147Y-85155803D01*
X74505703Y-85184828D01*
X74539061Y-85231089D01*
X74573364Y-85313908D01*
X74573371Y-85313920D01*
X74682860Y-85477781D01*
X74682863Y-85477785D01*
X74822214Y-85617136D01*
X74822218Y-85617139D01*
X74986079Y-85726628D01*
X74986092Y-85726635D01*
X75115414Y-85780201D01*
X75168165Y-85802051D01*
X75168169Y-85802051D01*
X75168170Y-85802052D01*
X75361456Y-85840500D01*
X75361459Y-85840500D01*
X75558543Y-85840500D01*
X75688582Y-85814632D01*
X75751835Y-85802051D01*
X75933914Y-85726632D01*
X76097782Y-85617139D01*
X76237139Y-85477782D01*
X76346632Y-85313914D01*
X76422051Y-85131835D01*
X76429852Y-85092615D01*
X76462236Y-85030707D01*
X76522952Y-84996133D01*
X76592721Y-84999872D01*
X76649394Y-85040738D01*
X76673942Y-85097411D01*
X76683242Y-85156127D01*
X76683242Y-85156130D01*
X76748904Y-85358217D01*
X76845375Y-85547550D01*
X76884728Y-85601716D01*
X77517037Y-84969408D01*
X77534075Y-85032993D01*
X77599901Y-85147007D01*
X77692993Y-85240099D01*
X77807007Y-85305925D01*
X77870590Y-85322962D01*
X77238282Y-85955269D01*
X77238282Y-85955270D01*
X77292449Y-85994624D01*
X77481782Y-86091095D01*
X77683865Y-86156755D01*
X77742587Y-86166056D01*
X77805722Y-86195985D01*
X77842654Y-86255297D01*
X77841656Y-86325159D01*
X77803047Y-86383392D01*
X77747384Y-86410147D01*
X77708167Y-86417948D01*
X77708160Y-86417950D01*
X77526092Y-86493364D01*
X77526079Y-86493371D01*
X77362218Y-86602860D01*
X77362214Y-86602863D01*
X77222863Y-86742214D01*
X77222860Y-86742218D01*
X77113371Y-86906079D01*
X77113364Y-86906092D01*
X77037950Y-87088160D01*
X77037947Y-87088170D01*
X76999500Y-87281456D01*
X76999500Y-87281459D01*
X76999500Y-87478541D01*
X76999500Y-87478543D01*
X76999499Y-87478543D01*
X77037947Y-87671829D01*
X77037950Y-87671839D01*
X77113364Y-87853907D01*
X77113371Y-87853920D01*
X77222860Y-88017781D01*
X77222863Y-88017785D01*
X77362214Y-88157136D01*
X77362218Y-88157139D01*
X77526079Y-88266628D01*
X77526092Y-88266635D01*
X77708160Y-88342049D01*
X77708165Y-88342051D01*
X77708169Y-88342051D01*
X77708170Y-88342052D01*
X77901456Y-88380500D01*
X77901459Y-88380500D01*
X78098543Y-88380500D01*
X78228582Y-88354632D01*
X78291835Y-88342051D01*
X78473914Y-88266632D01*
X78637782Y-88157139D01*
X78654230Y-88140691D01*
X90249500Y-88140691D01*
X90249500Y-88259309D01*
X90280201Y-88373886D01*
X90339511Y-88476613D01*
X90423387Y-88560489D01*
X90526114Y-88619799D01*
X90640691Y-88650500D01*
X90640694Y-88650500D01*
X90759306Y-88650500D01*
X90759309Y-88650500D01*
X90873886Y-88619799D01*
X90976613Y-88560489D01*
X91060489Y-88476613D01*
X91119799Y-88373886D01*
X91150500Y-88259309D01*
X91150500Y-88140691D01*
X91119799Y-88026114D01*
X91060489Y-87923387D01*
X90976613Y-87839511D01*
X90873886Y-87780201D01*
X90759309Y-87749500D01*
X90640691Y-87749500D01*
X90526114Y-87780201D01*
X90526112Y-87780201D01*
X90526112Y-87780202D01*
X90423387Y-87839511D01*
X90423384Y-87839513D01*
X90339513Y-87923384D01*
X90339511Y-87923387D01*
X90285012Y-88017782D01*
X90280201Y-88026114D01*
X90249500Y-88140691D01*
X78654230Y-88140691D01*
X78685398Y-88109523D01*
X78750039Y-88044883D01*
X78777136Y-88017785D01*
X78777139Y-88017782D01*
X78886632Y-87853914D01*
X78962051Y-87671835D01*
X78986228Y-87550289D01*
X79000500Y-87478543D01*
X79000500Y-87440691D01*
X94849500Y-87440691D01*
X94849500Y-87559309D01*
X94880201Y-87673886D01*
X94939511Y-87776613D01*
X95023387Y-87860489D01*
X95126114Y-87919799D01*
X95240691Y-87950500D01*
X95240694Y-87950500D01*
X95359306Y-87950500D01*
X95359309Y-87950500D01*
X95473886Y-87919799D01*
X95576613Y-87860489D01*
X95660489Y-87776613D01*
X95719799Y-87673886D01*
X95750500Y-87559309D01*
X95750500Y-87440691D01*
X95719799Y-87326114D01*
X95660489Y-87223387D01*
X95576613Y-87139511D01*
X95473886Y-87080201D01*
X95359309Y-87049500D01*
X95240691Y-87049500D01*
X95126114Y-87080201D01*
X95126112Y-87080201D01*
X95126112Y-87080202D01*
X95023387Y-87139511D01*
X95023384Y-87139513D01*
X94939513Y-87223384D01*
X94939511Y-87223387D01*
X94905985Y-87281456D01*
X94880201Y-87326114D01*
X94849500Y-87440691D01*
X79000500Y-87440691D01*
X79000500Y-87281456D01*
X78962052Y-87088170D01*
X78962051Y-87088169D01*
X78962051Y-87088165D01*
X78956137Y-87073887D01*
X78886635Y-86906092D01*
X78886630Y-86906083D01*
X78883539Y-86901457D01*
X78883538Y-86901455D01*
X78842937Y-86840691D01*
X90249500Y-86840691D01*
X90249500Y-86959309D01*
X90280201Y-87073886D01*
X90339511Y-87176613D01*
X90423387Y-87260489D01*
X90526114Y-87319799D01*
X90640691Y-87350500D01*
X90640694Y-87350500D01*
X90759306Y-87350500D01*
X90759309Y-87350500D01*
X90873886Y-87319799D01*
X90976613Y-87260489D01*
X91060489Y-87176613D01*
X91119799Y-87073886D01*
X91150500Y-86959309D01*
X91150500Y-86840691D01*
X91119799Y-86726114D01*
X91060489Y-86623387D01*
X90976613Y-86539511D01*
X90873886Y-86480201D01*
X90759309Y-86449500D01*
X90640691Y-86449500D01*
X90526114Y-86480201D01*
X90526112Y-86480201D01*
X90526112Y-86480202D01*
X90423387Y-86539511D01*
X90423384Y-86539513D01*
X90339513Y-86623384D01*
X90339511Y-86623387D01*
X90280201Y-86726114D01*
X90249500Y-86840691D01*
X78842937Y-86840691D01*
X78777139Y-86742218D01*
X78777136Y-86742214D01*
X78637785Y-86602863D01*
X78637781Y-86602860D01*
X78473920Y-86493371D01*
X78473907Y-86493364D01*
X78291839Y-86417950D01*
X78291830Y-86417947D01*
X78252616Y-86410147D01*
X78190705Y-86377761D01*
X78156132Y-86317045D01*
X78159873Y-86247275D01*
X78200740Y-86190604D01*
X78257412Y-86166056D01*
X78316134Y-86156755D01*
X78365574Y-86140691D01*
X94849500Y-86140691D01*
X94849500Y-86259309D01*
X94880201Y-86373886D01*
X94939511Y-86476613D01*
X95023387Y-86560489D01*
X95126114Y-86619799D01*
X95240691Y-86650500D01*
X95240694Y-86650500D01*
X95359306Y-86650500D01*
X95359309Y-86650500D01*
X95473886Y-86619799D01*
X95576613Y-86560489D01*
X95660489Y-86476613D01*
X95719799Y-86373886D01*
X95750500Y-86259309D01*
X95750500Y-86140691D01*
X95719799Y-86026114D01*
X95660489Y-85923387D01*
X95576613Y-85839511D01*
X95473886Y-85780201D01*
X95359309Y-85749500D01*
X95240691Y-85749500D01*
X95126114Y-85780201D01*
X95126112Y-85780201D01*
X95126112Y-85780202D01*
X95023387Y-85839511D01*
X95023384Y-85839513D01*
X94939513Y-85923384D01*
X94939511Y-85923387D01*
X94882531Y-86022079D01*
X94880201Y-86026114D01*
X94849500Y-86140691D01*
X78365574Y-86140691D01*
X78518217Y-86091095D01*
X78653669Y-86022079D01*
X78707554Y-85994622D01*
X78761716Y-85955270D01*
X78761717Y-85955270D01*
X78129408Y-85322962D01*
X78192993Y-85305925D01*
X78307007Y-85240099D01*
X78400099Y-85147007D01*
X78465925Y-85032993D01*
X78482962Y-84969408D01*
X79115270Y-85601717D01*
X79115270Y-85601716D01*
X79154622Y-85547554D01*
X79251095Y-85358217D01*
X79316757Y-85156130D01*
X79316757Y-85156127D01*
X79350000Y-84946246D01*
X79350000Y-84733753D01*
X79316757Y-84523872D01*
X79316756Y-84523865D01*
X79299541Y-84470881D01*
X79289732Y-84440691D01*
X113549500Y-84440691D01*
X113549500Y-84559309D01*
X113580201Y-84673886D01*
X113639511Y-84776613D01*
X113723387Y-84860489D01*
X113826114Y-84919799D01*
X113940691Y-84950500D01*
X113940694Y-84950500D01*
X114059306Y-84950500D01*
X114059309Y-84950500D01*
X114145052Y-84927525D01*
X116949500Y-84927525D01*
X116949500Y-85072475D01*
X116986187Y-85209390D01*
X116987017Y-85212488D01*
X117059488Y-85338011D01*
X117059490Y-85338013D01*
X117059491Y-85338015D01*
X117161985Y-85440509D01*
X117161986Y-85440510D01*
X117161988Y-85440511D01*
X117287511Y-85512982D01*
X117287512Y-85512982D01*
X117287515Y-85512984D01*
X117427525Y-85550500D01*
X117427528Y-85550500D01*
X117572472Y-85550500D01*
X117572475Y-85550500D01*
X117712485Y-85512984D01*
X117838015Y-85440509D01*
X117940509Y-85338015D01*
X118012984Y-85212485D01*
X118050500Y-85072475D01*
X118050500Y-84927525D01*
X118012984Y-84787515D01*
X117986393Y-84741459D01*
X117940511Y-84661988D01*
X117940506Y-84661982D01*
X117838017Y-84559493D01*
X117838011Y-84559488D01*
X117773864Y-84522453D01*
X117773863Y-84522453D01*
X117712485Y-84487016D01*
X117572475Y-84449500D01*
X117427525Y-84449500D01*
X117312523Y-84480315D01*
X117287511Y-84487017D01*
X117161988Y-84559488D01*
X117161982Y-84559493D01*
X117059493Y-84661982D01*
X117059488Y-84661988D01*
X116987017Y-84787511D01*
X116987016Y-84787515D01*
X116949500Y-84927525D01*
X114145052Y-84927525D01*
X114173886Y-84919799D01*
X114276613Y-84860489D01*
X114360489Y-84776613D01*
X114419799Y-84673886D01*
X114450500Y-84559309D01*
X114450500Y-84440691D01*
X114419799Y-84326114D01*
X114360489Y-84223387D01*
X114276613Y-84139511D01*
X114173886Y-84080201D01*
X114059309Y-84049500D01*
X113940691Y-84049500D01*
X113826114Y-84080201D01*
X113826112Y-84080201D01*
X113826112Y-84080202D01*
X113723387Y-84139511D01*
X113723384Y-84139513D01*
X113639513Y-84223384D01*
X113639511Y-84223387D01*
X113580201Y-84326114D01*
X113549500Y-84440691D01*
X79289732Y-84440691D01*
X79251095Y-84321782D01*
X79154624Y-84132449D01*
X79115270Y-84078282D01*
X79115269Y-84078282D01*
X78482962Y-84710590D01*
X78465925Y-84647007D01*
X78400099Y-84532993D01*
X78307007Y-84439901D01*
X78192993Y-84374075D01*
X78129409Y-84357037D01*
X78558920Y-83927525D01*
X115949500Y-83927525D01*
X115949500Y-84072475D01*
X115978300Y-84179956D01*
X115987017Y-84212488D01*
X116059488Y-84338011D01*
X116059490Y-84338013D01*
X116059491Y-84338015D01*
X116161985Y-84440509D01*
X116161986Y-84440510D01*
X116161988Y-84440511D01*
X116287511Y-84512982D01*
X116287512Y-84512982D01*
X116287515Y-84512984D01*
X116427525Y-84550500D01*
X116427528Y-84550500D01*
X116572472Y-84550500D01*
X116572475Y-84550500D01*
X116712485Y-84512984D01*
X116838015Y-84440509D01*
X116857371Y-84421153D01*
X119659500Y-84421153D01*
X119659500Y-84578846D01*
X119690261Y-84733489D01*
X119690264Y-84733501D01*
X119750602Y-84879172D01*
X119750609Y-84879185D01*
X119838210Y-85010288D01*
X119838213Y-85010292D01*
X119949707Y-85121786D01*
X119949711Y-85121789D01*
X120080814Y-85209390D01*
X120080827Y-85209397D01*
X120226498Y-85269735D01*
X120226503Y-85269737D01*
X120381153Y-85300499D01*
X120381156Y-85300500D01*
X120381158Y-85300500D01*
X120538844Y-85300500D01*
X120538845Y-85300499D01*
X120693497Y-85269737D01*
X120806166Y-85223067D01*
X120839172Y-85209397D01*
X120839172Y-85209396D01*
X120839179Y-85209394D01*
X120970289Y-85121789D01*
X121081789Y-85010289D01*
X121151589Y-84905826D01*
X121172779Y-84874114D01*
X121175214Y-84875741D01*
X121215130Y-84834748D01*
X121283199Y-84818989D01*
X121348983Y-84842533D01*
X121391595Y-84897904D01*
X121400000Y-84942780D01*
X121400000Y-85399971D01*
X121400001Y-85399987D01*
X121410494Y-85502696D01*
X121410494Y-85502698D01*
X121465640Y-85669119D01*
X121465645Y-85669130D01*
X121557680Y-85818340D01*
X121557683Y-85818344D01*
X121681655Y-85942316D01*
X121681659Y-85942319D01*
X121830869Y-86034354D01*
X121830880Y-86034359D01*
X121955216Y-86075560D01*
X122012661Y-86115332D01*
X122039484Y-86179848D01*
X122027169Y-86248624D01*
X122016530Y-86266151D01*
X121930478Y-86384591D01*
X121841117Y-86559970D01*
X121780290Y-86747173D01*
X121749500Y-86941577D01*
X121749500Y-87138422D01*
X121780290Y-87332826D01*
X121841117Y-87520029D01*
X121919512Y-87673887D01*
X121930476Y-87695405D01*
X122046172Y-87854646D01*
X122185354Y-87993828D01*
X122344595Y-88109524D01*
X122405764Y-88140691D01*
X122519970Y-88198882D01*
X122519972Y-88198882D01*
X122519975Y-88198884D01*
X122620317Y-88231487D01*
X122707173Y-88259709D01*
X122901578Y-88290500D01*
X122901583Y-88290500D01*
X123098422Y-88290500D01*
X123292826Y-88259709D01*
X123294066Y-88259306D01*
X123480025Y-88198884D01*
X123655405Y-88109524D01*
X123814646Y-87993828D01*
X123953828Y-87854646D01*
X124069524Y-87695405D01*
X124158884Y-87520025D01*
X124219709Y-87332826D01*
X124221773Y-87319797D01*
X124250500Y-87138422D01*
X124250500Y-86941577D01*
X124219709Y-86747173D01*
X124191487Y-86660317D01*
X124158884Y-86559975D01*
X124158882Y-86559972D01*
X124158882Y-86559970D01*
X124111743Y-86467455D01*
X124069524Y-86384595D01*
X123983468Y-86266150D01*
X123959989Y-86200346D01*
X123975814Y-86132292D01*
X124025920Y-86083597D01*
X124044783Y-86075560D01*
X124169119Y-86034359D01*
X124169130Y-86034354D01*
X124318340Y-85942319D01*
X124318344Y-85942316D01*
X124442316Y-85818344D01*
X124442319Y-85818340D01*
X124534354Y-85669130D01*
X124534359Y-85669119D01*
X124589505Y-85502697D01*
X124599999Y-85399986D01*
X124600000Y-85399973D01*
X124600000Y-84750000D01*
X123490748Y-84750000D01*
X123512518Y-84712292D01*
X123550000Y-84572409D01*
X123550000Y-84427591D01*
X123512518Y-84287708D01*
X123490748Y-84250000D01*
X124599999Y-84250000D01*
X124599999Y-83600028D01*
X124599998Y-83600013D01*
X124589505Y-83497303D01*
X124589505Y-83497301D01*
X124534359Y-83330880D01*
X124534354Y-83330869D01*
X124442319Y-83181659D01*
X124442316Y-83181655D01*
X124318344Y-83057683D01*
X124318340Y-83057680D01*
X124169130Y-82965645D01*
X124169119Y-82965640D01*
X124002697Y-82910494D01*
X123899986Y-82900000D01*
X123250000Y-82900000D01*
X123250000Y-84009252D01*
X123212292Y-83987482D01*
X123072409Y-83950000D01*
X122927591Y-83950000D01*
X122787708Y-83987482D01*
X122750000Y-84009252D01*
X122750000Y-82900000D01*
X122100028Y-82900000D01*
X122100012Y-82900001D01*
X121997303Y-82910494D01*
X121997301Y-82910494D01*
X121830880Y-82965640D01*
X121830869Y-82965645D01*
X121681659Y-83057680D01*
X121681655Y-83057683D01*
X121557683Y-83181655D01*
X121557680Y-83181659D01*
X121465645Y-83330869D01*
X121465640Y-83330880D01*
X121410494Y-83497302D01*
X121400000Y-83600013D01*
X121400000Y-84057218D01*
X121380315Y-84124257D01*
X121327511Y-84170012D01*
X121258353Y-84179956D01*
X121194797Y-84150931D01*
X121174105Y-84124999D01*
X121172779Y-84125886D01*
X121081789Y-83989711D01*
X121081786Y-83989707D01*
X120970292Y-83878213D01*
X120970288Y-83878210D01*
X120839185Y-83790609D01*
X120839172Y-83790602D01*
X120693501Y-83730264D01*
X120693489Y-83730261D01*
X120538845Y-83699500D01*
X120538842Y-83699500D01*
X120381158Y-83699500D01*
X120381155Y-83699500D01*
X120226510Y-83730261D01*
X120226498Y-83730264D01*
X120080827Y-83790602D01*
X120080814Y-83790609D01*
X119949711Y-83878210D01*
X119949707Y-83878213D01*
X119838213Y-83989707D01*
X119838210Y-83989711D01*
X119750609Y-84120814D01*
X119750602Y-84120827D01*
X119690264Y-84266498D01*
X119690261Y-84266510D01*
X119659500Y-84421153D01*
X116857371Y-84421153D01*
X116940509Y-84338015D01*
X117012984Y-84212485D01*
X117050500Y-84072475D01*
X117050500Y-83927525D01*
X117012984Y-83787515D01*
X116979929Y-83730263D01*
X116940511Y-83661988D01*
X116940506Y-83661982D01*
X116838017Y-83559493D01*
X116838011Y-83559488D01*
X116712488Y-83487017D01*
X116712489Y-83487017D01*
X116701006Y-83483940D01*
X116572475Y-83449500D01*
X116427525Y-83449500D01*
X116298993Y-83483940D01*
X116287511Y-83487017D01*
X116161988Y-83559488D01*
X116161982Y-83559493D01*
X116059493Y-83661982D01*
X116059488Y-83661988D01*
X115987017Y-83787511D01*
X115987016Y-83787515D01*
X115949500Y-83927525D01*
X78558920Y-83927525D01*
X78654728Y-83831717D01*
X78761716Y-83724728D01*
X78707550Y-83685375D01*
X78518217Y-83588904D01*
X78316128Y-83523242D01*
X78257411Y-83513942D01*
X78194276Y-83484012D01*
X78157345Y-83424701D01*
X78158343Y-83354838D01*
X78196953Y-83296606D01*
X78252615Y-83269852D01*
X78291835Y-83262051D01*
X78473914Y-83186632D01*
X78637782Y-83077139D01*
X78674230Y-83040691D01*
X84549500Y-83040691D01*
X84549500Y-83159309D01*
X84580201Y-83273886D01*
X84639511Y-83376613D01*
X84723387Y-83460489D01*
X84826114Y-83519799D01*
X84940691Y-83550500D01*
X84940694Y-83550500D01*
X85059306Y-83550500D01*
X85059309Y-83550500D01*
X85173886Y-83519799D01*
X85276613Y-83460489D01*
X85360489Y-83376613D01*
X85419799Y-83273886D01*
X85450500Y-83159309D01*
X85450500Y-83040691D01*
X85419799Y-82926114D01*
X85360489Y-82823387D01*
X85276613Y-82739511D01*
X85173886Y-82680201D01*
X85059309Y-82649500D01*
X84940691Y-82649500D01*
X84826114Y-82680201D01*
X84826112Y-82680201D01*
X84826112Y-82680202D01*
X84723387Y-82739511D01*
X84723384Y-82739513D01*
X84639513Y-82823384D01*
X84639511Y-82823387D01*
X84580201Y-82926114D01*
X84549500Y-83040691D01*
X78674230Y-83040691D01*
X78770039Y-82944883D01*
X78777136Y-82937785D01*
X78777139Y-82937782D01*
X78886632Y-82773914D01*
X78962051Y-82591835D01*
X79000500Y-82398541D01*
X79000500Y-82242239D01*
X80377708Y-82242239D01*
X80377708Y-82360857D01*
X80408409Y-82475434D01*
X80467719Y-82578161D01*
X80551595Y-82662037D01*
X80654322Y-82721347D01*
X80768899Y-82752048D01*
X80768902Y-82752048D01*
X80887514Y-82752048D01*
X80887517Y-82752048D01*
X81002094Y-82721347D01*
X81104821Y-82662037D01*
X81188697Y-82578161D01*
X81248007Y-82475434D01*
X81278708Y-82360857D01*
X81278708Y-82242239D01*
X81248007Y-82127662D01*
X81197794Y-82040691D01*
X89549500Y-82040691D01*
X89549500Y-82159309D01*
X89580201Y-82273886D01*
X89639511Y-82376613D01*
X89723387Y-82460489D01*
X89826114Y-82519799D01*
X89940691Y-82550500D01*
X89940694Y-82550500D01*
X90059306Y-82550500D01*
X90059309Y-82550500D01*
X90173886Y-82519799D01*
X90276613Y-82460489D01*
X90360489Y-82376613D01*
X90419799Y-82273886D01*
X90450500Y-82159309D01*
X90450500Y-82040691D01*
X90419799Y-81926114D01*
X90360489Y-81823387D01*
X90276613Y-81739511D01*
X90173886Y-81680201D01*
X90059309Y-81649500D01*
X89940691Y-81649500D01*
X89826114Y-81680201D01*
X89826112Y-81680201D01*
X89826112Y-81680202D01*
X89723387Y-81739511D01*
X89723384Y-81739513D01*
X89639513Y-81823384D01*
X89639511Y-81823387D01*
X89580201Y-81926114D01*
X89549500Y-82040691D01*
X81197794Y-82040691D01*
X81188697Y-82024935D01*
X81104821Y-81941059D01*
X81002094Y-81881749D01*
X80887517Y-81851048D01*
X80768899Y-81851048D01*
X80654322Y-81881749D01*
X80654320Y-81881749D01*
X80654320Y-81881750D01*
X80551595Y-81941059D01*
X80551592Y-81941061D01*
X80467721Y-82024932D01*
X80467719Y-82024935D01*
X80408409Y-82127662D01*
X80377708Y-82242239D01*
X79000500Y-82242239D01*
X79000500Y-82201459D01*
X79000500Y-82201456D01*
X78962052Y-82008170D01*
X78962051Y-82008169D01*
X78962051Y-82008165D01*
X78909689Y-81881750D01*
X78886635Y-81826092D01*
X78886628Y-81826079D01*
X78777139Y-81662218D01*
X78777136Y-81662214D01*
X78637785Y-81522863D01*
X78637781Y-81522860D01*
X78473920Y-81413371D01*
X78473907Y-81413364D01*
X78291839Y-81337950D01*
X78291830Y-81337947D01*
X78252616Y-81330147D01*
X78190705Y-81297761D01*
X78156132Y-81237045D01*
X78159873Y-81167275D01*
X78200740Y-81110604D01*
X78257412Y-81086056D01*
X78316134Y-81076755D01*
X78518217Y-81011095D01*
X78656391Y-80940691D01*
X90449500Y-80940691D01*
X90449500Y-81059309D01*
X90480201Y-81173886D01*
X90539511Y-81276613D01*
X90623387Y-81360489D01*
X90726114Y-81419799D01*
X90840691Y-81450500D01*
X90840694Y-81450500D01*
X90959306Y-81450500D01*
X90959309Y-81450500D01*
X91073886Y-81419799D01*
X91176613Y-81360489D01*
X91260489Y-81276613D01*
X91319799Y-81173886D01*
X91350500Y-81059309D01*
X91350500Y-80940691D01*
X91319799Y-80826114D01*
X91260489Y-80723387D01*
X91176613Y-80639511D01*
X91073886Y-80580201D01*
X90959309Y-80549500D01*
X90840691Y-80549500D01*
X90726114Y-80580201D01*
X90726112Y-80580201D01*
X90726112Y-80580202D01*
X90623387Y-80639511D01*
X90623384Y-80639513D01*
X90539513Y-80723384D01*
X90539511Y-80723387D01*
X90489658Y-80809735D01*
X90480201Y-80826114D01*
X90449500Y-80940691D01*
X78656391Y-80940691D01*
X78707554Y-80914622D01*
X78761717Y-80875270D01*
X78129408Y-80242962D01*
X78192993Y-80225925D01*
X78307007Y-80160099D01*
X78400099Y-80067007D01*
X78465925Y-79952993D01*
X78482962Y-79889408D01*
X79115270Y-80521717D01*
X79115270Y-80521716D01*
X79154622Y-80467554D01*
X79251095Y-80278217D01*
X79316757Y-80076130D01*
X79316757Y-80076127D01*
X79350000Y-79866246D01*
X79350000Y-79653753D01*
X79316757Y-79443872D01*
X79316757Y-79443869D01*
X79251095Y-79241782D01*
X79154624Y-79052449D01*
X79115270Y-78998282D01*
X79115269Y-78998282D01*
X78482962Y-79630590D01*
X78465925Y-79567007D01*
X78400099Y-79452993D01*
X78307007Y-79359901D01*
X78192993Y-79294075D01*
X78129409Y-79277037D01*
X78761716Y-78644728D01*
X78707550Y-78605375D01*
X78697954Y-78600486D01*
X78647157Y-78552512D01*
X78630361Y-78484692D01*
X78652897Y-78418556D01*
X78697954Y-78379514D01*
X78707554Y-78374622D01*
X78761716Y-78335270D01*
X78761717Y-78335270D01*
X78129408Y-77702962D01*
X78192993Y-77685925D01*
X78307007Y-77620099D01*
X78400099Y-77527007D01*
X78465925Y-77412993D01*
X78482962Y-77349408D01*
X79115270Y-77981717D01*
X79115270Y-77981716D01*
X79154624Y-77927551D01*
X79154637Y-77927525D01*
X103449500Y-77927525D01*
X103449500Y-78072475D01*
X103483805Y-78200500D01*
X103487017Y-78212488D01*
X103559488Y-78338011D01*
X103559490Y-78338013D01*
X103559491Y-78338015D01*
X103661985Y-78440509D01*
X103724711Y-78476724D01*
X103729741Y-78479628D01*
X103777956Y-78530196D01*
X103791178Y-78598803D01*
X103765210Y-78663667D01*
X103729741Y-78694401D01*
X103667020Y-78730613D01*
X103667011Y-78730620D01*
X103564522Y-78833109D01*
X103564517Y-78833115D01*
X103492046Y-78958638D01*
X103492045Y-78958642D01*
X103454529Y-79098652D01*
X103454529Y-79243602D01*
X103492045Y-79383612D01*
X103492046Y-79383615D01*
X103564517Y-79509138D01*
X103564519Y-79509140D01*
X103564520Y-79509142D01*
X103667014Y-79611636D01*
X103667015Y-79611637D01*
X103667017Y-79611638D01*
X103792540Y-79684109D01*
X103792541Y-79684109D01*
X103792544Y-79684111D01*
X103792546Y-79684111D01*
X103800048Y-79687219D01*
X103799535Y-79688456D01*
X103851956Y-79720410D01*
X103882485Y-79783257D01*
X103874190Y-79852632D01*
X103829704Y-79906510D01*
X103807655Y-79918380D01*
X103803709Y-79920014D01*
X103678184Y-79992486D01*
X103678178Y-79992491D01*
X103575689Y-80094980D01*
X103575684Y-80094986D01*
X103503213Y-80220509D01*
X103503212Y-80220513D01*
X103465696Y-80360523D01*
X103465696Y-80505473D01*
X103503212Y-80645483D01*
X103503213Y-80645486D01*
X103575684Y-80771009D01*
X103575686Y-80771011D01*
X103575687Y-80771013D01*
X103678181Y-80873507D01*
X103678182Y-80873508D01*
X103678184Y-80873509D01*
X103803707Y-80945980D01*
X103803708Y-80945980D01*
X103803711Y-80945982D01*
X103943721Y-80983498D01*
X103943724Y-80983498D01*
X104088668Y-80983498D01*
X104088671Y-80983498D01*
X104228681Y-80945982D01*
X104354211Y-80873507D01*
X104456705Y-80771013D01*
X104529180Y-80645483D01*
X104566696Y-80505473D01*
X104566696Y-80360523D01*
X104529180Y-80220513D01*
X104516494Y-80198541D01*
X104456707Y-80094986D01*
X104456702Y-80094980D01*
X104354213Y-79992491D01*
X104354207Y-79992486D01*
X104299937Y-79961153D01*
X120159500Y-79961153D01*
X120159500Y-80118846D01*
X120190261Y-80273489D01*
X120190264Y-80273501D01*
X120250602Y-80419172D01*
X120250609Y-80419185D01*
X120338210Y-80550288D01*
X120338213Y-80550292D01*
X120449707Y-80661786D01*
X120449711Y-80661789D01*
X120580814Y-80749390D01*
X120580827Y-80749397D01*
X120726498Y-80809735D01*
X120726503Y-80809737D01*
X120881153Y-80840499D01*
X120881156Y-80840500D01*
X120881158Y-80840500D01*
X121038844Y-80840500D01*
X121038845Y-80840499D01*
X121193497Y-80809737D01*
X121339179Y-80749394D01*
X121470289Y-80661789D01*
X121581789Y-80550289D01*
X121669394Y-80419179D01*
X121729737Y-80273497D01*
X121760500Y-80118842D01*
X121760500Y-79961158D01*
X121760500Y-79961155D01*
X121760499Y-79961153D01*
X121744853Y-79882498D01*
X121729737Y-79806503D01*
X121710475Y-79759999D01*
X121669397Y-79660827D01*
X121669390Y-79660814D01*
X121581789Y-79529711D01*
X121581786Y-79529707D01*
X121470292Y-79418213D01*
X121470288Y-79418210D01*
X121339185Y-79330609D01*
X121339172Y-79330602D01*
X121193501Y-79270264D01*
X121193489Y-79270261D01*
X121038845Y-79239500D01*
X121038842Y-79239500D01*
X120881158Y-79239500D01*
X120881155Y-79239500D01*
X120726510Y-79270261D01*
X120726498Y-79270264D01*
X120580827Y-79330602D01*
X120580814Y-79330609D01*
X120449711Y-79418210D01*
X120449707Y-79418213D01*
X120338213Y-79529707D01*
X120338210Y-79529711D01*
X120250609Y-79660814D01*
X120250602Y-79660827D01*
X120190264Y-79806498D01*
X120190261Y-79806510D01*
X120159500Y-79961153D01*
X104299937Y-79961153D01*
X104228684Y-79920015D01*
X104221177Y-79916906D01*
X104221688Y-79915670D01*
X104169260Y-79883706D01*
X104138737Y-79820856D01*
X104147038Y-79751481D01*
X104191529Y-79697608D01*
X104213581Y-79685739D01*
X104217506Y-79684113D01*
X104217514Y-79684111D01*
X104343044Y-79611636D01*
X104445538Y-79509142D01*
X104518013Y-79383612D01*
X104555529Y-79243602D01*
X104555529Y-79098652D01*
X104518013Y-78958642D01*
X104445538Y-78833112D01*
X104343044Y-78730618D01*
X104341030Y-78729455D01*
X104275287Y-78691497D01*
X104227072Y-78640930D01*
X104213850Y-78572323D01*
X104239818Y-78507458D01*
X104275286Y-78476725D01*
X104338015Y-78440509D01*
X104440509Y-78338015D01*
X104512984Y-78212485D01*
X104550500Y-78072475D01*
X104550500Y-77927525D01*
X104512984Y-77787515D01*
X104491325Y-77750000D01*
X104488188Y-77744566D01*
X104488187Y-77744565D01*
X104469554Y-77712292D01*
X104457083Y-77690691D01*
X107549500Y-77690691D01*
X107549500Y-77809309D01*
X107580201Y-77923886D01*
X107639511Y-78026613D01*
X107723387Y-78110489D01*
X107826114Y-78169799D01*
X107940691Y-78200500D01*
X107940694Y-78200500D01*
X108059306Y-78200500D01*
X108059309Y-78200500D01*
X108173886Y-78169799D01*
X108276613Y-78110489D01*
X108360489Y-78026613D01*
X108419799Y-77923886D01*
X108450500Y-77809309D01*
X108450500Y-77690691D01*
X108419799Y-77576114D01*
X108360489Y-77473387D01*
X108308255Y-77421153D01*
X120159500Y-77421153D01*
X120159500Y-77578846D01*
X120190261Y-77733489D01*
X120190264Y-77733501D01*
X120250602Y-77879172D01*
X120250609Y-77879185D01*
X120338210Y-78010288D01*
X120338213Y-78010292D01*
X120449707Y-78121786D01*
X120449711Y-78121789D01*
X120580814Y-78209390D01*
X120580827Y-78209397D01*
X120726498Y-78269735D01*
X120726503Y-78269737D01*
X120881153Y-78300499D01*
X120881156Y-78300500D01*
X120881158Y-78300500D01*
X121038844Y-78300500D01*
X121038845Y-78300499D01*
X121193497Y-78269737D01*
X121312367Y-78220500D01*
X121339172Y-78209397D01*
X121339172Y-78209396D01*
X121339179Y-78209394D01*
X121470289Y-78121789D01*
X121581789Y-78010289D01*
X121637073Y-77927551D01*
X121672779Y-77874114D01*
X121675214Y-77875741D01*
X121715130Y-77834748D01*
X121783199Y-77818989D01*
X121848983Y-77842533D01*
X121891595Y-77897904D01*
X121900000Y-77942780D01*
X121900000Y-78399971D01*
X121900001Y-78399987D01*
X121910494Y-78502696D01*
X121910494Y-78502698D01*
X121965640Y-78669119D01*
X121965645Y-78669130D01*
X122057680Y-78818340D01*
X122057683Y-78818344D01*
X122181655Y-78942316D01*
X122181659Y-78942319D01*
X122330869Y-79034354D01*
X122330880Y-79034359D01*
X122455216Y-79075560D01*
X122512661Y-79115332D01*
X122539484Y-79179848D01*
X122527169Y-79248624D01*
X122516530Y-79266151D01*
X122430478Y-79384591D01*
X122341117Y-79559970D01*
X122280290Y-79747173D01*
X122249500Y-79941577D01*
X122249500Y-80138422D01*
X122280290Y-80332826D01*
X122341117Y-80520029D01*
X122413346Y-80661786D01*
X122430476Y-80695405D01*
X122546172Y-80854646D01*
X122685354Y-80993828D01*
X122844595Y-81109524D01*
X122857276Y-81115985D01*
X123019970Y-81198882D01*
X123019972Y-81198882D01*
X123019975Y-81198884D01*
X123120317Y-81231487D01*
X123207173Y-81259709D01*
X123401578Y-81290500D01*
X123401583Y-81290500D01*
X123598422Y-81290500D01*
X123792826Y-81259709D01*
X123837606Y-81245159D01*
X123980025Y-81198884D01*
X124155405Y-81109524D01*
X124314646Y-80993828D01*
X124453828Y-80854646D01*
X124569524Y-80695405D01*
X124658884Y-80520025D01*
X124719709Y-80332826D01*
X124729107Y-80273489D01*
X124750500Y-80138422D01*
X124750500Y-79941577D01*
X124719709Y-79747173D01*
X124672427Y-79601656D01*
X124658884Y-79559975D01*
X124658882Y-79559972D01*
X124658882Y-79559970D01*
X124586652Y-79418211D01*
X124569524Y-79384595D01*
X124483468Y-79266150D01*
X124459989Y-79200346D01*
X124475814Y-79132292D01*
X124525920Y-79083597D01*
X124544783Y-79075560D01*
X124669119Y-79034359D01*
X124669130Y-79034354D01*
X124818340Y-78942319D01*
X124818344Y-78942316D01*
X124942316Y-78818344D01*
X124942319Y-78818340D01*
X125034354Y-78669130D01*
X125034359Y-78669119D01*
X125089505Y-78502697D01*
X125099999Y-78399986D01*
X125100000Y-78399973D01*
X125100000Y-77750000D01*
X123990748Y-77750000D01*
X124012518Y-77712292D01*
X124050000Y-77572409D01*
X124050000Y-77427591D01*
X124012518Y-77287708D01*
X123990748Y-77250000D01*
X125099999Y-77250000D01*
X125099999Y-76600028D01*
X125099998Y-76600013D01*
X125089505Y-76497303D01*
X125089505Y-76497301D01*
X125034359Y-76330880D01*
X125034354Y-76330869D01*
X124942319Y-76181659D01*
X124942316Y-76181655D01*
X124818344Y-76057683D01*
X124818340Y-76057680D01*
X124669130Y-75965645D01*
X124669119Y-75965640D01*
X124502697Y-75910494D01*
X124399986Y-75900000D01*
X123750000Y-75900000D01*
X123750000Y-77009252D01*
X123712292Y-76987482D01*
X123572409Y-76950000D01*
X123427591Y-76950000D01*
X123287708Y-76987482D01*
X123250000Y-77009252D01*
X123250000Y-75900000D01*
X122600028Y-75900000D01*
X122600012Y-75900001D01*
X122497303Y-75910494D01*
X122497301Y-75910494D01*
X122330880Y-75965640D01*
X122330869Y-75965645D01*
X122181659Y-76057680D01*
X122181655Y-76057683D01*
X122057683Y-76181655D01*
X122057680Y-76181659D01*
X121965645Y-76330869D01*
X121965640Y-76330880D01*
X121910494Y-76497302D01*
X121900000Y-76600013D01*
X121900000Y-77057218D01*
X121880315Y-77124257D01*
X121827511Y-77170012D01*
X121758353Y-77179956D01*
X121694797Y-77150931D01*
X121674105Y-77124999D01*
X121672779Y-77125886D01*
X121581789Y-76989711D01*
X121581786Y-76989707D01*
X121470292Y-76878213D01*
X121470288Y-76878210D01*
X121339185Y-76790609D01*
X121339172Y-76790602D01*
X121193501Y-76730264D01*
X121193489Y-76730261D01*
X121038845Y-76699500D01*
X121038842Y-76699500D01*
X120881158Y-76699500D01*
X120881155Y-76699500D01*
X120726510Y-76730261D01*
X120726498Y-76730264D01*
X120580827Y-76790602D01*
X120580814Y-76790609D01*
X120449711Y-76878210D01*
X120449707Y-76878213D01*
X120338213Y-76989707D01*
X120338210Y-76989711D01*
X120250609Y-77120814D01*
X120250602Y-77120827D01*
X120190264Y-77266498D01*
X120190261Y-77266510D01*
X120159500Y-77421153D01*
X108308255Y-77421153D01*
X108276613Y-77389511D01*
X108173886Y-77330201D01*
X108059309Y-77299500D01*
X107940691Y-77299500D01*
X107826114Y-77330201D01*
X107826112Y-77330201D01*
X107826112Y-77330202D01*
X107723387Y-77389511D01*
X107723384Y-77389513D01*
X107639513Y-77473384D01*
X107639511Y-77473387D01*
X107597734Y-77545747D01*
X107580201Y-77576114D01*
X107549500Y-77690691D01*
X104457083Y-77690691D01*
X104440509Y-77661985D01*
X104338015Y-77559491D01*
X104338013Y-77559490D01*
X104338011Y-77559488D01*
X104212488Y-77487017D01*
X104212489Y-77487017D01*
X104187477Y-77480315D01*
X104072475Y-77449500D01*
X103927525Y-77449500D01*
X103812523Y-77480315D01*
X103787511Y-77487017D01*
X103661988Y-77559488D01*
X103661982Y-77559493D01*
X103559493Y-77661982D01*
X103559488Y-77661988D01*
X103487017Y-77787511D01*
X103487016Y-77787515D01*
X103449500Y-77927525D01*
X79154637Y-77927525D01*
X79187464Y-77863102D01*
X79251095Y-77738217D01*
X79316757Y-77536130D01*
X79316757Y-77536127D01*
X79350000Y-77326246D01*
X79350000Y-77113753D01*
X79324375Y-76951962D01*
X79316757Y-76903870D01*
X79316757Y-76903869D01*
X79251095Y-76701782D01*
X79154624Y-76512449D01*
X79115270Y-76458282D01*
X79115269Y-76458282D01*
X78482962Y-77090590D01*
X78465925Y-77027007D01*
X78400099Y-76912993D01*
X78307007Y-76819901D01*
X78192993Y-76754075D01*
X78129409Y-76737037D01*
X78761716Y-76104728D01*
X78707550Y-76065375D01*
X78518217Y-75968904D01*
X78316129Y-75903242D01*
X78106246Y-75870000D01*
X77893754Y-75870000D01*
X77683872Y-75903242D01*
X77683869Y-75903242D01*
X77481782Y-75968904D01*
X77292439Y-76065380D01*
X77238282Y-76104727D01*
X77238282Y-76104728D01*
X77870591Y-76737037D01*
X77807007Y-76754075D01*
X77692993Y-76819901D01*
X77599901Y-76912993D01*
X77534075Y-77027007D01*
X77517037Y-77090591D01*
X76884728Y-76458282D01*
X76884727Y-76458282D01*
X76845380Y-76512439D01*
X76748904Y-76701782D01*
X76683242Y-76903869D01*
X76683242Y-76903870D01*
X76673942Y-76962589D01*
X76644012Y-77025723D01*
X76584700Y-77062654D01*
X76514838Y-77061656D01*
X76456605Y-77023046D01*
X76429852Y-76967381D01*
X76424543Y-76940693D01*
X76422051Y-76928165D01*
X76403473Y-76883314D01*
X76346635Y-76746092D01*
X76346628Y-76746079D01*
X76237139Y-76582218D01*
X76237136Y-76582214D01*
X76097785Y-76442863D01*
X76097781Y-76442860D01*
X75933920Y-76333371D01*
X75933907Y-76333364D01*
X75772596Y-76266548D01*
X75751839Y-76257950D01*
X75751829Y-76257947D01*
X75558543Y-76219500D01*
X75558541Y-76219500D01*
X75361459Y-76219500D01*
X75361457Y-76219500D01*
X75168170Y-76257947D01*
X75168160Y-76257950D01*
X74986092Y-76333364D01*
X74986079Y-76333371D01*
X74822218Y-76442860D01*
X74822214Y-76442863D01*
X74682863Y-76582214D01*
X74682860Y-76582218D01*
X74573371Y-76746079D01*
X74573364Y-76746092D01*
X74539061Y-76828910D01*
X74495220Y-76883314D01*
X74428926Y-76905379D01*
X74361227Y-76888100D01*
X74313616Y-76836963D01*
X74300500Y-76781458D01*
X74300500Y-74416579D01*
X96530000Y-74416579D01*
X96530000Y-74470000D01*
X97256933Y-74470000D01*
X97255000Y-74477213D01*
X97255000Y-74962787D01*
X97256933Y-74970000D01*
X96530000Y-74970000D01*
X96530000Y-75023420D01*
X96570348Y-75226266D01*
X96570350Y-75226274D01*
X96649500Y-75417358D01*
X96649505Y-75417368D01*
X96764410Y-75589335D01*
X96764413Y-75589339D01*
X96910660Y-75735586D01*
X96910664Y-75735589D01*
X97082631Y-75850494D01*
X97082641Y-75850499D01*
X97273723Y-75929648D01*
X97273725Y-75929649D01*
X97330000Y-75940842D01*
X97330000Y-75129618D01*
X97380446Y-75180064D01*
X97454555Y-75222851D01*
X97537213Y-75245000D01*
X97622787Y-75245000D01*
X97705445Y-75222851D01*
X97779554Y-75180064D01*
X97830000Y-75129618D01*
X97830000Y-75940842D01*
X97886274Y-75929649D01*
X97886276Y-75929648D01*
X98077358Y-75850499D01*
X98077368Y-75850494D01*
X98249335Y-75735589D01*
X98249339Y-75735586D01*
X98395586Y-75589339D01*
X98395589Y-75589335D01*
X98510494Y-75417368D01*
X98510499Y-75417358D01*
X98589649Y-75226274D01*
X98589651Y-75226266D01*
X98629999Y-75023420D01*
X98630000Y-75023417D01*
X98630000Y-74970000D01*
X97903067Y-74970000D01*
X97905000Y-74962787D01*
X97905000Y-74477213D01*
X97903067Y-74470000D01*
X98630000Y-74470000D01*
X98630000Y-74416583D01*
X98629999Y-74416579D01*
X101370000Y-74416579D01*
X101370000Y-74470000D01*
X102096933Y-74470000D01*
X102095000Y-74477213D01*
X102095000Y-74962787D01*
X102096933Y-74970000D01*
X101370000Y-74970000D01*
X101370000Y-75023420D01*
X101410348Y-75226266D01*
X101410350Y-75226274D01*
X101489500Y-75417358D01*
X101489505Y-75417368D01*
X101604410Y-75589335D01*
X101604413Y-75589339D01*
X101750660Y-75735586D01*
X101750664Y-75735589D01*
X101922631Y-75850494D01*
X101922641Y-75850499D01*
X102113723Y-75929648D01*
X102113725Y-75929649D01*
X102170000Y-75940842D01*
X102170000Y-75129618D01*
X102220446Y-75180064D01*
X102294555Y-75222851D01*
X102377213Y-75245000D01*
X102462787Y-75245000D01*
X102545445Y-75222851D01*
X102619554Y-75180064D01*
X102670000Y-75129618D01*
X102670000Y-75916556D01*
X102650315Y-75983595D01*
X102644381Y-75992036D01*
X102639514Y-75998379D01*
X102639511Y-75998383D01*
X102639511Y-75998384D01*
X102580201Y-76101111D01*
X102549500Y-76215688D01*
X102549500Y-76334306D01*
X102580201Y-76448883D01*
X102580202Y-76448884D01*
X102582151Y-76456158D01*
X102581531Y-76482182D01*
X102584792Y-76508007D01*
X102580713Y-76516546D01*
X102580488Y-76526008D01*
X102565897Y-76547565D01*
X102554679Y-76571054D01*
X102544303Y-76579471D01*
X102541326Y-76583871D01*
X102527612Y-76593705D01*
X102525994Y-76594705D01*
X102448390Y-76639511D01*
X102439992Y-76647908D01*
X102427737Y-76655490D01*
X102407377Y-76661089D01*
X102388844Y-76671207D01*
X102374365Y-76670169D01*
X102360369Y-76674019D01*
X102340213Y-76667722D01*
X102319153Y-76666213D01*
X102303804Y-76656347D01*
X102293678Y-76653184D01*
X102287620Y-76645945D01*
X102283801Y-76643490D01*
X102283059Y-76644458D01*
X102276615Y-76639513D01*
X102276613Y-76639511D01*
X102173886Y-76580201D01*
X102059309Y-76549500D01*
X101940691Y-76549500D01*
X101826114Y-76580201D01*
X101826112Y-76580201D01*
X101826112Y-76580202D01*
X101723387Y-76639511D01*
X101723384Y-76639513D01*
X101639513Y-76723384D01*
X101639511Y-76723387D01*
X101580201Y-76826114D01*
X101549500Y-76940691D01*
X101549500Y-77059309D01*
X101580201Y-77173886D01*
X101639511Y-77276613D01*
X101723387Y-77360489D01*
X101826114Y-77419799D01*
X101940691Y-77450500D01*
X101940694Y-77450500D01*
X102059306Y-77450500D01*
X102059309Y-77450500D01*
X102173886Y-77419799D01*
X102276613Y-77360489D01*
X102276620Y-77360481D01*
X102283059Y-77355542D01*
X102284272Y-77357123D01*
X102336128Y-77328799D01*
X102405820Y-77333775D01*
X102441201Y-77356510D01*
X102441944Y-77355542D01*
X102448385Y-77360484D01*
X102448390Y-77360489D01*
X102551117Y-77419799D01*
X102665694Y-77450500D01*
X102665697Y-77450500D01*
X102784309Y-77450500D01*
X102784312Y-77450500D01*
X102898889Y-77419799D01*
X103001616Y-77360489D01*
X103085492Y-77276613D01*
X103144802Y-77173886D01*
X103175503Y-77059309D01*
X103175503Y-76940691D01*
X103144802Y-76826114D01*
X103144799Y-76826109D01*
X103142851Y-76818838D01*
X103144514Y-76748988D01*
X103183676Y-76691126D01*
X103200621Y-76679360D01*
X103276613Y-76635486D01*
X103360489Y-76551610D01*
X103419799Y-76448883D01*
X103450500Y-76334306D01*
X103450500Y-76215688D01*
X103421617Y-76107896D01*
X105050907Y-76107896D01*
X105050907Y-76226514D01*
X105081608Y-76341091D01*
X105140918Y-76443818D01*
X105224794Y-76527694D01*
X105327521Y-76587004D01*
X105442098Y-76617705D01*
X105442101Y-76617705D01*
X105560713Y-76617705D01*
X105560716Y-76617705D01*
X105675293Y-76587004D01*
X105778020Y-76527694D01*
X105861896Y-76443818D01*
X105921206Y-76341091D01*
X105951907Y-76226514D01*
X105951907Y-76107896D01*
X105921206Y-75993319D01*
X105861896Y-75890592D01*
X105778020Y-75806716D01*
X105675293Y-75747406D01*
X105560716Y-75716705D01*
X105442098Y-75716705D01*
X105327521Y-75747406D01*
X105327519Y-75747406D01*
X105327519Y-75747407D01*
X105224794Y-75806716D01*
X105224791Y-75806718D01*
X105140920Y-75890589D01*
X105140918Y-75890592D01*
X105081608Y-75993319D01*
X105050907Y-76107896D01*
X103421617Y-76107896D01*
X103419799Y-76101111D01*
X103360489Y-75998384D01*
X103276613Y-75914508D01*
X103184403Y-75861270D01*
X103136188Y-75810702D01*
X103122966Y-75742095D01*
X103148934Y-75677230D01*
X103158723Y-75666201D01*
X103235590Y-75589334D01*
X103350494Y-75417368D01*
X103350499Y-75417358D01*
X103429649Y-75226274D01*
X103429651Y-75226266D01*
X103469999Y-75023420D01*
X103470000Y-75023417D01*
X103470000Y-74970000D01*
X102743067Y-74970000D01*
X102745000Y-74962787D01*
X102745000Y-74477213D01*
X102743067Y-74470000D01*
X103470000Y-74470000D01*
X103470000Y-74416583D01*
X103469999Y-74416579D01*
X103429651Y-74213733D01*
X103429649Y-74213725D01*
X103350499Y-74022641D01*
X103350494Y-74022631D01*
X103235589Y-73850664D01*
X103235586Y-73850660D01*
X103089339Y-73704413D01*
X103089335Y-73704410D01*
X102917368Y-73589505D01*
X102917358Y-73589500D01*
X102726272Y-73510349D01*
X102726267Y-73510347D01*
X102670000Y-73499155D01*
X102670000Y-74310382D01*
X102619554Y-74259936D01*
X102545445Y-74217149D01*
X102462787Y-74195000D01*
X102377213Y-74195000D01*
X102294555Y-74217149D01*
X102220446Y-74259936D01*
X102170000Y-74310382D01*
X102170000Y-73499156D01*
X102169999Y-73499155D01*
X102113732Y-73510347D01*
X102113727Y-73510349D01*
X101922641Y-73589500D01*
X101922631Y-73589505D01*
X101750664Y-73704410D01*
X101750660Y-73704413D01*
X101604413Y-73850660D01*
X101604410Y-73850664D01*
X101489505Y-74022631D01*
X101489500Y-74022641D01*
X101410350Y-74213725D01*
X101410348Y-74213733D01*
X101370000Y-74416579D01*
X98629999Y-74416579D01*
X98589651Y-74213733D01*
X98589649Y-74213725D01*
X98510499Y-74022641D01*
X98510494Y-74022631D01*
X98395589Y-73850664D01*
X98395586Y-73850660D01*
X98249339Y-73704413D01*
X98249335Y-73704410D01*
X98077368Y-73589505D01*
X98077358Y-73589500D01*
X97886272Y-73510349D01*
X97886267Y-73510347D01*
X97830000Y-73499155D01*
X97830000Y-74310382D01*
X97779554Y-74259936D01*
X97705445Y-74217149D01*
X97622787Y-74195000D01*
X97537213Y-74195000D01*
X97454555Y-74217149D01*
X97380446Y-74259936D01*
X97330000Y-74310382D01*
X97330000Y-73499156D01*
X97329999Y-73499155D01*
X97273732Y-73510347D01*
X97273727Y-73510349D01*
X97082641Y-73589500D01*
X97082631Y-73589505D01*
X96910664Y-73704410D01*
X96910660Y-73704413D01*
X96764413Y-73850660D01*
X96764410Y-73850664D01*
X96649505Y-74022631D01*
X96649500Y-74022641D01*
X96570350Y-74213725D01*
X96570348Y-74213733D01*
X96530000Y-74416579D01*
X74300500Y-74416579D01*
X74300500Y-73240691D01*
X94949500Y-73240691D01*
X94949500Y-73359309D01*
X94980201Y-73473886D01*
X95039511Y-73576613D01*
X95123387Y-73660489D01*
X95226114Y-73719799D01*
X95340691Y-73750500D01*
X95340694Y-73750500D01*
X95459306Y-73750500D01*
X95459309Y-73750500D01*
X95573886Y-73719799D01*
X95676613Y-73660489D01*
X95760489Y-73576613D01*
X95819799Y-73473886D01*
X95850500Y-73359309D01*
X95850500Y-73240691D01*
X104149500Y-73240691D01*
X104149500Y-73359309D01*
X104180201Y-73473886D01*
X104239511Y-73576613D01*
X104323387Y-73660489D01*
X104426114Y-73719799D01*
X104540691Y-73750500D01*
X104540694Y-73750500D01*
X104659306Y-73750500D01*
X104659309Y-73750500D01*
X104773886Y-73719799D01*
X104876613Y-73660489D01*
X104960489Y-73576613D01*
X105019799Y-73473886D01*
X105050500Y-73359309D01*
X105050500Y-73240691D01*
X105019799Y-73126114D01*
X105019797Y-73126111D01*
X105019797Y-73126109D01*
X105019795Y-73126105D01*
X104972995Y-73045048D01*
X104960489Y-73023387D01*
X104876613Y-72939511D01*
X104773886Y-72880201D01*
X104659309Y-72849500D01*
X104540691Y-72849500D01*
X104426114Y-72880201D01*
X104426112Y-72880201D01*
X104426112Y-72880202D01*
X104323387Y-72939511D01*
X104323384Y-72939513D01*
X104239513Y-73023384D01*
X104239511Y-73023387D01*
X104204903Y-73083330D01*
X104180201Y-73126114D01*
X104149500Y-73240691D01*
X95850500Y-73240691D01*
X95819799Y-73126114D01*
X95760489Y-73023387D01*
X95676613Y-72939511D01*
X95573886Y-72880201D01*
X95459309Y-72849500D01*
X95340691Y-72849500D01*
X95226114Y-72880201D01*
X95226112Y-72880201D01*
X95226112Y-72880202D01*
X95123387Y-72939511D01*
X95123384Y-72939513D01*
X95039513Y-73023384D01*
X95039511Y-73023387D01*
X95004903Y-73083330D01*
X94980201Y-73126114D01*
X94949500Y-73240691D01*
X74300500Y-73240691D01*
X74300500Y-72003480D01*
X74300695Y-71996528D01*
X74302722Y-71960438D01*
X74317122Y-71704008D01*
X74318676Y-71690211D01*
X74359062Y-71452526D01*
X96095000Y-71452526D01*
X96095000Y-71470000D01*
X96920000Y-71470000D01*
X96920000Y-71970000D01*
X96095000Y-71970000D01*
X96095000Y-71987473D01*
X96123933Y-72170147D01*
X96181083Y-72346040D01*
X96181084Y-72346043D01*
X96265052Y-72510837D01*
X96373754Y-72660454D01*
X96373758Y-72660459D01*
X96504540Y-72791241D01*
X96504545Y-72791245D01*
X96654162Y-72899947D01*
X96818956Y-72983915D01*
X96818959Y-72983916D01*
X96994845Y-73041064D01*
X96994858Y-73041067D01*
X97020000Y-73045049D01*
X97020000Y-72214975D01*
X97055095Y-72250070D01*
X97134905Y-72296148D01*
X97223922Y-72320000D01*
X97316078Y-72320000D01*
X97405095Y-72296148D01*
X97484905Y-72250070D01*
X97520000Y-72214975D01*
X97520000Y-73045048D01*
X97545141Y-73041067D01*
X97545154Y-73041064D01*
X97721040Y-72983916D01*
X97721043Y-72983915D01*
X97885837Y-72899947D01*
X98035454Y-72791245D01*
X98035459Y-72791241D01*
X98166241Y-72660459D01*
X98166245Y-72660454D01*
X98274947Y-72510837D01*
X98358915Y-72346043D01*
X98358916Y-72346040D01*
X98416066Y-72170147D01*
X98445000Y-71987473D01*
X98445000Y-71970000D01*
X97620000Y-71970000D01*
X97620000Y-71470000D01*
X98445000Y-71470000D01*
X98445000Y-71452526D01*
X101555000Y-71452526D01*
X101555000Y-71470000D01*
X102380000Y-71470000D01*
X102380000Y-71970000D01*
X101555000Y-71970000D01*
X101555000Y-71987473D01*
X101583933Y-72170147D01*
X101641083Y-72346040D01*
X101641084Y-72346043D01*
X101725052Y-72510837D01*
X101833754Y-72660454D01*
X101833758Y-72660459D01*
X101964540Y-72791241D01*
X101964545Y-72791245D01*
X102114162Y-72899947D01*
X102278956Y-72983915D01*
X102278959Y-72983916D01*
X102454845Y-73041064D01*
X102454858Y-73041067D01*
X102480000Y-73045049D01*
X102480000Y-72214975D01*
X102515095Y-72250070D01*
X102594905Y-72296148D01*
X102683922Y-72320000D01*
X102776078Y-72320000D01*
X102865095Y-72296148D01*
X102944905Y-72250070D01*
X102980000Y-72214975D01*
X102980000Y-73045048D01*
X103005141Y-73041067D01*
X103005154Y-73041064D01*
X103181040Y-72983916D01*
X103181043Y-72983915D01*
X103345837Y-72899947D01*
X103495454Y-72791245D01*
X103495459Y-72791241D01*
X103626241Y-72660459D01*
X103626245Y-72660454D01*
X103734947Y-72510837D01*
X103818915Y-72346043D01*
X103818916Y-72346040D01*
X103876066Y-72170147D01*
X103905000Y-71987473D01*
X103905000Y-71970000D01*
X103080000Y-71970000D01*
X103080000Y-71893753D01*
X107610000Y-71893753D01*
X107610000Y-72106246D01*
X107643242Y-72316127D01*
X107643242Y-72316130D01*
X107708904Y-72518217D01*
X107805375Y-72707550D01*
X107844728Y-72761716D01*
X108477037Y-72129408D01*
X108494075Y-72192993D01*
X108559901Y-72307007D01*
X108652993Y-72400099D01*
X108767007Y-72465925D01*
X108830590Y-72482962D01*
X108198282Y-73115269D01*
X108198282Y-73115270D01*
X108252449Y-73154624D01*
X108441782Y-73251095D01*
X108643870Y-73316757D01*
X108853754Y-73350000D01*
X109066246Y-73350000D01*
X109276127Y-73316757D01*
X109276130Y-73316757D01*
X109478217Y-73251095D01*
X109667554Y-73154622D01*
X109721716Y-73115270D01*
X109721717Y-73115270D01*
X109689777Y-73083330D01*
X114502000Y-73083330D01*
X114502000Y-73270571D01*
X114538525Y-73454194D01*
X114538527Y-73454202D01*
X114610176Y-73627179D01*
X114610181Y-73627188D01*
X114714197Y-73782858D01*
X114714200Y-73782862D01*
X114846588Y-73915250D01*
X114846592Y-73915253D01*
X115002262Y-74019269D01*
X115002268Y-74019272D01*
X115002269Y-74019273D01*
X115175249Y-74090924D01*
X115358879Y-74127450D01*
X115358883Y-74127451D01*
X115358884Y-74127451D01*
X115546117Y-74127451D01*
X115546118Y-74127450D01*
X115729751Y-74090924D01*
X115902731Y-74019273D01*
X116058408Y-73915253D01*
X116190802Y-73782859D01*
X116294822Y-73627182D01*
X116366473Y-73454202D01*
X116403000Y-73270567D01*
X116403000Y-73083335D01*
X116402999Y-73083330D01*
X117002000Y-73083330D01*
X117002000Y-73270571D01*
X117038525Y-73454194D01*
X117038527Y-73454202D01*
X117110176Y-73627179D01*
X117110181Y-73627188D01*
X117214197Y-73782858D01*
X117214200Y-73782862D01*
X117346588Y-73915250D01*
X117346592Y-73915253D01*
X117502262Y-74019269D01*
X117502268Y-74019272D01*
X117502269Y-74019273D01*
X117675249Y-74090924D01*
X117858879Y-74127450D01*
X117858883Y-74127451D01*
X117858884Y-74127451D01*
X118046117Y-74127451D01*
X118046118Y-74127450D01*
X118229751Y-74090924D01*
X118402731Y-74019273D01*
X118558408Y-73915253D01*
X118690802Y-73782859D01*
X118794822Y-73627182D01*
X118866473Y-73454202D01*
X118903000Y-73270567D01*
X118903000Y-73083335D01*
X118866473Y-72899700D01*
X118794822Y-72726720D01*
X118794821Y-72726719D01*
X118794818Y-72726713D01*
X118690802Y-72571043D01*
X118690799Y-72571039D01*
X118558411Y-72438651D01*
X118558407Y-72438648D01*
X118402737Y-72334632D01*
X118402728Y-72334627D01*
X118229751Y-72262978D01*
X118229743Y-72262976D01*
X118046120Y-72226451D01*
X118046116Y-72226451D01*
X117858884Y-72226451D01*
X117858879Y-72226451D01*
X117675256Y-72262976D01*
X117675248Y-72262978D01*
X117502271Y-72334627D01*
X117502262Y-72334632D01*
X117346592Y-72438648D01*
X117346588Y-72438651D01*
X117214200Y-72571039D01*
X117214197Y-72571043D01*
X117110181Y-72726713D01*
X117110176Y-72726722D01*
X117038527Y-72899699D01*
X117038525Y-72899707D01*
X117002000Y-73083330D01*
X116402999Y-73083330D01*
X116366473Y-72899700D01*
X116294822Y-72726720D01*
X116294821Y-72726719D01*
X116294818Y-72726713D01*
X116190802Y-72571043D01*
X116190799Y-72571039D01*
X116058411Y-72438651D01*
X116058407Y-72438648D01*
X115902737Y-72334632D01*
X115902728Y-72334627D01*
X115729751Y-72262978D01*
X115729743Y-72262976D01*
X115546120Y-72226451D01*
X115546116Y-72226451D01*
X115358884Y-72226451D01*
X115358879Y-72226451D01*
X115175256Y-72262976D01*
X115175248Y-72262978D01*
X115002271Y-72334627D01*
X115002262Y-72334632D01*
X114846592Y-72438648D01*
X114846588Y-72438651D01*
X114714200Y-72571039D01*
X114714197Y-72571043D01*
X114610181Y-72726713D01*
X114610176Y-72726722D01*
X114538527Y-72899699D01*
X114538525Y-72899707D01*
X114502000Y-73083330D01*
X109689777Y-73083330D01*
X109089408Y-72482962D01*
X109152993Y-72465925D01*
X109267007Y-72400099D01*
X109360099Y-72307007D01*
X109425925Y-72192993D01*
X109442962Y-72129408D01*
X110075270Y-72761717D01*
X110075270Y-72761716D01*
X110114622Y-72707554D01*
X110211095Y-72518217D01*
X110257569Y-72375185D01*
X110297006Y-72317510D01*
X110361365Y-72290311D01*
X110430211Y-72302225D01*
X110481687Y-72349469D01*
X110499500Y-72413503D01*
X110499500Y-72864820D01*
X110499500Y-72864822D01*
X110499499Y-72864822D01*
X110508231Y-72908717D01*
X110508234Y-72908724D01*
X110541495Y-72958503D01*
X110541496Y-72958504D01*
X110591278Y-72991767D01*
X110591281Y-72991767D01*
X110591282Y-72991768D01*
X110635177Y-73000500D01*
X110635180Y-73000500D01*
X112364822Y-73000500D01*
X112408717Y-72991768D01*
X112408717Y-72991767D01*
X112408722Y-72991767D01*
X112458504Y-72958504D01*
X112491767Y-72908722D01*
X112497440Y-72880202D01*
X112500500Y-72864822D01*
X112500500Y-71135177D01*
X112491768Y-71091282D01*
X112491767Y-71091281D01*
X112491767Y-71091278D01*
X112458504Y-71041496D01*
X112458503Y-71041495D01*
X112408724Y-71008234D01*
X112408717Y-71008231D01*
X112364822Y-70999500D01*
X112364820Y-70999500D01*
X110635180Y-70999500D01*
X110635178Y-70999500D01*
X110591282Y-71008231D01*
X110591275Y-71008234D01*
X110541496Y-71041495D01*
X110541495Y-71041496D01*
X110508234Y-71091275D01*
X110508231Y-71091282D01*
X110499500Y-71135177D01*
X110499500Y-71586496D01*
X110479815Y-71653535D01*
X110427011Y-71699290D01*
X110357853Y-71709234D01*
X110294297Y-71680209D01*
X110257569Y-71624814D01*
X110211095Y-71481782D01*
X110114624Y-71292449D01*
X110075270Y-71238282D01*
X110075269Y-71238282D01*
X109442962Y-71870590D01*
X109425925Y-71807007D01*
X109360099Y-71692993D01*
X109267007Y-71599901D01*
X109152993Y-71534075D01*
X109089409Y-71517037D01*
X109721716Y-70884728D01*
X109667550Y-70845375D01*
X109478217Y-70748904D01*
X109276129Y-70683242D01*
X109066246Y-70650000D01*
X108853754Y-70650000D01*
X108643872Y-70683242D01*
X108643869Y-70683242D01*
X108441782Y-70748904D01*
X108252439Y-70845380D01*
X108198282Y-70884727D01*
X108198282Y-70884728D01*
X108830591Y-71517037D01*
X108767007Y-71534075D01*
X108652993Y-71599901D01*
X108559901Y-71692993D01*
X108494075Y-71807007D01*
X108477037Y-71870591D01*
X107844728Y-71238282D01*
X107844727Y-71238282D01*
X107805380Y-71292439D01*
X107708904Y-71481782D01*
X107643242Y-71683869D01*
X107643242Y-71683872D01*
X107610000Y-71893753D01*
X103080000Y-71893753D01*
X103080000Y-71470000D01*
X103905000Y-71470000D01*
X103905000Y-71452526D01*
X103876066Y-71269852D01*
X103818916Y-71093959D01*
X103818915Y-71093956D01*
X103765071Y-70988282D01*
X103734947Y-70929162D01*
X103626245Y-70779545D01*
X103626241Y-70779540D01*
X103495459Y-70648758D01*
X103495454Y-70648754D01*
X103345837Y-70540052D01*
X103181043Y-70456084D01*
X103181037Y-70456082D01*
X103005144Y-70398932D01*
X102980000Y-70394950D01*
X102980000Y-71225025D01*
X102944905Y-71189930D01*
X102865095Y-71143852D01*
X102776078Y-71120000D01*
X102683922Y-71120000D01*
X102594905Y-71143852D01*
X102515095Y-71189930D01*
X102480000Y-71225025D01*
X102480000Y-70394950D01*
X102479999Y-70394950D01*
X102454855Y-70398932D01*
X102278962Y-70456082D01*
X102278956Y-70456084D01*
X102114162Y-70540052D01*
X101964545Y-70648754D01*
X101964540Y-70648758D01*
X101833758Y-70779540D01*
X101833754Y-70779545D01*
X101725052Y-70929162D01*
X101641084Y-71093956D01*
X101641083Y-71093959D01*
X101583933Y-71269852D01*
X101555000Y-71452526D01*
X98445000Y-71452526D01*
X98416066Y-71269852D01*
X98358916Y-71093959D01*
X98358915Y-71093956D01*
X98274947Y-70929162D01*
X98166245Y-70779545D01*
X98166241Y-70779540D01*
X98035459Y-70648758D01*
X98035454Y-70648754D01*
X97885837Y-70540052D01*
X97721043Y-70456084D01*
X97721037Y-70456082D01*
X97545144Y-70398932D01*
X97520000Y-70394950D01*
X97520000Y-71225025D01*
X97484905Y-71189930D01*
X97405095Y-71143852D01*
X97316078Y-71120000D01*
X97223922Y-71120000D01*
X97134905Y-71143852D01*
X97055095Y-71189930D01*
X97020000Y-71225025D01*
X97020000Y-70394950D01*
X97019999Y-70394950D01*
X96994855Y-70398932D01*
X96818962Y-70456082D01*
X96818956Y-70456084D01*
X96654162Y-70540052D01*
X96504545Y-70648754D01*
X96504540Y-70648758D01*
X96373758Y-70779540D01*
X96373754Y-70779545D01*
X96265052Y-70929162D01*
X96181084Y-71093956D01*
X96181083Y-71093959D01*
X96123933Y-71269852D01*
X96095000Y-71452526D01*
X74359062Y-71452526D01*
X74367169Y-71404811D01*
X74370263Y-71391256D01*
X74398729Y-71292449D01*
X74450408Y-71113066D01*
X74454988Y-71099975D01*
X74565783Y-70832496D01*
X74571808Y-70819986D01*
X74575456Y-70813387D01*
X74711843Y-70566615D01*
X74719235Y-70554850D01*
X74886768Y-70318736D01*
X74895406Y-70307904D01*
X75088330Y-70092023D01*
X75098153Y-70082202D01*
X75314012Y-69889301D01*
X75324870Y-69880642D01*
X75560968Y-69713124D01*
X75572739Y-69705728D01*
X75650065Y-69662992D01*
X75826122Y-69565690D01*
X75838627Y-69559668D01*
X76106093Y-69448882D01*
X76119189Y-69444299D01*
X76397396Y-69364152D01*
X76410920Y-69361066D01*
X76696339Y-69312573D01*
X76710132Y-69311019D01*
X76930008Y-69298673D01*
X76953143Y-69299539D01*
G37*
G04 #@! TD.AperFunction*
G04 #@! TA.AperFunction,Conductor*
G36*
X74919075Y-101882993D02*
G01*
X74984901Y-101997007D01*
X75077993Y-102090099D01*
X75192007Y-102155925D01*
X75255590Y-102172962D01*
X74623282Y-102805269D01*
X74623282Y-102805270D01*
X74677449Y-102844624D01*
X74866782Y-102941095D01*
X75068865Y-103006755D01*
X75127587Y-103016056D01*
X75190722Y-103045985D01*
X75227654Y-103105297D01*
X75226656Y-103175159D01*
X75188047Y-103233392D01*
X75132384Y-103260147D01*
X75093167Y-103267948D01*
X75093160Y-103267950D01*
X74911092Y-103343364D01*
X74911079Y-103343371D01*
X74747218Y-103452860D01*
X74747214Y-103452863D01*
X74607863Y-103592214D01*
X74607860Y-103592218D01*
X74527602Y-103712333D01*
X74473990Y-103757138D01*
X74404665Y-103765845D01*
X74341637Y-103735690D01*
X74304918Y-103676247D01*
X74300500Y-103643442D01*
X74300500Y-102472308D01*
X74320185Y-102405269D01*
X74336819Y-102384627D01*
X74902037Y-101819408D01*
X74919075Y-101882993D01*
G37*
G04 #@! TD.AperFunction*
G04 #@! TA.AperFunction,Conductor*
G36*
X74919075Y-99342993D02*
G01*
X74984901Y-99457007D01*
X75077993Y-99550099D01*
X75192007Y-99615925D01*
X75255591Y-99632962D01*
X74654971Y-100233581D01*
X74733711Y-100350895D01*
X74754727Y-100417529D01*
X74736383Y-100484947D01*
X74687051Y-100530483D01*
X74677440Y-100535380D01*
X74623282Y-100574727D01*
X74623282Y-100574728D01*
X75255591Y-101207037D01*
X75192007Y-101224075D01*
X75077993Y-101289901D01*
X74984901Y-101382993D01*
X74919075Y-101497007D01*
X74902037Y-101560591D01*
X74336819Y-100995373D01*
X74303334Y-100934050D01*
X74300500Y-100907692D01*
X74300500Y-99932308D01*
X74320185Y-99865269D01*
X74336819Y-99844627D01*
X74902037Y-99279408D01*
X74919075Y-99342993D01*
G37*
G04 #@! TD.AperFunction*
G04 #@! TA.AperFunction,Conductor*
G36*
X77534075Y-79952993D02*
G01*
X77599901Y-80067007D01*
X77692993Y-80160099D01*
X77807007Y-80225925D01*
X77870590Y-80242962D01*
X77238282Y-80875269D01*
X77238282Y-80875270D01*
X77292449Y-80914624D01*
X77481782Y-81011095D01*
X77683865Y-81076755D01*
X77742587Y-81086056D01*
X77805722Y-81115985D01*
X77842654Y-81175297D01*
X77841656Y-81245159D01*
X77803047Y-81303392D01*
X77747384Y-81330147D01*
X77708167Y-81337948D01*
X77708160Y-81337950D01*
X77526092Y-81413364D01*
X77526079Y-81413371D01*
X77362218Y-81522860D01*
X77362214Y-81522863D01*
X77222863Y-81662214D01*
X77222860Y-81662218D01*
X77113371Y-81826079D01*
X77113364Y-81826092D01*
X77037950Y-82008160D01*
X77037947Y-82008170D01*
X76999500Y-82201456D01*
X76999500Y-82201459D01*
X76999500Y-82398541D01*
X76999500Y-82398543D01*
X76999499Y-82398543D01*
X77037947Y-82591829D01*
X77037950Y-82591839D01*
X77113364Y-82773907D01*
X77113371Y-82773920D01*
X77222860Y-82937781D01*
X77222863Y-82937785D01*
X77362214Y-83077136D01*
X77362218Y-83077139D01*
X77526079Y-83186628D01*
X77526092Y-83186635D01*
X77708160Y-83262049D01*
X77708165Y-83262051D01*
X77728491Y-83266094D01*
X77747381Y-83269852D01*
X77809292Y-83302237D01*
X77843866Y-83362952D01*
X77840127Y-83432722D01*
X77799261Y-83489394D01*
X77742589Y-83513942D01*
X77683870Y-83523242D01*
X77683869Y-83523242D01*
X77481782Y-83588904D01*
X77292439Y-83685380D01*
X77238282Y-83724727D01*
X77238282Y-83724728D01*
X77870591Y-84357037D01*
X77807007Y-84374075D01*
X77692993Y-84439901D01*
X77599901Y-84532993D01*
X77534075Y-84647007D01*
X77517037Y-84710591D01*
X76884728Y-84078282D01*
X76884727Y-84078282D01*
X76845380Y-84132439D01*
X76748904Y-84321782D01*
X76683242Y-84523869D01*
X76683242Y-84523870D01*
X76673942Y-84582589D01*
X76644012Y-84645723D01*
X76584700Y-84682654D01*
X76514838Y-84681656D01*
X76456605Y-84643046D01*
X76429852Y-84587381D01*
X76422052Y-84548172D01*
X76422051Y-84548165D01*
X76396723Y-84487017D01*
X76346635Y-84366092D01*
X76346628Y-84366079D01*
X76237139Y-84202218D01*
X76237136Y-84202214D01*
X76097785Y-84062863D01*
X76097781Y-84062860D01*
X75933920Y-83953371D01*
X75933907Y-83953364D01*
X75751839Y-83877950D01*
X75751829Y-83877947D01*
X75558543Y-83839500D01*
X75558541Y-83839500D01*
X75361459Y-83839500D01*
X75361457Y-83839500D01*
X75168170Y-83877947D01*
X75168160Y-83877950D01*
X74986092Y-83953364D01*
X74986079Y-83953371D01*
X74822218Y-84062860D01*
X74822214Y-84062863D01*
X74682863Y-84202214D01*
X74682860Y-84202218D01*
X74573371Y-84366079D01*
X74573364Y-84366092D01*
X74539061Y-84448910D01*
X74495220Y-84503314D01*
X74428926Y-84525379D01*
X74361227Y-84508100D01*
X74313616Y-84456963D01*
X74300500Y-84401458D01*
X74300500Y-82738541D01*
X74320185Y-82671502D01*
X74372989Y-82625747D01*
X74442147Y-82615803D01*
X74505703Y-82644828D01*
X74539061Y-82691089D01*
X74573364Y-82773908D01*
X74573371Y-82773920D01*
X74682860Y-82937781D01*
X74682863Y-82937785D01*
X74822214Y-83077136D01*
X74822218Y-83077139D01*
X74986079Y-83186628D01*
X74986092Y-83186635D01*
X75168160Y-83262049D01*
X75168165Y-83262051D01*
X75168169Y-83262051D01*
X75168170Y-83262052D01*
X75361456Y-83300500D01*
X75361459Y-83300500D01*
X75558543Y-83300500D01*
X75712622Y-83269851D01*
X75751835Y-83262051D01*
X75933914Y-83186632D01*
X76097782Y-83077139D01*
X76237139Y-82937782D01*
X76346632Y-82773914D01*
X76422051Y-82591835D01*
X76460500Y-82398541D01*
X76460500Y-82201459D01*
X76460500Y-82201456D01*
X76422052Y-82008170D01*
X76422051Y-82008169D01*
X76422051Y-82008165D01*
X76369689Y-81881750D01*
X76346635Y-81826092D01*
X76346628Y-81826079D01*
X76237139Y-81662218D01*
X76237136Y-81662214D01*
X76097785Y-81522863D01*
X76097781Y-81522860D01*
X75933920Y-81413371D01*
X75933907Y-81413364D01*
X75751839Y-81337950D01*
X75751829Y-81337947D01*
X75558543Y-81299500D01*
X75558541Y-81299500D01*
X75361459Y-81299500D01*
X75361457Y-81299500D01*
X75168170Y-81337947D01*
X75168160Y-81337950D01*
X74986092Y-81413364D01*
X74986079Y-81413371D01*
X74822218Y-81522860D01*
X74822214Y-81522863D01*
X74682863Y-81662214D01*
X74682860Y-81662218D01*
X74573371Y-81826079D01*
X74573364Y-81826092D01*
X74539061Y-81908910D01*
X74495220Y-81963314D01*
X74428926Y-81985379D01*
X74361227Y-81968100D01*
X74313616Y-81916963D01*
X74300500Y-81861458D01*
X74300500Y-80198541D01*
X74320185Y-80131502D01*
X74372989Y-80085747D01*
X74442147Y-80075803D01*
X74505703Y-80104828D01*
X74539061Y-80151089D01*
X74573364Y-80233908D01*
X74573371Y-80233920D01*
X74682860Y-80397781D01*
X74682863Y-80397785D01*
X74822214Y-80537136D01*
X74822218Y-80537139D01*
X74986079Y-80646628D01*
X74986092Y-80646635D01*
X75103835Y-80695405D01*
X75168165Y-80722051D01*
X75168169Y-80722051D01*
X75168170Y-80722052D01*
X75361456Y-80760500D01*
X75361459Y-80760500D01*
X75558543Y-80760500D01*
X75688582Y-80734632D01*
X75751835Y-80722051D01*
X75892655Y-80663721D01*
X75933907Y-80646635D01*
X75933907Y-80646634D01*
X75933914Y-80646632D01*
X76097782Y-80537139D01*
X76237139Y-80397782D01*
X76346632Y-80233914D01*
X76352185Y-80220509D01*
X76404177Y-80094986D01*
X76422051Y-80051835D01*
X76429852Y-80012615D01*
X76462236Y-79950707D01*
X76522952Y-79916133D01*
X76592721Y-79919872D01*
X76649394Y-79960738D01*
X76673942Y-80017411D01*
X76683242Y-80076127D01*
X76683242Y-80076130D01*
X76748904Y-80278217D01*
X76845375Y-80467550D01*
X76884728Y-80521716D01*
X77517037Y-79889408D01*
X77534075Y-79952993D01*
G37*
G04 #@! TD.AperFunction*
G04 #@! TA.AperFunction,Conductor*
G36*
X77534075Y-77412993D02*
G01*
X77599901Y-77527007D01*
X77692993Y-77620099D01*
X77807007Y-77685925D01*
X77870591Y-77702962D01*
X77269971Y-78303581D01*
X77348711Y-78420895D01*
X77349920Y-78424729D01*
X77352844Y-78427491D01*
X77360343Y-78457778D01*
X77369727Y-78487529D01*
X77368671Y-78491408D01*
X77369638Y-78495312D01*
X77359573Y-78524844D01*
X77351383Y-78554947D01*
X77348397Y-78557640D01*
X77347100Y-78561447D01*
X77302051Y-78600483D01*
X77292440Y-78605380D01*
X77238282Y-78644727D01*
X77238282Y-78644728D01*
X77870591Y-79277037D01*
X77807007Y-79294075D01*
X77692993Y-79359901D01*
X77599901Y-79452993D01*
X77534075Y-79567007D01*
X77517037Y-79630591D01*
X76884728Y-78998282D01*
X76884727Y-78998282D01*
X76845380Y-79052439D01*
X76748904Y-79241782D01*
X76683242Y-79443869D01*
X76683242Y-79443870D01*
X76673942Y-79502589D01*
X76644012Y-79565723D01*
X76584700Y-79602654D01*
X76514838Y-79601656D01*
X76456605Y-79563046D01*
X76429852Y-79507381D01*
X76422052Y-79468172D01*
X76422051Y-79468165D01*
X76403473Y-79423314D01*
X76346635Y-79286092D01*
X76346628Y-79286079D01*
X76237139Y-79122218D01*
X76237136Y-79122214D01*
X76097785Y-78982863D01*
X76097781Y-78982860D01*
X75933920Y-78873371D01*
X75933907Y-78873364D01*
X75751839Y-78797950D01*
X75751829Y-78797947D01*
X75558543Y-78759500D01*
X75558541Y-78759500D01*
X75361459Y-78759500D01*
X75361457Y-78759500D01*
X75168170Y-78797947D01*
X75168160Y-78797950D01*
X74986092Y-78873364D01*
X74986079Y-78873371D01*
X74822218Y-78982860D01*
X74822214Y-78982863D01*
X74682863Y-79122214D01*
X74682860Y-79122218D01*
X74573371Y-79286079D01*
X74573364Y-79286092D01*
X74539061Y-79368910D01*
X74495220Y-79423314D01*
X74428926Y-79445379D01*
X74361227Y-79428100D01*
X74313616Y-79376963D01*
X74300500Y-79321458D01*
X74300500Y-77658541D01*
X74320185Y-77591502D01*
X74372989Y-77545747D01*
X74442147Y-77535803D01*
X74505703Y-77564828D01*
X74539061Y-77611089D01*
X74573364Y-77693908D01*
X74573371Y-77693920D01*
X74682860Y-77857781D01*
X74682863Y-77857785D01*
X74822214Y-77997136D01*
X74822218Y-77997139D01*
X74986079Y-78106628D01*
X74986092Y-78106635D01*
X75168160Y-78182049D01*
X75168165Y-78182051D01*
X75168169Y-78182051D01*
X75168170Y-78182052D01*
X75361456Y-78220500D01*
X75361459Y-78220500D01*
X75558543Y-78220500D01*
X75688582Y-78194632D01*
X75751835Y-78182051D01*
X75889661Y-78124961D01*
X75933907Y-78106635D01*
X75933907Y-78106634D01*
X75933914Y-78106632D01*
X76097782Y-77997139D01*
X76237139Y-77857782D01*
X76346632Y-77693914D01*
X76422051Y-77511835D01*
X76429852Y-77472615D01*
X76462236Y-77410707D01*
X76522952Y-77376133D01*
X76592721Y-77379872D01*
X76649394Y-77420738D01*
X76673942Y-77477411D01*
X76683242Y-77536127D01*
X76683242Y-77536130D01*
X76748904Y-77738217D01*
X76845375Y-77927550D01*
X76884728Y-77981716D01*
X77517037Y-77349408D01*
X77534075Y-77412993D01*
G37*
G04 #@! TD.AperFunction*
M02*
