G04 #@! TF.GenerationSoftware,KiCad,Pcbnew,9.0.5*
G04 #@! TF.CreationDate,2025-11-21T14:26:13-06:00*
G04 #@! TF.ProjectId,ece362snakegamepcb,65636533-3632-4736-9e61-6b6567616d65,REV3*
G04 #@! TF.SameCoordinates,Original*
G04 #@! TF.FileFunction,Copper,L1,Top*
G04 #@! TF.FilePolarity,Positive*
%FSLAX46Y46*%
G04 Gerber Fmt 4.6, Leading zero omitted, Abs format (unit mm)*
G04 Created by KiCad (PCBNEW 9.0.5) date 2025-11-21 14:26:13*
%MOMM*%
%LPD*%
G01*
G04 APERTURE LIST*
G04 Aperture macros list*
%AMRoundRect*
0 Rectangle with rounded corners*
0 $1 Rounding radius*
0 $2 $3 $4 $5 $6 $7 $8 $9 X,Y pos of 4 corners*
0 Add a 4 corners polygon primitive as box body*
4,1,4,$2,$3,$4,$5,$6,$7,$8,$9,$2,$3,0*
0 Add four circle primitives for the rounded corners*
1,1,$1+$1,$2,$3*
1,1,$1+$1,$4,$5*
1,1,$1+$1,$6,$7*
1,1,$1+$1,$8,$9*
0 Add four rect primitives between the rounded corners*
20,1,$1+$1,$2,$3,$4,$5,0*
20,1,$1+$1,$4,$5,$6,$7,0*
20,1,$1+$1,$6,$7,$8,$9,0*
20,1,$1+$1,$8,$9,$2,$3,0*%
G04 Aperture macros list end*
G04 #@! TA.AperFunction,SMDPad,CuDef*
%ADD10RoundRect,0.055000X0.335000X-0.055000X0.335000X0.055000X-0.335000X0.055000X-0.335000X-0.055000X0*%
G04 #@! TD*
G04 #@! TA.AperFunction,SMDPad,CuDef*
%ADD11RoundRect,0.055000X-0.055000X-0.335000X0.055000X-0.335000X0.055000X0.335000X-0.055000X0.335000X0*%
G04 #@! TD*
G04 #@! TA.AperFunction,ComponentPad*
%ADD12C,0.600000*%
G04 #@! TD*
G04 #@! TA.AperFunction,SMDPad,CuDef*
%ADD13R,1.133333X1.133333*%
G04 #@! TD*
G04 #@! TA.AperFunction,SMDPad,CuDef*
%ADD14RoundRect,0.375000X-0.375000X0.625000X-0.375000X-0.625000X0.375000X-0.625000X0.375000X0.625000X0*%
G04 #@! TD*
G04 #@! TA.AperFunction,SMDPad,CuDef*
%ADD15RoundRect,0.500000X-1.400000X0.500000X-1.400000X-0.500000X1.400000X-0.500000X1.400000X0.500000X0*%
G04 #@! TD*
G04 #@! TA.AperFunction,SMDPad,CuDef*
%ADD16R,0.400000X1.650000*%
G04 #@! TD*
G04 #@! TA.AperFunction,SMDPad,CuDef*
%ADD17R,1.825000X0.700000*%
G04 #@! TD*
G04 #@! TA.AperFunction,SMDPad,CuDef*
%ADD18R,2.000000X1.500000*%
G04 #@! TD*
G04 #@! TA.AperFunction,SMDPad,CuDef*
%ADD19R,1.350000X2.000000*%
G04 #@! TD*
G04 #@! TA.AperFunction,HeatsinkPad*
%ADD20O,1.350000X1.700000*%
G04 #@! TD*
G04 #@! TA.AperFunction,HeatsinkPad*
%ADD21O,1.100000X1.500000*%
G04 #@! TD*
G04 #@! TA.AperFunction,SMDPad,CuDef*
%ADD22R,1.430000X2.500000*%
G04 #@! TD*
G04 #@! TA.AperFunction,SMDPad,CuDef*
%ADD23RoundRect,0.250000X-0.250000X-0.475000X0.250000X-0.475000X0.250000X0.475000X-0.250000X0.475000X0*%
G04 #@! TD*
G04 #@! TA.AperFunction,SMDPad,CuDef*
%ADD24RoundRect,0.140000X0.140000X0.170000X-0.140000X0.170000X-0.140000X-0.170000X0.140000X-0.170000X0*%
G04 #@! TD*
G04 #@! TA.AperFunction,SMDPad,CuDef*
%ADD25RoundRect,0.135000X-0.185000X0.135000X-0.185000X-0.135000X0.185000X-0.135000X0.185000X0.135000X0*%
G04 #@! TD*
G04 #@! TA.AperFunction,SMDPad,CuDef*
%ADD26RoundRect,0.150000X-0.650000X-0.150000X0.650000X-0.150000X0.650000X0.150000X-0.650000X0.150000X0*%
G04 #@! TD*
G04 #@! TA.AperFunction,SMDPad,CuDef*
%ADD27RoundRect,0.140000X-0.140000X-0.170000X0.140000X-0.170000X0.140000X0.170000X-0.140000X0.170000X0*%
G04 #@! TD*
G04 #@! TA.AperFunction,SMDPad,CuDef*
%ADD28RoundRect,0.140000X0.170000X-0.140000X0.170000X0.140000X-0.170000X0.140000X-0.170000X-0.140000X0*%
G04 #@! TD*
G04 #@! TA.AperFunction,SMDPad,CuDef*
%ADD29R,1.400000X1.200000*%
G04 #@! TD*
G04 #@! TA.AperFunction,ComponentPad*
%ADD30R,1.905000X2.000000*%
G04 #@! TD*
G04 #@! TA.AperFunction,ComponentPad*
%ADD31O,1.905000X2.000000*%
G04 #@! TD*
G04 #@! TA.AperFunction,ComponentPad*
%ADD32R,1.700000X1.700000*%
G04 #@! TD*
G04 #@! TA.AperFunction,ComponentPad*
%ADD33C,1.700000*%
G04 #@! TD*
G04 #@! TA.AperFunction,ComponentPad*
%ADD34C,1.600000*%
G04 #@! TD*
G04 #@! TA.AperFunction,SMDPad,CuDef*
%ADD35RoundRect,0.140000X-0.170000X0.140000X-0.170000X-0.140000X0.170000X-0.140000X0.170000X0.140000X0*%
G04 #@! TD*
G04 #@! TA.AperFunction,SMDPad,CuDef*
%ADD36R,0.470000X0.530000*%
G04 #@! TD*
G04 #@! TA.AperFunction,SMDPad,CuDef*
%ADD37RoundRect,0.250000X0.250000X0.475000X-0.250000X0.475000X-0.250000X-0.475000X0.250000X-0.475000X0*%
G04 #@! TD*
G04 #@! TA.AperFunction,SMDPad,CuDef*
%ADD38R,0.650000X1.050000*%
G04 #@! TD*
G04 #@! TA.AperFunction,ComponentPad*
%ADD39RoundRect,0.249999X-0.850001X0.850001X-0.850001X-0.850001X0.850001X-0.850001X0.850001X0.850001X0*%
G04 #@! TD*
G04 #@! TA.AperFunction,ComponentPad*
%ADD40C,2.200000*%
G04 #@! TD*
G04 #@! TA.AperFunction,SMDPad,CuDef*
%ADD41RoundRect,0.135000X-0.135000X-0.185000X0.135000X-0.185000X0.135000X0.185000X-0.135000X0.185000X0*%
G04 #@! TD*
G04 #@! TA.AperFunction,SMDPad,CuDef*
%ADD42RoundRect,0.150000X-0.825000X-0.150000X0.825000X-0.150000X0.825000X0.150000X-0.825000X0.150000X0*%
G04 #@! TD*
G04 #@! TA.AperFunction,ConnectorPad*
%ADD43C,0.787400*%
G04 #@! TD*
G04 #@! TA.AperFunction,SMDPad,CuDef*
%ADD44R,0.700000X1.700000*%
G04 #@! TD*
G04 #@! TA.AperFunction,ViaPad*
%ADD45C,0.600000*%
G04 #@! TD*
G04 #@! TA.AperFunction,ViaPad*
%ADD46C,0.800000*%
G04 #@! TD*
G04 #@! TA.AperFunction,ViaPad*
%ADD47C,1.000000*%
G04 #@! TD*
G04 #@! TA.AperFunction,Conductor*
%ADD48C,0.150000*%
G04 #@! TD*
G04 #@! TA.AperFunction,Conductor*
%ADD49C,0.200000*%
G04 #@! TD*
G04 #@! TA.AperFunction,Conductor*
%ADD50C,0.300000*%
G04 #@! TD*
G04 #@! TA.AperFunction,Conductor*
%ADD51C,0.700000*%
G04 #@! TD*
G04 #@! TA.AperFunction,Conductor*
%ADD52C,0.800000*%
G04 #@! TD*
G04 #@! TA.AperFunction,Conductor*
%ADD53C,0.500000*%
G04 #@! TD*
G04 #@! TA.AperFunction,Conductor*
%ADD54C,0.400000*%
G04 #@! TD*
G04 #@! TA.AperFunction,Conductor*
%ADD55C,1.800000*%
G04 #@! TD*
G04 #@! TA.AperFunction,Conductor*
%ADD56C,2.000000*%
G04 #@! TD*
G04 APERTURE END LIST*
D10*
X95103500Y-96200000D03*
X95103500Y-96600000D03*
X95103500Y-97000000D03*
X95103500Y-97400000D03*
X95103500Y-97800000D03*
X95103500Y-98200000D03*
X95103500Y-98600000D03*
X95103500Y-99000000D03*
X95103500Y-99400000D03*
X95103500Y-99800000D03*
X95103500Y-100200000D03*
X95103500Y-100600000D03*
X95103500Y-101000000D03*
X95103500Y-101400000D03*
X95103500Y-101800000D03*
X95103500Y-102200000D03*
X95103500Y-102600000D03*
X95103500Y-103000000D03*
X95103500Y-103400000D03*
X95103500Y-103800000D03*
D11*
X96200000Y-104896500D03*
X96600000Y-104896500D03*
X97000000Y-104896500D03*
X97400000Y-104896500D03*
X97800000Y-104896500D03*
X98200000Y-104896500D03*
X98600000Y-104896500D03*
X99000000Y-104896500D03*
X99400000Y-104896500D03*
X99800000Y-104896500D03*
X100200000Y-104896500D03*
X100600000Y-104896500D03*
X101000000Y-104896500D03*
X101400000Y-104896500D03*
X101800000Y-104896500D03*
X102200000Y-104896500D03*
X102600000Y-104896500D03*
X103000000Y-104896500D03*
X103400000Y-104896500D03*
X103800000Y-104896500D03*
D10*
X104896500Y-103800000D03*
X104896500Y-103400000D03*
X104896500Y-103000000D03*
X104896500Y-102600000D03*
X104896500Y-102200000D03*
X104896500Y-101800000D03*
X104896500Y-101400000D03*
X104896500Y-101000000D03*
X104896500Y-100600000D03*
X104896500Y-100200000D03*
X104896500Y-99800000D03*
X104896500Y-99400000D03*
X104896500Y-99000000D03*
X104896500Y-98600000D03*
X104896500Y-98200000D03*
X104896500Y-97800000D03*
X104896500Y-97400000D03*
X104896500Y-97000000D03*
X104896500Y-96600000D03*
X104896500Y-96200000D03*
D11*
X103800000Y-95103500D03*
X103400000Y-95103500D03*
X103000000Y-95103500D03*
X102600000Y-95103500D03*
X102200000Y-95103500D03*
X101800000Y-95103500D03*
X101400000Y-95103500D03*
X101000000Y-95103500D03*
X100600000Y-95103500D03*
X100200000Y-95103500D03*
X99800000Y-95103500D03*
X99400000Y-95103500D03*
X99000000Y-95103500D03*
X98600000Y-95103500D03*
X98200000Y-95103500D03*
X97800000Y-95103500D03*
X97400000Y-95103500D03*
X97000000Y-95103500D03*
X96600000Y-95103500D03*
X96200000Y-95103500D03*
D12*
X98866667Y-98866667D03*
D13*
X98866667Y-98866667D03*
D12*
X98866667Y-100000000D03*
D13*
X98866667Y-100000000D03*
D12*
X98866667Y-101133333D03*
D13*
X98866667Y-101133333D03*
D12*
X100000000Y-98866667D03*
D13*
X100000000Y-98866667D03*
D12*
X100000000Y-100000000D03*
D13*
X100000000Y-100000000D03*
D12*
X100000000Y-101133333D03*
D13*
X100000000Y-101133333D03*
D12*
X101133333Y-98866667D03*
D13*
X101133333Y-98866667D03*
D12*
X101133333Y-100000000D03*
D13*
X101133333Y-100000000D03*
D12*
X101133333Y-101133333D03*
D13*
X101133333Y-101133333D03*
D14*
X110300000Y-79200000D03*
X108000000Y-79200000D03*
D15*
X108000000Y-85500000D03*
D14*
X105700000Y-79200000D03*
D16*
X101300000Y-74600000D03*
X100650000Y-74600000D03*
X100000000Y-74600000D03*
X99350000Y-74600000D03*
X98700000Y-74600000D03*
D17*
X102950000Y-73400000D03*
D18*
X102850000Y-74700000D03*
D19*
X102730000Y-72650000D03*
D20*
X102730000Y-71720000D03*
D21*
X102420000Y-74720000D03*
D22*
X100960000Y-71450000D03*
X99040000Y-71450000D03*
D21*
X97580000Y-74720000D03*
D20*
X97270000Y-71720000D03*
D19*
X97250000Y-72650000D03*
D18*
X97100000Y-74720000D03*
D17*
X97000000Y-73400000D03*
D23*
X108075000Y-89000000D03*
X109975000Y-89000000D03*
D24*
X92480000Y-102200000D03*
X91520000Y-102200000D03*
X96665000Y-82830000D03*
X95705000Y-82830000D03*
D25*
X92400000Y-81790000D03*
X92400000Y-82810000D03*
D26*
X89400000Y-85295000D03*
X89400000Y-86565000D03*
X89400000Y-87835000D03*
X89400000Y-89105000D03*
X96600000Y-89105000D03*
X96600000Y-87835000D03*
X96600000Y-86565000D03*
X96600000Y-85295000D03*
D27*
X101115000Y-110420000D03*
X102075000Y-110420000D03*
D28*
X99000000Y-91680000D03*
X99000000Y-90720000D03*
D27*
X107525000Y-100500000D03*
X108485000Y-100500000D03*
X107020000Y-104500000D03*
X107980000Y-104500000D03*
D25*
X100000000Y-90690000D03*
X100000000Y-91710000D03*
D23*
X106987500Y-76200000D03*
X108887500Y-76200000D03*
D24*
X92480000Y-97100000D03*
X91520000Y-97100000D03*
X99105000Y-110420000D03*
X98145000Y-110420000D03*
D25*
X101000000Y-90690000D03*
X101000000Y-91710000D03*
D27*
X107020000Y-95700000D03*
X107980000Y-95700000D03*
D25*
X100200000Y-107795000D03*
X100200000Y-108815000D03*
D29*
X98900000Y-114850000D03*
X101100000Y-114850000D03*
X101100000Y-113150000D03*
X98900000Y-113150000D03*
D23*
X84165000Y-78000000D03*
X86065000Y-78000000D03*
D30*
X122000000Y-97500000D03*
D31*
X119460000Y-97500000D03*
X116920000Y-97500000D03*
D32*
X75385000Y-111850000D03*
D33*
X75385000Y-109310000D03*
X75385000Y-106770000D03*
X75385000Y-104230000D03*
X75385000Y-101690000D03*
X75385000Y-99150000D03*
D25*
X105200000Y-91140000D03*
X105200000Y-92160000D03*
X108100000Y-113190000D03*
X108100000Y-114210000D03*
D32*
X111500000Y-72000000D03*
D33*
X108960000Y-72000000D03*
D34*
X115452500Y-73176951D03*
X117952500Y-73176951D03*
D35*
X105200000Y-93020000D03*
X105200000Y-93980000D03*
D36*
X102485000Y-93000000D03*
X103515000Y-93000000D03*
D37*
X116950000Y-93000000D03*
X115050000Y-93000000D03*
D24*
X94680000Y-91900000D03*
X93720000Y-91900000D03*
D23*
X119550000Y-94500000D03*
X121450000Y-94500000D03*
D38*
X92275000Y-73125000D03*
X92275000Y-77275000D03*
X90125000Y-73125000D03*
X90125000Y-77250000D03*
D39*
X123500000Y-77500000D03*
D40*
X123500000Y-80040000D03*
D41*
X89490000Y-108000000D03*
X90510000Y-108000000D03*
D25*
X90900000Y-81790000D03*
X90900000Y-82810000D03*
D36*
X102485000Y-93950000D03*
X103515000Y-93950000D03*
D41*
X88090000Y-82800000D03*
X89110000Y-82800000D03*
D24*
X113980000Y-85500000D03*
X113020000Y-85500000D03*
D41*
X88090000Y-81400000D03*
X89110000Y-81400000D03*
D35*
X101400000Y-107820000D03*
X101400000Y-108780000D03*
D24*
X111980000Y-75500000D03*
X111020000Y-75500000D03*
D25*
X114000000Y-88490000D03*
X114000000Y-89510000D03*
D42*
X113275000Y-77819451D03*
X113275000Y-79089451D03*
X113275000Y-80359451D03*
X113275000Y-81629451D03*
X118225000Y-81629451D03*
X118225000Y-80359451D03*
X118225000Y-79089451D03*
X118225000Y-77819451D03*
D43*
X78865000Y-99730000D03*
X80135000Y-99730000D03*
X78865000Y-101000000D03*
X80135000Y-101000000D03*
X78865000Y-102270000D03*
X80135000Y-102270000D03*
D32*
X87000000Y-109000000D03*
D33*
X87000000Y-106460000D03*
D32*
X82500000Y-109000000D03*
D33*
X82500000Y-106460000D03*
D39*
X123000000Y-84500000D03*
D40*
X123000000Y-87040000D03*
D44*
X102300000Y-91350000D03*
X103700000Y-91350000D03*
D24*
X92480000Y-99800000D03*
X91520000Y-99800000D03*
X95780000Y-106700000D03*
X94820000Y-106700000D03*
D38*
X109650000Y-115675000D03*
X109650000Y-111525000D03*
X111800000Y-115675000D03*
X111800000Y-111550000D03*
D32*
X78000000Y-95000000D03*
D33*
X75460000Y-95000000D03*
X78000000Y-92460000D03*
X75460000Y-92460000D03*
X78000000Y-89920000D03*
X75460000Y-89920000D03*
X78000000Y-87380000D03*
X75460000Y-87380000D03*
X78000000Y-84840000D03*
X75460000Y-84840000D03*
X78000000Y-82300000D03*
X75460000Y-82300000D03*
X78000000Y-79760000D03*
X75460000Y-79760000D03*
X78000000Y-77220000D03*
X75460000Y-77220000D03*
D27*
X107520000Y-99500000D03*
X108480000Y-99500000D03*
D41*
X89490000Y-110500000D03*
X90510000Y-110500000D03*
X81990000Y-103000000D03*
X83010000Y-103000000D03*
D35*
X98700000Y-107820000D03*
X98700000Y-108780000D03*
D45*
X108000000Y-77750000D03*
X92592130Y-96077754D03*
D46*
X97250000Y-96750000D03*
X103250000Y-96500000D03*
X103250000Y-103500000D03*
X98250000Y-103750000D03*
D45*
X96136125Y-102866714D03*
X91656239Y-103407208D03*
X93199731Y-103054214D03*
X78000000Y-99500000D03*
X81000000Y-102000000D03*
X85426495Y-100917714D03*
X92250000Y-100974691D03*
X85000000Y-90000000D03*
X86500000Y-90000000D03*
X85500000Y-91000000D03*
X83795744Y-102536975D03*
X84412441Y-102967499D03*
X85098953Y-102536975D03*
X93846662Y-102214804D03*
X93402908Y-101600498D03*
X85704015Y-103000000D03*
X80500000Y-90000000D03*
X80828208Y-82301548D03*
X102700000Y-114800000D03*
X97300000Y-113200000D03*
X97900000Y-108800000D03*
X124000000Y-99000000D03*
X124000000Y-91000000D03*
D46*
X124000000Y-82500000D03*
X121500000Y-82500000D03*
X122688628Y-82500000D03*
D45*
X77953156Y-102346151D03*
X123000000Y-89500000D03*
D47*
X113500000Y-93000000D03*
D45*
X108100000Y-115000000D03*
D46*
X80500000Y-97500000D03*
D45*
X94900000Y-82800000D03*
X94100000Y-107275500D03*
X109950000Y-77450000D03*
X99000000Y-90000000D03*
X121500000Y-91000000D03*
X102200000Y-108820000D03*
X104100000Y-93650000D03*
X86140000Y-79250000D03*
X124000000Y-96500000D03*
X89400000Y-90000000D03*
X124000000Y-94000000D03*
X90780000Y-99800000D03*
X111100000Y-89000000D03*
X102800000Y-110420000D03*
X108715000Y-104500000D03*
X109220000Y-100500000D03*
X104100000Y-93050000D03*
X98700000Y-76000000D03*
X108800000Y-95200000D03*
X109220000Y-99500000D03*
X91500000Y-96025000D03*
X97400000Y-110420000D03*
X116500000Y-88500000D03*
X90800000Y-102200000D03*
X93000000Y-91900000D03*
X104800000Y-94700000D03*
X92275000Y-75075000D03*
D46*
X119500000Y-93000000D03*
X118500000Y-99000000D03*
X120500000Y-99000000D03*
X120500000Y-92500000D03*
X104000000Y-78000000D03*
X104016196Y-80432998D03*
X118500000Y-94500000D03*
D45*
X103000000Y-76274997D03*
X102000000Y-77000000D03*
D46*
X104005029Y-79171127D03*
X118500000Y-96000000D03*
X120500000Y-96000000D03*
D45*
X102725003Y-77000000D03*
D46*
X116500000Y-84000000D03*
D45*
X105501407Y-76167205D03*
X95400000Y-73300000D03*
X90000000Y-82100000D03*
D46*
X88500000Y-101000000D03*
X109285963Y-87463160D03*
X78500000Y-110500000D03*
X106000000Y-87500000D03*
X106000000Y-89500000D03*
D45*
X104600000Y-73300000D03*
D46*
X82284057Y-93256598D03*
X105996398Y-88500411D03*
D45*
X101700000Y-97800000D03*
X106800000Y-99800000D03*
X101700000Y-93400000D03*
X100800000Y-102300000D03*
X97800000Y-99800000D03*
X100800000Y-107220000D03*
X93200000Y-99800000D03*
X102300000Y-99800000D03*
X101700000Y-92800000D03*
X90816879Y-95286468D03*
X90848641Y-94212929D03*
X85000000Y-83100000D03*
X90900000Y-81000000D03*
X105258265Y-108741734D03*
D46*
X80500000Y-96000000D03*
X80750000Y-94750000D03*
D45*
X104500000Y-109500000D03*
X95300000Y-86200000D03*
X95300000Y-87500000D03*
X95300000Y-88800000D03*
X90700000Y-88200000D03*
X90700000Y-86900000D03*
X106000000Y-99000000D03*
X105975000Y-100825000D03*
X114000000Y-84500000D03*
D46*
X117500000Y-85000000D03*
D48*
X88000000Y-87600000D02*
X89035000Y-86565000D01*
X89035000Y-86565000D02*
X89400000Y-86565000D01*
X88000000Y-89750000D02*
X88000000Y-87600000D01*
X95264715Y-90864715D02*
X89114715Y-90864715D01*
X89114715Y-90864715D02*
X88000000Y-89750000D01*
X98600000Y-94200000D02*
X95264715Y-90864715D01*
X98600000Y-95103500D02*
X98600000Y-94200000D01*
X99000000Y-94100000D02*
X99000000Y-95103500D01*
X95400000Y-90500000D02*
X99000000Y-94100000D01*
X95325678Y-90500000D02*
X95400000Y-90500000D01*
X92899000Y-90399000D02*
X95224678Y-90399000D01*
X90700000Y-88200000D02*
X92899000Y-90399000D01*
X95224678Y-90399000D02*
X95325678Y-90500000D01*
X92592130Y-96987870D02*
X92480000Y-97100000D01*
X92592130Y-96077754D02*
X92592130Y-96987870D01*
X104846500Y-103750000D02*
X104896500Y-103800000D01*
X104506501Y-100200000D02*
X104896500Y-100200000D01*
X103250000Y-103500000D02*
X103500000Y-103750000D01*
X103750000Y-100956501D02*
X104506501Y-100200000D01*
X103250000Y-103500000D02*
X103750000Y-103000000D01*
X103500000Y-103750000D02*
X104846500Y-103750000D01*
X103750000Y-103000000D02*
X103750000Y-100956501D01*
X98250000Y-103750000D02*
X98000000Y-103750000D01*
X98000000Y-103750000D02*
X97400000Y-104350000D01*
X99400000Y-104506501D02*
X99400000Y-104896500D01*
X98643499Y-103750000D02*
X99400000Y-104506501D01*
X98250000Y-103750000D02*
X98643499Y-103750000D01*
X97400000Y-104350000D02*
X97400000Y-104896500D01*
X95948644Y-101800000D02*
X95103500Y-101800000D01*
X96136125Y-102866714D02*
X96273948Y-102728891D01*
X96273948Y-102125304D02*
X95948644Y-101800000D01*
X96273948Y-102728891D02*
X96273948Y-102125304D01*
X97800000Y-96200000D02*
X97800000Y-95103500D01*
X97250000Y-96750000D02*
X97800000Y-96200000D01*
X101996500Y-96500000D02*
X100600000Y-95103500D01*
X103250000Y-96500000D02*
X101996500Y-96500000D01*
X101000000Y-95493499D02*
X101000000Y-95103500D01*
X102006501Y-96500000D02*
X101000000Y-95493499D01*
X103250000Y-96500000D02*
X102006501Y-96500000D01*
X102600000Y-95850000D02*
X102600000Y-95103500D01*
X103250000Y-96500000D02*
X102600000Y-95850000D01*
X103550000Y-96200000D02*
X104896500Y-96200000D01*
X103250000Y-96500000D02*
X103550000Y-96200000D01*
X103600000Y-96600000D02*
X104896500Y-96600000D01*
X103500000Y-96500000D02*
X103600000Y-96600000D01*
X103250000Y-96500000D02*
X103500000Y-96500000D01*
D49*
X105200000Y-90300000D02*
X106000000Y-89500000D01*
X105200000Y-91140000D02*
X105200000Y-90300000D01*
D48*
X96600000Y-82895000D02*
X96665000Y-82830000D01*
X96600000Y-85295000D02*
X96600000Y-82895000D01*
X94713501Y-101800000D02*
X95103500Y-101800000D01*
X94487500Y-101573999D02*
X94713501Y-101800000D01*
X94487500Y-101487500D02*
X94487500Y-101573999D01*
X95625000Y-81790000D02*
X96665000Y-82830000D01*
X92400000Y-81790000D02*
X95625000Y-81790000D01*
X90186000Y-82286000D02*
X90000000Y-82100000D01*
X92400000Y-81790000D02*
X91904000Y-82286000D01*
X91904000Y-82286000D02*
X90186000Y-82286000D01*
X88975726Y-82100000D02*
X90000000Y-82100000D01*
X88614000Y-81738274D02*
X88975726Y-82100000D01*
X88614000Y-79143906D02*
X88614000Y-81738274D01*
X86519094Y-77049000D02*
X88614000Y-79143906D01*
X85116000Y-77049000D02*
X86519094Y-77049000D01*
X84165000Y-78000000D02*
X85116000Y-77049000D01*
X94419225Y-103000000D02*
X95103500Y-103000000D01*
X94320225Y-102901000D02*
X94419225Y-103000000D01*
X93815126Y-102740804D02*
X93975322Y-102901000D01*
X93000000Y-102500000D02*
X93387981Y-102500000D01*
X93975322Y-102901000D02*
X94320225Y-102901000D01*
X92986000Y-102514000D02*
X93000000Y-102500000D01*
X92986000Y-102525482D02*
X92986000Y-102514000D01*
X92775482Y-102736000D02*
X92986000Y-102525482D01*
X92764000Y-102736000D02*
X92775482Y-102736000D01*
X92750602Y-102749398D02*
X92764000Y-102736000D01*
X93628785Y-102740804D02*
X93815126Y-102740804D01*
X90605521Y-102749398D02*
X92750602Y-102749398D01*
X90274000Y-102417877D02*
X90605521Y-102749398D01*
X90274000Y-100463555D02*
X90274000Y-102417877D01*
X93387981Y-102500000D02*
X93628785Y-102740804D01*
X88699000Y-98888555D02*
X90274000Y-100463555D01*
X88699000Y-96624678D02*
X88699000Y-98888555D01*
X84074322Y-92000000D02*
X88699000Y-96624678D01*
X84000000Y-92000000D02*
X84074322Y-92000000D01*
X83824322Y-81175678D02*
X83824322Y-91824322D01*
X79664000Y-80836000D02*
X81500000Y-79000000D01*
X81500000Y-79000000D02*
X81648644Y-79000000D01*
X83824322Y-91824322D02*
X84000000Y-92000000D01*
X76924000Y-80836000D02*
X79664000Y-80836000D01*
X81648644Y-79000000D02*
X83824322Y-81175678D01*
X75460000Y-82300000D02*
X76924000Y-80836000D01*
X92049031Y-103800000D02*
X95103500Y-103800000D01*
X91656239Y-103407208D02*
X92049031Y-103800000D01*
X95086733Y-103416767D02*
X95103500Y-103400000D01*
X93562284Y-103416767D02*
X95086733Y-103416767D01*
X93199731Y-103054214D02*
X93562284Y-103416767D01*
X94100000Y-102600000D02*
X95103500Y-102600000D01*
X93846662Y-102214804D02*
X93846662Y-102346662D01*
X93846662Y-102346662D02*
X94100000Y-102600000D01*
X94574322Y-102200000D02*
X95103500Y-102200000D01*
X93623996Y-101500000D02*
X93874322Y-101500000D01*
X93874322Y-101500000D02*
X94574322Y-102200000D01*
X93402908Y-101600498D02*
X93523498Y-101600498D01*
X93523498Y-101600498D02*
X93623996Y-101500000D01*
X92776000Y-101051000D02*
X94051000Y-101051000D01*
X92480000Y-101488568D02*
X92776000Y-101192568D01*
X94051000Y-101051000D02*
X94487500Y-101487500D01*
X92776000Y-101192568D02*
X92776000Y-101051000D01*
X92480000Y-102200000D02*
X92480000Y-101488568D01*
X94153955Y-100600000D02*
X95103500Y-100600000D01*
X92474691Y-100750000D02*
X94003955Y-100750000D01*
X94003955Y-100750000D02*
X94153955Y-100600000D01*
X92250000Y-100974691D02*
X92474691Y-100750000D01*
X95053500Y-103750000D02*
X95103500Y-103800000D01*
X81427000Y-95427000D02*
X81427000Y-99708000D01*
X80750000Y-94750000D02*
X81427000Y-95427000D01*
X81427000Y-99708000D02*
X80135000Y-101000000D01*
X87796000Y-97296000D02*
X80500000Y-90000000D01*
X87796000Y-101278322D02*
X87796000Y-97296000D01*
X86074322Y-103000000D02*
X87796000Y-101278322D01*
X85704015Y-103000000D02*
X86074322Y-103000000D01*
X95497389Y-103400000D02*
X95103500Y-103400000D01*
X95974322Y-101400000D02*
X95103500Y-101400000D01*
X97000000Y-102425678D02*
X95974322Y-101400000D01*
X97000000Y-102574322D02*
X97000000Y-102425678D01*
X96691750Y-102882572D02*
X97000000Y-102574322D01*
X96691750Y-103363458D02*
X96691750Y-102882572D01*
X96388101Y-103667107D02*
X96691750Y-103363458D01*
X96025311Y-103667107D02*
X96388101Y-103667107D01*
X95556418Y-104136000D02*
X96025311Y-103667107D01*
X91566445Y-104136000D02*
X95556418Y-104136000D01*
X89973000Y-102542555D02*
X91566445Y-104136000D01*
X89973000Y-101000000D02*
X89973000Y-102542555D01*
X88398000Y-96749356D02*
X88398000Y-99425000D01*
X88398000Y-99425000D02*
X89973000Y-101000000D01*
X88323678Y-96749356D02*
X88398000Y-96749356D01*
X78500000Y-86000000D02*
X83523322Y-91023322D01*
X76620000Y-86000000D02*
X78500000Y-86000000D01*
X75460000Y-84840000D02*
X76620000Y-86000000D01*
X83523322Y-91023322D02*
X83523322Y-91949000D01*
X83523322Y-91949000D02*
X88323678Y-96749356D01*
X76536000Y-98036000D02*
X76536000Y-93536000D01*
X78000000Y-99500000D02*
X76536000Y-98036000D01*
X76536000Y-93536000D02*
X75460000Y-92460000D01*
X82082286Y-100917714D02*
X81000000Y-102000000D01*
X85426495Y-100917714D02*
X82082286Y-100917714D01*
X95519177Y-99400000D02*
X95103500Y-99400000D01*
X96020500Y-98898677D02*
X95519177Y-99400000D01*
X95618096Y-95500000D02*
X96020500Y-95902404D01*
X95000000Y-95500000D02*
X95618096Y-95500000D01*
X92699000Y-93199000D02*
X95000000Y-95500000D01*
X96020500Y-95902404D02*
X96020500Y-98898677D01*
X90375322Y-93199000D02*
X92699000Y-93199000D01*
X89375322Y-94199000D02*
X90375322Y-93199000D01*
X88624678Y-94199000D02*
X89375322Y-94199000D01*
X86212839Y-90212839D02*
X86212839Y-91787161D01*
X86212839Y-91787161D02*
X88624678Y-94199000D01*
X86500000Y-90000000D02*
X86425678Y-90000000D01*
X86425678Y-90000000D02*
X86212839Y-90212839D01*
X94714582Y-100200000D02*
X95103500Y-100200000D01*
X94640582Y-100126000D02*
X94714582Y-100200000D01*
X94117877Y-100126000D02*
X94640582Y-100126000D01*
X93829295Y-100414582D02*
X94117877Y-100126000D01*
X93500000Y-100414582D02*
X93829295Y-100414582D01*
X93487500Y-100427082D02*
X93500000Y-100414582D01*
X90663205Y-100427082D02*
X93487500Y-100427082D01*
X89000000Y-98763877D02*
X90663205Y-100427082D01*
X89000000Y-96500000D02*
X89000000Y-98763877D01*
X84173000Y-91673000D02*
X89000000Y-96500000D01*
X81574322Y-78500000D02*
X84173000Y-81098678D01*
X84173000Y-81098678D02*
X84173000Y-91673000D01*
X75460000Y-79760000D02*
X76720000Y-78500000D01*
X76720000Y-78500000D02*
X81574322Y-78500000D01*
X96000000Y-101000000D02*
X95103500Y-101000000D01*
X97301000Y-102301000D02*
X96000000Y-101000000D01*
X97301000Y-102699000D02*
X97301000Y-102301000D01*
X97000000Y-103502319D02*
X97000000Y-103000000D01*
X96879585Y-103620415D02*
X96881904Y-103620415D01*
X96500000Y-104000000D02*
X96879585Y-103620415D01*
X96118096Y-104000000D02*
X96500000Y-104000000D01*
X97000000Y-103000000D02*
X97301000Y-102699000D01*
X95674514Y-104443582D02*
X96118096Y-104000000D01*
X91448349Y-104443582D02*
X95674514Y-104443582D01*
X88097000Y-99597000D02*
X89672000Y-101172000D01*
X89672000Y-101172000D02*
X89672000Y-102667233D01*
X88097000Y-97000000D02*
X88097000Y-99597000D01*
X83222322Y-91222322D02*
X83222322Y-92125322D01*
X89672000Y-102667233D02*
X91448349Y-104443582D01*
X83222322Y-92125322D02*
X88097000Y-97000000D01*
X78092839Y-87287161D02*
X79287161Y-87287161D01*
X78000000Y-87380000D02*
X78092839Y-87287161D01*
X79287161Y-87287161D02*
X83222322Y-91222322D01*
X96881904Y-103620415D02*
X97000000Y-103502319D01*
X95493499Y-99000000D02*
X95103500Y-99000000D01*
X95719500Y-98773999D02*
X95493499Y-99000000D01*
X95719500Y-96027082D02*
X95719500Y-98773999D01*
X95556418Y-95864000D02*
X95719500Y-96027082D01*
X94864000Y-95864000D02*
X95556418Y-95864000D01*
X92500000Y-93500000D02*
X94864000Y-95864000D01*
X90500000Y-93500000D02*
X92500000Y-93500000D01*
X89500000Y-94500000D02*
X90500000Y-93500000D01*
X88500000Y-94500000D02*
X89500000Y-94500000D01*
X85500000Y-91500000D02*
X88500000Y-94500000D01*
X85500000Y-91000000D02*
X85500000Y-91500000D01*
X91700000Y-98200000D02*
X95103500Y-98200000D01*
X85000000Y-90000000D02*
X84775000Y-90225000D01*
X84775000Y-90225000D02*
X84775000Y-91275000D01*
X84775000Y-91275000D02*
X91700000Y-98200000D01*
X91520000Y-96045000D02*
X91520000Y-97100000D01*
X91500000Y-96025000D02*
X91520000Y-96045000D01*
X84633719Y-101699000D02*
X83795744Y-102536975D01*
X86893000Y-100904288D02*
X86098288Y-101699000D01*
X86500000Y-97500000D02*
X86648644Y-97500000D01*
X85000000Y-96000000D02*
X86500000Y-97500000D01*
X83000000Y-96000000D02*
X85000000Y-96000000D01*
X81199000Y-94199000D02*
X83000000Y-96000000D01*
X81199000Y-92199000D02*
X81199000Y-94199000D01*
X81000000Y-92000000D02*
X81199000Y-92199000D01*
X80500000Y-92000000D02*
X81000000Y-92000000D01*
X79000000Y-90500000D02*
X80500000Y-92000000D01*
X86893000Y-97744356D02*
X86893000Y-100904288D01*
X78504000Y-90996000D02*
X79000000Y-90500000D01*
X76536000Y-90996000D02*
X78504000Y-90996000D01*
X86648644Y-97500000D02*
X86893000Y-97744356D01*
X75460000Y-89920000D02*
X76536000Y-90996000D01*
X86098288Y-101699000D02*
X84633719Y-101699000D01*
X84572953Y-102427047D02*
X84412441Y-102587559D01*
X84572953Y-102319098D02*
X84572953Y-102427047D01*
X84881076Y-102010975D02*
X84572953Y-102319098D01*
X86010975Y-102010975D02*
X84881076Y-102010975D01*
X86021950Y-102000000D02*
X86010975Y-102010975D01*
X86222966Y-102000000D02*
X86021950Y-102000000D01*
X87194000Y-101028966D02*
X86222966Y-102000000D01*
X87194000Y-97619678D02*
X87194000Y-101028966D01*
X85074322Y-95500000D02*
X87194000Y-97619678D01*
X81500000Y-92000000D02*
X81500000Y-94000000D01*
X80830445Y-91500000D02*
X81000000Y-91500000D01*
X79250445Y-89920000D02*
X80830445Y-91500000D01*
X81500000Y-94000000D02*
X83000000Y-95500000D01*
X84412441Y-102587559D02*
X84412441Y-102967499D01*
X83000000Y-95500000D02*
X85074322Y-95500000D01*
X81000000Y-91500000D02*
X81500000Y-92000000D01*
X78000000Y-89920000D02*
X79250445Y-89920000D01*
X85161928Y-102474000D02*
X85098953Y-102536975D01*
X85974000Y-102474000D02*
X85161928Y-102474000D01*
X86000000Y-102500000D02*
X85974000Y-102474000D01*
X86148644Y-102500000D02*
X86000000Y-102500000D01*
X87495000Y-101153644D02*
X86148644Y-102500000D01*
X87495000Y-97495000D02*
X87495000Y-101153644D01*
X81000000Y-91000000D02*
X87495000Y-97495000D01*
X80756123Y-91000000D02*
X81000000Y-91000000D01*
X78600123Y-88844000D02*
X80756123Y-91000000D01*
X76924000Y-88844000D02*
X78600123Y-88844000D01*
X75460000Y-87380000D02*
X76924000Y-88844000D01*
X80826660Y-82300000D02*
X80828208Y-82301548D01*
X78000000Y-82300000D02*
X80826660Y-82300000D01*
X97400000Y-94425678D02*
X97400000Y-95103500D01*
X95474322Y-92500000D02*
X97400000Y-94425678D01*
X92399000Y-92500000D02*
X95474322Y-92500000D01*
X91500000Y-91601000D02*
X92399000Y-92500000D01*
X88575322Y-91601000D02*
X91500000Y-91601000D01*
X87099000Y-90124678D02*
X88575322Y-91601000D01*
X87099000Y-84099000D02*
X87099000Y-90124678D01*
X86100000Y-83100000D02*
X87099000Y-84099000D01*
X85000000Y-83100000D02*
X86100000Y-83100000D01*
X84474000Y-91532877D02*
X91541123Y-98600000D01*
X84474000Y-80974000D02*
X84474000Y-91532877D01*
X91541123Y-98600000D02*
X95103500Y-98600000D01*
X79000000Y-75500000D02*
X84474000Y-80974000D01*
X77180000Y-75500000D02*
X79000000Y-75500000D01*
X75460000Y-77220000D02*
X77180000Y-75500000D01*
X94244500Y-107275500D02*
X94820000Y-106700000D01*
X107980000Y-104500000D02*
X108715000Y-104500000D01*
X113020000Y-85500000D02*
X113020000Y-87080000D01*
D49*
X109950000Y-77450000D02*
X110300000Y-77800000D01*
D48*
X102800000Y-110420000D02*
X102080000Y-110420000D01*
X78029307Y-102270000D02*
X77953156Y-102346151D01*
D50*
X112129451Y-81629451D02*
X110550000Y-80050000D01*
X110550000Y-80050000D02*
X110550000Y-79924451D01*
D48*
X90510000Y-110500000D02*
X90875500Y-110500000D01*
D49*
X94900000Y-82800000D02*
X95375000Y-82800000D01*
D51*
X121450000Y-96450000D02*
X121450000Y-94500000D01*
D48*
X90780000Y-99800000D02*
X91520000Y-99800000D01*
D52*
X113500000Y-93000000D02*
X115050000Y-93000000D01*
D48*
X108480000Y-99500000D02*
X109220000Y-99500000D01*
D49*
X108887500Y-76387500D02*
X109950000Y-77450000D01*
D50*
X113275000Y-79089451D02*
X110410549Y-79089451D01*
D49*
X97780000Y-74525000D02*
X97575000Y-74730000D01*
X110050000Y-89000000D02*
X111100000Y-89000000D01*
X98140000Y-110420000D02*
X97400000Y-110420000D01*
X108887500Y-76200000D02*
X108887500Y-76387500D01*
X100960000Y-71450000D02*
X102460000Y-71450000D01*
D48*
X78865000Y-102270000D02*
X78029307Y-102270000D01*
X108100000Y-114180000D02*
X108100000Y-115000000D01*
X122000000Y-97500000D02*
X122000000Y-96500000D01*
X90800000Y-102200000D02*
X91520000Y-102200000D01*
X122000000Y-96500000D02*
X121950000Y-96450000D01*
D53*
X108960000Y-72000000D02*
X108960000Y-76127500D01*
D50*
X109587500Y-75500000D02*
X108887500Y-76200000D01*
D48*
X108485000Y-100500000D02*
X109220000Y-100500000D01*
D49*
X95375000Y-82800000D02*
X95405000Y-82830000D01*
D50*
X111020000Y-75500000D02*
X109587500Y-75500000D01*
D48*
X102160000Y-108780000D02*
X102200000Y-108820000D01*
X92275000Y-75075000D02*
X92275000Y-73125000D01*
X122000000Y-97500000D02*
X122000000Y-97000000D01*
D49*
X99000000Y-90720000D02*
X99000000Y-90000000D01*
D48*
X90875500Y-110500000D02*
X94100000Y-107275500D01*
D49*
X98700000Y-74600000D02*
X98700000Y-76000000D01*
D54*
X105200000Y-93980000D02*
X105200000Y-94300000D01*
D49*
X110300000Y-77800000D02*
X110300000Y-79300000D01*
D48*
X92275000Y-77275000D02*
X92275000Y-73125000D01*
X108300000Y-95700000D02*
X108800000Y-95200000D01*
D50*
X112255000Y-81629451D02*
X112129451Y-81629451D01*
D49*
X97540000Y-71450000D02*
X97270000Y-71720000D01*
D48*
X97900000Y-108800000D02*
X98680000Y-108800000D01*
X94100000Y-107275500D02*
X94244500Y-107275500D01*
D49*
X102460000Y-71450000D02*
X102730000Y-71720000D01*
D48*
X98680000Y-108800000D02*
X98700000Y-108780000D01*
X101400000Y-108780000D02*
X102160000Y-108780000D01*
X113020000Y-87080000D02*
X111100000Y-89000000D01*
X122000000Y-97000000D02*
X121450000Y-96450000D01*
X90510000Y-108000000D02*
X93375500Y-108000000D01*
D49*
X89400000Y-90000000D02*
X89400000Y-89105000D01*
D48*
X107975000Y-95700000D02*
X108300000Y-95700000D01*
X93720000Y-91900000D02*
X93000000Y-91900000D01*
D49*
X98700000Y-74525000D02*
X97780000Y-74525000D01*
D48*
X93375500Y-108000000D02*
X94100000Y-107275500D01*
D53*
X108960000Y-76127500D02*
X108887500Y-76200000D01*
D49*
X95405000Y-82830000D02*
X95700000Y-82830000D01*
D54*
X105200000Y-94300000D02*
X104800000Y-94700000D01*
D50*
X110410549Y-79089451D02*
X110300000Y-79200000D01*
D49*
X99040000Y-71450000D02*
X97540000Y-71450000D01*
D48*
X86140000Y-78000000D02*
X86140000Y-79250000D01*
D54*
X101300000Y-75500000D02*
X102100000Y-76300000D01*
D50*
X122040000Y-81500000D02*
X123000000Y-80540000D01*
X119500000Y-80818851D02*
X119500000Y-81409425D01*
D51*
X119460000Y-97500000D02*
X119460000Y-95090000D01*
D48*
X118225000Y-80359451D02*
X119040600Y-80359451D01*
D54*
X101300000Y-74525000D02*
X101300000Y-75500000D01*
D50*
X119590575Y-81500000D02*
X122040000Y-81500000D01*
X119500000Y-81409425D02*
X119590575Y-81500000D01*
X119040600Y-80359451D02*
X119500000Y-80818851D01*
D48*
X119460000Y-95090000D02*
X120050000Y-94500000D01*
X99000000Y-110310000D02*
X100000000Y-111310000D01*
X100000000Y-113925000D02*
X99075000Y-114850000D01*
X99800000Y-107300000D02*
X99600000Y-107500000D01*
X99600000Y-107500000D02*
X99600000Y-109925000D01*
X99800000Y-104896500D02*
X99800000Y-107300000D01*
X99600000Y-109925000D02*
X99105000Y-110420000D01*
X100000000Y-111310000D02*
X100000000Y-113925000D01*
X99075000Y-114850000D02*
X98900000Y-114850000D01*
X100200000Y-104896500D02*
X100200000Y-107825000D01*
X77000000Y-101595000D02*
X77000000Y-105000000D01*
X85954000Y-103546000D02*
X88500000Y-101000000D01*
X97400000Y-104896500D02*
X97400000Y-105800000D01*
X79500000Y-110500000D02*
X81000000Y-109000000D01*
X95300000Y-91900000D02*
X94680000Y-91900000D01*
X99000000Y-91680000D02*
X99000000Y-92100000D01*
X104610000Y-100200000D02*
X106300000Y-100200000D01*
X106000000Y-104500000D02*
X107020000Y-104500000D01*
X106300000Y-100200000D02*
X106600000Y-100500000D01*
X81990000Y-104010000D02*
X81990000Y-103000000D01*
X78865000Y-99730000D02*
X77000000Y-101595000D01*
X78500000Y-110500000D02*
X79500000Y-110500000D01*
X99000000Y-92100000D02*
X100500000Y-93600000D01*
X93300000Y-97100000D02*
X92480000Y-97100000D01*
X77500000Y-105500000D02*
X80500000Y-105500000D01*
X94000000Y-97800000D02*
X93300000Y-97100000D01*
X81000000Y-109000000D02*
X82500000Y-109000000D01*
X100500000Y-93600000D02*
X100500000Y-94100000D01*
X100500000Y-94100000D02*
X100600000Y-94200000D01*
X97400000Y-105800000D02*
X96500000Y-106700000D01*
X101000000Y-95103500D02*
X101000000Y-94600000D01*
X78500000Y-110460000D02*
X82500000Y-106460000D01*
X95103500Y-97800000D02*
X94000000Y-97800000D01*
X81990000Y-103000000D02*
X82536000Y-103546000D01*
X101000000Y-94600000D02*
X100500000Y-94100000D01*
X106600000Y-100500000D02*
X107525000Y-100500000D01*
X104896500Y-103800000D02*
X105300000Y-103800000D01*
X99400000Y-107120000D02*
X98700000Y-107820000D01*
X97800000Y-94400000D02*
X95300000Y-91900000D01*
X78500000Y-110500000D02*
X78500000Y-110460000D01*
X105700000Y-96600000D02*
X104896500Y-96600000D01*
X100600000Y-94200000D02*
X100600000Y-95103500D01*
X107015000Y-95700000D02*
X106600000Y-95700000D01*
X99400000Y-104610000D02*
X99400000Y-107120000D01*
X80500000Y-105500000D02*
X81990000Y-104010000D01*
X105300000Y-103800000D02*
X106000000Y-104500000D01*
X96500000Y-106700000D02*
X95980000Y-106700000D01*
X97800000Y-95103500D02*
X97800000Y-94400000D01*
X82536000Y-103546000D02*
X85954000Y-103546000D01*
X106600000Y-95700000D02*
X105700000Y-96600000D01*
X77000000Y-105000000D02*
X77500000Y-105500000D01*
X102200000Y-95103500D02*
X102175000Y-95078500D01*
X101900000Y-94200736D02*
X101900000Y-93000000D01*
X102175000Y-94500000D02*
X102075000Y-94400000D01*
X102075000Y-94375736D02*
X101900000Y-94200736D01*
X100600000Y-107020000D02*
X100800000Y-107220000D01*
X101900000Y-93000000D02*
X101700000Y-92800000D01*
D49*
X107220000Y-99800000D02*
X107520000Y-99500000D01*
X106800000Y-99800000D02*
X107220000Y-99800000D01*
D48*
X92480000Y-99800000D02*
X93200000Y-99800000D01*
X100600000Y-104896500D02*
X100600000Y-107020000D01*
X101400000Y-107820000D02*
X100800000Y-107220000D01*
X104896500Y-99800000D02*
X106800000Y-99800000D01*
X102075000Y-94400000D02*
X102075000Y-94375736D01*
D49*
X93200000Y-99800000D02*
X95103500Y-99800000D01*
D48*
X102175000Y-95078500D02*
X102175000Y-94500000D01*
X89110000Y-81400000D02*
X90125000Y-80385000D01*
X90125000Y-77250000D02*
X90125000Y-73125000D01*
X90125000Y-80385000D02*
X90125000Y-77250000D01*
X94100000Y-96600000D02*
X93000000Y-95500000D01*
X91030411Y-95500000D02*
X90816879Y-95286468D01*
X95103500Y-96600000D02*
X94100000Y-96600000D01*
X93000000Y-95500000D02*
X91030411Y-95500000D01*
X93000000Y-94500000D02*
X91135712Y-94500000D01*
X95103500Y-96200000D02*
X94700000Y-96200000D01*
X91135712Y-94500000D02*
X90848641Y-94212929D01*
X94700000Y-96200000D02*
X93000000Y-94500000D01*
X90900000Y-81820000D02*
X90900000Y-81000000D01*
X87000000Y-106460000D02*
X88540000Y-108000000D01*
X88540000Y-108000000D02*
X89490000Y-108000000D01*
X87000000Y-106460000D02*
X87850000Y-105610000D01*
X96390000Y-105610000D02*
X96600000Y-105400000D01*
X96600000Y-105400000D02*
X96600000Y-104896500D01*
X87850000Y-105610000D02*
X96390000Y-105610000D01*
X85924000Y-106014306D02*
X87041806Y-104896500D01*
X87041806Y-104896500D02*
X96200000Y-104896500D01*
X88500000Y-110500000D02*
X89490000Y-110500000D01*
X87000000Y-109000000D02*
X85924000Y-107924000D01*
X87000000Y-109000000D02*
X88500000Y-110500000D01*
X85924000Y-107924000D02*
X85924000Y-106014306D01*
X101800000Y-106000000D02*
X104000000Y-108200000D01*
X111800000Y-111000000D02*
X111800000Y-111550000D01*
X111800000Y-115675000D02*
X111800000Y-111550000D01*
X101800000Y-104896500D02*
X101800000Y-106000000D01*
X109000000Y-108200000D02*
X111800000Y-111000000D01*
X104000000Y-108200000D02*
X109000000Y-108200000D01*
X101400000Y-106025678D02*
X101400000Y-104896500D01*
X105017531Y-108501000D02*
X103875322Y-108501000D01*
X105258265Y-108741734D02*
X105017531Y-108501000D01*
X80135000Y-99730000D02*
X81126000Y-98739000D01*
X81126000Y-96626000D02*
X80500000Y-96000000D01*
X103875322Y-108501000D02*
X101400000Y-106025678D01*
X81126000Y-98739000D02*
X81126000Y-96626000D01*
X101000000Y-104896500D02*
X101000000Y-106051356D01*
X104448644Y-109500000D02*
X104500000Y-109500000D01*
X101000000Y-106051356D02*
X104448644Y-109500000D01*
X88090000Y-82830000D02*
X88090000Y-81400000D01*
X98200000Y-95103500D02*
X98200000Y-94300000D01*
X88700000Y-91300000D02*
X87400000Y-90000000D01*
X95200000Y-91300000D02*
X88700000Y-91300000D01*
X87400000Y-83520000D02*
X88090000Y-82830000D01*
X98200000Y-94300000D02*
X95200000Y-91300000D01*
X87400000Y-90000000D02*
X87400000Y-83520000D01*
X98400000Y-92000000D02*
X98400000Y-87700000D01*
X100200000Y-95103500D02*
X100200000Y-93800000D01*
X95300000Y-86200000D02*
X95665000Y-86565000D01*
X100200000Y-93800000D02*
X98400000Y-92000000D01*
X97265000Y-86565000D02*
X96600000Y-86565000D01*
X95665000Y-86565000D02*
X96600000Y-86565000D01*
X98400000Y-87700000D02*
X97265000Y-86565000D01*
X99800000Y-95103500D02*
X99800000Y-93900000D01*
X95635000Y-87835000D02*
X96600000Y-87835000D01*
X99800000Y-93900000D02*
X97800000Y-91900000D01*
X97800000Y-91900000D02*
X97800000Y-88500000D01*
X97135000Y-87835000D02*
X96600000Y-87835000D01*
X97800000Y-88500000D02*
X97135000Y-87835000D01*
X95300000Y-87500000D02*
X95635000Y-87835000D01*
X99400000Y-95103500D02*
X99400000Y-94000000D01*
X99400000Y-94000000D02*
X96600000Y-91200000D01*
X96600000Y-89105000D02*
X95605000Y-89105000D01*
X95605000Y-89105000D02*
X95300000Y-88800000D01*
X96600000Y-91200000D02*
X96600000Y-89105000D01*
X90700000Y-88200000D02*
X90335000Y-87835000D01*
X90335000Y-87835000D02*
X89400000Y-87835000D01*
X90700000Y-86900000D02*
X90365000Y-86565000D01*
X90365000Y-86565000D02*
X89400000Y-86565000D01*
D54*
X100000000Y-75800000D02*
X99725000Y-76075000D01*
X100000000Y-74525000D02*
X100000000Y-75800000D01*
D52*
X100000000Y-89700000D02*
X100000000Y-90690000D01*
X99725000Y-89425000D02*
X100000000Y-89700000D01*
X99725000Y-76400000D02*
X99725000Y-89425000D01*
D54*
X99725000Y-76075000D02*
X99725000Y-76400000D01*
X100650000Y-76375000D02*
X100675000Y-76400000D01*
D52*
X100675000Y-76400000D02*
X100675000Y-88975000D01*
D54*
X100650000Y-74525000D02*
X100650000Y-76375000D01*
D52*
X101000000Y-89300000D02*
X101000000Y-90690000D01*
X100675000Y-88975000D02*
X101000000Y-89300000D01*
D48*
X100200000Y-109505000D02*
X101115000Y-110420000D01*
X100912500Y-110420000D02*
X100400000Y-110932500D01*
X100200000Y-108785000D02*
X100200000Y-109505000D01*
X100400000Y-110932500D02*
X100400000Y-112450000D01*
X101110000Y-110420000D02*
X100912500Y-110420000D01*
X100400000Y-112450000D02*
X101100000Y-113150000D01*
X105600000Y-99400000D02*
X106000000Y-99000000D01*
X104896500Y-99400000D02*
X105600000Y-99400000D01*
X104896500Y-100600000D02*
X105750000Y-100600000D01*
X105750000Y-100600000D02*
X105975000Y-100825000D01*
X108263877Y-102200000D02*
X104896500Y-102200000D01*
X114000000Y-89510000D02*
X112500000Y-91010000D01*
X112500000Y-91010000D02*
X112500000Y-97963877D01*
X112500000Y-97963877D02*
X108263877Y-102200000D01*
X109705000Y-113220000D02*
X109725000Y-113200000D01*
X109725000Y-111525000D02*
X109725000Y-113200000D01*
X108100000Y-113220000D02*
X109705000Y-113220000D01*
X109725000Y-113200000D02*
X109725000Y-115675000D01*
X100800000Y-93950000D02*
X100800000Y-93100000D01*
X100000000Y-92300000D02*
X100000000Y-91710000D01*
X100800000Y-93100000D02*
X100000000Y-92300000D01*
X101400000Y-95103500D02*
X101400000Y-94550000D01*
X101400000Y-94550000D02*
X100800000Y-93950000D01*
X90900000Y-82780000D02*
X90880000Y-82800000D01*
X92400000Y-82780000D02*
X90900000Y-82780000D01*
X89400000Y-83120000D02*
X89400000Y-85295000D01*
X90880000Y-82800000D02*
X89080000Y-82800000D01*
X89080000Y-82800000D02*
X89400000Y-83120000D01*
D49*
X105200000Y-92160000D02*
X105200000Y-93020000D01*
X103800000Y-95103500D02*
X103800000Y-95000000D01*
D48*
X104640000Y-94110000D02*
X104640000Y-93580000D01*
X103800000Y-94950000D02*
X104640000Y-94110000D01*
X104640000Y-93580000D02*
X105200000Y-93020000D01*
X101000000Y-91710000D02*
X101000000Y-92700000D01*
X101175000Y-93900000D02*
X101775000Y-94500000D01*
X101775000Y-95078500D02*
X101800000Y-95103500D01*
X101175000Y-92875000D02*
X101175000Y-93900000D01*
X101000000Y-92700000D02*
X101175000Y-92875000D01*
X101775000Y-94500000D02*
X101775000Y-95078500D01*
D55*
X123000000Y-87040000D02*
X117040000Y-93000000D01*
D48*
X116950000Y-97470000D02*
X116920000Y-97500000D01*
X117040000Y-93000000D02*
X116950000Y-93000000D01*
D56*
X116950000Y-93000000D02*
X116950000Y-97470000D01*
D48*
X114000000Y-88490000D02*
X114000000Y-85520000D01*
X114000000Y-85520000D02*
X113980000Y-85500000D01*
X113980000Y-85500000D02*
X113980000Y-84520000D01*
X113980000Y-84520000D02*
X114000000Y-84500000D01*
D50*
X117500000Y-83909000D02*
X113950451Y-80359451D01*
X117500000Y-85000000D02*
X117500000Y-83909000D01*
D53*
X115750000Y-80724451D02*
X116655000Y-81629451D01*
X115750000Y-78250000D02*
X115750000Y-80724451D01*
X118000000Y-76000000D02*
X118000000Y-73224451D01*
D50*
X111980000Y-75500000D02*
X113000000Y-75500000D01*
X113000000Y-75500000D02*
X115750000Y-78250000D01*
D53*
X115750000Y-78250000D02*
X118000000Y-76000000D01*
X116655000Y-81629451D02*
X118225000Y-81629451D01*
X114775549Y-72500000D02*
X112000000Y-72500000D01*
X115452500Y-73176951D02*
X114775549Y-72500000D01*
X112000000Y-72500000D02*
X111500000Y-72000000D01*
D48*
X81494000Y-102661726D02*
X81701726Y-102454000D01*
X81701726Y-102454000D02*
X82464000Y-102454000D01*
X77301000Y-101719678D02*
X77301000Y-104875322D01*
X77624678Y-105199000D02*
X80375322Y-105199000D01*
X78865000Y-101000000D02*
X78020678Y-101000000D01*
X77301000Y-104875322D02*
X77624678Y-105199000D01*
X81494000Y-103690322D02*
X81494000Y-102661726D01*
X82464000Y-102454000D02*
X83010000Y-103000000D01*
X80375322Y-105199000D02*
X81689000Y-103885322D01*
X81689000Y-103885322D02*
X81494000Y-103690322D01*
X78020678Y-101000000D02*
X77301000Y-101719678D01*
G04 #@! TA.AperFunction,Conductor*
G36*
X104121674Y-92771674D02*
G01*
X104378326Y-93028326D01*
X104400000Y-93080652D01*
X104400000Y-93769348D01*
X104378326Y-93821674D01*
X103500000Y-94700000D01*
X103500000Y-95126000D01*
X103478326Y-95178326D01*
X103426000Y-95200000D01*
X103374000Y-95200000D01*
X103321674Y-95178326D01*
X103300000Y-95126000D01*
X103300000Y-94554285D01*
X103301422Y-94539848D01*
X103305500Y-94519347D01*
X103305500Y-94313779D01*
X103305499Y-94313777D01*
X103301182Y-94289908D01*
X103300000Y-94276736D01*
X103300000Y-93774000D01*
X103321674Y-93721674D01*
X103374000Y-93700000D01*
X103450000Y-93700000D01*
X103450000Y-93250000D01*
X103374000Y-93250000D01*
X103321674Y-93228326D01*
X103300000Y-93176000D01*
X103300000Y-92824000D01*
X103321674Y-92771674D01*
X103374000Y-92750000D01*
X104069348Y-92750000D01*
X104121674Y-92771674D01*
G37*
G04 #@! TD.AperFunction*
G04 #@! TA.AperFunction,Conductor*
G36*
X102678326Y-93721674D02*
G01*
X102700000Y-93774000D01*
X102700000Y-95126000D01*
X102678326Y-95178326D01*
X102626000Y-95200000D01*
X102574000Y-95200000D01*
X102521674Y-95178326D01*
X102500000Y-95126000D01*
X102500000Y-94450000D01*
X102271674Y-94221674D01*
X102250000Y-94169348D01*
X102250000Y-93774000D01*
X102271674Y-93721674D01*
X102324000Y-93700000D01*
X102626000Y-93700000D01*
X102678326Y-93721674D01*
G37*
G04 #@! TD.AperFunction*
G04 #@! TA.AperFunction,Conductor*
G36*
X124930712Y-80303608D02*
G01*
X124982187Y-80350852D01*
X125000000Y-80414885D01*
X125000000Y-99376000D01*
X124980315Y-99443039D01*
X124927511Y-99488794D01*
X124876000Y-99500000D01*
X121119497Y-99500000D01*
X121052458Y-99480315D01*
X121006703Y-99427511D01*
X120996759Y-99358353D01*
X121012110Y-99314000D01*
X121059577Y-99231784D01*
X121094913Y-99099904D01*
X121131278Y-99040246D01*
X121194125Y-99009717D01*
X121214688Y-99008000D01*
X121746000Y-99008000D01*
X121746000Y-97988438D01*
X121787708Y-98012518D01*
X121927591Y-98050000D01*
X122072409Y-98050000D01*
X122212292Y-98012518D01*
X122254000Y-97988438D01*
X122254000Y-99008000D01*
X123001080Y-99008000D01*
X123001081Y-99007999D01*
X123061597Y-99001493D01*
X123198461Y-98950446D01*
X123198461Y-98950445D01*
X123315403Y-98862903D01*
X123402945Y-98745961D01*
X123402946Y-98745961D01*
X123453993Y-98609097D01*
X123460499Y-98548581D01*
X123460500Y-98548580D01*
X123460500Y-97754000D01*
X122488438Y-97754000D01*
X122512518Y-97712292D01*
X122550000Y-97572409D01*
X122550000Y-97427591D01*
X122512518Y-97287708D01*
X122488438Y-97246000D01*
X123460500Y-97246000D01*
X123460500Y-96451420D01*
X123460499Y-96451418D01*
X123453993Y-96390902D01*
X123402946Y-96254038D01*
X123315403Y-96137096D01*
X123198461Y-96049554D01*
X123198461Y-96049553D01*
X123061597Y-95998506D01*
X123001081Y-95992000D01*
X122254000Y-95992000D01*
X122254000Y-97011561D01*
X122212292Y-96987482D01*
X122072409Y-96950000D01*
X121927591Y-96950000D01*
X121787708Y-96987482D01*
X121746000Y-97011561D01*
X121746000Y-95992000D01*
X121214688Y-95992000D01*
X121187971Y-95984155D01*
X121160512Y-95979539D01*
X121154910Y-95974447D01*
X121147649Y-95972315D01*
X121129417Y-95951274D01*
X121108810Y-95932543D01*
X121104533Y-95922556D01*
X121101894Y-95919511D01*
X121094915Y-95900099D01*
X121091967Y-95889099D01*
X121093626Y-95819249D01*
X121132786Y-95761385D01*
X121193705Y-95735294D01*
X121196000Y-95733000D01*
X121704000Y-95733000D01*
X121750503Y-95733000D01*
X121750515Y-95732999D01*
X121854325Y-95722393D01*
X122022522Y-95666658D01*
X122022527Y-95666656D01*
X122173340Y-95573633D01*
X122298633Y-95448340D01*
X122391656Y-95297527D01*
X122391658Y-95297522D01*
X122447393Y-95129325D01*
X122457999Y-95025515D01*
X122458000Y-95025502D01*
X122458000Y-94754000D01*
X121704000Y-94754000D01*
X121704000Y-95733000D01*
X121196000Y-95733000D01*
X121196000Y-94246000D01*
X121704000Y-94246000D01*
X122458000Y-94246000D01*
X122458000Y-93974497D01*
X122457999Y-93974484D01*
X122447393Y-93870674D01*
X122391658Y-93702477D01*
X122391656Y-93702472D01*
X122298633Y-93551659D01*
X122173340Y-93426366D01*
X122022527Y-93333343D01*
X122022522Y-93333341D01*
X121854325Y-93277606D01*
X121750515Y-93267000D01*
X121704000Y-93267000D01*
X121704000Y-94246000D01*
X121196000Y-94246000D01*
X121196000Y-93267000D01*
X121149484Y-93267000D01*
X121045674Y-93277606D01*
X120877477Y-93333341D01*
X120877472Y-93333343D01*
X120726659Y-93426366D01*
X120711681Y-93441345D01*
X120692244Y-93451957D01*
X120675511Y-93466458D01*
X120662179Y-93468374D01*
X120650358Y-93474830D01*
X120628271Y-93473250D01*
X120606353Y-93476402D01*
X120594101Y-93470806D01*
X120580666Y-93469846D01*
X120562939Y-93456575D01*
X120542797Y-93447377D01*
X120535514Y-93436045D01*
X120524733Y-93427974D01*
X120516995Y-93407228D01*
X120505023Y-93388599D01*
X120501871Y-93366680D01*
X120500316Y-93362510D01*
X120500000Y-93353664D01*
X120500000Y-93216831D01*
X120519685Y-93149792D01*
X120572489Y-93104037D01*
X120591897Y-93097059D01*
X120731784Y-93059577D01*
X120868716Y-92980520D01*
X120980520Y-92868716D01*
X121059577Y-92731784D01*
X121100500Y-92579057D01*
X121100500Y-92420943D01*
X121059577Y-92268216D01*
X121059573Y-92268209D01*
X120980524Y-92131290D01*
X120980518Y-92131282D01*
X120868717Y-92019481D01*
X120868709Y-92019475D01*
X120731790Y-91940426D01*
X120731785Y-91940423D01*
X120591906Y-91902943D01*
X120532246Y-91866578D01*
X120501717Y-91803731D01*
X120500000Y-91783168D01*
X120500000Y-91147703D01*
X120519685Y-91080664D01*
X120536319Y-91060022D01*
X123258791Y-88337549D01*
X123308150Y-88307301D01*
X123499219Y-88245220D01*
X123681610Y-88152287D01*
X123774590Y-88084732D01*
X123847213Y-88031971D01*
X123847215Y-88031968D01*
X123847219Y-88031966D01*
X123991966Y-87887219D01*
X123991968Y-87887215D01*
X123991971Y-87887213D01*
X124044732Y-87814590D01*
X124112287Y-87721610D01*
X124205220Y-87539219D01*
X124268477Y-87344534D01*
X124300500Y-87142352D01*
X124300500Y-86937648D01*
X124268477Y-86735465D01*
X124205218Y-86540776D01*
X124142767Y-86418211D01*
X124112287Y-86358390D01*
X124092098Y-86330602D01*
X124038215Y-86256437D01*
X124014735Y-86190631D01*
X124030561Y-86122577D01*
X124080667Y-86073882D01*
X124099530Y-86065846D01*
X124172521Y-86041659D01*
X124172534Y-86041653D01*
X124323335Y-85948637D01*
X124323339Y-85948634D01*
X124448634Y-85823339D01*
X124448637Y-85823335D01*
X124541653Y-85672534D01*
X124541658Y-85672523D01*
X124597393Y-85504326D01*
X124607999Y-85400516D01*
X124608000Y-85400503D01*
X124608000Y-84754000D01*
X123488438Y-84754000D01*
X123512518Y-84712292D01*
X123550000Y-84572409D01*
X123550000Y-84427591D01*
X123512518Y-84287708D01*
X123488438Y-84246000D01*
X124607999Y-84246000D01*
X124607999Y-83599498D01*
X124607998Y-83599481D01*
X124597394Y-83495675D01*
X124597393Y-83495672D01*
X124541658Y-83327476D01*
X124541653Y-83327465D01*
X124448637Y-83176664D01*
X124448634Y-83176660D01*
X124323339Y-83051365D01*
X124323335Y-83051362D01*
X124172534Y-82958346D01*
X124172523Y-82958341D01*
X124004326Y-82902606D01*
X123900516Y-82892000D01*
X123254000Y-82892000D01*
X123254000Y-84011561D01*
X123212292Y-83987482D01*
X123072409Y-83950000D01*
X122927591Y-83950000D01*
X122787708Y-83987482D01*
X122746000Y-84011561D01*
X122746000Y-82892000D01*
X122099498Y-82892000D01*
X122099480Y-82892001D01*
X121995675Y-82902605D01*
X121995672Y-82902606D01*
X121827476Y-82958341D01*
X121827465Y-82958346D01*
X121676664Y-83051362D01*
X121676660Y-83051365D01*
X121551365Y-83176660D01*
X121551362Y-83176664D01*
X121458346Y-83327465D01*
X121458341Y-83327476D01*
X121402606Y-83495673D01*
X121392000Y-83599483D01*
X121392000Y-84045200D01*
X121372315Y-84112239D01*
X121319511Y-84157994D01*
X121250353Y-84167938D01*
X121186797Y-84138913D01*
X121164898Y-84114091D01*
X121081789Y-83989711D01*
X121081786Y-83989707D01*
X120970292Y-83878213D01*
X120970288Y-83878210D01*
X120839185Y-83790609D01*
X120839172Y-83790602D01*
X120693501Y-83730264D01*
X120693491Y-83730261D01*
X120599808Y-83711626D01*
X120537897Y-83679241D01*
X120503323Y-83618525D01*
X120500000Y-83590009D01*
X120500000Y-81974500D01*
X120519685Y-81907461D01*
X120572489Y-81861706D01*
X120624000Y-81850500D01*
X122086142Y-81850500D01*
X122086144Y-81850500D01*
X122175288Y-81826614D01*
X122255212Y-81780470D01*
X122797750Y-81237930D01*
X122859071Y-81204447D01*
X122928762Y-81209431D01*
X122941715Y-81215124D01*
X123000781Y-81245220D01*
X123157124Y-81296018D01*
X123195465Y-81308477D01*
X123296557Y-81324488D01*
X123397648Y-81340500D01*
X123397649Y-81340500D01*
X123602351Y-81340500D01*
X123602352Y-81340500D01*
X123804534Y-81308477D01*
X123999219Y-81245220D01*
X124181610Y-81152287D01*
X124285219Y-81077011D01*
X124347213Y-81031971D01*
X124347215Y-81031968D01*
X124347219Y-81031966D01*
X124491966Y-80887219D01*
X124491968Y-80887215D01*
X124491971Y-80887213D01*
X124548259Y-80809738D01*
X124612287Y-80721610D01*
X124705220Y-80539219D01*
X124758069Y-80376567D01*
X124797507Y-80318891D01*
X124861865Y-80291693D01*
X124930712Y-80303608D01*
G37*
G04 #@! TD.AperFunction*
G04 #@! TA.AperFunction,Conductor*
G36*
X104028326Y-90521674D02*
G01*
X104050000Y-90574000D01*
X104050000Y-92169348D01*
X104028326Y-92221674D01*
X103771674Y-92478326D01*
X103719348Y-92500000D01*
X103300000Y-92500000D01*
X103260899Y-92539100D01*
X103182697Y-92617301D01*
X103177541Y-92622456D01*
X103171496Y-92626496D01*
X103167456Y-92632541D01*
X103162300Y-92637698D01*
X103162300Y-92637699D01*
X103149999Y-92650000D01*
X103144367Y-92663599D01*
X103141993Y-92662615D01*
X103140018Y-92669128D01*
X103141022Y-92669544D01*
X103138233Y-92676276D01*
X103129500Y-92720180D01*
X103129500Y-93279819D01*
X103138233Y-93323724D01*
X103141022Y-93330457D01*
X103140015Y-93330873D01*
X103150000Y-93363780D01*
X103150000Y-93586219D01*
X103140018Y-93619128D01*
X103141022Y-93619544D01*
X103138233Y-93626276D01*
X103129500Y-93670180D01*
X103129500Y-94229819D01*
X103138233Y-94273724D01*
X103141022Y-94280457D01*
X103139223Y-94281201D01*
X103140826Y-94289252D01*
X103150000Y-94313780D01*
X103150000Y-94519348D01*
X103128326Y-94571674D01*
X103100000Y-94600000D01*
X103100000Y-95126000D01*
X103078326Y-95178326D01*
X103026000Y-95200000D01*
X102974000Y-95200000D01*
X102921674Y-95178326D01*
X102900000Y-95126000D01*
X102900000Y-94600000D01*
X102877174Y-94577174D01*
X102855500Y-94524848D01*
X102855500Y-94303572D01*
X102856208Y-94300009D01*
X102855679Y-94298428D01*
X102857084Y-94295607D01*
X102861133Y-94275254D01*
X102861766Y-94273724D01*
X102861766Y-94273723D01*
X102861767Y-94273722D01*
X102870500Y-94229820D01*
X102870500Y-93670180D01*
X102861767Y-93626278D01*
X102861766Y-93626276D01*
X102858978Y-93619544D01*
X102859981Y-93619128D01*
X102850000Y-93586219D01*
X102850000Y-93363780D01*
X102859984Y-93330873D01*
X102858978Y-93330457D01*
X102861766Y-93323724D01*
X102861766Y-93323723D01*
X102861767Y-93323722D01*
X102870500Y-93279820D01*
X102870500Y-92720180D01*
X102861767Y-92676278D01*
X102861766Y-92676276D01*
X102858978Y-92669544D01*
X102859981Y-92669128D01*
X102850000Y-92636219D01*
X102850000Y-92430652D01*
X102871674Y-92378326D01*
X103350000Y-91900000D01*
X103350000Y-90574000D01*
X103371674Y-90521674D01*
X103424000Y-90500000D01*
X103976000Y-90500000D01*
X104028326Y-90521674D01*
G37*
G04 #@! TD.AperFunction*
G04 #@! TA.AperFunction,Conductor*
G36*
X102628326Y-90521674D02*
G01*
X102650000Y-90574000D01*
X102650000Y-93176000D01*
X102628326Y-93228326D01*
X102576000Y-93250000D01*
X102550000Y-93250000D01*
X102550000Y-93376000D01*
X102528326Y-93428326D01*
X102476000Y-93450000D01*
X102000000Y-93450000D01*
X101821674Y-93628326D01*
X101769348Y-93650000D01*
X101630652Y-93650000D01*
X101578326Y-93628326D01*
X101422174Y-93472174D01*
X101400500Y-93419848D01*
X101400500Y-92830152D01*
X101422174Y-92777826D01*
X101628326Y-92571674D01*
X101680652Y-92550000D01*
X101819348Y-92550000D01*
X101871674Y-92571674D01*
X102050000Y-92750000D01*
X102250000Y-92750000D01*
X102250000Y-92600000D01*
X101971674Y-92321674D01*
X101950000Y-92269348D01*
X101950000Y-90574000D01*
X101971674Y-90521674D01*
X102024000Y-90500000D01*
X102576000Y-90500000D01*
X102628326Y-90521674D01*
G37*
G04 #@! TD.AperFunction*
G04 #@! TA.AperFunction,Conductor*
G36*
X119714000Y-98985974D02*
G01*
X119802002Y-98972036D01*
X119802005Y-98972036D01*
X120020634Y-98900999D01*
X120225472Y-98796628D01*
X120411445Y-98661512D01*
X120411450Y-98661508D01*
X120574006Y-98498952D01*
X120622681Y-98431957D01*
X120678011Y-98389291D01*
X120747624Y-98383312D01*
X120809420Y-98415917D01*
X120843777Y-98476756D01*
X120847000Y-98504842D01*
X120847000Y-98519752D01*
X120858631Y-98578229D01*
X120858632Y-98578230D01*
X120858633Y-98578231D01*
X120902948Y-98644552D01*
X120944892Y-98672578D01*
X120949981Y-98678667D01*
X120957203Y-98681966D01*
X120972066Y-98705094D01*
X120989695Y-98726188D01*
X120991646Y-98735562D01*
X120994977Y-98740744D01*
X121000000Y-98775679D01*
X121000000Y-98837498D01*
X120980315Y-98904537D01*
X120964866Y-98923978D01*
X120955807Y-98933286D01*
X120919442Y-98992945D01*
X120919437Y-98992955D01*
X120896417Y-99046712D01*
X120896413Y-99046723D01*
X120872306Y-99136694D01*
X120859919Y-99166599D01*
X120834146Y-99211239D01*
X120834137Y-99211257D01*
X120817916Y-99246777D01*
X120817909Y-99246795D01*
X120802549Y-99291176D01*
X120800806Y-99296443D01*
X120800805Y-99296449D01*
X120793472Y-99386108D01*
X120768391Y-99451318D01*
X120712034Y-99492617D01*
X120669886Y-99500000D01*
X118124000Y-99500000D01*
X118056961Y-99480315D01*
X118011206Y-99427511D01*
X118000000Y-99376000D01*
X118000000Y-98404366D01*
X118019685Y-98337327D01*
X118072489Y-98291572D01*
X118141647Y-98281628D01*
X118205203Y-98310653D01*
X118224318Y-98331481D01*
X118345987Y-98498945D01*
X118345991Y-98498950D01*
X118508549Y-98661508D01*
X118508554Y-98661512D01*
X118694527Y-98796628D01*
X118899365Y-98900999D01*
X119117996Y-98972036D01*
X119206000Y-98985975D01*
X119206000Y-97988438D01*
X119247708Y-98012518D01*
X119387591Y-98050000D01*
X119532409Y-98050000D01*
X119672292Y-98012518D01*
X119714000Y-97988438D01*
X119714000Y-98985974D01*
G37*
G04 #@! TD.AperFunction*
G04 #@! TA.AperFunction,Conductor*
G36*
X120398741Y-92019685D02*
G01*
X120418185Y-92035137D01*
X120425289Y-92042050D01*
X120425289Y-92042051D01*
X120484942Y-92078411D01*
X120484949Y-92078415D01*
X120538719Y-92101441D01*
X120636696Y-92127692D01*
X120666599Y-92140078D01*
X120728399Y-92175758D01*
X120754080Y-92195464D01*
X120804535Y-92245919D01*
X120824238Y-92271597D01*
X120859918Y-92333397D01*
X120872305Y-92363299D01*
X120890775Y-92432230D01*
X120895000Y-92464324D01*
X120895000Y-92535674D01*
X120890775Y-92567768D01*
X120872305Y-92636697D01*
X120859917Y-92666603D01*
X120824238Y-92728401D01*
X120804532Y-92754082D01*
X120754082Y-92804532D01*
X120728401Y-92824238D01*
X120666602Y-92859918D01*
X120636696Y-92872305D01*
X120538710Y-92898561D01*
X120530595Y-92901101D01*
X120522350Y-92903683D01*
X120502965Y-92910653D01*
X120502960Y-92910656D01*
X120437914Y-92948731D01*
X120385114Y-92994482D01*
X120385110Y-92994486D01*
X120367160Y-93012073D01*
X120367154Y-93012080D01*
X120322511Y-93091890D01*
X120322509Y-93091895D01*
X120302826Y-93158927D01*
X120294500Y-93216834D01*
X120294500Y-93218894D01*
X120294305Y-93219557D01*
X120294184Y-93221250D01*
X120293815Y-93221223D01*
X120274815Y-93285933D01*
X120222011Y-93331688D01*
X120152853Y-93341632D01*
X120129673Y-93334729D01*
X120129380Y-93335614D01*
X119954325Y-93277606D01*
X119850515Y-93267000D01*
X119804000Y-93267000D01*
X119804000Y-95733000D01*
X119850503Y-95733000D01*
X119850515Y-95732999D01*
X119954325Y-95722393D01*
X120122522Y-95666658D01*
X120122527Y-95666656D01*
X120273340Y-95573633D01*
X120398633Y-95448340D01*
X120491656Y-95297527D01*
X120491658Y-95297522D01*
X120544423Y-95138288D01*
X120584195Y-95080843D01*
X120648711Y-95054020D01*
X120717487Y-95066335D01*
X120768613Y-95113753D01*
X120775033Y-95124512D01*
X120797207Y-95187882D01*
X120877850Y-95297150D01*
X120878200Y-95297408D01*
X120881984Y-95303749D01*
X120889255Y-95331946D01*
X120899241Y-95359284D01*
X120899500Y-95367288D01*
X120899500Y-95754242D01*
X120895702Y-95784696D01*
X120888183Y-95814370D01*
X120886525Y-95884220D01*
X120893471Y-95942294D01*
X120893472Y-95942296D01*
X120895273Y-95949015D01*
X120899500Y-95981117D01*
X120899500Y-96322992D01*
X120894108Y-96359160D01*
X120888769Y-96376667D01*
X120858633Y-96421769D01*
X120847000Y-96480252D01*
X120847000Y-96513642D01*
X120841608Y-96531325D01*
X120832159Y-96545696D01*
X120827315Y-96562196D01*
X120813365Y-96574282D01*
X120803225Y-96589708D01*
X120787507Y-96596689D01*
X120774511Y-96607951D01*
X120756240Y-96610578D01*
X120739372Y-96618071D01*
X120722377Y-96615447D01*
X120705353Y-96617895D01*
X120688560Y-96610226D01*
X120670320Y-96607410D01*
X120657441Y-96596014D01*
X120641797Y-96588870D01*
X120622682Y-96568042D01*
X120574012Y-96501054D01*
X120574008Y-96501049D01*
X120411450Y-96338491D01*
X120411445Y-96338487D01*
X120225472Y-96203371D01*
X120020634Y-96099000D01*
X119801997Y-96027962D01*
X119714000Y-96014024D01*
X119714000Y-97011561D01*
X119672292Y-96987482D01*
X119532409Y-96950000D01*
X119387591Y-96950000D01*
X119247708Y-96987482D01*
X119206000Y-97011561D01*
X119206000Y-96014024D01*
X119205999Y-96014024D01*
X119118002Y-96027962D01*
X118899365Y-96099000D01*
X118694527Y-96203371D01*
X118508554Y-96338487D01*
X118508549Y-96338491D01*
X118362181Y-96484860D01*
X118300858Y-96518345D01*
X118231166Y-96513361D01*
X118175233Y-96471489D01*
X118150816Y-96406025D01*
X118150500Y-96397179D01*
X118150500Y-95025515D01*
X118542000Y-95025515D01*
X118552606Y-95129325D01*
X118608341Y-95297522D01*
X118608343Y-95297527D01*
X118701366Y-95448340D01*
X118826659Y-95573633D01*
X118977472Y-95666656D01*
X118977477Y-95666658D01*
X119145674Y-95722393D01*
X119249484Y-95732999D01*
X119249497Y-95733000D01*
X119296000Y-95733000D01*
X119296000Y-94754000D01*
X118542000Y-94754000D01*
X118542000Y-95025515D01*
X118150500Y-95025515D01*
X118150500Y-93974484D01*
X118542000Y-93974484D01*
X118542000Y-94246000D01*
X119296000Y-94246000D01*
X119296000Y-93267000D01*
X119249484Y-93267000D01*
X119145674Y-93277606D01*
X118977477Y-93333341D01*
X118977472Y-93333343D01*
X118826659Y-93426366D01*
X118701366Y-93551659D01*
X118608343Y-93702472D01*
X118608341Y-93702477D01*
X118552606Y-93870674D01*
X118542000Y-93974484D01*
X118150500Y-93974484D01*
X118150500Y-93497204D01*
X118170185Y-93430165D01*
X118186819Y-93409523D01*
X119560023Y-92036319D01*
X119621346Y-92002834D01*
X119647704Y-92000000D01*
X120331702Y-92000000D01*
X120398741Y-92019685D01*
G37*
G04 #@! TD.AperFunction*
G04 #@! TA.AperFunction,Conductor*
G36*
X109340706Y-77269685D02*
G01*
X109361348Y-77286319D01*
X109413181Y-77338152D01*
X109446666Y-77399475D01*
X109449500Y-77425833D01*
X109449500Y-77515892D01*
X109476187Y-77615489D01*
X109483608Y-77643186D01*
X109486718Y-77650693D01*
X109485622Y-77651146D01*
X109500000Y-77704802D01*
X109500000Y-78141416D01*
X109493559Y-78163348D01*
X109491658Y-78186130D01*
X109481624Y-78203994D01*
X109480315Y-78208455D01*
X109474376Y-78216902D01*
X109474375Y-78216903D01*
X109418661Y-78289510D01*
X109362233Y-78330712D01*
X109292487Y-78334867D01*
X109231567Y-78300654D01*
X109207098Y-78262477D01*
X109206842Y-78262608D01*
X109205523Y-78260020D01*
X109204519Y-78258453D01*
X109203890Y-78256815D01*
X109119625Y-78091436D01*
X109002815Y-77947184D01*
X108858563Y-77830374D01*
X108693181Y-77746107D01*
X108513891Y-77698066D01*
X108436809Y-77692000D01*
X108254000Y-77692000D01*
X108254000Y-80708000D01*
X108436796Y-80708000D01*
X108436809Y-80707999D01*
X108513891Y-80701933D01*
X108693181Y-80653892D01*
X108858563Y-80569625D01*
X109002815Y-80452815D01*
X109119625Y-80308563D01*
X109203888Y-80143187D01*
X109204517Y-80141551D01*
X109205136Y-80140739D01*
X109206842Y-80137392D01*
X109207453Y-80137703D01*
X109209202Y-80135412D01*
X109210754Y-80127850D01*
X109230104Y-80108032D01*
X109246913Y-80086014D01*
X109254172Y-80083383D01*
X109259567Y-80077859D01*
X109286563Y-80071648D01*
X109312604Y-80062214D01*
X109320132Y-80063926D01*
X109327658Y-80062195D01*
X109353726Y-80071565D01*
X109380734Y-80077708D01*
X109387799Y-80083814D01*
X109393409Y-80085831D01*
X109418661Y-80110488D01*
X109422301Y-80115232D01*
X109422302Y-80115233D01*
X109474375Y-80183095D01*
X109499570Y-80248263D01*
X109500000Y-80258582D01*
X109500000Y-83500000D01*
X110876000Y-83500000D01*
X110943039Y-83519685D01*
X110988794Y-83572489D01*
X111000000Y-83624000D01*
X111000000Y-88413490D01*
X110980315Y-88480529D01*
X110932283Y-88523981D01*
X110920674Y-88529894D01*
X110906814Y-88533608D01*
X110857575Y-88562036D01*
X110854666Y-88563518D01*
X110823394Y-88569387D01*
X110792482Y-88576887D01*
X110789301Y-88575786D01*
X110785995Y-88576407D01*
X110756519Y-88564439D01*
X110726455Y-88554034D01*
X110724374Y-88551388D01*
X110721257Y-88550123D01*
X110702934Y-88524124D01*
X110683265Y-88499113D01*
X110682199Y-88494703D01*
X110681007Y-88493012D01*
X110680838Y-88489073D01*
X110674925Y-88464608D01*
X110672646Y-88440301D01*
X110672645Y-88440298D01*
X110672645Y-88440296D01*
X110627793Y-88312119D01*
X110627792Y-88312117D01*
X110547150Y-88202850D01*
X110437882Y-88122207D01*
X110437880Y-88122206D01*
X110309700Y-88077353D01*
X110279270Y-88074500D01*
X110279266Y-88074500D01*
X109670734Y-88074500D01*
X109670730Y-88074500D01*
X109640300Y-88077353D01*
X109640298Y-88077353D01*
X109512119Y-88122206D01*
X109512117Y-88122207D01*
X109402850Y-88202850D01*
X109322208Y-88312116D01*
X109304170Y-88363664D01*
X109263447Y-88420439D01*
X109198494Y-88446185D01*
X109129933Y-88432728D01*
X109079531Y-88384340D01*
X109069423Y-88361711D01*
X109016658Y-88202477D01*
X109016656Y-88202472D01*
X108923633Y-88051659D01*
X108798340Y-87926366D01*
X108647527Y-87833343D01*
X108647522Y-87833341D01*
X108479325Y-87777606D01*
X108375515Y-87767000D01*
X108329000Y-87767000D01*
X108329000Y-88876000D01*
X108309315Y-88943039D01*
X108256511Y-88988794D01*
X108205000Y-89000000D01*
X108075000Y-89000000D01*
X108075000Y-89130000D01*
X108055315Y-89197039D01*
X108002511Y-89242794D01*
X107951000Y-89254000D01*
X107067000Y-89254000D01*
X107067000Y-89525515D01*
X107077606Y-89629325D01*
X107133341Y-89797522D01*
X107133345Y-89797531D01*
X107141594Y-89810904D01*
X107160034Y-89878296D01*
X107139111Y-89944960D01*
X107085469Y-89989729D01*
X107036055Y-90000000D01*
X105124000Y-90000000D01*
X105056961Y-89980315D01*
X105011206Y-89927511D01*
X105000000Y-89876000D01*
X105000000Y-88474484D01*
X107067000Y-88474484D01*
X107067000Y-88746000D01*
X107821000Y-88746000D01*
X107821000Y-87767000D01*
X107774484Y-87767000D01*
X107670674Y-87777606D01*
X107502477Y-87833341D01*
X107502472Y-87833343D01*
X107351659Y-87926366D01*
X107226366Y-88051659D01*
X107133343Y-88202472D01*
X107133341Y-88202477D01*
X107077606Y-88370674D01*
X107067000Y-88474484D01*
X105000000Y-88474484D01*
X105000000Y-86049514D01*
X105592000Y-86049514D01*
X105606584Y-86197603D01*
X105606585Y-86197605D01*
X105664224Y-86387612D01*
X105757820Y-86562718D01*
X105757825Y-86562725D01*
X105883787Y-86716212D01*
X106037274Y-86842174D01*
X106037281Y-86842179D01*
X106212387Y-86935775D01*
X106402394Y-86993414D01*
X106402396Y-86993415D01*
X106550485Y-87008000D01*
X107746000Y-87008000D01*
X108254000Y-87008000D01*
X109449515Y-87008000D01*
X109597603Y-86993415D01*
X109597605Y-86993414D01*
X109787612Y-86935775D01*
X109962718Y-86842179D01*
X109962725Y-86842174D01*
X110116212Y-86716212D01*
X110242174Y-86562725D01*
X110242179Y-86562718D01*
X110335775Y-86387612D01*
X110393414Y-86197605D01*
X110393415Y-86197603D01*
X110408000Y-86049514D01*
X110408000Y-85754000D01*
X108254000Y-85754000D01*
X108254000Y-87008000D01*
X107746000Y-87008000D01*
X107746000Y-85754000D01*
X105592000Y-85754000D01*
X105592000Y-86049514D01*
X105000000Y-86049514D01*
X105000000Y-84950485D01*
X105592000Y-84950485D01*
X105592000Y-85246000D01*
X107746000Y-85246000D01*
X108254000Y-85246000D01*
X110408000Y-85246000D01*
X110408000Y-84950485D01*
X110393415Y-84802396D01*
X110393414Y-84802394D01*
X110335775Y-84612387D01*
X110242179Y-84437281D01*
X110242174Y-84437274D01*
X110116212Y-84283787D01*
X109962725Y-84157825D01*
X109962718Y-84157820D01*
X109787612Y-84064224D01*
X109597605Y-84006585D01*
X109597603Y-84006584D01*
X109449515Y-83992000D01*
X108254000Y-83992000D01*
X108254000Y-85246000D01*
X107746000Y-85246000D01*
X107746000Y-83992000D01*
X106550485Y-83992000D01*
X106402396Y-84006584D01*
X106402394Y-84006585D01*
X106212387Y-84064224D01*
X106037281Y-84157820D01*
X106037274Y-84157825D01*
X105883787Y-84283787D01*
X105757825Y-84437274D01*
X105757820Y-84437281D01*
X105664224Y-84612387D01*
X105606585Y-84802394D01*
X105606584Y-84802396D01*
X105592000Y-84950485D01*
X105000000Y-84950485D01*
X105000000Y-83624000D01*
X105019685Y-83556961D01*
X105072489Y-83511206D01*
X105124000Y-83500000D01*
X106500000Y-83500000D01*
X106500000Y-80258582D01*
X106506440Y-80236649D01*
X106508342Y-80213869D01*
X106518375Y-80196002D01*
X106519685Y-80191543D01*
X106525608Y-80183116D01*
X106577698Y-80115233D01*
X106577699Y-80115229D01*
X106581337Y-80110489D01*
X106637765Y-80069287D01*
X106707512Y-80065132D01*
X106768432Y-80099345D01*
X106792902Y-80137522D01*
X106793158Y-80137392D01*
X106794470Y-80139967D01*
X106795477Y-80141538D01*
X106796107Y-80143181D01*
X106880374Y-80308563D01*
X106997184Y-80452815D01*
X107141436Y-80569625D01*
X107306818Y-80653892D01*
X107486108Y-80701933D01*
X107563190Y-80707999D01*
X107563204Y-80708000D01*
X107746000Y-80708000D01*
X107746000Y-77692000D01*
X107563190Y-77692000D01*
X107486108Y-77698066D01*
X107306818Y-77746107D01*
X107141436Y-77830374D01*
X106997184Y-77947184D01*
X106880374Y-78091436D01*
X106796106Y-78256821D01*
X106795475Y-78258466D01*
X106794854Y-78259278D01*
X106793158Y-78262608D01*
X106792548Y-78262297D01*
X106790793Y-78264596D01*
X106789244Y-78272151D01*
X106769886Y-78291974D01*
X106753070Y-78313996D01*
X106745818Y-78316622D01*
X106740430Y-78322140D01*
X106713426Y-78328352D01*
X106687375Y-78337786D01*
X106679855Y-78336074D01*
X106672339Y-78337804D01*
X106646264Y-78328430D01*
X106619248Y-78322282D01*
X106612189Y-78316180D01*
X106606589Y-78314167D01*
X106581337Y-78289509D01*
X106525624Y-78216902D01*
X106500430Y-78151733D01*
X106500000Y-78141416D01*
X106500000Y-77374000D01*
X106519685Y-77306961D01*
X106572489Y-77261206D01*
X106624000Y-77250000D01*
X109273667Y-77250000D01*
X109340706Y-77269685D01*
G37*
G04 #@! TD.AperFunction*
G04 #@! TA.AperFunction,Conductor*
G36*
X102559191Y-97418907D02*
G01*
X102595155Y-97468407D01*
X102600000Y-97499000D01*
X102600000Y-102501000D01*
X102581093Y-102559191D01*
X102531593Y-102595155D01*
X102501000Y-102600000D01*
X97675500Y-102600000D01*
X97617309Y-102581093D01*
X97581345Y-102531593D01*
X97576500Y-102501000D01*
X97576500Y-102246200D01*
X97534557Y-102144942D01*
X97534553Y-102144938D01*
X97457058Y-102067442D01*
X97457058Y-102067443D01*
X97428996Y-102039381D01*
X97401219Y-101984864D01*
X97400000Y-101969377D01*
X97400000Y-98280253D01*
X98099500Y-98280253D01*
X98099500Y-101719746D01*
X98099501Y-101719758D01*
X98111132Y-101778227D01*
X98111133Y-101778231D01*
X98155448Y-101844552D01*
X98221769Y-101888867D01*
X98266231Y-101897711D01*
X98280241Y-101900498D01*
X98280246Y-101900498D01*
X98280252Y-101900500D01*
X98280253Y-101900500D01*
X101719747Y-101900500D01*
X101719748Y-101900500D01*
X101778231Y-101888867D01*
X101844552Y-101844552D01*
X101888867Y-101778231D01*
X101900500Y-101719748D01*
X101900500Y-100546918D01*
X101900500Y-99413585D01*
X101900500Y-98280252D01*
X101888867Y-98221769D01*
X101844552Y-98155448D01*
X101844548Y-98155445D01*
X101778233Y-98111134D01*
X101778231Y-98111133D01*
X101778228Y-98111132D01*
X101778227Y-98111132D01*
X101719758Y-98099501D01*
X101719748Y-98099500D01*
X100586415Y-98099500D01*
X99453082Y-98099500D01*
X98280252Y-98099500D01*
X98280251Y-98099500D01*
X98280241Y-98099501D01*
X98221772Y-98111132D01*
X98221766Y-98111134D01*
X98155451Y-98155445D01*
X98155445Y-98155451D01*
X98111134Y-98221766D01*
X98111132Y-98221772D01*
X98099501Y-98280241D01*
X98099500Y-98280253D01*
X97400000Y-98280253D01*
X97400000Y-97499000D01*
X97418907Y-97440809D01*
X97468407Y-97404845D01*
X97499000Y-97400000D01*
X102501000Y-97400000D01*
X102559191Y-97418907D01*
G37*
G04 #@! TD.AperFunction*
G04 #@! TA.AperFunction,Conductor*
G36*
X99283691Y-109418907D02*
G01*
X99319655Y-109468407D01*
X99324500Y-109499000D01*
X99324500Y-109769876D01*
X99322031Y-109777473D01*
X99323281Y-109785364D01*
X99312757Y-109806017D01*
X99305593Y-109828067D01*
X99295503Y-109839880D01*
X99254878Y-109880504D01*
X99200361Y-109908281D01*
X99184875Y-109909500D01*
X98925104Y-109909500D01*
X98925092Y-109909501D01*
X98875513Y-109916027D01*
X98875511Y-109916027D01*
X98766686Y-109966774D01*
X98766681Y-109966777D01*
X98765255Y-109968204D01*
X98763014Y-109969345D01*
X98759589Y-109971744D01*
X98759251Y-109971262D01*
X98710737Y-109995978D01*
X98650305Y-109986403D01*
X98615601Y-109956984D01*
X98599644Y-109935363D01*
X98599639Y-109935358D01*
X98492920Y-109856594D01*
X98367727Y-109812787D01*
X98338000Y-109810000D01*
X98295001Y-109810000D01*
X98295000Y-109810001D01*
X98295000Y-111029998D01*
X98295001Y-111029999D01*
X98338004Y-111029999D01*
X98367721Y-111027213D01*
X98367726Y-111027212D01*
X98492920Y-110983405D01*
X98599639Y-110904641D01*
X98599642Y-110904638D01*
X98615600Y-110883016D01*
X98665367Y-110847423D01*
X98726550Y-110847879D01*
X98759570Y-110868283D01*
X98759589Y-110868256D01*
X98760059Y-110868585D01*
X98765257Y-110871797D01*
X98766684Y-110873224D01*
X98875513Y-110923972D01*
X98925099Y-110930500D01*
X99189875Y-110930499D01*
X99248065Y-110949406D01*
X99259878Y-110959495D01*
X99695503Y-111395119D01*
X99723281Y-111449636D01*
X99724500Y-111465123D01*
X99724500Y-112151000D01*
X99705593Y-112209191D01*
X99656093Y-112245155D01*
X99625500Y-112250000D01*
X99050001Y-112250000D01*
X99050000Y-112250001D01*
X99050000Y-113051000D01*
X99031093Y-113109191D01*
X98981593Y-113145155D01*
X98951000Y-113150000D01*
X98900001Y-113150000D01*
X98900000Y-113150001D01*
X98900000Y-113201000D01*
X98881093Y-113259191D01*
X98831593Y-113295155D01*
X98801000Y-113300000D01*
X97900002Y-113300000D01*
X97900001Y-113300001D01*
X97900001Y-113794791D01*
X97902909Y-113819874D01*
X97948213Y-113922477D01*
X98028333Y-114002597D01*
X98056110Y-114057114D01*
X98046539Y-114117546D01*
X98040644Y-114127603D01*
X98011134Y-114171766D01*
X98011132Y-114171772D01*
X97999501Y-114230241D01*
X97999500Y-114230253D01*
X97999500Y-115469746D01*
X97999501Y-115469758D01*
X98011132Y-115528227D01*
X98011133Y-115528231D01*
X98055448Y-115594552D01*
X98121769Y-115638867D01*
X98166231Y-115647711D01*
X98180241Y-115650498D01*
X98180246Y-115650498D01*
X98180252Y-115650500D01*
X98180253Y-115650500D01*
X99619747Y-115650500D01*
X99619748Y-115650500D01*
X99678231Y-115638867D01*
X99744552Y-115594552D01*
X99788867Y-115528231D01*
X99800500Y-115469748D01*
X99800500Y-115000001D01*
X100100001Y-115000001D01*
X100100001Y-115494791D01*
X100102909Y-115519874D01*
X100148213Y-115622477D01*
X100227522Y-115701786D01*
X100330127Y-115747090D01*
X100355203Y-115749999D01*
X100949998Y-115749999D01*
X100950000Y-115749998D01*
X100950000Y-115000001D01*
X101250000Y-115000001D01*
X101250000Y-115749998D01*
X101250001Y-115749999D01*
X101844790Y-115749999D01*
X101844791Y-115749998D01*
X101869874Y-115747090D01*
X101972477Y-115701786D01*
X102051786Y-115622477D01*
X102097090Y-115519872D01*
X102099999Y-115494797D01*
X102100000Y-115494795D01*
X102100000Y-115000001D01*
X102099999Y-115000000D01*
X101250001Y-115000000D01*
X101250000Y-115000001D01*
X100950000Y-115000001D01*
X100949999Y-115000000D01*
X100100002Y-115000000D01*
X100100001Y-115000001D01*
X99800500Y-115000001D01*
X99800500Y-114555123D01*
X99819407Y-114496932D01*
X99829496Y-114485119D01*
X99930996Y-114383619D01*
X99985513Y-114355842D01*
X100045945Y-114365413D01*
X100089210Y-114408678D01*
X100100000Y-114453623D01*
X100100000Y-114699999D01*
X100100001Y-114700000D01*
X102099998Y-114700000D01*
X102099999Y-114699999D01*
X102099999Y-114205210D01*
X102099998Y-114205208D01*
X102097090Y-114180125D01*
X102051786Y-114077522D01*
X101971666Y-113997402D01*
X101943889Y-113942885D01*
X101953460Y-113882453D01*
X101959343Y-113872415D01*
X101988867Y-113828231D01*
X102000500Y-113769748D01*
X102000500Y-112530252D01*
X101988867Y-112471769D01*
X101944552Y-112405448D01*
X101944548Y-112405445D01*
X101878233Y-112361134D01*
X101878231Y-112361133D01*
X101878228Y-112361132D01*
X101878227Y-112361132D01*
X101819758Y-112349501D01*
X101819748Y-112349500D01*
X101819747Y-112349500D01*
X100774500Y-112349500D01*
X100716309Y-112330593D01*
X100680345Y-112281093D01*
X100675500Y-112250500D01*
X100675500Y-111087623D01*
X100677968Y-111080025D01*
X100676719Y-111072137D01*
X100687242Y-111051483D01*
X100694407Y-111029432D01*
X100704496Y-111017620D01*
X100776911Y-110945204D01*
X100831427Y-110917426D01*
X100877636Y-110923923D01*
X100878240Y-110921852D01*
X100885510Y-110923970D01*
X100885513Y-110923972D01*
X100935099Y-110930500D01*
X101294900Y-110930499D01*
X101344487Y-110923972D01*
X101344488Y-110923972D01*
X101443717Y-110877700D01*
X101453316Y-110873224D01*
X101454737Y-110871802D01*
X101456972Y-110870663D01*
X101460411Y-110868256D01*
X101460749Y-110868739D01*
X101509250Y-110844023D01*
X101569682Y-110853590D01*
X101604398Y-110883014D01*
X101620358Y-110904639D01*
X101620360Y-110904641D01*
X101727079Y-110983405D01*
X101852272Y-111027212D01*
X101881999Y-111029999D01*
X101925000Y-111029998D01*
X101925000Y-110570001D01*
X102225000Y-110570001D01*
X102225000Y-111029998D01*
X102225001Y-111029999D01*
X102268004Y-111029999D01*
X102297721Y-111027213D01*
X102297726Y-111027212D01*
X102422920Y-110983405D01*
X102529639Y-110904641D01*
X102529641Y-110904639D01*
X102608405Y-110797920D01*
X102652212Y-110672727D01*
X102655000Y-110643000D01*
X102655000Y-110570001D01*
X102654999Y-110570000D01*
X102225001Y-110570000D01*
X102225000Y-110570001D01*
X101925000Y-110570001D01*
X101925000Y-109810001D01*
X102225000Y-109810001D01*
X102225000Y-110269999D01*
X102225001Y-110270000D01*
X102654998Y-110270000D01*
X102654999Y-110269999D01*
X102654999Y-110196996D01*
X102652213Y-110167278D01*
X102652212Y-110167273D01*
X102608405Y-110042079D01*
X102529641Y-109935360D01*
X102529639Y-109935358D01*
X102422920Y-109856594D01*
X102297727Y-109812787D01*
X102268000Y-109810000D01*
X102225001Y-109810000D01*
X102225000Y-109810001D01*
X101925000Y-109810001D01*
X101925000Y-109809999D01*
X101881997Y-109810000D01*
X101852278Y-109812786D01*
X101852273Y-109812787D01*
X101727079Y-109856594D01*
X101620360Y-109935358D01*
X101620356Y-109935362D01*
X101604397Y-109956986D01*
X101554628Y-109992577D01*
X101493445Y-109992118D01*
X101460430Y-109971716D01*
X101460411Y-109971744D01*
X101459936Y-109971411D01*
X101454741Y-109968201D01*
X101453316Y-109966776D01*
X101453314Y-109966775D01*
X101453313Y-109966774D01*
X101344489Y-109916029D01*
X101344488Y-109916028D01*
X101319694Y-109912764D01*
X101294901Y-109909500D01*
X101294900Y-109909500D01*
X101035124Y-109909500D01*
X100976933Y-109890593D01*
X100965120Y-109880504D01*
X100653620Y-109569004D01*
X100625843Y-109514487D01*
X100635414Y-109454055D01*
X100678679Y-109410790D01*
X100723624Y-109400000D01*
X103458992Y-109400000D01*
X103517183Y-109418907D01*
X103528996Y-109428996D01*
X103771004Y-109671004D01*
X103798781Y-109725521D01*
X103800000Y-109741008D01*
X103800000Y-117101000D01*
X103781093Y-117159191D01*
X103731593Y-117195155D01*
X103701000Y-117200000D01*
X96699000Y-117200000D01*
X96640809Y-117181093D01*
X96604845Y-117131593D01*
X96600000Y-117101000D01*
X96600000Y-112505202D01*
X97900000Y-112505202D01*
X97900000Y-112999999D01*
X97900001Y-113000000D01*
X98749999Y-113000000D01*
X98750000Y-112999999D01*
X98750000Y-112250001D01*
X98749999Y-112250000D01*
X98155210Y-112250000D01*
X98155207Y-112250001D01*
X98130125Y-112252909D01*
X98027522Y-112298213D01*
X97948213Y-112377522D01*
X97902909Y-112480127D01*
X97900000Y-112505202D01*
X96600000Y-112505202D01*
X96600000Y-110570001D01*
X97565001Y-110570001D01*
X97565001Y-110643003D01*
X97567786Y-110672721D01*
X97567787Y-110672726D01*
X97611594Y-110797920D01*
X97690358Y-110904639D01*
X97690360Y-110904641D01*
X97797079Y-110983405D01*
X97922272Y-111027212D01*
X97951999Y-111029999D01*
X97995000Y-111029998D01*
X97995000Y-110570001D01*
X97994999Y-110570000D01*
X97565002Y-110570000D01*
X97565001Y-110570001D01*
X96600000Y-110570001D01*
X96600000Y-110196999D01*
X97565000Y-110196999D01*
X97565000Y-110269999D01*
X97565001Y-110270000D01*
X97994999Y-110270000D01*
X97995000Y-110269999D01*
X97995000Y-109809999D01*
X97951997Y-109810000D01*
X97922278Y-109812786D01*
X97922273Y-109812787D01*
X97797079Y-109856594D01*
X97690360Y-109935358D01*
X97690358Y-109935360D01*
X97611594Y-110042079D01*
X97567787Y-110167272D01*
X97565000Y-110196999D01*
X96600000Y-110196999D01*
X96600000Y-109499000D01*
X96618907Y-109440809D01*
X96668407Y-109404845D01*
X96699000Y-109400000D01*
X99225500Y-109400000D01*
X99283691Y-109418907D01*
G37*
G04 #@! TD.AperFunction*
G04 #@! TA.AperFunction,Conductor*
G36*
X107093039Y-74719685D02*
G01*
X107138794Y-74772489D01*
X107150000Y-74824000D01*
X107150000Y-76192929D01*
X107117500Y-76200000D01*
X106987500Y-76200000D01*
X106987500Y-76330000D01*
X106967815Y-76397039D01*
X106915011Y-76442794D01*
X106863500Y-76454000D01*
X105979500Y-76454000D01*
X105979500Y-76725515D01*
X105990106Y-76829325D01*
X106045841Y-76997522D01*
X106045843Y-76997527D01*
X106138866Y-77148340D01*
X106259412Y-77268886D01*
X106274281Y-77296117D01*
X106290907Y-77322318D01*
X106291240Y-77327175D01*
X106292897Y-77330209D01*
X106295729Y-77357281D01*
X106295679Y-77365793D01*
X106294500Y-77374000D01*
X106294500Y-77570634D01*
X106294498Y-77570982D01*
X106284538Y-77604191D01*
X106274815Y-77637307D01*
X106274535Y-77637549D01*
X106274428Y-77637907D01*
X106248072Y-77660479D01*
X106222011Y-77683062D01*
X106221625Y-77683130D01*
X106221361Y-77683357D01*
X106216724Y-77683996D01*
X106160773Y-77693886D01*
X106136814Y-77692000D01*
X105954000Y-77692000D01*
X105954000Y-80708000D01*
X105976000Y-80708000D01*
X105984685Y-80710550D01*
X105993647Y-80709262D01*
X106017687Y-80720240D01*
X106043039Y-80727685D01*
X106048966Y-80734525D01*
X106057203Y-80738287D01*
X106071492Y-80760521D01*
X106088794Y-80780489D01*
X106091081Y-80791003D01*
X106094977Y-80797065D01*
X106100000Y-80832000D01*
X106100000Y-81026000D01*
X106080315Y-81093039D01*
X106027511Y-81138794D01*
X105976000Y-81150000D01*
X101724000Y-81150000D01*
X101656961Y-81130315D01*
X101611206Y-81077511D01*
X101600000Y-81026000D01*
X101600000Y-79886809D01*
X104442000Y-79886809D01*
X104448066Y-79963891D01*
X104496107Y-80143181D01*
X104580374Y-80308563D01*
X104697184Y-80452815D01*
X104841436Y-80569625D01*
X105006818Y-80653892D01*
X105186108Y-80701933D01*
X105263190Y-80707999D01*
X105263204Y-80708000D01*
X105446000Y-80708000D01*
X105446000Y-79454000D01*
X104442000Y-79454000D01*
X104442000Y-79886809D01*
X101600000Y-79886809D01*
X101600000Y-78513190D01*
X104442000Y-78513190D01*
X104442000Y-78946000D01*
X105446000Y-78946000D01*
X105446000Y-77692000D01*
X105263190Y-77692000D01*
X105186108Y-77698066D01*
X105006818Y-77746107D01*
X104841436Y-77830374D01*
X104697184Y-77947184D01*
X104580374Y-78091436D01*
X104496107Y-78256818D01*
X104448066Y-78436108D01*
X104442000Y-78513190D01*
X101600000Y-78513190D01*
X101600000Y-75924000D01*
X101619685Y-75856961D01*
X101672489Y-75811206D01*
X101724000Y-75800000D01*
X104300000Y-75800000D01*
X104300000Y-75674484D01*
X105979500Y-75674484D01*
X105979500Y-75946000D01*
X106733500Y-75946000D01*
X106733500Y-74967000D01*
X106686984Y-74967000D01*
X106583174Y-74977606D01*
X106414977Y-75033341D01*
X106414972Y-75033343D01*
X106264159Y-75126366D01*
X106138866Y-75251659D01*
X106045843Y-75402472D01*
X106045841Y-75402477D01*
X105990106Y-75570674D01*
X105979500Y-75674484D01*
X104300000Y-75674484D01*
X104300000Y-74824000D01*
X104319685Y-74756961D01*
X104372489Y-74711206D01*
X104424000Y-74700000D01*
X107026000Y-74700000D01*
X107093039Y-74719685D01*
G37*
G04 #@! TD.AperFunction*
M02*
