G04 #@! TF.GenerationSoftware,KiCad,Pcbnew,9.0.5*
G04 #@! TF.CreationDate,2025-11-21T14:26:13-06:00*
G04 #@! TF.ProjectId,ece362snakegamepcb,65636533-3632-4736-9e61-6b6567616d65,REV3*
G04 #@! TF.SameCoordinates,Original*
G04 #@! TF.FileFunction,Legend,Bot*
G04 #@! TF.FilePolarity,Positive*
%FSLAX46Y46*%
G04 Gerber Fmt 4.6, Leading zero omitted, Abs format (unit mm)*
G04 Created by KiCad (PCBNEW 9.0.5) date 2025-11-21 14:26:13*
%MOMM*%
%LPD*%
G01*
G04 APERTURE LIST*
G04 Aperture macros list*
%AMRoundRect*
0 Rectangle with rounded corners*
0 $1 Rounding radius*
0 $2 $3 $4 $5 $6 $7 $8 $9 X,Y pos of 4 corners*
0 Add a 4 corners polygon primitive as box body*
4,1,4,$2,$3,$4,$5,$6,$7,$8,$9,$2,$3,0*
0 Add four circle primitives for the rounded corners*
1,1,$1+$1,$2,$3*
1,1,$1+$1,$4,$5*
1,1,$1+$1,$6,$7*
1,1,$1+$1,$8,$9*
0 Add four rect primitives between the rounded corners*
20,1,$1+$1,$2,$3,$4,$5,0*
20,1,$1+$1,$4,$5,$6,$7,0*
20,1,$1+$1,$6,$7,$8,$9,0*
20,1,$1+$1,$8,$9,$2,$3,0*%
G04 Aperture macros list end*
%ADD10C,0.150000*%
%ADD11C,0.120000*%
%ADD12C,0.600000*%
%ADD13O,1.350000X1.700000*%
%ADD14O,1.100000X1.500000*%
%ADD15C,3.500000*%
%ADD16R,1.905000X2.000000*%
%ADD17O,1.905000X2.000000*%
%ADD18R,1.700000X1.700000*%
%ADD19C,1.700000*%
%ADD20C,1.600000*%
%ADD21C,1.100000*%
%ADD22RoundRect,0.249999X-0.850001X0.850001X-0.850001X-0.850001X0.850001X-0.850001X0.850001X0.850001X0*%
%ADD23C,2.200000*%
%ADD24C,0.990600*%
%ADD25RoundRect,0.150000X-0.825000X-0.150000X0.825000X-0.150000X0.825000X0.150000X-0.825000X0.150000X0*%
%ADD26RoundRect,0.135000X-0.135000X-0.185000X0.135000X-0.185000X0.135000X0.185000X-0.135000X0.185000X0*%
%ADD27RoundRect,0.150000X0.650000X0.150000X-0.650000X0.150000X-0.650000X-0.150000X0.650000X-0.150000X0*%
%ADD28RoundRect,0.140000X0.140000X0.170000X-0.140000X0.170000X-0.140000X-0.170000X0.140000X-0.170000X0*%
%ADD29RoundRect,0.135000X-0.185000X0.135000X-0.185000X-0.135000X0.185000X-0.135000X0.185000X0.135000X0*%
%ADD30RoundRect,0.100000X0.850000X0.100000X-0.850000X0.100000X-0.850000X-0.100000X0.850000X-0.100000X0*%
%ADD31RoundRect,0.250000X0.250000X0.475000X-0.250000X0.475000X-0.250000X-0.475000X0.250000X-0.475000X0*%
G04 APERTURE END LIST*
D10*
X86261904Y-100354819D02*
X86261904Y-101164342D01*
X86261904Y-101164342D02*
X86214285Y-101259580D01*
X86214285Y-101259580D02*
X86166666Y-101307200D01*
X86166666Y-101307200D02*
X86071428Y-101354819D01*
X86071428Y-101354819D02*
X85880952Y-101354819D01*
X85880952Y-101354819D02*
X85785714Y-101307200D01*
X85785714Y-101307200D02*
X85738095Y-101259580D01*
X85738095Y-101259580D02*
X85690476Y-101164342D01*
X85690476Y-101164342D02*
X85690476Y-100354819D01*
X84738095Y-100354819D02*
X85214285Y-100354819D01*
X85214285Y-100354819D02*
X85261904Y-100831009D01*
X85261904Y-100831009D02*
X85214285Y-100783390D01*
X85214285Y-100783390D02*
X85119047Y-100735771D01*
X85119047Y-100735771D02*
X84880952Y-100735771D01*
X84880952Y-100735771D02*
X84785714Y-100783390D01*
X84785714Y-100783390D02*
X84738095Y-100831009D01*
X84738095Y-100831009D02*
X84690476Y-100926247D01*
X84690476Y-100926247D02*
X84690476Y-101164342D01*
X84690476Y-101164342D02*
X84738095Y-101259580D01*
X84738095Y-101259580D02*
X84785714Y-101307200D01*
X84785714Y-101307200D02*
X84880952Y-101354819D01*
X84880952Y-101354819D02*
X85119047Y-101354819D01*
X85119047Y-101354819D02*
X85214285Y-101307200D01*
X85214285Y-101307200D02*
X85261904Y-101259580D01*
X85142857Y-95624819D02*
X85476190Y-95148628D01*
X85714285Y-95624819D02*
X85714285Y-94624819D01*
X85714285Y-94624819D02*
X85333333Y-94624819D01*
X85333333Y-94624819D02*
X85238095Y-94672438D01*
X85238095Y-94672438D02*
X85190476Y-94720057D01*
X85190476Y-94720057D02*
X85142857Y-94815295D01*
X85142857Y-94815295D02*
X85142857Y-94958152D01*
X85142857Y-94958152D02*
X85190476Y-95053390D01*
X85190476Y-95053390D02*
X85238095Y-95101009D01*
X85238095Y-95101009D02*
X85333333Y-95148628D01*
X85333333Y-95148628D02*
X85714285Y-95148628D01*
X84190476Y-95624819D02*
X84761904Y-95624819D01*
X84476190Y-95624819D02*
X84476190Y-94624819D01*
X84476190Y-94624819D02*
X84571428Y-94767676D01*
X84571428Y-94767676D02*
X84666666Y-94862914D01*
X84666666Y-94862914D02*
X84761904Y-94910533D01*
X83333333Y-94624819D02*
X83523809Y-94624819D01*
X83523809Y-94624819D02*
X83619047Y-94672438D01*
X83619047Y-94672438D02*
X83666666Y-94720057D01*
X83666666Y-94720057D02*
X83761904Y-94862914D01*
X83761904Y-94862914D02*
X83809523Y-95053390D01*
X83809523Y-95053390D02*
X83809523Y-95434342D01*
X83809523Y-95434342D02*
X83761904Y-95529580D01*
X83761904Y-95529580D02*
X83714285Y-95577200D01*
X83714285Y-95577200D02*
X83619047Y-95624819D01*
X83619047Y-95624819D02*
X83428571Y-95624819D01*
X83428571Y-95624819D02*
X83333333Y-95577200D01*
X83333333Y-95577200D02*
X83285714Y-95529580D01*
X83285714Y-95529580D02*
X83238095Y-95434342D01*
X83238095Y-95434342D02*
X83238095Y-95196247D01*
X83238095Y-95196247D02*
X83285714Y-95101009D01*
X83285714Y-95101009D02*
X83333333Y-95053390D01*
X83333333Y-95053390D02*
X83428571Y-95005771D01*
X83428571Y-95005771D02*
X83619047Y-95005771D01*
X83619047Y-95005771D02*
X83714285Y-95053390D01*
X83714285Y-95053390D02*
X83761904Y-95101009D01*
X83761904Y-95101009D02*
X83809523Y-95196247D01*
X93761904Y-90254819D02*
X93761904Y-91064342D01*
X93761904Y-91064342D02*
X93714285Y-91159580D01*
X93714285Y-91159580D02*
X93666666Y-91207200D01*
X93666666Y-91207200D02*
X93571428Y-91254819D01*
X93571428Y-91254819D02*
X93380952Y-91254819D01*
X93380952Y-91254819D02*
X93285714Y-91207200D01*
X93285714Y-91207200D02*
X93238095Y-91159580D01*
X93238095Y-91159580D02*
X93190476Y-91064342D01*
X93190476Y-91064342D02*
X93190476Y-90254819D01*
X92285714Y-90588152D02*
X92285714Y-91254819D01*
X92523809Y-90207200D02*
X92761904Y-90921485D01*
X92761904Y-90921485D02*
X92142857Y-90921485D01*
X85142857Y-94124819D02*
X85476190Y-93648628D01*
X85714285Y-94124819D02*
X85714285Y-93124819D01*
X85714285Y-93124819D02*
X85333333Y-93124819D01*
X85333333Y-93124819D02*
X85238095Y-93172438D01*
X85238095Y-93172438D02*
X85190476Y-93220057D01*
X85190476Y-93220057D02*
X85142857Y-93315295D01*
X85142857Y-93315295D02*
X85142857Y-93458152D01*
X85142857Y-93458152D02*
X85190476Y-93553390D01*
X85190476Y-93553390D02*
X85238095Y-93601009D01*
X85238095Y-93601009D02*
X85333333Y-93648628D01*
X85333333Y-93648628D02*
X85714285Y-93648628D01*
X84190476Y-94124819D02*
X84761904Y-94124819D01*
X84476190Y-94124819D02*
X84476190Y-93124819D01*
X84476190Y-93124819D02*
X84571428Y-93267676D01*
X84571428Y-93267676D02*
X84666666Y-93362914D01*
X84666666Y-93362914D02*
X84761904Y-93410533D01*
X83285714Y-93124819D02*
X83761904Y-93124819D01*
X83761904Y-93124819D02*
X83809523Y-93601009D01*
X83809523Y-93601009D02*
X83761904Y-93553390D01*
X83761904Y-93553390D02*
X83666666Y-93505771D01*
X83666666Y-93505771D02*
X83428571Y-93505771D01*
X83428571Y-93505771D02*
X83333333Y-93553390D01*
X83333333Y-93553390D02*
X83285714Y-93601009D01*
X83285714Y-93601009D02*
X83238095Y-93696247D01*
X83238095Y-93696247D02*
X83238095Y-93934342D01*
X83238095Y-93934342D02*
X83285714Y-94029580D01*
X83285714Y-94029580D02*
X83333333Y-94077200D01*
X83333333Y-94077200D02*
X83428571Y-94124819D01*
X83428571Y-94124819D02*
X83666666Y-94124819D01*
X83666666Y-94124819D02*
X83761904Y-94077200D01*
X83761904Y-94077200D02*
X83809523Y-94029580D01*
X116142857Y-84199580D02*
X116190476Y-84247200D01*
X116190476Y-84247200D02*
X116333333Y-84294819D01*
X116333333Y-84294819D02*
X116428571Y-84294819D01*
X116428571Y-84294819D02*
X116571428Y-84247200D01*
X116571428Y-84247200D02*
X116666666Y-84151961D01*
X116666666Y-84151961D02*
X116714285Y-84056723D01*
X116714285Y-84056723D02*
X116761904Y-83866247D01*
X116761904Y-83866247D02*
X116761904Y-83723390D01*
X116761904Y-83723390D02*
X116714285Y-83532914D01*
X116714285Y-83532914D02*
X116666666Y-83437676D01*
X116666666Y-83437676D02*
X116571428Y-83342438D01*
X116571428Y-83342438D02*
X116428571Y-83294819D01*
X116428571Y-83294819D02*
X116333333Y-83294819D01*
X116333333Y-83294819D02*
X116190476Y-83342438D01*
X116190476Y-83342438D02*
X116142857Y-83390057D01*
X115761904Y-83390057D02*
X115714285Y-83342438D01*
X115714285Y-83342438D02*
X115619047Y-83294819D01*
X115619047Y-83294819D02*
X115380952Y-83294819D01*
X115380952Y-83294819D02*
X115285714Y-83342438D01*
X115285714Y-83342438D02*
X115238095Y-83390057D01*
X115238095Y-83390057D02*
X115190476Y-83485295D01*
X115190476Y-83485295D02*
X115190476Y-83580533D01*
X115190476Y-83580533D02*
X115238095Y-83723390D01*
X115238095Y-83723390D02*
X115809523Y-84294819D01*
X115809523Y-84294819D02*
X115190476Y-84294819D01*
X114857142Y-83294819D02*
X114190476Y-83294819D01*
X114190476Y-83294819D02*
X114619047Y-84294819D01*
X93742857Y-80454819D02*
X94076190Y-79978628D01*
X94314285Y-80454819D02*
X94314285Y-79454819D01*
X94314285Y-79454819D02*
X93933333Y-79454819D01*
X93933333Y-79454819D02*
X93838095Y-79502438D01*
X93838095Y-79502438D02*
X93790476Y-79550057D01*
X93790476Y-79550057D02*
X93742857Y-79645295D01*
X93742857Y-79645295D02*
X93742857Y-79788152D01*
X93742857Y-79788152D02*
X93790476Y-79883390D01*
X93790476Y-79883390D02*
X93838095Y-79931009D01*
X93838095Y-79931009D02*
X93933333Y-79978628D01*
X93933333Y-79978628D02*
X94314285Y-79978628D01*
X92790476Y-80454819D02*
X93361904Y-80454819D01*
X93076190Y-80454819D02*
X93076190Y-79454819D01*
X93076190Y-79454819D02*
X93171428Y-79597676D01*
X93171428Y-79597676D02*
X93266666Y-79692914D01*
X93266666Y-79692914D02*
X93361904Y-79740533D01*
X91838095Y-80454819D02*
X92409523Y-80454819D01*
X92123809Y-80454819D02*
X92123809Y-79454819D01*
X92123809Y-79454819D02*
X92219047Y-79597676D01*
X92219047Y-79597676D02*
X92314285Y-79692914D01*
X92314285Y-79692914D02*
X92409523Y-79740533D01*
X91942857Y-83724819D02*
X92276190Y-83248628D01*
X92514285Y-83724819D02*
X92514285Y-82724819D01*
X92514285Y-82724819D02*
X92133333Y-82724819D01*
X92133333Y-82724819D02*
X92038095Y-82772438D01*
X92038095Y-82772438D02*
X91990476Y-82820057D01*
X91990476Y-82820057D02*
X91942857Y-82915295D01*
X91942857Y-82915295D02*
X91942857Y-83058152D01*
X91942857Y-83058152D02*
X91990476Y-83153390D01*
X91990476Y-83153390D02*
X92038095Y-83201009D01*
X92038095Y-83201009D02*
X92133333Y-83248628D01*
X92133333Y-83248628D02*
X92514285Y-83248628D01*
X90990476Y-83724819D02*
X91561904Y-83724819D01*
X91276190Y-83724819D02*
X91276190Y-82724819D01*
X91276190Y-82724819D02*
X91371428Y-82867676D01*
X91371428Y-82867676D02*
X91466666Y-82962914D01*
X91466666Y-82962914D02*
X91561904Y-83010533D01*
X90657142Y-82724819D02*
X90038095Y-82724819D01*
X90038095Y-82724819D02*
X90371428Y-83105771D01*
X90371428Y-83105771D02*
X90228571Y-83105771D01*
X90228571Y-83105771D02*
X90133333Y-83153390D01*
X90133333Y-83153390D02*
X90085714Y-83201009D01*
X90085714Y-83201009D02*
X90038095Y-83296247D01*
X90038095Y-83296247D02*
X90038095Y-83534342D01*
X90038095Y-83534342D02*
X90085714Y-83629580D01*
X90085714Y-83629580D02*
X90133333Y-83677200D01*
X90133333Y-83677200D02*
X90228571Y-83724819D01*
X90228571Y-83724819D02*
X90514285Y-83724819D01*
X90514285Y-83724819D02*
X90609523Y-83677200D01*
X90609523Y-83677200D02*
X90657142Y-83629580D01*
X89242857Y-81299580D02*
X89290476Y-81347200D01*
X89290476Y-81347200D02*
X89433333Y-81394819D01*
X89433333Y-81394819D02*
X89528571Y-81394819D01*
X89528571Y-81394819D02*
X89671428Y-81347200D01*
X89671428Y-81347200D02*
X89766666Y-81251961D01*
X89766666Y-81251961D02*
X89814285Y-81156723D01*
X89814285Y-81156723D02*
X89861904Y-80966247D01*
X89861904Y-80966247D02*
X89861904Y-80823390D01*
X89861904Y-80823390D02*
X89814285Y-80632914D01*
X89814285Y-80632914D02*
X89766666Y-80537676D01*
X89766666Y-80537676D02*
X89671428Y-80442438D01*
X89671428Y-80442438D02*
X89528571Y-80394819D01*
X89528571Y-80394819D02*
X89433333Y-80394819D01*
X89433333Y-80394819D02*
X89290476Y-80442438D01*
X89290476Y-80442438D02*
X89242857Y-80490057D01*
X88861904Y-80490057D02*
X88814285Y-80442438D01*
X88814285Y-80442438D02*
X88719047Y-80394819D01*
X88719047Y-80394819D02*
X88480952Y-80394819D01*
X88480952Y-80394819D02*
X88385714Y-80442438D01*
X88385714Y-80442438D02*
X88338095Y-80490057D01*
X88338095Y-80490057D02*
X88290476Y-80585295D01*
X88290476Y-80585295D02*
X88290476Y-80680533D01*
X88290476Y-80680533D02*
X88338095Y-80823390D01*
X88338095Y-80823390D02*
X88909523Y-81394819D01*
X88909523Y-81394819D02*
X88290476Y-81394819D01*
X87909523Y-80490057D02*
X87861904Y-80442438D01*
X87861904Y-80442438D02*
X87766666Y-80394819D01*
X87766666Y-80394819D02*
X87528571Y-80394819D01*
X87528571Y-80394819D02*
X87433333Y-80442438D01*
X87433333Y-80442438D02*
X87385714Y-80490057D01*
X87385714Y-80490057D02*
X87338095Y-80585295D01*
X87338095Y-80585295D02*
X87338095Y-80680533D01*
X87338095Y-80680533D02*
X87385714Y-80823390D01*
X87385714Y-80823390D02*
X87957142Y-81394819D01*
X87957142Y-81394819D02*
X87338095Y-81394819D01*
X115761904Y-75404819D02*
X115761904Y-76214342D01*
X115761904Y-76214342D02*
X115714285Y-76309580D01*
X115714285Y-76309580D02*
X115666666Y-76357200D01*
X115666666Y-76357200D02*
X115571428Y-76404819D01*
X115571428Y-76404819D02*
X115380952Y-76404819D01*
X115380952Y-76404819D02*
X115285714Y-76357200D01*
X115285714Y-76357200D02*
X115238095Y-76309580D01*
X115238095Y-76309580D02*
X115190476Y-76214342D01*
X115190476Y-76214342D02*
X115190476Y-75404819D01*
X114809523Y-75404819D02*
X114142857Y-75404819D01*
X114142857Y-75404819D02*
X114571428Y-76404819D01*
X117142857Y-85679580D02*
X117190476Y-85727200D01*
X117190476Y-85727200D02*
X117333333Y-85774819D01*
X117333333Y-85774819D02*
X117428571Y-85774819D01*
X117428571Y-85774819D02*
X117571428Y-85727200D01*
X117571428Y-85727200D02*
X117666666Y-85631961D01*
X117666666Y-85631961D02*
X117714285Y-85536723D01*
X117714285Y-85536723D02*
X117761904Y-85346247D01*
X117761904Y-85346247D02*
X117761904Y-85203390D01*
X117761904Y-85203390D02*
X117714285Y-85012914D01*
X117714285Y-85012914D02*
X117666666Y-84917676D01*
X117666666Y-84917676D02*
X117571428Y-84822438D01*
X117571428Y-84822438D02*
X117428571Y-84774819D01*
X117428571Y-84774819D02*
X117333333Y-84774819D01*
X117333333Y-84774819D02*
X117190476Y-84822438D01*
X117190476Y-84822438D02*
X117142857Y-84870057D01*
X116761904Y-84870057D02*
X116714285Y-84822438D01*
X116714285Y-84822438D02*
X116619047Y-84774819D01*
X116619047Y-84774819D02*
X116380952Y-84774819D01*
X116380952Y-84774819D02*
X116285714Y-84822438D01*
X116285714Y-84822438D02*
X116238095Y-84870057D01*
X116238095Y-84870057D02*
X116190476Y-84965295D01*
X116190476Y-84965295D02*
X116190476Y-85060533D01*
X116190476Y-85060533D02*
X116238095Y-85203390D01*
X116238095Y-85203390D02*
X116809523Y-85774819D01*
X116809523Y-85774819D02*
X116190476Y-85774819D01*
X115619047Y-85203390D02*
X115714285Y-85155771D01*
X115714285Y-85155771D02*
X115761904Y-85108152D01*
X115761904Y-85108152D02*
X115809523Y-85012914D01*
X115809523Y-85012914D02*
X115809523Y-84965295D01*
X115809523Y-84965295D02*
X115761904Y-84870057D01*
X115761904Y-84870057D02*
X115714285Y-84822438D01*
X115714285Y-84822438D02*
X115619047Y-84774819D01*
X115619047Y-84774819D02*
X115428571Y-84774819D01*
X115428571Y-84774819D02*
X115333333Y-84822438D01*
X115333333Y-84822438D02*
X115285714Y-84870057D01*
X115285714Y-84870057D02*
X115238095Y-84965295D01*
X115238095Y-84965295D02*
X115238095Y-85012914D01*
X115238095Y-85012914D02*
X115285714Y-85108152D01*
X115285714Y-85108152D02*
X115333333Y-85155771D01*
X115333333Y-85155771D02*
X115428571Y-85203390D01*
X115428571Y-85203390D02*
X115619047Y-85203390D01*
X115619047Y-85203390D02*
X115714285Y-85251009D01*
X115714285Y-85251009D02*
X115761904Y-85298628D01*
X115761904Y-85298628D02*
X115809523Y-85393866D01*
X115809523Y-85393866D02*
X115809523Y-85584342D01*
X115809523Y-85584342D02*
X115761904Y-85679580D01*
X115761904Y-85679580D02*
X115714285Y-85727200D01*
X115714285Y-85727200D02*
X115619047Y-85774819D01*
X115619047Y-85774819D02*
X115428571Y-85774819D01*
X115428571Y-85774819D02*
X115333333Y-85727200D01*
X115333333Y-85727200D02*
X115285714Y-85679580D01*
X115285714Y-85679580D02*
X115238095Y-85584342D01*
X115238095Y-85584342D02*
X115238095Y-85393866D01*
X115238095Y-85393866D02*
X115285714Y-85298628D01*
X115285714Y-85298628D02*
X115333333Y-85251009D01*
X115333333Y-85251009D02*
X115428571Y-85203390D01*
X87142857Y-101199580D02*
X87190476Y-101247200D01*
X87190476Y-101247200D02*
X87333333Y-101294819D01*
X87333333Y-101294819D02*
X87428571Y-101294819D01*
X87428571Y-101294819D02*
X87571428Y-101247200D01*
X87571428Y-101247200D02*
X87666666Y-101151961D01*
X87666666Y-101151961D02*
X87714285Y-101056723D01*
X87714285Y-101056723D02*
X87761904Y-100866247D01*
X87761904Y-100866247D02*
X87761904Y-100723390D01*
X87761904Y-100723390D02*
X87714285Y-100532914D01*
X87714285Y-100532914D02*
X87666666Y-100437676D01*
X87666666Y-100437676D02*
X87571428Y-100342438D01*
X87571428Y-100342438D02*
X87428571Y-100294819D01*
X87428571Y-100294819D02*
X87333333Y-100294819D01*
X87333333Y-100294819D02*
X87190476Y-100342438D01*
X87190476Y-100342438D02*
X87142857Y-100390057D01*
X86761904Y-100390057D02*
X86714285Y-100342438D01*
X86714285Y-100342438D02*
X86619047Y-100294819D01*
X86619047Y-100294819D02*
X86380952Y-100294819D01*
X86380952Y-100294819D02*
X86285714Y-100342438D01*
X86285714Y-100342438D02*
X86238095Y-100390057D01*
X86238095Y-100390057D02*
X86190476Y-100485295D01*
X86190476Y-100485295D02*
X86190476Y-100580533D01*
X86190476Y-100580533D02*
X86238095Y-100723390D01*
X86238095Y-100723390D02*
X86809523Y-101294819D01*
X86809523Y-101294819D02*
X86190476Y-101294819D01*
X85857142Y-100294819D02*
X85238095Y-100294819D01*
X85238095Y-100294819D02*
X85571428Y-100675771D01*
X85571428Y-100675771D02*
X85428571Y-100675771D01*
X85428571Y-100675771D02*
X85333333Y-100723390D01*
X85333333Y-100723390D02*
X85285714Y-100771009D01*
X85285714Y-100771009D02*
X85238095Y-100866247D01*
X85238095Y-100866247D02*
X85238095Y-101104342D01*
X85238095Y-101104342D02*
X85285714Y-101199580D01*
X85285714Y-101199580D02*
X85333333Y-101247200D01*
X85333333Y-101247200D02*
X85428571Y-101294819D01*
X85428571Y-101294819D02*
X85714285Y-101294819D01*
X85714285Y-101294819D02*
X85809523Y-101247200D01*
X85809523Y-101247200D02*
X85857142Y-101199580D01*
D11*
X83440000Y-94940000D02*
X83440000Y-95035000D01*
X83440000Y-99965000D02*
X83440000Y-100060000D01*
X83440000Y-100060000D02*
X87560000Y-100060000D01*
X87560000Y-94940000D02*
X83440000Y-94940000D01*
X87560000Y-95035000D02*
X87560000Y-94940000D01*
X87560000Y-100060000D02*
X87560000Y-99965000D01*
X83140000Y-100300000D02*
X82660000Y-100300000D01*
X82900000Y-99970000D01*
X83140000Y-100300000D01*
G36*
X83140000Y-100300000D02*
G01*
X82660000Y-100300000D01*
X82900000Y-99970000D01*
X83140000Y-100300000D01*
G37*
X84346359Y-93620000D02*
X84653641Y-93620000D01*
X84346359Y-94380000D02*
X84653641Y-94380000D01*
X90275000Y-84475000D02*
X90275000Y-84735000D01*
X90275000Y-89925000D02*
X90275000Y-89665000D01*
X93000000Y-84475000D02*
X90275000Y-84475000D01*
X93000000Y-84475000D02*
X95725000Y-84475000D01*
X93000000Y-89925000D02*
X90275000Y-89925000D01*
X93000000Y-89925000D02*
X95725000Y-89925000D01*
X95725000Y-84475000D02*
X95725000Y-84735000D01*
X95725000Y-84735000D02*
X97400000Y-84735000D01*
X95725000Y-89925000D02*
X95725000Y-89665000D01*
X84346359Y-92120000D02*
X84653641Y-92120000D01*
X84346359Y-92880000D02*
X84653641Y-92880000D01*
X115607836Y-84640000D02*
X115392164Y-84640000D01*
X115607836Y-85360000D02*
X115392164Y-85360000D01*
X92720000Y-81436359D02*
X92720000Y-81743641D01*
X93480000Y-81436359D02*
X93480000Y-81743641D01*
X91146359Y-81720000D02*
X91453641Y-81720000D01*
X91146359Y-82480000D02*
X91453641Y-82480000D01*
X88707836Y-81740000D02*
X88492164Y-81740000D01*
X88707836Y-82460000D02*
X88492164Y-82460000D01*
X112240000Y-76790000D02*
X112240000Y-77590000D01*
X112240000Y-82410000D02*
X112240000Y-83210000D01*
X112240000Y-83210000D02*
X117760000Y-83210000D01*
X117760000Y-76790000D02*
X112240000Y-76790000D01*
X117760000Y-77590000D02*
X117760000Y-76790000D01*
X117760000Y-83210000D02*
X117760000Y-82410000D01*
X118500000Y-77590000D02*
X118160000Y-77120000D01*
X118840000Y-77120000D01*
X118500000Y-77590000D01*
G36*
X118500000Y-77590000D02*
G01*
X118160000Y-77120000D01*
X118840000Y-77120000D01*
X118500000Y-77590000D01*
G37*
X116761252Y-86265000D02*
X116238748Y-86265000D01*
X116761252Y-87735000D02*
X116238748Y-87735000D01*
X86607836Y-101640000D02*
X86392164Y-101640000D01*
X86607836Y-102360000D02*
X86392164Y-102360000D01*
%LPC*%
D12*
X98866667Y-98866667D03*
X98866667Y-100000000D03*
X98866667Y-101133333D03*
X100000000Y-98866667D03*
X100000000Y-100000000D03*
X100000000Y-101133333D03*
X101133333Y-98866667D03*
X101133333Y-100000000D03*
X101133333Y-101133333D03*
D13*
X102730000Y-71720000D03*
D14*
X102420000Y-74720000D03*
X97580000Y-74720000D03*
D13*
X97270000Y-71720000D03*
D15*
X119460000Y-114160000D03*
D16*
X122000000Y-97500000D03*
D17*
X119460000Y-97500000D03*
X116920000Y-97500000D03*
D18*
X75385000Y-111850000D03*
D19*
X75385000Y-109310000D03*
X75385000Y-106770000D03*
X75385000Y-104230000D03*
X75385000Y-101690000D03*
X75385000Y-99150000D03*
D18*
X111500000Y-72000000D03*
D19*
X108960000Y-72000000D03*
D20*
X115452500Y-73176951D03*
X117952500Y-73176951D03*
D21*
X120960000Y-77500000D03*
X120960000Y-80040000D03*
D22*
X123500000Y-77500000D03*
D23*
X123500000Y-80040000D03*
D24*
X79500000Y-98460000D03*
X80516000Y-103540000D03*
X78484000Y-103540000D03*
D18*
X87000000Y-109000000D03*
D19*
X87000000Y-106460000D03*
D18*
X82500000Y-109000000D03*
D19*
X82500000Y-106460000D03*
D21*
X120460000Y-84500000D03*
X120460000Y-87040000D03*
D22*
X123000000Y-84500000D03*
D23*
X123000000Y-87040000D03*
D18*
X78000000Y-95000000D03*
D19*
X75460000Y-95000000D03*
X78000000Y-92460000D03*
X75460000Y-92460000D03*
X78000000Y-89920000D03*
X75460000Y-89920000D03*
X78000000Y-87380000D03*
X75460000Y-87380000D03*
X78000000Y-84840000D03*
X75460000Y-84840000D03*
X78000000Y-82300000D03*
X75460000Y-82300000D03*
X78000000Y-79760000D03*
X75460000Y-79760000D03*
X78000000Y-77220000D03*
X75460000Y-77220000D03*
D25*
X83025000Y-99405000D03*
X83025000Y-98135000D03*
X83025000Y-96865000D03*
X83025000Y-95595000D03*
X87975000Y-95595000D03*
X87975000Y-96865000D03*
X87975000Y-98135000D03*
X87975000Y-99405000D03*
D26*
X83990000Y-94000000D03*
X85010000Y-94000000D03*
D27*
X96600000Y-85295000D03*
X96600000Y-86565000D03*
X96600000Y-87835000D03*
X96600000Y-89105000D03*
X89400000Y-89105000D03*
X89400000Y-87835000D03*
X89400000Y-86565000D03*
X89400000Y-85295000D03*
D26*
X83990000Y-92500000D03*
X85010000Y-92500000D03*
D28*
X115980000Y-85000000D03*
X115020000Y-85000000D03*
D29*
X93100000Y-81080000D03*
X93100000Y-82100000D03*
D26*
X90790000Y-82100000D03*
X91810000Y-82100000D03*
D28*
X89080000Y-82100000D03*
X88120000Y-82100000D03*
D30*
X118500000Y-78050000D03*
X118500000Y-78700000D03*
X118500000Y-79350000D03*
X118500000Y-80000000D03*
X118500000Y-80650000D03*
X118500000Y-81300000D03*
X118500000Y-81950000D03*
X111500000Y-81950000D03*
X111500000Y-81300000D03*
X111500000Y-80650000D03*
X111500000Y-80000000D03*
X111500000Y-79350000D03*
X111500000Y-78700000D03*
X111500000Y-78050000D03*
D31*
X117450000Y-87000000D03*
X115550000Y-87000000D03*
D28*
X86980000Y-102000000D03*
X86020000Y-102000000D03*
%LPD*%
M02*
